<svg class="partner-logo" viewBox="0 0 270 100" fill="none" xmlns="http://www.w3.org/2000/svg">
<rect x="0" y="0" width="270" height="100" stroke="none" fill="none"/>
<g clip-path="url(#clip0_4775_57202)">
<path d="M78.9984 58.1275C78.9984 59.1275 79.0984 59.4275 80.0984 59.5275L81.6984 59.6275V60.5275H72.9984V59.6275L74.4984 59.5275C75.3984 59.4275 75.5984 59.1275 75.5984 58.1275V44.3275H74.3984C71.8984 44.3275 71.5984 45.2275 70.7984 47.8275H69.8984V43.2275H84.7984V47.9275H83.8984C83.1984 45.2275 82.7984 44.3275 80.3984 44.3275H78.9984V58.1275Z" fill="#BBBBBB"/>
<path d="M90.7953 45.6275C90.7953 44.3275 90.5953 44.2275 88.6953 44.1275V43.2275H101.895V47.7275H100.995C100.295 45.2275 99.8953 44.3275 97.2953 44.3275H95.0953C94.3953 44.3275 94.1953 44.5275 94.1953 45.2275V50.9275H97.0953C98.7953 50.9275 99.0953 50.4275 99.3953 48.6275H100.295V54.3275H99.3953C99.0953 52.5275 98.7953 52.1275 97.0953 52.1275H94.1953V57.5275C94.1953 59.1275 94.3953 59.4275 97.1953 59.4275C100.195 59.4275 101.095 58.4275 101.895 55.6275H102.695L102.595 60.5275H88.7953V59.6275C90.6953 59.5275 90.7953 59.4275 90.7953 58.1275V45.6275Z" fill="#BBBBBB"/>
<path d="M106.797 60.5275V59.6275C108.097 59.5275 108.497 59.6275 108.697 58.2275C108.797 57.3275 108.797 56.4275 108.797 54.5275V45.6275C108.797 44.3275 108.597 44.2275 106.797 44.1275V43.2275H113.097C114.397 46.6275 116.697 52.5275 117.797 55.3275H117.897C119.297 51.6275 121.397 46.8275 122.697 43.2275H128.697V44.1275C126.797 44.1275 126.497 44.2275 126.497 45.5275V58.0275C126.497 59.3275 126.697 59.5275 128.597 59.6275V60.5275H121.197V59.6275C123.097 59.5275 123.197 59.4275 123.197 58.1275V45.6275H123.097C121.597 49.5275 118.397 57.5275 117.397 60.3275H116.097C114.497 55.9275 111.497 49.0275 110.197 45.6275V45.7275V54.6275C110.197 56.5275 110.197 57.5275 110.297 58.3275C110.497 59.8275 111.297 59.5275 112.697 59.6275V60.5275H106.797Z" fill="#BBBBBB"/>
<path d="M141.2 60.5283V59.6283H142.6C143.2 59.5283 143.3 59.3283 143.1 58.7283C142.7 57.3283 141.9 55.2283 141.6 54.2283H136.6C136.1 55.7283 135.6 57.4283 135.3 58.5283C135.1 59.0283 135.2 59.4283 135.8 59.5283H137.3V60.4283H131.5V59.5283C133 59.4283 133.1 59.4283 133.6 58.1283C135.1 54.5283 137.4 47.7283 139 43.0283H141.7C143.1 47.3283 145.7 54.8283 146.8 58.3283C147.1 59.4283 147.5 59.5283 148.9 59.5283V60.4283H141.2V60.5283ZM139.1 46.2283C138.5 48.0283 137.5 50.9283 136.9 53.1283H141.2C140.6 51.4283 139.7 47.9283 139.1 46.2283Z" fill="#BBBBBB"/>
<path d="M162 47.9291C161.4 45.1291 159.9 43.9291 158.2 43.9291C156.5 43.9291 155.5 45.1291 155.5 46.7291C155.5 48.6291 157.3 49.4291 159.2 50.3291C161.7 51.4291 164 52.4291 164 55.7291C164 58.3291 162.4 61.1291 157.5 61.1291C155.8 61.1291 153.5 60.8291 152.3 59.6291L152 55.1291H152.9C153.8 58.2291 155.5 59.9291 157.6 59.9291C159.4 59.9291 160.8 58.9291 160.8 57.0291C160.8 55.3291 159.6 54.2291 157.4 53.3291C154.6 52.1291 152.2 50.8291 152.2 48.0291C152.2 44.9291 154.3 42.8291 158.3 42.8291C159.9 42.8291 161.8 43.2291 163 43.9291V47.9291H162Z" fill="#BBBBBB"/>
<path d="M170.897 45.6275C170.897 44.3275 170.697 44.2275 168.897 44.1275V43.2275H182.197V47.7275H181.297C180.597 45.2275 180.197 44.3275 177.497 44.3275H175.597C174.897 44.3275 174.697 44.5275 174.697 45.2275V50.9275H177.197C178.897 50.9275 179.197 50.4275 179.497 48.6275H180.397V54.5275H179.497C179.197 52.7275 178.897 52.1275 177.197 52.1275H174.697V57.5275C174.697 59.1275 174.897 59.4275 177.697 59.4275C180.697 59.4275 181.397 58.2275 182.197 55.4275H183.097L182.697 60.5275H168.797V59.6275C170.697 59.5275 170.797 59.4275 170.797 58.1275V45.6275H170.897Z" fill="#BBBBBB"/>
<path d="M189.195 45.6275C189.195 44.3275 188.995 44.2275 187.195 44.1275V43.2275H194.795V44.1275C192.895 44.2275 192.795 44.3275 192.795 45.6275V58.1275C192.795 59.4275 192.995 59.5275 194.895 59.6275V60.5275H187.295V59.6275C189.195 59.5275 189.295 59.4275 189.295 58.1275V45.6275H189.195ZM198.395 44.2275L197.295 44.1275V43.2275H203.895V44.1275C202.195 44.2275 201.495 44.6275 200.495 45.3275C198.795 46.7275 197.395 48.1275 195.495 50.1275C196.995 52.5275 199.295 55.8275 201.495 58.2275C202.195 59.0275 203.095 59.6275 203.795 59.8275L203.695 60.7275L201.995 60.6275C199.195 60.5275 198.095 59.7275 196.395 57.5275C194.995 55.7275 192.395 51.5275 192.395 51.5275C194.395 49.5275 197.095 46.6275 198.395 44.9275C198.795 44.5275 198.795 44.2275 198.395 44.2275Z" fill="#BBBBBB"/>
</g>
<defs>
<clipPath id="clip0_4775_57202">
<rect width="134" height="19" fill="white" transform="translate(69.7969 42.2275)"/>
</clipPath>
</defs>
</svg>
