<svg class="partner-logo" viewBox="0 0 270 100" fill="none" xmlns="http://www.w3.org/2000/svg">
<rect x="0" y="0" width="270" height="100" stroke="none" fill="none"/>
<g clip-path="url(#clip0_4775_57175)">
<path d="M74.0858 54.7138C74.0858 56.7111 72.3738 58.0743 69.6473 58.0743H63.7188V45.8368H69.4571C72.0251 45.8368 73.5151 47.0732 73.5151 49.0072C73.5354 49.5893 73.3717 50.163 73.0473 50.6467C72.7228 51.1305 72.2542 51.4997 71.708 51.702C73.3249 52.0507 74.0858 53.2871 74.0858 54.7138ZM65.8746 50.9728H69.14C70.6618 50.9728 71.4544 50.307 71.4544 49.2608C71.4544 48.3097 70.6618 47.7073 69.1717 47.7073H65.8746V50.9728ZM69.5839 56.1721C71.1691 56.1721 71.9617 55.3796 71.9617 54.4919C71.9617 53.4773 71.074 52.9701 69.6473 52.9701H65.8746V56.1721H69.5839ZM77.8585 50.624C78.2597 50.2191 78.7394 49.9005 79.2683 49.6879C79.7971 49.4752 80.3639 49.373 80.9337 49.3876V51.3215C79.6022 51.3849 78.5877 51.8605 77.8585 52.7482V58.0109H75.7661V49.5461H77.8585V50.624ZM90.096 54.6187H83.5651C83.8188 55.6649 84.6113 56.4892 86.038 56.4892C86.8623 56.4892 87.4646 56.2355 87.75 55.6966H89.9692C89.462 57.2818 87.9402 58.2646 85.9746 58.2646C83.2798 58.2646 81.4727 56.3307 81.4727 53.8261C81.4727 51.3215 83.2798 49.3876 85.9746 49.3876C88.3206 49.3876 90.096 51.1313 90.1277 53.6993C90.1642 54.0056 90.1535 54.3156 90.096 54.6187ZM83.5651 53.0969H88.0353C87.8451 51.8922 87.1476 51.163 85.8795 51.163C84.6113 51.163 83.787 51.9873 83.5651 53.0969ZM100.051 58.0426H97.9902V57.472C97.3308 57.9353 96.5561 58.2071 95.7519 58.2575C94.9476 58.3079 94.145 58.1348 93.433 57.7575C92.7209 57.3801 92.1271 56.8132 91.7173 56.1194C91.3074 55.4255 91.0974 54.6318 91.1105 53.8261C91.0974 53.0203 91.3074 52.2267 91.7173 51.5328C92.1271 50.839 92.7209 50.272 93.433 49.8947C94.145 49.5173 94.9476 49.3443 95.7519 49.3947C96.5561 49.4451 97.3308 49.7169 97.9902 50.1802V49.6095H100.051V58.0426ZM98.0219 55.2527V52.3677C97.7763 51.981 97.4329 51.666 97.0266 51.4544C96.6202 51.2429 96.1652 51.1424 95.7075 51.163C94.2492 51.163 93.203 52.3994 93.203 53.8261C93.203 55.2527 94.2492 56.4892 95.7075 56.4892C96.1652 56.4892 96.6159 56.3764 97.0196 56.1608C97.4232 55.9451 97.7675 55.6332 98.0219 55.2527ZM104.014 56.1721V58.0743H101.953V45.2979H104.014V53.4139L107.755 49.5461H110.418L107.026 53.0652L110.925 58.0426H108.199L105.536 54.5553L104.014 56.1721ZM117.298 57.9792C116.615 58.2169 115.896 58.3348 115.173 58.328C113.144 58.328 111.876 56.9964 111.876 54.7772V46.4392H113.937V49.5461H117.076V51.3215H113.937V54.8089C113.937 55.9502 114.539 56.4258 115.554 56.4258C116.035 56.4113 116.513 56.3476 116.981 56.2355L117.298 57.9792ZM127.252 53.3822V58.0743H125.192V53.4773C125.192 51.9873 124.399 51.163 123.099 51.163C122.37 51.163 121.546 51.6068 120.912 52.3994V58.0426H118.819V45.2979H120.912V50.2436C121.646 49.6197 122.58 49.2819 123.543 49.2925C125.762 49.2925 127.252 50.9094 127.252 53.3822ZM131.089 50.624C131.49 50.2191 131.97 49.9005 132.498 49.6879C133.027 49.4752 133.594 49.373 134.164 49.3876V51.3215C132.832 51.3849 131.818 51.8605 131.089 52.7482V58.0109H128.996V49.5461H131.089V50.624ZM143.802 53.7944C143.802 54.9926 143.326 56.1417 142.478 56.9889C141.631 57.8362 140.482 58.3121 139.284 58.3121C138.086 58.3121 136.937 57.8362 136.089 56.9889C135.242 56.1417 134.766 54.9926 134.766 53.7944C134.766 51.2264 136.7 49.3559 139.3 49.3559C139.89 49.3405 140.477 49.4443 141.026 49.6611C141.575 49.8779 142.074 50.2032 142.495 50.6176C142.915 51.032 143.247 51.5269 143.472 52.0728C143.697 52.6186 143.809 53.2042 143.802 53.7944ZM141.709 53.7944C141.709 52.3677 140.726 51.2264 139.268 51.2264C137.81 51.2264 136.795 52.3677 136.795 53.7944C136.795 55.221 137.778 56.4258 139.268 56.4258C140.758 56.4258 141.709 55.2527 141.709 53.7944ZM153.44 58.0426H151.379V57.3452C150.647 57.9971 149.696 58.3482 148.716 58.328C146.465 58.328 145.006 56.7111 145.006 54.2382V49.5461H147.067V54.1114C147.067 55.6015 147.86 56.4258 149.16 56.4258C149.598 56.3961 150.024 56.2699 150.408 56.0562C150.791 55.8424 151.123 55.5464 151.379 55.1893V49.5461H153.44V58.0426ZM163.807 58.0426C163.807 60.7057 162 62.2909 159.495 62.2909C157.117 62.2909 155.31 60.8326 155.088 58.7718H157.181C157.339 59.7229 158.163 60.3887 159.463 60.3887C160.763 60.3887 161.714 59.5327 161.714 58.0426V56.9964C160.944 57.5352 160.022 57.813 159.083 57.789C157.969 57.7818 156.902 57.3406 156.109 56.5591C155.316 55.7776 154.858 54.7175 154.835 53.6042C154.817 53.0369 154.913 52.472 155.119 51.9431C155.325 51.4143 155.636 50.9326 156.033 50.5269C156.43 50.1212 156.904 49.7999 157.428 49.5823C157.953 49.3647 158.515 49.2554 159.083 49.2608C160.021 49.2417 160.942 49.519 161.714 50.0534V49.5461H163.775L163.807 58.0426ZM161.746 54.8089V52.2409C161.499 51.853 161.157 51.5353 160.751 51.3187C160.346 51.1021 159.891 50.9939 159.432 51.0045C159.095 50.9962 158.76 51.0575 158.448 51.1844C158.137 51.3114 157.854 51.5013 157.619 51.7424C157.384 51.9834 157.201 52.2703 157.082 52.5852C156.963 52.9001 156.91 53.2362 156.927 53.5725C156.948 54.2212 157.222 54.8359 157.69 55.2859C158.158 55.7359 158.782 55.9856 159.432 55.9819C159.885 55.9952 160.334 55.8948 160.738 55.6899C161.142 55.485 161.489 55.1821 161.746 54.8089ZM174.11 53.3822V58.0743H172.05V53.4773C172.05 51.9873 171.257 51.163 169.957 51.163C169.228 51.163 168.404 51.6068 167.77 52.3994V58.0426H165.677V45.2979H167.77V50.2436C168.503 49.6197 169.438 49.2819 170.401 49.2925C172.62 49.2925 174.11 50.9094 174.11 53.3822ZM181.782 51.0362H187.774V53.0335H181.782V56.077H188.472V58.0426H179.595V45.8368H188.472V47.8341H181.782V51.0362ZM198.585 53.3822V58.0743H196.525V53.4773C196.525 51.9873 195.732 51.163 194.432 51.163C193.703 51.163 192.879 51.6068 192.245 52.3994V58.0426H190.152V49.5461H192.245V50.2436C192.978 49.6197 193.913 49.2819 194.876 49.2925C197.095 49.2925 198.585 50.9094 198.585 53.3822ZM208.477 54.6187H201.946C202.2 55.6649 202.992 56.4892 204.419 56.4892C205.243 56.4892 205.845 56.2355 206.131 55.6966H208.35C207.843 57.2818 206.321 58.2646 204.355 58.2646C201.661 58.2646 199.853 56.3307 199.853 53.8261C199.853 51.3215 201.661 49.3876 204.355 49.3876C206.701 49.3876 208.477 51.1313 208.508 53.6993C208.508 53.9846 208.508 54.3016 208.477 54.6187ZM201.914 53.0969H206.384C206.194 51.8922 205.497 51.163 204.229 51.163C202.96 51.163 202.168 51.9873 201.914 53.0969ZM212.059 50.624C212.46 50.2191 212.94 49.9005 213.469 49.6879C213.998 49.4752 214.565 49.373 215.135 49.3876V51.3215C213.803 51.3849 212.788 51.8605 212.059 52.7482V58.0109H209.967V49.5461H212.059V50.624ZM224.741 58.0426C224.741 60.7057 222.934 62.2909 220.429 62.2909C218.051 62.2909 216.244 60.8326 216.022 58.7718H218.115C218.273 59.7229 219.097 60.3887 220.397 60.3887C221.697 60.3887 222.648 59.5327 222.648 58.0426V56.9964C221.878 57.5352 220.956 57.813 220.017 57.789C218.903 57.7818 217.836 57.3406 217.043 56.5591C216.25 55.7776 215.792 54.7175 215.769 53.6042C215.751 53.0369 215.848 52.472 216.053 51.9431C216.259 51.4143 216.57 50.9326 216.967 50.5269C217.364 50.1212 217.838 49.7999 218.363 49.5823C218.887 49.3647 219.449 49.2554 220.017 49.2608C220.956 49.2417 221.876 49.519 222.648 50.0534V49.5461H224.709L224.741 58.0426ZM222.68 54.8089V52.2409C222.433 51.853 222.091 51.5353 221.685 51.3187C221.28 51.1021 220.825 50.9939 220.366 51.0045C220.029 50.9962 219.694 51.0575 219.383 51.1844C219.071 51.3114 218.788 51.5013 218.553 51.7424C218.318 51.9834 218.135 52.2703 218.016 52.5852C217.897 52.9001 217.844 53.2362 217.861 53.5725C217.882 54.2212 218.156 54.8359 218.624 55.2859C219.092 55.7359 219.717 55.9856 220.366 55.9819C220.819 55.9984 221.269 55.8995 221.674 55.6943C222.079 55.4891 222.425 55.1844 222.68 54.8089ZM230.447 62.2909H228.26L229.972 58.328L225.755 49.5461H228.006L231.05 55.8868L233.808 49.5461H235.995L230.447 62.2909Z" fill="#2A2E32"/>
<path d="M38.1762 48.1319C38.0897 48.3388 37.944 48.5155 37.7572 48.6396C37.5705 48.7638 37.3511 48.8298 37.1269 48.8294C36.9027 48.829 36.6836 48.7622 36.4973 48.6375C36.3109 48.5127 36.1658 48.3355 36.0801 48.1283C35.9943 47.9211 35.9719 47.6931 36.0157 47.4732C36.0594 47.2532 36.1673 47.0512 36.3257 46.8925C36.4841 46.7338 36.686 46.6256 36.9059 46.5816C37.1258 46.5375 37.3538 46.5596 37.5611 46.645C37.6994 46.7019 37.825 46.7856 37.9308 46.8913C38.0366 46.9969 38.1205 47.1224 38.1777 47.2606C38.2348 47.3988 38.2641 47.5469 38.2638 47.6964C38.2636 47.8459 38.2338 47.9939 38.1762 48.1319ZM43.5879 61.1905C43.3806 61.1051 43.1526 61.0831 42.9327 61.1271C42.7129 61.1712 42.511 61.2794 42.3525 61.438C42.1941 61.5967 42.0862 61.7988 42.0425 62.0187C41.9988 62.2387 42.0212 62.4666 42.1069 62.6738C42.1926 62.881 42.3378 63.0582 42.5241 63.183C42.7104 63.3078 42.9295 63.3746 43.1537 63.375C43.378 63.3754 43.5973 63.3093 43.784 63.1852C43.9708 63.061 44.1166 62.8844 44.203 62.6774C44.2606 62.5395 44.2904 62.3915 44.2907 62.242C44.2909 62.0924 44.2616 61.9443 44.2045 61.8062C44.1473 61.668 44.0634 61.5425 43.9576 61.4368C43.8518 61.3312 43.7262 61.2475 43.5879 61.1905ZM51.238 42.7201C51.4454 42.8058 51.6736 42.8281 51.8936 42.7841C52.1137 42.7402 52.3158 42.632 52.4744 42.4732C52.633 42.3144 52.7409 42.1122 52.7846 41.8921C52.8283 41.6719 52.8058 41.4438 52.7198 41.2365C52.6339 41.0292 52.4884 40.852 52.3018 40.7273C52.1152 40.6027 51.8958 40.5361 51.6714 40.5361C51.447 40.5361 51.2276 40.6026 51.041 40.7273C50.8544 40.8519 50.7089 41.0291 50.6229 41.2364C50.5654 41.3741 50.5356 41.5219 50.5354 41.6712C50.5352 41.8205 50.5645 41.9683 50.6217 42.1062C50.6788 42.2442 50.7627 42.3694 50.8685 42.4747C50.9743 42.5801 51.0998 42.6635 51.238 42.7201ZM58.1335 55.1669C57.9261 55.0812 57.6979 55.0589 57.4778 55.1029C57.2578 55.1468 57.0557 55.255 56.8971 55.4138C56.7385 55.5726 56.6305 55.7748 56.5868 55.9949C56.5432 56.2151 56.5657 56.4432 56.6516 56.6505C56.7376 56.8578 56.883 57.035 57.0697 57.1596C57.2563 57.2843 57.4756 57.3508 57.7001 57.3509C57.9245 57.3509 58.1439 57.2844 58.3305 57.1597C58.5171 57.0351 58.6626 56.8579 58.7485 56.6506C58.8631 56.3722 58.8626 56.0598 58.7474 55.7818C58.6321 55.5037 58.4114 55.2826 58.1335 55.1669ZM58.1335 48.7469C58.3415 48.6607 58.5192 48.5148 58.6443 48.3276C58.7693 48.1404 58.836 47.9203 58.8359 47.6951C58.8358 47.47 58.769 47.2499 58.6439 47.0628C58.5187 46.8756 58.3409 46.7298 58.1328 46.6438C57.9248 46.5577 57.6959 46.5353 57.4751 46.5793C57.2543 46.6234 57.0515 46.7319 56.8925 46.8912C56.7334 47.0505 56.6251 47.2534 56.5813 47.4743C56.5376 47.6951 56.5603 47.924 56.6466 48.1319C56.763 48.41 56.9846 48.6308 57.2632 48.746C57.5418 48.8612 57.8547 48.8616 58.1335 48.7469ZM55.2453 51.1057L54.3608 51.987L55.2453 52.8716C55.5767 53.2023 55.8025 53.624 55.894 54.0832C55.9855 54.5424 55.9387 55.0185 55.7594 55.451C55.5801 55.8836 55.2765 56.2532 54.887 56.513C54.4975 56.7728 54.0396 56.9112 53.5714 56.9106H52.3222V58.1597C52.3278 58.6292 52.1911 59.0894 51.9303 59.4798C51.6694 59.8702 51.2966 60.1726 50.8607 60.3472C50.5692 60.468 50.2569 60.5305 49.9413 60.5311C49.6325 60.5309 49.3267 60.4691 49.042 60.3493C48.7574 60.2296 48.4994 60.0542 48.2832 59.8336L47.3987 58.9523L46.5173 59.8336C46.2999 60.0517 46.0414 60.2245 45.7568 60.342C45.4722 60.4595 45.1672 60.5195 44.8593 60.5184C44.5427 60.5178 44.2293 60.4553 43.9367 60.3346C43.5033 60.16 43.1324 59.8594 42.8718 59.4716C42.6112 59.0839 42.4731 58.6269 42.4751 58.1597V56.9106H41.2292C40.761 56.9112 40.3031 56.7728 39.9136 56.513C39.5241 56.2532 39.2204 55.8836 39.0412 55.451C38.8619 55.0185 38.8151 54.5424 38.9066 54.0832C38.9981 53.624 39.2239 53.2023 39.5553 52.8716L40.4366 51.987L39.5553 51.1057C39.2243 50.7745 38.999 50.3526 38.9077 49.8934C38.8164 49.4342 38.8633 48.9582 39.0425 48.5256C39.2216 48.093 39.525 47.7233 39.9142 47.463C40.3034 47.2028 40.761 47.0637 41.2292 47.0635H42.4751V45.8175C42.4754 45.3493 42.6144 44.8917 42.8747 44.5025C43.1349 44.1133 43.5047 43.8099 43.9373 43.6308C44.3699 43.4517 44.8458 43.4048 45.3051 43.496C45.7643 43.5873 46.1861 43.8127 46.5173 44.1436L47.3987 45.0249L48.2832 44.1436C48.614 43.8122 49.0357 43.5864 49.4949 43.4949C49.9541 43.4034 50.4301 43.4502 50.8627 43.6295C51.2952 43.8088 51.6648 44.1124 51.9247 44.5019C52.1845 44.8914 52.3229 45.3493 52.3222 45.8175V47.0635H53.5714C54.0396 47.0637 54.4972 47.2028 54.8864 47.463C55.2756 47.7233 55.579 48.093 55.7581 48.5256C55.9372 48.9582 55.9841 49.4342 55.8929 49.8934C55.8016 50.3526 55.5762 50.7745 55.2453 51.1057ZM48.41 46.0331L49.1646 46.7908C49.2515 46.8779 49.3548 46.9468 49.4685 46.9936C49.5823 47.0404 49.7042 47.0642 49.8272 47.0635H50.8956V45.8175C50.8907 45.6339 50.8327 45.4556 50.7287 45.3042C50.6247 45.1529 50.4791 45.0348 50.3094 44.9644C50.1397 44.894 49.9533 44.8742 49.7727 44.9075C49.592 44.9407 49.4249 45.0256 49.2914 45.1518L48.41 46.0331ZM50.8956 49.5554V48.4933H49.8272C49.5161 48.4938 49.2081 48.4327 48.9208 48.3136C48.6335 48.1944 48.3726 48.0195 48.1532 47.799L47.3987 47.0445L46.6442 47.799C46.425 48.0198 46.1642 48.1949 45.8768 48.3141C45.5895 48.4332 45.2813 48.4942 44.9702 48.4933H43.905V49.5585C43.9058 49.8696 43.8449 50.1778 43.7257 50.4652C43.6065 50.7525 43.4315 51.0133 43.2107 51.2325L42.4561 51.987L43.2107 52.7416C43.4312 52.9609 43.6061 53.2218 43.7252 53.5091C43.8444 53.7964 43.9055 54.1045 43.905 54.4155V55.4839H44.9702C45.2811 55.4825 45.5892 55.5428 45.8766 55.6615C46.1639 55.7801 46.4248 55.9547 46.6442 56.1751L47.3987 56.9296L48.1532 56.1751C48.3728 55.955 48.6337 55.7806 48.921 55.6619C49.2084 55.5433 49.5163 55.4828 49.8272 55.4839H50.8956V54.4155C50.8945 54.1047 50.955 53.7967 51.0736 53.5094C51.1922 53.222 51.3666 52.9611 51.5867 52.7416L52.3413 51.987L51.5867 51.2325C51.3664 51.0132 51.1918 50.7523 51.0731 50.4649C50.9545 50.1775 50.8941 49.8694 50.8956 49.5585V49.5554ZM43.9208 47.0603H44.9861C45.2325 47.0593 45.4689 46.9627 45.6455 46.7908L46.4 46.0363L45.5155 45.1518C45.4334 45.066 45.3351 44.9974 45.2262 44.9501C45.1174 44.9027 45.0002 44.8775 44.8814 44.8759C44.7533 44.8768 44.6264 44.9015 44.5073 44.9489C44.3342 45.0181 44.186 45.1381 44.0825 45.2932C43.9789 45.4482 43.9247 45.6311 43.9272 45.8175L43.9208 47.0603ZM41.448 50.9789L42.2025 50.2243C42.377 50.0466 42.4749 49.8076 42.4751 49.5585V48.4933H41.2292C41.047 48.5005 40.8707 48.5599 40.7213 48.6644C40.572 48.769 40.4558 48.9142 40.3866 49.0829C40.3175 49.2516 40.2983 49.4367 40.3313 49.616C40.3643 49.7953 40.4482 49.9613 40.5729 50.0943L41.448 50.9789ZM42.4751 55.4839V54.4155C42.4758 54.2925 42.4521 54.1706 42.4053 54.0569C42.3585 53.9431 42.2895 53.8398 42.2025 53.7529L41.448 52.9984L40.5729 53.8797C40.4467 54.0132 40.3619 54.1804 40.3287 54.361C40.2954 54.5417 40.3152 54.7281 40.3856 54.8977C40.456 55.0674 40.574 55.213 40.7254 55.317C40.8768 55.4211 41.0551 55.479 41.2387 55.4839H42.4751ZM46.3905 57.9409L45.6455 57.1864C45.4683 57.0107 45.2292 56.9116 44.9797 56.9106H43.905V58.1597C43.9135 58.3394 43.9729 58.5129 44.0761 58.6602C44.1794 58.8075 44.3222 58.9225 44.4882 58.9919C44.6541 59.0612 44.8364 59.0821 45.0137 59.0521C45.1911 59.0221 45.3563 58.9424 45.4901 58.8223L46.3905 57.9409ZM50.8956 56.9106H49.8272C49.704 56.9105 49.582 56.9348 49.4683 56.9822C49.3545 57.0295 49.2513 57.0989 49.1646 57.1864L48.41 57.9409L49.2914 58.8223C49.4247 58.9483 49.5915 59.0331 49.7719 59.0665C49.9523 59.0999 50.1385 59.0804 50.308 59.0103C50.4775 58.9403 50.6232 58.8228 50.7275 58.6718C50.8317 58.5209 50.8901 58.343 50.8956 58.1597V56.9106ZM53.3526 52.9984L52.5981 53.7529C52.5106 53.8396 52.4412 53.9429 52.3938 54.0566C52.3465 54.1703 52.3222 54.2923 52.3222 54.4155V55.4839H53.5714C53.7547 55.4784 53.9326 55.4201 54.0835 55.3158C54.2344 55.2115 54.352 55.0659 54.422 54.8963C54.492 54.7268 54.5115 54.5406 54.4782 54.3602C54.4448 54.1799 54.36 54.013 54.234 53.8797L53.3526 52.9984ZM54.4369 49.0735C54.3686 48.9003 54.2492 48.752 54.0946 48.6484C53.94 48.5447 53.7575 48.4906 53.5714 48.4933H52.3222V49.5585C52.3233 49.8081 52.4224 50.0472 52.5981 50.2243L53.3526 50.9789L54.234 50.0943C54.3677 49.9651 54.4589 49.7981 54.4951 49.6156C54.5314 49.4332 54.5111 49.244 54.4369 49.0735ZM43.5879 42.7328C43.7952 42.6468 43.9724 42.5013 44.097 42.3147C44.2217 42.1281 44.2882 41.9087 44.2882 41.6843C44.2882 41.4599 44.2216 41.2405 44.097 41.0539C43.9723 40.8673 43.7951 40.7218 43.5878 40.6359C43.3805 40.55 43.1524 40.5274 42.9323 40.5711C42.7121 40.6148 42.5099 40.7227 42.3511 40.8813C42.1923 41.0399 42.0841 41.242 42.0402 41.4621C41.9962 41.6822 42.0185 41.9103 42.1042 42.1177C42.2217 42.3939 42.4437 42.6123 42.7217 42.7252C42.9998 42.8381 43.3112 42.8362 43.5879 42.7201V42.7328ZM36.6924 55.1669C36.4851 55.2528 36.308 55.3983 36.1833 55.585C36.0587 55.7716 35.9922 55.991 35.9922 56.2154C35.9922 56.4398 36.0587 56.6592 36.1834 56.8458C36.3081 57.0324 36.4852 57.1778 36.6925 57.2638C36.8999 57.3497 37.128 57.3723 37.3481 57.3286C37.5682 57.2849 37.7705 57.1769 37.9293 57.0183C38.088 56.8597 38.1962 56.6576 38.2402 56.4376C38.2841 56.2175 38.2618 55.9893 38.1762 55.7819C38.1192 55.6441 38.0356 55.5188 37.9302 55.4132C37.8248 55.3077 37.6996 55.224 37.5618 55.1668C37.424 55.1097 37.2763 55.0803 37.1271 55.0803C36.9779 55.0803 36.8302 55.1097 36.6924 55.1669ZM51.238 61.1905C51.0307 61.2765 50.8535 61.422 50.7289 61.6086C50.6042 61.7952 50.5377 62.0146 50.5377 62.239C50.5378 62.4634 50.6043 62.6828 50.729 62.8694C50.8536 63.056 51.0308 63.2015 51.2381 63.2874C51.4454 63.3734 51.6735 63.3959 51.8937 63.3522C52.1138 63.3086 52.316 63.2006 52.4748 63.042C52.6336 62.8834 52.7418 62.6813 52.7857 62.4612C52.8297 62.2412 52.8074 62.013 52.7217 61.8056C52.606 61.5277 52.3849 61.307 52.1068 61.1917C51.8288 61.0764 51.5164 61.076 51.238 61.1905Z" fill="url(#paint0_linear_4775_57175)"/>
</g>
<defs>
<linearGradient id="paint0_linear_4775_57175" x1="35.9918" y1="51.9553" x2="58.8341" y2="51.9553" gradientUnits="userSpaceOnUse">
<stop stop-color="#40C4E0"/>
<stop offset="1" stop-color="#A6CE39"/>
</linearGradient>
<clipPath id="clip0_4775_57175">
<rect width="201" height="23.4606" fill="white" transform="translate(35.5 40.2275)"/>
</clipPath>
</defs>
</svg>
