<svg width="161" height="125" viewBox="0 0 161 125" fill="none" xmlns="http://www.w3.org/2000/svg"
    style="margin-left: 10px">
    <path d="M83.7234 63.958H102.28V52.6384H83.7234V63.958Z" fill="#EFF2F5" />
    <path d="M83.727 52.6567H75.5965V63.9763H83.727V52.6567Z" fill="#EFF2F5" />
    <path d="M103.821 52.6567H95.6909V63.9763H103.821V52.6567Z" fill="#EFF2F5" />
    <path d="M52.6393 52.6567H34.0829V63.9763H52.6393V52.6567Z" fill="#EFF2F5" />
    <path d="M52.6573 63.958H60.7877V52.6384H52.6573V63.958Z" fill="#EFF2F5" />
    <path d="M122.346 63.958H144.232V52.6384H122.346V63.958Z" fill="#EFF2F5" />
    <path d="M122.365 52.6567H112.762V63.9763H122.365V52.6567Z" fill="#EFF2F5" />
    <path d="M74.0381 35.0454H63.5421L63.5071 48.1873H74.0732L74.0381 35.0454Z" fill="#EFF2F5" />
    <path d="M63.5071 44.5259V48.1881H74.0732V44.5259H63.5071Z" fill="#EFF2F5" />
    <path d="M63.5071 33.1182V38.0245H74.0732V33.1182H63.5071Z" fill="#EFF2F5" />
    <path d="M111.344 35.0454H104.808L104.79 48.1873H111.361L111.344 35.0454Z" fill="#EFF2F5" />
    <path d="M104.79 44.5259V48.1881H111.361V44.5259H104.79Z" fill="#EFF2F5" />
    <path d="M111.361 33.1182H104.79V38.042H111.361V33.1182Z" fill="#EFF2F5" />
    <path
        d="M63.473 46.8726H74.1267C75.2978 46.8726 76.421 47.3378 77.2491 48.1659C78.0772 48.994 78.5424 50.1171 78.5424 51.2882V90.4862H59.0924V51.2882C59.0923 50.1232 59.5528 49.0053 60.3733 48.1782C61.1938 47.3511 62.308 46.8818 63.473 46.8726Z"
        fill="#EFF2F5" />
    <path
        d="M54.9203 90.0494H82.6761C83.2076 90.0494 83.734 90.154 84.2251 90.3575C84.7162 90.5609 85.1624 90.859 85.5383 91.2349C85.9141 91.6108 86.2122 92.057 86.4157 92.5481C86.6191 93.0392 86.7238 93.5655 86.7238 94.0971V132.839H50.8551V94.1672C50.8457 93.6283 50.9441 93.0929 51.1445 92.5926C51.3448 92.0922 51.6431 91.6369 52.0217 91.2533C52.4004 90.8698 52.8518 90.5657 53.3496 90.3589C53.8473 90.1522 54.3813 90.0469 54.9203 90.0494Z"
        fill="#EFF2F5" />
    <path
        d="M47.7519 111.6H89.1928C89.8394 111.6 90.4797 111.727 91.0771 111.975C91.6745 112.222 92.2172 112.585 92.6745 113.042C93.1317 113.499 93.4944 114.042 93.7418 114.64C93.9893 115.237 94.1166 115.877 94.1166 116.524V129.28H42.8281V116.524C42.8281 115.218 43.3468 113.966 44.2702 113.042C45.1936 112.119 46.446 111.6 47.7519 111.6Z"
        fill="#EFF2F5" />
    <path
        d="M141.583 11.5464H143.037C143.72 11.5464 144.376 11.8178 144.859 12.3008C145.342 12.7839 145.613 13.4391 145.613 14.1222V50.7794H139.025V14.1222C139.025 13.4421 139.293 12.7895 139.773 12.307C140.252 11.8244 140.903 11.551 141.583 11.5464Z"
        fill="#EFF2F5" />
    <path d="M145.599 38.0225H139.011V45.9602H145.599V38.0225Z" fill="#EFF2F5" />
    <path
        d="M139.415 42.5093H145.197C146.154 42.5093 147.072 42.8896 147.749 43.5665C148.426 44.2435 148.807 45.1616 148.807 46.1189V81.7423H135.805V46.1189C135.805 45.1616 136.185 44.2435 136.862 43.5665C137.539 42.8896 138.457 42.5093 139.415 42.5093Z"
        fill="#EFF2F5" />
    <path d="M148.807 69.7588H135.805V81.7442H148.807V69.7588Z" fill="#EFF2F5" />
    <path
        d="M131.529 74.7354H153.081C153.867 74.7354 154.62 75.0473 155.175 75.6027C155.731 76.1581 156.043 76.9113 156.043 77.6967V90.4881H128.567V77.7843C128.556 77.3881 128.623 76.9936 128.767 76.6241C128.911 76.2546 129.127 75.9178 129.403 75.6334C129.679 75.3491 130.01 75.1231 130.375 74.9688C130.74 74.8146 131.132 74.7352 131.529 74.7354Z"
        fill="#EFF2F5" />
    <path
        d="M128.422 78.5365H156.178C157.251 78.5365 158.281 78.9629 159.04 79.722C159.799 80.4811 160.225 81.5107 160.225 82.5842V129.317C160.225 131.069 159.529 132.749 158.29 133.988C157.052 135.227 155.371 135.923 153.619 135.923H130.928C129.176 135.923 127.495 135.227 126.256 133.988C125.017 132.749 124.322 131.069 124.322 129.317V82.6017C124.319 82.0642 124.424 81.5317 124.629 81.0351C124.835 80.5385 125.138 80.0879 125.519 79.7094C125.901 79.331 126.354 79.0324 126.853 78.831C127.351 78.6296 127.884 78.5295 128.422 78.5365Z"
        fill="#EFF2F5" />
    <path
        d="M128.422 78.5365H156.178C157.251 78.5365 158.281 78.9629 159.04 79.722C159.799 80.4811 160.225 81.5107 160.225 82.5842V129.317C160.225 131.069 159.529 132.749 158.29 133.988C157.052 135.227 155.371 135.923 153.619 135.923H130.928C129.176 135.923 127.495 135.227 126.256 133.988C125.017 132.749 124.322 131.069 124.322 129.317V82.6017C124.319 82.0642 124.424 81.5317 124.629 81.0351C124.835 80.5385 125.138 80.0879 125.519 79.7094C125.901 79.331 126.354 79.0324 126.853 78.831C127.351 78.6296 127.884 78.5295 128.422 78.5365Z"
        fill="#EFF2F5" />
    <path
        d="M64.0122 22.919H74.2453C74.7852 22.9175 75.3143 23.0701 75.7705 23.3587C76.2268 23.6473 76.5912 24.0601 76.8212 24.5486L78.5734 28.1582H59.7191L61.4714 24.5486C61.6987 24.0655 62.0578 23.6563 62.5072 23.368C62.9566 23.0798 63.4783 22.9241 64.0122 22.919Z"
        fill="#EFF2F5" />
    <path
        d="M81.9944 35.0269H56.2538C55.8773 35.0269 55.5163 34.8773 55.2501 34.6111C54.9839 34.345 54.8344 33.984 54.8344 33.6075V30.1906C54.8344 29.4145 55.1427 28.6702 55.6915 28.1214C56.2403 27.5727 56.9846 27.2644 57.7607 27.2644L80.54 27.2644C80.9243 27.2644 81.3048 27.34 81.6599 27.4871C82.0149 27.6342 82.3375 27.8497 82.6092 28.1214C82.881 28.3932 83.0965 28.7158 83.2436 29.0708C83.3906 29.4258 83.4663 29.8063 83.4663 30.1906V33.59C83.4688 33.7824 83.4322 33.9732 83.3586 34.151C83.2851 34.3288 83.1762 34.4898 83.0385 34.6241C82.9009 34.7585 82.7373 34.8635 82.5579 34.9328C82.3784 35.002 82.1866 35.034 81.9944 35.0269Z"
        fill="#EFF2F5" />
    <path
        d="M39.7459 51.7286V65.1509C39.7459 65.7039 39.5262 66.2342 39.1352 66.6253C38.7441 67.0163 38.2138 67.236 37.6608 67.236H30.4414C28.8846 67.236 27.3915 66.6176 26.2907 65.5167C25.1898 64.4159 24.5714 62.9228 24.5714 61.366V55.601C24.5714 54.0442 25.1898 52.5511 26.2907 51.4503C27.3915 50.3494 28.8846 49.731 30.4414 49.731H37.6432C38.1963 49.731 38.7266 49.9506 39.1177 50.3417C39.5087 50.7327 39.7284 51.2631 39.7284 51.8161L39.7459 51.7286Z"
        fill="#EFF2F5" />
    <path
        d="M36.5013 55.475V31.6968C36.4744 31.2227 36.2669 30.7768 35.9215 30.4509C35.576 30.125 35.1188 29.9438 34.6439 29.9446H33.5225C33.2851 29.9327 33.0478 29.9692 32.825 30.052C32.6021 30.1347 32.3985 30.2619 32.2264 30.4258C32.0543 30.5897 31.9173 30.7869 31.8239 31.0054C31.7304 31.2239 31.6823 31.4592 31.6826 31.6968V56.5964C31.6823 56.8341 31.7304 57.0693 31.8239 57.2879C31.9173 57.5064 32.0543 57.7036 32.2264 57.8675C32.3985 58.0314 32.6021 58.1586 32.825 58.2413C33.0478 58.324 33.2851 58.3606 33.5225 58.3487C34.2959 58.3536 35.0406 58.0557 35.5973 57.5187C36.154 56.9816 36.4784 56.2481 36.5013 55.475Z"
        fill="#EFF2F5" />
    <path
        d="M36.5013 86.5444V62.7838C36.4967 61.9968 36.1808 61.2436 35.6226 60.6888C35.0645 60.1339 34.3095 59.8225 33.5225 59.8225C33.2851 59.8106 33.0478 59.8471 32.825 59.9299C32.6021 60.0126 32.3985 60.1398 32.2264 60.3037C32.0543 60.4676 31.9173 60.6648 31.8239 60.8833C31.7304 61.1018 31.6823 61.3371 31.6826 61.5748V86.5444C31.6823 86.7821 31.7304 87.0173 31.8239 87.2359C31.9173 87.4544 32.0543 87.6516 32.2264 87.8155C32.3985 87.9794 32.6021 88.1066 32.825 88.1893C33.0478 88.272 33.2851 88.3086 33.5225 88.2967H34.6439C35.1188 88.2975 35.576 88.1163 35.9215 87.7904C36.2669 87.4644 36.4744 87.0186 36.5013 86.5444Z"
        fill="#EFF2F5" />
    <path
        d="M108.435 35.0452C118.113 35.0452 125.958 27.2 125.958 17.5226C125.958 7.84512 118.113 0 108.435 0C98.7577 0 90.9125 7.84512 90.9125 17.5226C90.9125 27.2 98.7577 35.0452 108.435 35.0452Z"
        fill="#EFF2F5" />
    <path
        d="M108.431 32.083C116.473 32.083 122.993 25.5637 122.993 17.5217C122.993 9.47975 116.473 2.96045 108.431 2.96045C100.389 2.96045 93.87 9.47975 93.87 17.5217C93.87 25.5637 100.389 32.083 108.431 32.083Z"
        fill="#EFF2F5" />

    <path
        d="M108.435 69.3891C114.483 69.3891 119.387 64.4859 119.387 58.4374C119.387 52.389 114.483 47.4858 108.435 47.4858C102.387 47.4858 97.4834 52.389 97.4834 58.4374C97.4834 64.4859 102.387 69.3891 108.435 69.3891Z"
        fill="#EFF2F5" />

    <defs>
        <linearGradient id="paint0_linear_2757_34365" x1="68.338" y1="334.681" x2="68.338" y2="664.105"
            gradientUnits="userSpaceOnUse">
            <stop stop-color="#85DC54" />
            <stop offset="1" stop-color="#72BF44" />
        </linearGradient>
    </defs>
</svg>