<svg width="98" height="98" viewBox="0 0 98 98" fill="none" xmlns="http://www.w3.org/2000/svg">
<g id="Frame" clip-path="url(#clip0_4366_54202)">
<g id="Subtract">
<mask id="path-1-inside-1_4366_54202" fill="white">
<path fill-rule="evenodd" clip-rule="evenodd" d="M46.0051 43.0325L64.0156 61.043L82.0261 43.0325C91.9731 33.0856 91.9731 16.9584 82.0261 7.01147C72.0792 -2.93546 55.952 -2.93546 46.0051 7.01147C36.0582 16.9584 36.0582 33.0856 46.0051 43.0325ZM18.8569 40.1643L18.0969 40.9241V12.5946C18.0969 11.9065 17.8235 11.2466 17.3369 10.76C16.8503 10.2734 16.1904 10 15.5023 10C14.8142 10 14.1542 10.2734 13.6676 10.76C13.1811 11.2466 12.9077 11.9065 12.9077 12.5946V40.9241L12.1476 40.1643C11.6611 39.6778 11.0012 39.4045 10.3131 39.4045C9.62506 39.4045 8.96516 39.6778 8.47862 40.1643C7.99208 40.6509 7.71875 41.3108 7.71875 41.9988C7.71875 42.6869 7.99208 43.3468 8.47862 43.8333L13.6675 49.0222C13.9084 49.2631 14.1944 49.4542 14.5092 49.5846C14.8239 49.715 15.1613 49.7821 15.502 49.7821C15.8427 49.7821 16.18 49.715 16.4948 49.5846C16.8096 49.4542 17.0956 49.2631 17.3365 49.0222L22.5253 43.8333C22.7663 43.5924 22.9574 43.3064 23.0878 42.9917C23.2181 42.6769 23.2853 42.3395 23.2853 41.9988C23.2853 41.6581 23.2181 41.3208 23.0878 41.006C22.9574 40.6912 22.7663 40.4052 22.5253 40.1643C21.5128 39.1512 19.8701 39.1512 18.8569 40.1643ZM38.5469 47L49.7969 58.2501C56.0102 64.4633 56.0102 74.537 49.7969 80.7502C43.5837 86.9635 33.5101 86.9635 27.2968 80.7502C21.0836 74.537 21.0836 64.4633 27.2968 58.2501L38.5469 47ZM41 55.5C41 56.8808 39.8807 58 38.5 58C37.1193 58 36 56.8808 36 55.5C36 54.1193 37.1193 53 38.5 53C39.8807 53 41 54.1193 41 55.5ZM39.8247 77.6267V79H37.4827V77.6666C36.8093 77.6032 36.1452 77.4777 35.4904 77.2902C34.5013 77.0002 33.6712 76.5818 33 76.0349L34.3882 73.989C34.7062 74.2921 35.0912 74.5524 35.5434 74.7698C36.0026 74.9807 36.49 75.1454 37.0058 75.264C37.1658 75.2987 37.3247 75.3281 37.4827 75.3521V71.4808L37.3025 71.4489C35.9178 71.0733 34.9004 70.556 34.2505 69.8971C33.6005 69.2382 33.2755 68.4245 33.2755 67.4559C33.2755 66.6388 33.5051 65.9206 33.9644 65.3012C34.4236 64.6752 35.0523 64.1843 35.8507 63.8285C36.3516 63.6053 36.8956 63.4521 37.4827 63.3689V62H39.8247V63.3714C40.383 63.442 40.9164 63.5614 41.4249 63.7297C42.3009 64.013 43.0109 64.3985 43.5549 64.8861L42.1349 66.8431C41.7251 66.4609 41.1988 66.1545 40.5559 65.9239C40.3156 65.8377 40.0719 65.7676 39.8247 65.7136V69.4794L40.0366 69.5117C41.3436 69.8609 42.3292 70.3419 42.9933 70.9547C43.6644 71.5675 44 72.3911 44 73.4256C44 74.2756 43.7775 75.0235 43.3324 75.6692C42.8943 76.315 42.2656 76.819 41.446 77.1814C40.9602 77.3924 40.4198 77.5408 39.8247 77.6267ZM39.8247 72.0188V75.2901C40.116 75.2172 40.3738 75.1163 40.5983 74.9873C41.1211 74.6907 41.3825 74.2657 41.3825 73.7122C41.3825 73.2181 41.1847 72.8194 40.789 72.5163C40.5644 72.3373 40.2429 72.1715 39.8247 72.0188ZM37.4827 65.6824C37.3525 65.7109 37.2288 65.7453 37.1118 65.7855C36.7161 65.9239 36.4123 66.1248 36.2004 66.3884C35.9884 66.6454 35.8825 66.9551 35.8825 67.3175C35.8825 67.8183 36.0626 68.2103 36.4229 68.4936C36.6523 68.6664 37.0055 68.8328 37.4827 68.9927V65.6824Z"/>
</mask>
<g filter="url(#filter0_i_4366_54202)">
<path fill-rule="evenodd" clip-rule="evenodd" d="M46.0051 43.0325L64.0156 61.043L82.0261 43.0325C91.9731 33.0856 91.9731 16.9584 82.0261 7.01147C72.0792 -2.93546 55.952 -2.93546 46.0051 7.01147C36.0582 16.9584 36.0582 33.0856 46.0051 43.0325ZM18.8569 40.1643L18.0969 40.9241V12.5946C18.0969 11.9065 17.8235 11.2466 17.3369 10.76C16.8503 10.2734 16.1904 10 15.5023 10C14.8142 10 14.1542 10.2734 13.6676 10.76C13.1811 11.2466 12.9077 11.9065 12.9077 12.5946V40.9241L12.1476 40.1643C11.6611 39.6778 11.0012 39.4045 10.3131 39.4045C9.62506 39.4045 8.96516 39.6778 8.47862 40.1643C7.99208 40.6509 7.71875 41.3108 7.71875 41.9988C7.71875 42.6869 7.99208 43.3468 8.47862 43.8333L13.6675 49.0222C13.9084 49.2631 14.1944 49.4542 14.5092 49.5846C14.8239 49.715 15.1613 49.7821 15.502 49.7821C15.8427 49.7821 16.18 49.715 16.4948 49.5846C16.8096 49.4542 17.0956 49.2631 17.3365 49.0222L22.5253 43.8333C22.7663 43.5924 22.9574 43.3064 23.0878 42.9917C23.2181 42.6769 23.2853 42.3395 23.2853 41.9988C23.2853 41.6581 23.2181 41.3208 23.0878 41.006C22.9574 40.6912 22.7663 40.4052 22.5253 40.1643C21.5128 39.1512 19.8701 39.1512 18.8569 40.1643ZM38.5469 47L49.7969 58.2501C56.0102 64.4633 56.0102 74.537 49.7969 80.7502C43.5837 86.9635 33.5101 86.9635 27.2968 80.7502C21.0836 74.537 21.0836 64.4633 27.2968 58.2501L38.5469 47ZM41 55.5C41 56.8808 39.8807 58 38.5 58C37.1193 58 36 56.8808 36 55.5C36 54.1193 37.1193 53 38.5 53C39.8807 53 41 54.1193 41 55.5ZM39.8247 77.6267V79H37.4827V77.6666C36.8093 77.6032 36.1452 77.4777 35.4904 77.2902C34.5013 77.0002 33.6712 76.5818 33 76.0349L34.3882 73.989C34.7062 74.2921 35.0912 74.5524 35.5434 74.7698C36.0026 74.9807 36.49 75.1454 37.0058 75.264C37.1658 75.2987 37.3247 75.3281 37.4827 75.3521V71.4808L37.3025 71.4489C35.9178 71.0733 34.9004 70.556 34.2505 69.8971C33.6005 69.2382 33.2755 68.4245 33.2755 67.4559C33.2755 66.6388 33.5051 65.9206 33.9644 65.3012C34.4236 64.6752 35.0523 64.1843 35.8507 63.8285C36.3516 63.6053 36.8956 63.4521 37.4827 63.3689V62H39.8247V63.3714C40.383 63.442 40.9164 63.5614 41.4249 63.7297C42.3009 64.013 43.0109 64.3985 43.5549 64.8861L42.1349 66.8431C41.7251 66.4609 41.1988 66.1545 40.5559 65.9239C40.3156 65.8377 40.0719 65.7676 39.8247 65.7136V69.4794L40.0366 69.5117C41.3436 69.8609 42.3292 70.3419 42.9933 70.9547C43.6644 71.5675 44 72.3911 44 73.4256C44 74.2756 43.7775 75.0235 43.3324 75.6692C42.8943 76.315 42.2656 76.819 41.446 77.1814C40.9602 77.3924 40.4198 77.5408 39.8247 77.6267ZM39.8247 72.0188V75.2901C40.116 75.2172 40.3738 75.1163 40.5983 74.9873C41.1211 74.6907 41.3825 74.2657 41.3825 73.7122C41.3825 73.2181 41.1847 72.8194 40.789 72.5163C40.5644 72.3373 40.2429 72.1715 39.8247 72.0188ZM37.4827 65.6824C37.3525 65.7109 37.2288 65.7453 37.1118 65.7855C36.7161 65.9239 36.4123 66.1248 36.2004 66.3884C35.9884 66.6454 35.8825 66.9551 35.8825 67.3175C35.8825 67.8183 36.0626 68.2103 36.4229 68.4936C36.6523 68.6664 37.0055 68.8328 37.4827 68.9927V65.6824Z" fill="url(#paint0_linear_4366_54202)"/>
<path fill-rule="evenodd" clip-rule="evenodd" d="M46.0051 43.0325L64.0156 61.043L82.0261 43.0325C91.9731 33.0856 91.9731 16.9584 82.0261 7.01147C72.0792 -2.93546 55.952 -2.93546 46.0051 7.01147C36.0582 16.9584 36.0582 33.0856 46.0051 43.0325ZM18.8569 40.1643L18.0969 40.9241V12.5946C18.0969 11.9065 17.8235 11.2466 17.3369 10.76C16.8503 10.2734 16.1904 10 15.5023 10C14.8142 10 14.1542 10.2734 13.6676 10.76C13.1811 11.2466 12.9077 11.9065 12.9077 12.5946V40.9241L12.1476 40.1643C11.6611 39.6778 11.0012 39.4045 10.3131 39.4045C9.62506 39.4045 8.96516 39.6778 8.47862 40.1643C7.99208 40.6509 7.71875 41.3108 7.71875 41.9988C7.71875 42.6869 7.99208 43.3468 8.47862 43.8333L13.6675 49.0222C13.9084 49.2631 14.1944 49.4542 14.5092 49.5846C14.8239 49.715 15.1613 49.7821 15.502 49.7821C15.8427 49.7821 16.18 49.715 16.4948 49.5846C16.8096 49.4542 17.0956 49.2631 17.3365 49.0222L22.5253 43.8333C22.7663 43.5924 22.9574 43.3064 23.0878 42.9917C23.2181 42.6769 23.2853 42.3395 23.2853 41.9988C23.2853 41.6581 23.2181 41.3208 23.0878 41.006C22.9574 40.6912 22.7663 40.4052 22.5253 40.1643C21.5128 39.1512 19.8701 39.1512 18.8569 40.1643ZM38.5469 47L49.7969 58.2501C56.0102 64.4633 56.0102 74.537 49.7969 80.7502C43.5837 86.9635 33.5101 86.9635 27.2968 80.7502C21.0836 74.537 21.0836 64.4633 27.2968 58.2501L38.5469 47ZM41 55.5C41 56.8808 39.8807 58 38.5 58C37.1193 58 36 56.8808 36 55.5C36 54.1193 37.1193 53 38.5 53C39.8807 53 41 54.1193 41 55.5ZM39.8247 77.6267V79H37.4827V77.6666C36.8093 77.6032 36.1452 77.4777 35.4904 77.2902C34.5013 77.0002 33.6712 76.5818 33 76.0349L34.3882 73.989C34.7062 74.2921 35.0912 74.5524 35.5434 74.7698C36.0026 74.9807 36.49 75.1454 37.0058 75.264C37.1658 75.2987 37.3247 75.3281 37.4827 75.3521V71.4808L37.3025 71.4489C35.9178 71.0733 34.9004 70.556 34.2505 69.8971C33.6005 69.2382 33.2755 68.4245 33.2755 67.4559C33.2755 66.6388 33.5051 65.9206 33.9644 65.3012C34.4236 64.6752 35.0523 64.1843 35.8507 63.8285C36.3516 63.6053 36.8956 63.4521 37.4827 63.3689V62H39.8247V63.3714C40.383 63.442 40.9164 63.5614 41.4249 63.7297C42.3009 64.013 43.0109 64.3985 43.5549 64.8861L42.1349 66.8431C41.7251 66.4609 41.1988 66.1545 40.5559 65.9239C40.3156 65.8377 40.0719 65.7676 39.8247 65.7136V69.4794L40.0366 69.5117C41.3436 69.8609 42.3292 70.3419 42.9933 70.9547C43.6644 71.5675 44 72.3911 44 73.4256C44 74.2756 43.7775 75.0235 43.3324 75.6692C42.8943 76.315 42.2656 76.819 41.446 77.1814C40.9602 77.3924 40.4198 77.5408 39.8247 77.6267ZM39.8247 72.0188V75.2901C40.116 75.2172 40.3738 75.1163 40.5983 74.9873C41.1211 74.6907 41.3825 74.2657 41.3825 73.7122C41.3825 73.2181 41.1847 72.8194 40.789 72.5163C40.5644 72.3373 40.2429 72.1715 39.8247 72.0188ZM37.4827 65.6824C37.3525 65.7109 37.2288 65.7453 37.1118 65.7855C36.7161 65.9239 36.4123 66.1248 36.2004 66.3884C35.9884 66.6454 35.8825 66.9551 35.8825 67.3175C35.8825 67.8183 36.0626 68.2103 36.4229 68.4936C36.6523 68.6664 37.0055 68.8328 37.4827 68.9927V65.6824Z" fill="url(#paint1_linear_4366_54202)"/>
<path fill-rule="evenodd" clip-rule="evenodd" d="M46.0051 43.0325L64.0156 61.043L82.0261 43.0325C91.9731 33.0856 91.9731 16.9584 82.0261 7.01147C72.0792 -2.93546 55.952 -2.93546 46.0051 7.01147C36.0582 16.9584 36.0582 33.0856 46.0051 43.0325ZM18.8569 40.1643L18.0969 40.9241V12.5946C18.0969 11.9065 17.8235 11.2466 17.3369 10.76C16.8503 10.2734 16.1904 10 15.5023 10C14.8142 10 14.1542 10.2734 13.6676 10.76C13.1811 11.2466 12.9077 11.9065 12.9077 12.5946V40.9241L12.1476 40.1643C11.6611 39.6778 11.0012 39.4045 10.3131 39.4045C9.62506 39.4045 8.96516 39.6778 8.47862 40.1643C7.99208 40.6509 7.71875 41.3108 7.71875 41.9988C7.71875 42.6869 7.99208 43.3468 8.47862 43.8333L13.6675 49.0222C13.9084 49.2631 14.1944 49.4542 14.5092 49.5846C14.8239 49.715 15.1613 49.7821 15.502 49.7821C15.8427 49.7821 16.18 49.715 16.4948 49.5846C16.8096 49.4542 17.0956 49.2631 17.3365 49.0222L22.5253 43.8333C22.7663 43.5924 22.9574 43.3064 23.0878 42.9917C23.2181 42.6769 23.2853 42.3395 23.2853 41.9988C23.2853 41.6581 23.2181 41.3208 23.0878 41.006C22.9574 40.6912 22.7663 40.4052 22.5253 40.1643C21.5128 39.1512 19.8701 39.1512 18.8569 40.1643ZM38.5469 47L49.7969 58.2501C56.0102 64.4633 56.0102 74.537 49.7969 80.7502C43.5837 86.9635 33.5101 86.9635 27.2968 80.7502C21.0836 74.537 21.0836 64.4633 27.2968 58.2501L38.5469 47ZM41 55.5C41 56.8808 39.8807 58 38.5 58C37.1193 58 36 56.8808 36 55.5C36 54.1193 37.1193 53 38.5 53C39.8807 53 41 54.1193 41 55.5ZM39.8247 77.6267V79H37.4827V77.6666C36.8093 77.6032 36.1452 77.4777 35.4904 77.2902C34.5013 77.0002 33.6712 76.5818 33 76.0349L34.3882 73.989C34.7062 74.2921 35.0912 74.5524 35.5434 74.7698C36.0026 74.9807 36.49 75.1454 37.0058 75.264C37.1658 75.2987 37.3247 75.3281 37.4827 75.3521V71.4808L37.3025 71.4489C35.9178 71.0733 34.9004 70.556 34.2505 69.8971C33.6005 69.2382 33.2755 68.4245 33.2755 67.4559C33.2755 66.6388 33.5051 65.9206 33.9644 65.3012C34.4236 64.6752 35.0523 64.1843 35.8507 63.8285C36.3516 63.6053 36.8956 63.4521 37.4827 63.3689V62H39.8247V63.3714C40.383 63.442 40.9164 63.5614 41.4249 63.7297C42.3009 64.013 43.0109 64.3985 43.5549 64.8861L42.1349 66.8431C41.7251 66.4609 41.1988 66.1545 40.5559 65.9239C40.3156 65.8377 40.0719 65.7676 39.8247 65.7136V69.4794L40.0366 69.5117C41.3436 69.8609 42.3292 70.3419 42.9933 70.9547C43.6644 71.5675 44 72.3911 44 73.4256C44 74.2756 43.7775 75.0235 43.3324 75.6692C42.8943 76.315 42.2656 76.819 41.446 77.1814C40.9602 77.3924 40.4198 77.5408 39.8247 77.6267ZM39.8247 72.0188V75.2901C40.116 75.2172 40.3738 75.1163 40.5983 74.9873C41.1211 74.6907 41.3825 74.2657 41.3825 73.7122C41.3825 73.2181 41.1847 72.8194 40.789 72.5163C40.5644 72.3373 40.2429 72.1715 39.8247 72.0188ZM37.4827 65.6824C37.3525 65.7109 37.2288 65.7453 37.1118 65.7855C36.7161 65.9239 36.4123 66.1248 36.2004 66.3884C35.9884 66.6454 35.8825 66.9551 35.8825 67.3175C35.8825 67.8183 36.0626 68.2103 36.4229 68.4936C36.6523 68.6664 37.0055 68.8328 37.4827 68.9927V65.6824Z" fill="url(#paint2_linear_4366_54202)"/>
<path fill-rule="evenodd" clip-rule="evenodd" d="M46.0051 43.0325L64.0156 61.043L82.0261 43.0325C91.9731 33.0856 91.9731 16.9584 82.0261 7.01147C72.0792 -2.93546 55.952 -2.93546 46.0051 7.01147C36.0582 16.9584 36.0582 33.0856 46.0051 43.0325ZM18.8569 40.1643L18.0969 40.9241V12.5946C18.0969 11.9065 17.8235 11.2466 17.3369 10.76C16.8503 10.2734 16.1904 10 15.5023 10C14.8142 10 14.1542 10.2734 13.6676 10.76C13.1811 11.2466 12.9077 11.9065 12.9077 12.5946V40.9241L12.1476 40.1643C11.6611 39.6778 11.0012 39.4045 10.3131 39.4045C9.62506 39.4045 8.96516 39.6778 8.47862 40.1643C7.99208 40.6509 7.71875 41.3108 7.71875 41.9988C7.71875 42.6869 7.99208 43.3468 8.47862 43.8333L13.6675 49.0222C13.9084 49.2631 14.1944 49.4542 14.5092 49.5846C14.8239 49.715 15.1613 49.7821 15.502 49.7821C15.8427 49.7821 16.18 49.715 16.4948 49.5846C16.8096 49.4542 17.0956 49.2631 17.3365 49.0222L22.5253 43.8333C22.7663 43.5924 22.9574 43.3064 23.0878 42.9917C23.2181 42.6769 23.2853 42.3395 23.2853 41.9988C23.2853 41.6581 23.2181 41.3208 23.0878 41.006C22.9574 40.6912 22.7663 40.4052 22.5253 40.1643C21.5128 39.1512 19.8701 39.1512 18.8569 40.1643ZM38.5469 47L49.7969 58.2501C56.0102 64.4633 56.0102 74.537 49.7969 80.7502C43.5837 86.9635 33.5101 86.9635 27.2968 80.7502C21.0836 74.537 21.0836 64.4633 27.2968 58.2501L38.5469 47ZM41 55.5C41 56.8808 39.8807 58 38.5 58C37.1193 58 36 56.8808 36 55.5C36 54.1193 37.1193 53 38.5 53C39.8807 53 41 54.1193 41 55.5ZM39.8247 77.6267V79H37.4827V77.6666C36.8093 77.6032 36.1452 77.4777 35.4904 77.2902C34.5013 77.0002 33.6712 76.5818 33 76.0349L34.3882 73.989C34.7062 74.2921 35.0912 74.5524 35.5434 74.7698C36.0026 74.9807 36.49 75.1454 37.0058 75.264C37.1658 75.2987 37.3247 75.3281 37.4827 75.3521V71.4808L37.3025 71.4489C35.9178 71.0733 34.9004 70.556 34.2505 69.8971C33.6005 69.2382 33.2755 68.4245 33.2755 67.4559C33.2755 66.6388 33.5051 65.9206 33.9644 65.3012C34.4236 64.6752 35.0523 64.1843 35.8507 63.8285C36.3516 63.6053 36.8956 63.4521 37.4827 63.3689V62H39.8247V63.3714C40.383 63.442 40.9164 63.5614 41.4249 63.7297C42.3009 64.013 43.0109 64.3985 43.5549 64.8861L42.1349 66.8431C41.7251 66.4609 41.1988 66.1545 40.5559 65.9239C40.3156 65.8377 40.0719 65.7676 39.8247 65.7136V69.4794L40.0366 69.5117C41.3436 69.8609 42.3292 70.3419 42.9933 70.9547C43.6644 71.5675 44 72.3911 44 73.4256C44 74.2756 43.7775 75.0235 43.3324 75.6692C42.8943 76.315 42.2656 76.819 41.446 77.1814C40.9602 77.3924 40.4198 77.5408 39.8247 77.6267ZM39.8247 72.0188V75.2901C40.116 75.2172 40.3738 75.1163 40.5983 74.9873C41.1211 74.6907 41.3825 74.2657 41.3825 73.7122C41.3825 73.2181 41.1847 72.8194 40.789 72.5163C40.5644 72.3373 40.2429 72.1715 39.8247 72.0188ZM37.4827 65.6824C37.3525 65.7109 37.2288 65.7453 37.1118 65.7855C36.7161 65.9239 36.4123 66.1248 36.2004 66.3884C35.9884 66.6454 35.8825 66.9551 35.8825 67.3175C35.8825 67.8183 36.0626 68.2103 36.4229 68.4936C36.6523 68.6664 37.0055 68.8328 37.4827 68.9927V65.6824Z" fill="url(#paint3_linear_4366_54202)"/>
<path fill-rule="evenodd" clip-rule="evenodd" d="M46.0051 43.0325L64.0156 61.043L82.0261 43.0325C91.9731 33.0856 91.9731 16.9584 82.0261 7.01147C72.0792 -2.93546 55.952 -2.93546 46.0051 7.01147C36.0582 16.9584 36.0582 33.0856 46.0051 43.0325ZM18.8569 40.1643L18.0969 40.9241V12.5946C18.0969 11.9065 17.8235 11.2466 17.3369 10.76C16.8503 10.2734 16.1904 10 15.5023 10C14.8142 10 14.1542 10.2734 13.6676 10.76C13.1811 11.2466 12.9077 11.9065 12.9077 12.5946V40.9241L12.1476 40.1643C11.6611 39.6778 11.0012 39.4045 10.3131 39.4045C9.62506 39.4045 8.96516 39.6778 8.47862 40.1643C7.99208 40.6509 7.71875 41.3108 7.71875 41.9988C7.71875 42.6869 7.99208 43.3468 8.47862 43.8333L13.6675 49.0222C13.9084 49.2631 14.1944 49.4542 14.5092 49.5846C14.8239 49.715 15.1613 49.7821 15.502 49.7821C15.8427 49.7821 16.18 49.715 16.4948 49.5846C16.8096 49.4542 17.0956 49.2631 17.3365 49.0222L22.5253 43.8333C22.7663 43.5924 22.9574 43.3064 23.0878 42.9917C23.2181 42.6769 23.2853 42.3395 23.2853 41.9988C23.2853 41.6581 23.2181 41.3208 23.0878 41.006C22.9574 40.6912 22.7663 40.4052 22.5253 40.1643C21.5128 39.1512 19.8701 39.1512 18.8569 40.1643ZM38.5469 47L49.7969 58.2501C56.0102 64.4633 56.0102 74.537 49.7969 80.7502C43.5837 86.9635 33.5101 86.9635 27.2968 80.7502C21.0836 74.537 21.0836 64.4633 27.2968 58.2501L38.5469 47ZM41 55.5C41 56.8808 39.8807 58 38.5 58C37.1193 58 36 56.8808 36 55.5C36 54.1193 37.1193 53 38.5 53C39.8807 53 41 54.1193 41 55.5ZM39.8247 77.6267V79H37.4827V77.6666C36.8093 77.6032 36.1452 77.4777 35.4904 77.2902C34.5013 77.0002 33.6712 76.5818 33 76.0349L34.3882 73.989C34.7062 74.2921 35.0912 74.5524 35.5434 74.7698C36.0026 74.9807 36.49 75.1454 37.0058 75.264C37.1658 75.2987 37.3247 75.3281 37.4827 75.3521V71.4808L37.3025 71.4489C35.9178 71.0733 34.9004 70.556 34.2505 69.8971C33.6005 69.2382 33.2755 68.4245 33.2755 67.4559C33.2755 66.6388 33.5051 65.9206 33.9644 65.3012C34.4236 64.6752 35.0523 64.1843 35.8507 63.8285C36.3516 63.6053 36.8956 63.4521 37.4827 63.3689V62H39.8247V63.3714C40.383 63.442 40.9164 63.5614 41.4249 63.7297C42.3009 64.013 43.0109 64.3985 43.5549 64.8861L42.1349 66.8431C41.7251 66.4609 41.1988 66.1545 40.5559 65.9239C40.3156 65.8377 40.0719 65.7676 39.8247 65.7136V69.4794L40.0366 69.5117C41.3436 69.8609 42.3292 70.3419 42.9933 70.9547C43.6644 71.5675 44 72.3911 44 73.4256C44 74.2756 43.7775 75.0235 43.3324 75.6692C42.8943 76.315 42.2656 76.819 41.446 77.1814C40.9602 77.3924 40.4198 77.5408 39.8247 77.6267ZM39.8247 72.0188V75.2901C40.116 75.2172 40.3738 75.1163 40.5983 74.9873C41.1211 74.6907 41.3825 74.2657 41.3825 73.7122C41.3825 73.2181 41.1847 72.8194 40.789 72.5163C40.5644 72.3373 40.2429 72.1715 39.8247 72.0188ZM37.4827 65.6824C37.3525 65.7109 37.2288 65.7453 37.1118 65.7855C36.7161 65.9239 36.4123 66.1248 36.2004 66.3884C35.9884 66.6454 35.8825 66.9551 35.8825 67.3175C35.8825 67.8183 36.0626 68.2103 36.4229 68.4936C36.6523 68.6664 37.0055 68.8328 37.4827 68.9927V65.6824Z" fill="url(#paint4_linear_4366_54202)"/>
</g>
<path d="M64.0156 61.043L63.7328 61.3259L64.0156 61.6087L64.2985 61.3259L64.0156 61.043ZM82.0261 43.0325L81.7433 42.7496L82.0261 43.0325ZM46.0051 7.01147L46.288 7.29431L46.0051 7.01147ZM18.0969 40.9241H17.6969V41.8895L18.3796 41.207L18.0969 40.9241ZM18.8569 40.1643L19.1397 40.4472L19.1398 40.4472L18.8569 40.1643ZM17.3369 10.76L17.0541 11.0428L17.3369 10.76ZM13.6676 10.76L13.9505 11.0428L13.9505 11.0428L13.6676 10.76ZM12.9077 40.9241L12.6249 41.207L13.3077 41.8895V40.9241H12.9077ZM12.1476 40.1643L11.8648 40.4472L11.8648 40.4472L12.1476 40.1643ZM8.47862 40.1643L8.19578 39.8815L8.47862 40.1643ZM8.47862 43.8333L8.19578 44.1162L8.19578 44.1162L8.47862 43.8333ZM13.6675 49.0222L13.9503 48.7394L13.9503 48.7393L13.6675 49.0222ZM17.3365 49.0222L17.0536 48.7393L17.0536 48.7394L17.3365 49.0222ZM22.5253 43.8333L22.2425 43.5505L22.2425 43.5505L22.5253 43.8333ZM23.0878 41.006L22.7182 41.1591H22.7182L23.0878 41.006ZM22.5253 40.1643L22.2424 40.4471L22.2425 40.4472L22.5253 40.1643ZM38.5469 47L38.8297 46.7172L38.5469 46.4344L38.264 46.7172L38.5469 47ZM49.7969 80.7502L49.5141 80.4674L49.7969 80.7502ZM27.2968 80.7502L27.5797 80.4674L27.2968 80.7502ZM27.2968 58.2501L27.014 57.9673L27.2968 58.2501ZM39.8247 77.6267L39.7675 77.2308L39.4247 77.2803V77.6267H39.8247ZM39.8247 79V79.4H40.2247V79H39.8247ZM37.4827 79H37.0827V79.4H37.4827V79ZM37.4827 77.6666H37.8827V77.3025L37.5201 77.2684L37.4827 77.6666ZM35.4904 77.2902L35.3778 77.674L35.3802 77.6747L35.4904 77.2902ZM33 76.0349L32.669 75.8103L32.4633 76.1135L32.7473 76.345L33 76.0349ZM34.3882 73.989L34.6643 73.6995L34.3224 73.3736L34.0573 73.7644L34.3882 73.989ZM35.5434 74.7698L35.37 75.1303L35.3764 75.1333L35.5434 74.7698ZM37.0058 75.264L36.9161 75.6538L36.9209 75.6549L37.0058 75.264ZM37.4827 75.3521L37.4226 75.7475L37.8827 75.8174V75.3521H37.4827ZM37.4827 71.4808H37.8827V71.1454L37.5524 71.0869L37.4827 71.4808ZM37.3025 71.4489L37.1978 71.8349L37.2151 71.8396L37.2328 71.8428L37.3025 71.4489ZM34.2505 69.8971L34.5353 69.6162L34.2505 69.8971ZM33.9644 65.3012L34.2857 65.5394L34.2869 65.5378L33.9644 65.3012ZM35.8507 63.8285L36.0135 64.1939H36.0135L35.8507 63.8285ZM37.4827 63.3689L37.5388 63.7649L37.8827 63.7162V63.3689H37.4827ZM37.4827 62V61.6H37.0827V62H37.4827ZM39.8247 62H40.2247V61.6H39.8247V62ZM39.8247 63.3714H39.4247V63.724L39.7745 63.7682L39.8247 63.3714ZM41.4249 63.7297L41.2992 64.1094L41.3018 64.1103L41.4249 63.7297ZM43.5549 64.8861L43.8787 65.121L44.0905 64.829L43.8219 64.5882L43.5549 64.8861ZM42.1349 66.8431L41.862 67.1356L42.1929 67.4442L42.4586 67.078L42.1349 66.8431ZM40.5559 65.9239L40.4208 66.3004H40.4208L40.5559 65.9239ZM39.8247 65.7136L39.91 65.3228L39.4247 65.2169V65.7136H39.8247ZM39.8247 69.4794H39.4247V69.8231L39.7645 69.8748L39.8247 69.4794ZM40.0366 69.5117L40.1399 69.1252L40.1186 69.1195L40.0968 69.1162L40.0366 69.5117ZM42.9933 70.9547L42.722 71.2487L42.7236 71.2501L42.9933 70.9547ZM43.3324 75.6692L43.003 75.4422L43.0013 75.4447L43.3324 75.6692ZM41.446 77.1814L41.6054 77.5484L41.6078 77.5473L41.446 77.1814ZM39.8247 72.0188L39.9618 71.6431L39.4247 71.4471V72.0188H39.8247ZM39.8247 75.2901H39.4247V75.8025L39.9217 75.6782L39.8247 75.2901ZM40.5983 74.9873L40.4009 74.6393L40.3989 74.6405L40.5983 74.9873ZM40.789 72.5163L40.5397 72.8292L40.5458 72.8338L40.789 72.5163ZM37.4827 65.6824H37.8827V65.1852L37.397 65.2916L37.4827 65.6824ZM37.1118 65.7855L36.9818 65.4072L36.9797 65.4079L37.1118 65.7855ZM36.2004 66.3884L36.509 66.6429L36.5121 66.6391L36.2004 66.3884ZM36.4229 68.4936L36.1756 68.8081L36.1823 68.8131L36.4229 68.4936ZM37.4827 68.9927L37.3555 69.3719L37.8827 69.5486V68.9927H37.4827ZM64.2985 60.7602L46.288 42.7497L45.7223 43.3153L63.7328 61.3259L64.2985 60.7602ZM81.7433 42.7496L63.7328 60.7602L64.2985 61.3259L82.309 43.3153L81.7433 42.7496ZM81.7433 7.29431C91.534 17.085 91.534 32.9589 81.7433 42.7496L82.309 43.3153C92.4121 33.2122 92.4121 16.8318 82.309 6.72862L81.7433 7.29431ZM46.288 7.29431C56.0787 -2.49641 71.9526 -2.49641 81.7433 7.29431L82.309 6.72862C72.2058 -3.37452 55.8254 -3.37452 45.7223 6.72862L46.288 7.29431ZM46.288 42.7497C36.4972 32.9589 36.4972 17.085 46.288 7.29431L45.7223 6.72862C35.6191 16.8318 35.6191 33.2122 45.7223 43.3153L46.288 42.7497ZM18.3796 41.207L19.1397 40.4472L18.5741 39.8814L17.8141 40.6412L18.3796 41.207ZM17.6969 12.5946V40.9241H18.4969V12.5946H17.6969ZM17.0541 11.0428C17.4656 11.4544 17.6969 12.0126 17.6969 12.5946H18.4969C18.4969 11.8004 18.1814 11.0387 17.6198 10.4771L17.0541 11.0428ZM15.5023 10.4C16.0843 10.4 16.6425 10.6313 17.0541 11.0428L17.6198 10.4771C17.0582 9.91555 16.2965 9.60004 15.5023 9.60004V10.4ZM13.9505 11.0428C14.362 10.6313 14.9202 10.4 15.5023 10.4V9.60004C14.7081 9.60004 13.9464 9.91554 13.3848 10.4771L13.9505 11.0428ZM13.3077 12.5946C13.3077 12.0126 13.5389 11.4544 13.9505 11.0428L13.3848 10.4771C12.8232 11.0387 12.5077 11.8004 12.5077 12.5946H13.3077ZM13.3077 40.9241V12.5946H12.5077V40.9241H13.3077ZM11.8648 40.4472L12.6249 41.207L13.1905 40.6412L12.4304 39.8814L11.8648 40.4472ZM10.3131 39.8045C10.8951 39.8045 11.4533 40.0356 11.8648 40.4472L12.4305 39.8815C11.8689 39.3199 11.1073 39.0045 10.3131 39.0045V39.8045ZM8.76147 40.4472C9.17299 40.0356 9.73114 39.8045 10.3131 39.8045V39.0045C9.51897 39.0045 8.75734 39.3199 8.19578 39.8815L8.76147 40.4472ZM8.11875 41.9988C8.11875 41.4168 8.34994 40.8587 8.76147 40.4472L8.19578 39.8815C7.63423 40.443 7.31875 41.2047 7.31875 41.9988H8.11875ZM8.76147 43.5505C8.34994 43.139 8.11875 42.5808 8.11875 41.9988H7.31875C7.31875 42.793 7.63423 43.5546 8.19578 44.1162L8.76147 43.5505ZM13.9503 48.7393L8.76147 43.5505L8.19578 44.1162L13.3846 49.305L13.9503 48.7393ZM14.6622 49.2151C14.396 49.1048 14.1541 48.9431 13.9503 48.7394L13.3846 49.305C13.6627 49.5831 13.9928 49.8037 14.3561 49.9542L14.6622 49.2151ZM15.502 49.3821C15.2138 49.3821 14.9285 49.3253 14.6622 49.2151L14.3561 49.9542C14.7194 50.1047 15.1088 50.1821 15.502 50.1821V49.3821ZM16.3417 49.2151C16.0755 49.3253 15.7902 49.3821 15.502 49.3821V50.1821C15.8952 50.1821 16.2846 50.1047 16.6479 49.9542L16.3417 49.2151ZM17.0536 48.7394C16.8499 48.9431 16.608 49.1048 16.3417 49.2151L16.6479 49.9542C17.0112 49.8037 17.3413 49.5831 17.6193 49.305L17.0536 48.7394ZM22.2425 43.5505L17.0536 48.7393L17.6193 49.305L22.8082 44.1162L22.2425 43.5505ZM22.7182 42.8386C22.6079 43.1048 22.4463 43.3467 22.2425 43.5505L22.8082 44.1162C23.0862 43.8381 23.3068 43.508 23.4573 43.1447L22.7182 42.8386ZM22.8853 41.9988C22.8853 42.287 22.8285 42.5724 22.7182 42.8386L23.4573 43.1447C23.6078 42.7814 23.6853 42.3921 23.6853 41.9988H22.8853ZM22.7182 41.1591C22.8285 41.4253 22.8853 41.7107 22.8853 41.9988H23.6853C23.6853 41.6056 23.6078 41.2162 23.4573 40.8529L22.7182 41.1591ZM22.2425 40.4472C22.4463 40.6509 22.6079 40.8928 22.7182 41.1591L23.4573 40.8529C23.3068 40.4896 23.0862 40.1595 22.8082 39.8815L22.2425 40.4472ZM19.1398 40.4472C19.9967 39.5902 21.3861 39.5903 22.2424 40.4471L22.8083 39.8816C21.6394 38.7121 19.7434 38.7122 18.5741 39.8815L19.1398 40.4472ZM50.0798 57.9673L38.8297 46.7172L38.264 47.2829L49.5141 58.533L50.0798 57.9673ZM50.0798 81.0331C56.4492 74.6636 56.4492 64.3367 50.0798 57.9673L49.5141 58.533C55.5711 64.59 55.5711 74.4104 49.5141 80.4674L50.0798 81.0331ZM27.014 81.0331C33.3834 87.4025 43.7103 87.4025 50.0798 81.0331L49.5141 80.4674C43.4571 86.5244 33.6367 86.5244 27.5797 80.4674L27.014 81.0331ZM27.014 57.9673C20.6445 64.3367 20.6445 74.6636 27.014 81.0331L27.5797 80.4674C21.5226 74.4104 21.5226 64.59 27.5797 58.5329L27.014 57.9673ZM38.264 46.7172L27.014 57.9673L27.5797 58.5329L38.8297 47.2829L38.264 46.7172ZM38.5 58.4C40.1016 58.4 41.4 57.1017 41.4 55.5H40.6C40.6 56.6598 39.6598 57.6 38.5 57.6V58.4ZM35.6 55.5C35.6 57.1017 36.8984 58.4 38.5 58.4V57.6C37.3402 57.6 36.4 56.6598 36.4 55.5H35.6ZM38.5 52.6C36.8984 52.6 35.6 53.8984 35.6 55.5H36.4C36.4 54.3402 37.3402 53.4 38.5 53.4V52.6ZM41.4 55.5C41.4 53.8984 40.1016 52.6 38.5 52.6V53.4C39.6598 53.4 40.6 54.3402 40.6 55.5H41.4ZM39.4247 77.6267V79H40.2247V77.6267H39.4247ZM39.8247 78.6H37.4827V79.4H39.8247V78.6ZM37.8827 79V77.6666H37.0827V79H37.8827ZM37.5201 77.2684C36.8715 77.2073 36.2317 77.0864 35.6005 76.9056L35.3802 77.6747C36.0586 77.869 36.747 77.9991 37.4452 78.0648L37.5201 77.2684ZM35.6029 76.9063C34.6554 76.6286 33.8754 76.2323 33.2527 75.7248L32.7473 76.345C33.4669 76.9314 34.3472 77.3719 35.3778 77.674L35.6029 76.9063ZM33.331 76.2595L34.7192 74.2136L34.0573 73.7644L32.669 75.8103L33.331 76.2595ZM34.1122 74.2785C34.4644 74.6143 34.8854 74.8972 35.37 75.1303L35.7167 74.4093C35.297 74.2075 34.9479 73.9699 34.6643 73.6995L34.1122 74.2785ZM35.3764 75.1333C35.8616 75.3561 36.3751 75.5294 36.9161 75.6538L37.0954 74.8742C36.605 74.7614 36.1435 74.6052 35.7103 74.4063L35.3764 75.1333ZM36.9209 75.6549C37.0889 75.6914 37.2562 75.7223 37.4226 75.7475L37.5427 74.9566C37.3933 74.9339 37.2426 74.9061 37.0907 74.8731L36.9209 75.6549ZM37.8827 75.3521V71.4808H37.0827V75.3521H37.8827ZM37.5524 71.0869L37.3722 71.055L37.2328 71.8428L37.4129 71.8746L37.5524 71.0869ZM37.4072 71.0628C36.0564 70.6964 35.1154 70.2044 34.5353 69.6162L33.9657 70.178C34.6855 70.9077 35.7792 71.4501 37.1978 71.8349L37.4072 71.0628ZM34.5353 69.6162C33.9629 69.0359 33.6755 68.3248 33.6755 67.4559H32.8755C32.8755 68.5242 33.2382 69.4405 33.9657 70.178L34.5353 69.6162ZM33.6755 67.4559C33.6755 66.7191 33.8807 66.0856 34.2857 65.5394L33.643 65.063C33.1296 65.7555 32.8755 66.5585 32.8755 67.4559H33.6755ZM34.2869 65.5378C34.7 64.9747 35.2705 64.525 36.0135 64.1939L35.6878 63.4632C34.8341 63.8437 34.1472 64.3758 33.6418 65.0646L34.2869 65.5378ZM36.0135 64.1939C36.4778 63.987 36.9855 63.8433 37.5388 63.7649L37.4265 62.9729C36.8056 63.0608 36.2253 63.2236 35.6878 63.4632L36.0135 64.1939ZM37.8827 63.3689V62H37.0827V63.3689H37.8827ZM37.4827 62.4H39.8247V61.6H37.4827V62.4ZM39.4247 62V63.3714H40.2247V62H39.4247ZM39.7745 63.7682C40.3085 63.8358 40.8165 63.9497 41.2992 64.1094L41.5505 63.3499C41.0163 63.1732 40.4576 63.0482 39.8748 62.9746L39.7745 63.7682ZM41.3018 64.1103C42.138 64.3807 42.7949 64.7421 43.2879 65.1839L43.8219 64.5882C43.2269 64.0549 42.4638 63.6453 41.5479 63.3491L41.3018 64.1103ZM43.2312 64.6512L41.8111 66.6081L42.4586 67.078L43.8787 65.121L43.2312 64.6512ZM42.4077 66.5505C41.9505 66.1241 41.3741 65.7924 40.6909 65.5474L40.4208 66.3004C41.0235 66.5166 41.4997 66.7976 41.862 67.1356L42.4077 66.5505ZM40.6909 65.5474C40.4345 65.4554 40.1742 65.3805 39.91 65.3228L39.7393 66.1044C39.9695 66.1547 40.1966 66.22 40.4208 66.3004L40.6909 65.5474ZM39.4247 65.7136V69.4794H40.2247V65.7136H39.4247ZM39.7645 69.8748L39.9764 69.9071L40.0968 69.1162L39.8849 69.084L39.7645 69.8748ZM39.9334 69.8981C41.2063 70.2382 42.1234 70.6963 42.722 71.2487L43.2645 70.6607C42.5349 69.9875 41.4809 69.4835 40.1399 69.1252L39.9334 69.8981ZM42.7236 71.2501C43.2998 71.7763 43.6 72.4864 43.6 73.4256H44.4C44.4 72.2959 44.029 71.3587 43.263 70.6593L42.7236 71.2501ZM43.6 73.4256C43.6 74.2017 43.3982 74.8689 43.003 75.4422L43.6617 75.8962C44.1567 75.1781 44.4 74.3496 44.4 73.4256H43.6ZM43.0013 75.4447C42.6113 76.0196 42.0457 76.4789 41.2843 76.8156L41.6078 77.5473C42.4855 77.1591 43.1774 76.6103 43.6634 75.8938L43.0013 75.4447ZM41.2867 76.8145C40.8376 77.0095 40.3321 77.1493 39.7675 77.2308L39.8818 78.0226C40.5074 77.9323 41.0828 77.7752 41.6054 77.5483L41.2867 76.8145ZM39.4247 72.0188V75.2901H40.2247V72.0188H39.4247ZM39.9217 75.6782C40.2433 75.5977 40.5365 75.4841 40.7976 75.334L40.3989 74.6405C40.2111 74.7484 39.9886 74.8368 39.7276 74.9021L39.9217 75.6782ZM40.7956 75.3352C41.4305 74.9751 41.7825 74.4242 41.7825 73.7122H40.9825C40.9825 74.1072 40.8116 74.4064 40.4009 74.6393L40.7956 75.3352ZM41.7825 73.7122C41.7825 73.0924 41.5257 72.5768 41.0323 72.1988L40.5458 72.8338C40.8436 73.062 40.9825 73.3438 40.9825 73.7122H41.7825ZM41.0383 72.2035C40.7667 71.987 40.4008 71.8033 39.9618 71.6431L39.6876 72.3946C40.085 72.5396 40.3621 72.6875 40.5397 72.8291L41.0383 72.2035ZM37.397 65.2916C37.253 65.3232 37.1144 65.3616 36.9818 65.4072L37.2418 66.1638C37.3432 66.1289 37.4519 66.0986 37.5683 66.0731L37.397 65.2916ZM36.9797 65.4079C36.5303 65.5651 36.1575 65.8034 35.8887 66.1377L36.5121 66.6391C36.6671 66.4463 36.9019 66.2827 37.2438 66.1631L36.9797 65.4079ZM35.8918 66.1339C35.6154 66.469 35.4825 66.8709 35.4825 67.3175H36.2825C36.2825 67.0392 36.3615 66.8218 36.509 66.6429L35.8918 66.1339ZM35.4825 67.3175C35.4825 67.9279 35.7091 68.4412 36.1757 68.8081L36.6702 68.1792C36.4161 67.9794 36.2825 67.7086 36.2825 67.3175H35.4825ZM36.1823 68.8131C36.4625 69.0243 36.8634 69.207 37.3555 69.3719L37.6098 68.6134C37.1476 68.4585 36.842 68.3086 36.6636 68.1742L36.1823 68.8131ZM37.8827 68.9927V65.6824H37.0827V68.9927H37.8827Z" fill="url(#paint5_linear_4366_54202)" mask="url(#path-1-inside-1_4366_54202)"/>
</g>
<g id="Ellipse 255" opacity="0.4" filter="url(#filter1_f_4366_54202)">
<ellipse cx="35.3623" cy="40.6195" rx="7.46316" ry="2.91691" transform="rotate(-34.3463 35.3623 40.6195)" fill="white"/>
</g>
</g>
<defs>
<filter id="filter0_i_4366_54202" x="7.71875" y="-0.44873" width="81.7676" height="87.8589" filterUnits="userSpaceOnUse" color-interpolation-filters="sRGB">
<feFlood flood-opacity="0" result="BackgroundImageFix"/>
<feBlend mode="normal" in="SourceGraphic" in2="BackgroundImageFix" result="shape"/>
<feColorMatrix in="SourceAlpha" type="matrix" values="0 0 0 0 0 0 0 0 0 0 0 0 0 0 0 0 0 0 127 0" result="hardAlpha"/>
<feOffset dy="2"/>
<feGaussianBlur stdDeviation="1.5"/>
<feComposite in2="hardAlpha" operator="arithmetic" k2="-1" k3="1"/>
<feColorMatrix type="matrix" values="0 0 0 0 1 0 0 0 0 1 0 0 0 0 1 0 0 0 0.75 0"/>
<feBlend mode="normal" in2="shape" result="effect1_innerShadow_4366_54202"/>
</filter>
<filter id="filter1_f_4366_54202" x="22.9824" y="29.7681" width="24.7598" height="21.7031" filterUnits="userSpaceOnUse" color-interpolation-filters="sRGB">
<feFlood flood-opacity="0" result="BackgroundImageFix"/>
<feBlend mode="normal" in="SourceGraphic" in2="BackgroundImageFix" result="shape"/>
<feGaussianBlur stdDeviation="3" result="effect1_foregroundBlur_4366_54202"/>
</filter>
<linearGradient id="paint0_linear_4366_54202" x1="17.362" y1="31.3255" x2="59.2274" y2="78.8514" gradientUnits="userSpaceOnUse">
<stop stop-color="#26B189"/>
<stop offset="1" stop-color="#49F7C8"/>
</linearGradient>
<linearGradient id="paint1_linear_4366_54202" x1="26.5723" y1="10.0011" x2="58.4891" y2="87.5045" gradientUnits="userSpaceOnUse">
<stop stop-color="#2A94F1"/>
<stop offset="1" stop-color="#49F7C8"/>
</linearGradient>
<linearGradient id="paint2_linear_4366_54202" x1="27.7321" y1="11.1258" x2="59.8568" y2="88.9181" gradientUnits="userSpaceOnUse">
<stop stop-color="#4C7AD3"/>
<stop offset="0.505208" stop-color="#7AAEEA"/>
<stop offset="1" stop-color="#A17EFE"/>
</linearGradient>
<linearGradient id="paint3_linear_4366_54202" x1="9.4226" y1="-1.04521" x2="70.9063" y2="92.5156" gradientUnits="userSpaceOnUse">
<stop stop-color="#4C7AD3"/>
<stop offset="0.0001" stop-color="#1B289A"/>
<stop offset="1" stop-color="#0E91BD"/>
</linearGradient>
<linearGradient id="paint4_linear_4366_54202" x1="60.9955" y1="65.4999" x2="34.5194" y2="-16.3572" gradientUnits="userSpaceOnUse">
<stop stop-color="#1679C6"/>
<stop offset="1" stop-color="#5D94DC"/>
</linearGradient>
<linearGradient id="paint5_linear_4366_54202" x1="29.4877" y1="15.474" x2="56.7549" y2="79.306" gradientUnits="userSpaceOnUse">
<stop offset="0.00200455" stop-color="#E6E6E6"/>
<stop offset="0.548789" stop-color="white" stop-opacity="0.47491"/>
<stop offset="1" stop-color="#E6E6E6" stop-opacity="0.57"/>
</linearGradient>
<clipPath id="clip0_4366_54202">
<rect width="98" height="98" fill="white"/>
</clipPath>
</defs>
</svg>
