<svg width="73" height="74" viewBox="0 0 73 74" fill="none" xmlns="http://www.w3.org/2000/svg">
<g id="Frame">
<g id="Group 1000001822">
<g id="Union">
<mask id="path-1-inside-1_4366_54263" fill="white">
<path fill-rule="evenodd" clip-rule="evenodd" d="M1 2H36C44.3542 2 52.0249 4.927 58.0423 9.81144C58.6998 9.94449 59.3323 10.2773 59.8649 10.8099L64.8349 15.78C66.2549 17.2001 66.2549 19.3301 64.8349 20.75L61.6399 23.945C63.0599 26.43 64.1249 28.9151 64.8349 31.4H69.4499C71.5799 31.4 73 32.82 73 34.5949V41.6949C73 43.8249 71.5801 45.2449 69.4501 45.2449H65.545C64.8349 48.0849 63.77 50.5699 62.35 52.6998L65.545 55.8948C66.965 57.315 66.965 59.445 65.545 60.8649L60.575 65.8349C59.1548 67.2549 57.0248 67.2549 55.6049 65.8349L52.4099 62.6399C49.925 64.0599 47.4398 65.1249 44.9549 65.8349V70.4501C44.9549 72.5801 43.535 74 41.405 74H34.3049C32.1749 74 30.755 72.5801 30.755 70.4501V66.1901C27.9149 65.48 25.43 64.415 23.3 62.9951L20.105 66.1901C18.6849 67.61 16.5549 67.61 15.1349 66.1901L10.1649 61.22C9.6598 60.7149 9.33438 60.1199 9.18862 59.499C4.07807 53.4153 1 45.5671 1 37V2ZM58 37C58 48.598 48.598 58 37 58C25.402 58 16 48.598 16 37C16 25.402 25.402 16 37 16C48.598 16 58 25.402 58 37Z"/>
</mask>
<g filter="url(#filter0_i_4366_54263)">
<path fill-rule="evenodd" clip-rule="evenodd" d="M1 2H36C44.3542 2 52.0249 4.927 58.0423 9.81144C58.6998 9.94449 59.3323 10.2773 59.8649 10.8099L64.8349 15.78C66.2549 17.2001 66.2549 19.3301 64.8349 20.75L61.6399 23.945C63.0599 26.43 64.1249 28.9151 64.8349 31.4H69.4499C71.5799 31.4 73 32.82 73 34.5949V41.6949C73 43.8249 71.5801 45.2449 69.4501 45.2449H65.545C64.8349 48.0849 63.77 50.5699 62.35 52.6998L65.545 55.8948C66.965 57.315 66.965 59.445 65.545 60.8649L60.575 65.8349C59.1548 67.2549 57.0248 67.2549 55.6049 65.8349L52.4099 62.6399C49.925 64.0599 47.4398 65.1249 44.9549 65.8349V70.4501C44.9549 72.5801 43.535 74 41.405 74H34.3049C32.1749 74 30.755 72.5801 30.755 70.4501V66.1901C27.9149 65.48 25.43 64.415 23.3 62.9951L20.105 66.1901C18.6849 67.61 16.5549 67.61 15.1349 66.1901L10.1649 61.22C9.6598 60.7149 9.33438 60.1199 9.18862 59.499C4.07807 53.4153 1 45.5671 1 37V2ZM58 37C58 48.598 48.598 58 37 58C25.402 58 16 48.598 16 37C16 25.402 25.402 16 37 16C48.598 16 58 25.402 58 37Z" fill="#2A94F1"/>
<path fill-rule="evenodd" clip-rule="evenodd" d="M1 2H36C44.3542 2 52.0249 4.927 58.0423 9.81144C58.6998 9.94449 59.3323 10.2773 59.8649 10.8099L64.8349 15.78C66.2549 17.2001 66.2549 19.3301 64.8349 20.75L61.6399 23.945C63.0599 26.43 64.1249 28.9151 64.8349 31.4H69.4499C71.5799 31.4 73 32.82 73 34.5949V41.6949C73 43.8249 71.5801 45.2449 69.4501 45.2449H65.545C64.8349 48.0849 63.77 50.5699 62.35 52.6998L65.545 55.8948C66.965 57.315 66.965 59.445 65.545 60.8649L60.575 65.8349C59.1548 67.2549 57.0248 67.2549 55.6049 65.8349L52.4099 62.6399C49.925 64.0599 47.4398 65.1249 44.9549 65.8349V70.4501C44.9549 72.5801 43.535 74 41.405 74H34.3049C32.1749 74 30.755 72.5801 30.755 70.4501V66.1901C27.9149 65.48 25.43 64.415 23.3 62.9951L20.105 66.1901C18.6849 67.61 16.5549 67.61 15.1349 66.1901L10.1649 61.22C9.6598 60.7149 9.33438 60.1199 9.18862 59.499C4.07807 53.4153 1 45.5671 1 37V2ZM58 37C58 48.598 48.598 58 37 58C25.402 58 16 48.598 16 37C16 25.402 25.402 16 37 16C48.598 16 58 25.402 58 37Z" fill="url(#paint0_linear_4366_54263)"/>
<path fill-rule="evenodd" clip-rule="evenodd" d="M1 2H36C44.3542 2 52.0249 4.927 58.0423 9.81144C58.6998 9.94449 59.3323 10.2773 59.8649 10.8099L64.8349 15.78C66.2549 17.2001 66.2549 19.3301 64.8349 20.75L61.6399 23.945C63.0599 26.43 64.1249 28.9151 64.8349 31.4H69.4499C71.5799 31.4 73 32.82 73 34.5949V41.6949C73 43.8249 71.5801 45.2449 69.4501 45.2449H65.545C64.8349 48.0849 63.77 50.5699 62.35 52.6998L65.545 55.8948C66.965 57.315 66.965 59.445 65.545 60.8649L60.575 65.8349C59.1548 67.2549 57.0248 67.2549 55.6049 65.8349L52.4099 62.6399C49.925 64.0599 47.4398 65.1249 44.9549 65.8349V70.4501C44.9549 72.5801 43.535 74 41.405 74H34.3049C32.1749 74 30.755 72.5801 30.755 70.4501V66.1901C27.9149 65.48 25.43 64.415 23.3 62.9951L20.105 66.1901C18.6849 67.61 16.5549 67.61 15.1349 66.1901L10.1649 61.22C9.6598 60.7149 9.33438 60.1199 9.18862 59.499C4.07807 53.4153 1 45.5671 1 37V2ZM58 37C58 48.598 48.598 58 37 58C25.402 58 16 48.598 16 37C16 25.402 25.402 16 37 16C48.598 16 58 25.402 58 37Z" fill="url(#paint1_linear_4366_54263)"/>
<path fill-rule="evenodd" clip-rule="evenodd" d="M1 2H36C44.3542 2 52.0249 4.927 58.0423 9.81144C58.6998 9.94449 59.3323 10.2773 59.8649 10.8099L64.8349 15.78C66.2549 17.2001 66.2549 19.3301 64.8349 20.75L61.6399 23.945C63.0599 26.43 64.1249 28.9151 64.8349 31.4H69.4499C71.5799 31.4 73 32.82 73 34.5949V41.6949C73 43.8249 71.5801 45.2449 69.4501 45.2449H65.545C64.8349 48.0849 63.77 50.5699 62.35 52.6998L65.545 55.8948C66.965 57.315 66.965 59.445 65.545 60.8649L60.575 65.8349C59.1548 67.2549 57.0248 67.2549 55.6049 65.8349L52.4099 62.6399C49.925 64.0599 47.4398 65.1249 44.9549 65.8349V70.4501C44.9549 72.5801 43.535 74 41.405 74H34.3049C32.1749 74 30.755 72.5801 30.755 70.4501V66.1901C27.9149 65.48 25.43 64.415 23.3 62.9951L20.105 66.1901C18.6849 67.61 16.5549 67.61 15.1349 66.1901L10.1649 61.22C9.6598 60.7149 9.33438 60.1199 9.18862 59.499C4.07807 53.4153 1 45.5671 1 37V2ZM58 37C58 48.598 48.598 58 37 58C25.402 58 16 48.598 16 37C16 25.402 25.402 16 37 16C48.598 16 58 25.402 58 37Z" fill="url(#paint2_linear_4366_54263)"/>
</g>
<path d="M1 2V1.6H0.6V2H1ZM58.0423 9.81144L57.7902 10.122L57.8665 10.184L57.9629 10.2035L58.0423 9.81144ZM59.8649 10.8099L60.1477 10.5271H60.1477L59.8649 10.8099ZM64.8349 15.78L65.1178 15.4972L65.1178 15.4971L64.8349 15.78ZM64.8349 20.75L65.1178 21.0329L64.8349 20.75ZM61.6399 23.945L61.3571 23.6622L61.1411 23.8782L61.2927 24.1435L61.6399 23.945ZM64.8349 31.4L64.4503 31.5099L64.5332 31.8H64.8349V31.4ZM65.545 45.2449V44.8449H65.2327L65.157 45.1478L65.545 45.2449ZM62.35 52.6998L62.0172 52.478L61.8353 52.7508L62.0672 52.9827L62.35 52.6998ZM65.545 55.8948L65.8279 55.612L65.8279 55.612L65.545 55.8948ZM60.575 65.8349L60.8578 66.1178L60.8578 66.1178L60.575 65.8349ZM55.6049 65.8349L55.3221 66.1178H55.3221L55.6049 65.8349ZM52.4099 62.6399L52.6927 62.3571L52.4767 62.1411L52.2115 62.2927L52.4099 62.6399ZM44.9549 65.8349L44.845 65.4503L44.5549 65.5332V65.8349H44.9549ZM30.755 66.1901H31.155V65.8778L30.852 65.802L30.755 66.1901ZM23.3 62.9951L23.5219 62.6622L23.249 62.4804L23.0171 62.7122L23.3 62.9951ZM20.105 66.1901L20.3878 66.4729L20.3878 66.4729L20.105 66.1901ZM15.1349 66.1901L15.4178 65.9072V65.9072L15.1349 66.1901ZM10.1649 61.22L9.88202 61.5028L9.88204 61.5029L10.1649 61.22ZM9.18862 59.499L9.57803 59.4076L9.55624 59.3148L9.4949 59.2418L9.18862 59.499ZM36 1.6H1V2.4H36V1.6ZM58.2944 9.50087C52.2083 4.56069 44.4494 1.6 36 1.6V2.4C44.2591 2.4 51.8414 5.29331 57.7902 10.122L58.2944 9.50087ZM57.9629 10.2035C58.541 10.3205 59.1033 10.6141 59.5821 11.0928L60.1477 10.5271C59.5612 9.94058 58.8586 9.56851 58.1216 9.41938L57.9629 10.2035ZM59.5821 11.0928L64.5521 16.0628L65.1178 15.4971L60.1477 10.5271L59.5821 11.0928ZM64.5521 16.0628C65.8158 17.3267 65.8158 19.2035 64.5521 20.4672L65.1178 21.0329C66.694 19.4567 66.6939 17.0735 65.1178 15.4972L64.5521 16.0628ZM64.5521 20.4672L61.3571 23.6622L61.9228 24.2279L65.1178 21.0329L64.5521 20.4672ZM61.2927 24.1435C62.6983 26.6035 63.75 29.059 64.4503 31.5099L65.2196 31.2901C64.4998 28.7712 63.4215 26.2565 61.9872 23.7466L61.2927 24.1435ZM64.8349 31.8H69.4499V31H64.8349V31.8ZM69.4499 31.8C71.3874 31.8 72.6 33.0683 72.6 34.5949H73.4C73.4 32.5716 71.7723 31 69.4499 31V31.8ZM72.6 34.5949V41.6949H73.4V34.5949H72.6ZM72.6 41.6949C72.6 42.669 72.2771 43.4497 71.7409 43.9858C71.2048 44.5219 70.4242 44.8449 69.4501 44.8449V45.6449C70.606 45.6449 71.6003 45.2578 72.3066 44.5515C73.013 43.8451 73.4 42.8508 73.4 41.6949H72.6ZM69.4501 44.8449H65.545V45.6449H69.4501V44.8449ZM65.157 45.1478C64.4564 47.9497 63.4083 50.3912 62.0172 52.478L62.6828 52.9217C64.1316 50.7485 65.2135 48.2201 65.9331 45.3419L65.157 45.1478ZM62.0672 52.9827L65.2622 56.1777L65.8279 55.612L62.6329 52.417L62.0672 52.9827ZM65.2621 56.1777C66.5259 57.4416 66.5259 59.3183 65.2622 60.5821L65.8279 61.1477C67.404 59.5716 67.404 57.1883 65.8279 55.612L65.2621 56.1777ZM65.2622 60.5821L60.2921 65.5521L60.8578 66.1178L65.8279 61.1477L65.2622 60.5821ZM60.2921 65.5521C59.0282 66.8158 57.1515 66.8158 55.8877 65.5521L55.3221 66.1178C56.8982 67.694 59.2815 67.6939 60.8578 66.1178L60.2921 65.5521ZM55.8877 65.5521L52.6927 62.3571L52.1271 62.9228L55.3221 66.1178L55.8877 65.5521ZM52.2115 62.2927C49.7515 63.6983 47.2959 64.75 44.845 65.4503L45.0648 66.2196C47.5838 65.4998 50.0984 64.4215 52.6084 62.9872L52.2115 62.2927ZM44.5549 65.8349V70.4501H45.3549V65.8349H44.5549ZM44.5549 70.4501C44.5549 71.4242 44.232 72.2048 43.6958 72.7409C43.1597 73.2771 42.3791 73.6 41.405 73.6V74.4C42.5609 74.4 43.5552 74.013 44.2615 73.3066C44.9679 72.6003 45.3549 71.606 45.3549 70.4501H44.5549ZM41.405 73.6H34.3049V74.4H41.405V73.6ZM34.3049 73.6C33.3308 73.6 32.5502 73.2771 32.014 72.7409C31.4779 72.2048 31.155 71.4242 31.155 70.4501H30.355C30.355 71.606 30.742 72.6003 31.4484 73.3066C32.1547 74.013 33.149 74.4 34.3049 74.4V73.6ZM31.155 70.4501V66.1901H30.355V70.4501H31.155ZM30.852 65.802C28.0501 65.1015 25.6087 64.0534 23.5219 62.6622L23.0781 63.3279C25.2513 64.7766 27.7797 65.8585 30.658 66.5781L30.852 65.802ZM23.0171 62.7122L19.8221 65.9072L20.3878 66.4729L23.5828 63.2779L23.0171 62.7122ZM19.8222 65.9072C18.5582 67.171 16.6815 67.1709 15.4178 65.9072L14.8521 66.4729C16.4283 68.0491 18.8115 68.049 20.3878 66.4729L19.8222 65.9072ZM15.4178 65.9072L10.4477 60.9372L9.88204 61.5029L14.8521 66.4729L15.4178 65.9072ZM10.4477 60.9372C9.99368 60.4831 9.70627 59.9538 9.57803 59.4076L8.79921 59.5905C8.9625 60.286 9.32592 60.9467 9.88202 61.5028L10.4477 60.9372ZM0.6 37C0.6 45.6647 3.71352 53.6032 8.88234 59.7563L9.4949 59.2418C4.44262 53.2274 1.4 45.4696 1.4 37H0.6ZM0.6 2V37H1.4V2H0.6ZM37 58.4C48.8189 58.4 58.4 48.8189 58.4 37H57.6C57.6 48.3771 48.3771 57.6 37 57.6V58.4ZM15.6 37C15.6 48.8189 25.1811 58.4 37 58.4V57.6C25.6229 57.6 16.4 48.3771 16.4 37H15.6ZM37 15.6C25.1811 15.6 15.6 25.1811 15.6 37H16.4C16.4 25.6229 25.6229 16.4 37 16.4V15.6ZM58.4 37C58.4 25.1811 48.8189 15.6 37 15.6V16.4C48.3771 16.4 57.6 25.6229 57.6 37H58.4Z" fill="url(#paint3_linear_4366_54263)" mask="url(#path-1-inside-1_4366_54263)"/>
</g>
<g id="Group 1000001986">
<g id="95%">
<path d="M24.2487 42.4044L23.5633 40.9268C24.165 40.8507 24.7033 40.7231 25.1784 40.544C25.6534 40.3649 26.0696 40.1455 26.427 39.8858C26.7845 39.6262 27.0853 39.3351 27.3296 39.0128C27.5739 38.6904 27.7639 38.3501 27.8997 37.9919C27.687 38.2158 27.4269 38.3949 27.1192 38.5292C26.8161 38.659 26.4926 38.724 26.1488 38.724C25.5516 38.724 25.0132 38.5941 24.5337 38.3344C24.0587 38.0747 23.6831 37.7188 23.4072 37.2666C23.1357 36.8099 23 36.2883 23 35.7017C23 35.1152 23.1493 34.5891 23.4479 34.1234C23.751 33.6533 24.1695 33.2817 24.7033 33.0086C25.2372 32.7355 25.8525 32.5989 26.5492 32.5989C27.264 32.5989 27.8974 32.7511 28.4493 33.0556C29.0013 33.3556 29.4356 33.7876 29.7523 34.3518C30.069 34.9115 30.2273 35.5831 30.2273 36.3666C30.2273 37.1725 30.0758 37.9158 29.7727 38.5964C29.4695 39.2724 29.0443 39.8724 28.4968 40.3963C27.9539 40.9201 27.3206 41.3522 26.5967 41.6925C25.8728 42.0327 25.0902 42.2701 24.2487 42.4044ZM26.5492 37.1927C26.8659 37.1927 27.1486 37.1278 27.3975 36.9979C27.6508 36.8681 27.8499 36.6912 27.9947 36.4674C28.144 36.239 28.2186 35.9838 28.2186 35.7017C28.2186 35.4107 28.1462 35.1532 28.0014 34.9294C27.8567 34.7055 27.6599 34.5309 27.411 34.4055C27.1622 34.2757 26.8749 34.2108 26.5492 34.2108C26.228 34.2108 25.9407 34.2757 25.6873 34.4055C25.4385 34.5309 25.2417 34.7055 25.0969 34.9294C24.9567 35.1532 24.8866 35.4107 24.8866 35.7017C24.8866 35.9838 24.959 36.239 25.1037 36.4674C25.253 36.6912 25.4521 36.8681 25.7009 36.9979C25.9543 37.1278 26.237 37.1927 26.5492 37.1927Z" fill="white"/>
<path d="M24.2487 42.4044L23.5633 40.9268C24.165 40.8507 24.7033 40.7231 25.1784 40.544C25.6534 40.3649 26.0696 40.1455 26.427 39.8858C26.7845 39.6262 27.0853 39.3351 27.3296 39.0128C27.5739 38.6904 27.7639 38.3501 27.8997 37.9919C27.687 38.2158 27.4269 38.3949 27.1192 38.5292C26.8161 38.659 26.4926 38.724 26.1488 38.724C25.5516 38.724 25.0132 38.5941 24.5337 38.3344C24.0587 38.0747 23.6831 37.7188 23.4072 37.2666C23.1357 36.8099 23 36.2883 23 35.7017C23 35.1152 23.1493 34.5891 23.4479 34.1234C23.751 33.6533 24.1695 33.2817 24.7033 33.0086C25.2372 32.7355 25.8525 32.5989 26.5492 32.5989C27.264 32.5989 27.8974 32.7511 28.4493 33.0556C29.0013 33.3556 29.4356 33.7876 29.7523 34.3518C30.069 34.9115 30.2273 35.5831 30.2273 36.3666C30.2273 37.1725 30.0758 37.9158 29.7727 38.5964C29.4695 39.2724 29.0443 39.8724 28.4968 40.3963C27.9539 40.9201 27.3206 41.3522 26.5967 41.6925C25.8728 42.0327 25.0902 42.2701 24.2487 42.4044ZM26.5492 37.1927C26.8659 37.1927 27.1486 37.1278 27.3975 36.9979C27.6508 36.8681 27.8499 36.6912 27.9947 36.4674C28.144 36.239 28.2186 35.9838 28.2186 35.7017C28.2186 35.4107 28.1462 35.1532 28.0014 34.9294C27.8567 34.7055 27.6599 34.5309 27.411 34.4055C27.1622 34.2757 26.8749 34.2108 26.5492 34.2108C26.228 34.2108 25.9407 34.2757 25.6873 34.4055C25.4385 34.5309 25.2417 34.7055 25.0969 34.9294C24.9567 35.1532 24.8866 35.4107 24.8866 35.7017C24.8866 35.9838 24.959 36.239 25.1037 36.4674C25.253 36.6912 25.4521 36.8681 25.7009 36.9979C25.9543 37.1278 26.237 37.1927 26.5492 37.1927Z" fill="url(#paint4_linear_4366_54263)"/>
<path d="M24.2487 42.4044L23.5633 40.9268C24.165 40.8507 24.7033 40.7231 25.1784 40.544C25.6534 40.3649 26.0696 40.1455 26.427 39.8858C26.7845 39.6262 27.0853 39.3351 27.3296 39.0128C27.5739 38.6904 27.7639 38.3501 27.8997 37.9919C27.687 38.2158 27.4269 38.3949 27.1192 38.5292C26.8161 38.659 26.4926 38.724 26.1488 38.724C25.5516 38.724 25.0132 38.5941 24.5337 38.3344C24.0587 38.0747 23.6831 37.7188 23.4072 37.2666C23.1357 36.8099 23 36.2883 23 35.7017C23 35.1152 23.1493 34.5891 23.4479 34.1234C23.751 33.6533 24.1695 33.2817 24.7033 33.0086C25.2372 32.7355 25.8525 32.5989 26.5492 32.5989C27.264 32.5989 27.8974 32.7511 28.4493 33.0556C29.0013 33.3556 29.4356 33.7876 29.7523 34.3518C30.069 34.9115 30.2273 35.5831 30.2273 36.3666C30.2273 37.1725 30.0758 37.9158 29.7727 38.5964C29.4695 39.2724 29.0443 39.8724 28.4968 40.3963C27.9539 40.9201 27.3206 41.3522 26.5967 41.6925C25.8728 42.0327 25.0902 42.2701 24.2487 42.4044ZM26.5492 37.1927C26.8659 37.1927 27.1486 37.1278 27.3975 36.9979C27.6508 36.8681 27.8499 36.6912 27.9947 36.4674C28.144 36.239 28.2186 35.9838 28.2186 35.7017C28.2186 35.4107 28.1462 35.1532 28.0014 34.9294C27.8567 34.7055 27.6599 34.5309 27.411 34.4055C27.1622 34.2757 26.8749 34.2108 26.5492 34.2108C26.228 34.2108 25.9407 34.2757 25.6873 34.4055C25.4385 34.5309 25.2417 34.7055 25.0969 34.9294C24.9567 35.1532 24.8866 35.4107 24.8866 35.7017C24.8866 35.9838 24.959 36.239 25.1037 36.4674C25.253 36.6912 25.4521 36.8681 25.7009 36.9979C25.9543 37.1278 26.237 37.1927 26.5492 37.1927Z" fill="url(#paint5_linear_4366_54263)"/>
<path d="M24.2487 42.4044L23.5633 40.9268C24.165 40.8507 24.7033 40.7231 25.1784 40.544C25.6534 40.3649 26.0696 40.1455 26.427 39.8858C26.7845 39.6262 27.0853 39.3351 27.3296 39.0128C27.5739 38.6904 27.7639 38.3501 27.8997 37.9919C27.687 38.2158 27.4269 38.3949 27.1192 38.5292C26.8161 38.659 26.4926 38.724 26.1488 38.724C25.5516 38.724 25.0132 38.5941 24.5337 38.3344C24.0587 38.0747 23.6831 37.7188 23.4072 37.2666C23.1357 36.8099 23 36.2883 23 35.7017C23 35.1152 23.1493 34.5891 23.4479 34.1234C23.751 33.6533 24.1695 33.2817 24.7033 33.0086C25.2372 32.7355 25.8525 32.5989 26.5492 32.5989C27.264 32.5989 27.8974 32.7511 28.4493 33.0556C29.0013 33.3556 29.4356 33.7876 29.7523 34.3518C30.069 34.9115 30.2273 35.5831 30.2273 36.3666C30.2273 37.1725 30.0758 37.9158 29.7727 38.5964C29.4695 39.2724 29.0443 39.8724 28.4968 40.3963C27.9539 40.9201 27.3206 41.3522 26.5967 41.6925C25.8728 42.0327 25.0902 42.2701 24.2487 42.4044ZM26.5492 37.1927C26.8659 37.1927 27.1486 37.1278 27.3975 36.9979C27.6508 36.8681 27.8499 36.6912 27.9947 36.4674C28.144 36.239 28.2186 35.9838 28.2186 35.7017C28.2186 35.4107 28.1462 35.1532 28.0014 34.9294C27.8567 34.7055 27.6599 34.5309 27.411 34.4055C27.1622 34.2757 26.8749 34.2108 26.5492 34.2108C26.228 34.2108 25.9407 34.2757 25.6873 34.4055C25.4385 34.5309 25.2417 34.7055 25.0969 34.9294C24.9567 35.1532 24.8866 35.4107 24.8866 35.7017C24.8866 35.9838 24.959 36.239 25.1037 36.4674C25.253 36.6912 25.4521 36.8681 25.7009 36.9979C25.9543 37.1278 26.237 37.1927 26.5492 37.1927Z" fill="url(#paint6_linear_4366_54263)"/>
<path d="M34.5473 42.4044C33.9365 42.4044 33.3574 42.3193 32.81 42.1492C32.2671 41.9745 31.8147 41.7395 31.4528 41.444L32.05 39.8791C32.3531 40.1657 32.715 40.3784 33.1358 40.5172C33.561 40.6515 33.9953 40.7186 34.4387 40.7186C34.8187 40.7186 35.1467 40.6627 35.4227 40.5507C35.7032 40.4343 35.9181 40.2642 36.0674 40.0403C36.2167 39.812 36.2913 39.5321 36.2913 39.2008C36.2913 38.9098 36.2122 38.659 36.0538 38.4486C35.9 38.2382 35.6828 38.077 35.4024 37.965C35.1264 37.8486 34.8029 37.7904 34.4319 37.7904C34.1921 37.7904 33.9411 37.8195 33.6787 37.8777C33.4163 37.9359 33.1516 38.0232 32.8847 38.1397L32.0635 37.2464L32.5589 32.8071L37.954 32.8138V34.5264H33.9501L33.7126 36.4338C33.8981 36.3845 34.0858 36.3465 34.2758 36.3196C34.4659 36.2883 34.6559 36.2726 34.8459 36.2726C35.4928 36.2726 36.0674 36.3935 36.5696 36.6353C37.0718 36.8726 37.4654 37.2173 37.7504 37.6695C38.0354 38.1173 38.1779 38.6568 38.1779 39.2881C38.1779 39.9194 38.0264 40.4679 37.7232 40.9335C37.4201 41.3992 36.9949 41.7619 36.4474 42.0216C35.9045 42.2768 35.2712 42.4044 34.5473 42.4044Z" fill="white"/>
<path d="M34.5473 42.4044C33.9365 42.4044 33.3574 42.3193 32.81 42.1492C32.2671 41.9745 31.8147 41.7395 31.4528 41.444L32.05 39.8791C32.3531 40.1657 32.715 40.3784 33.1358 40.5172C33.561 40.6515 33.9953 40.7186 34.4387 40.7186C34.8187 40.7186 35.1467 40.6627 35.4227 40.5507C35.7032 40.4343 35.9181 40.2642 36.0674 40.0403C36.2167 39.812 36.2913 39.5321 36.2913 39.2008C36.2913 38.9098 36.2122 38.659 36.0538 38.4486C35.9 38.2382 35.6828 38.077 35.4024 37.965C35.1264 37.8486 34.8029 37.7904 34.4319 37.7904C34.1921 37.7904 33.9411 37.8195 33.6787 37.8777C33.4163 37.9359 33.1516 38.0232 32.8847 38.1397L32.0635 37.2464L32.5589 32.8071L37.954 32.8138V34.5264H33.9501L33.7126 36.4338C33.8981 36.3845 34.0858 36.3465 34.2758 36.3196C34.4659 36.2883 34.6559 36.2726 34.8459 36.2726C35.4928 36.2726 36.0674 36.3935 36.5696 36.6353C37.0718 36.8726 37.4654 37.2173 37.7504 37.6695C38.0354 38.1173 38.1779 38.6568 38.1779 39.2881C38.1779 39.9194 38.0264 40.4679 37.7232 40.9335C37.4201 41.3992 36.9949 41.7619 36.4474 42.0216C35.9045 42.2768 35.2712 42.4044 34.5473 42.4044Z" fill="url(#paint7_linear_4366_54263)"/>
<path d="M34.5473 42.4044C33.9365 42.4044 33.3574 42.3193 32.81 42.1492C32.2671 41.9745 31.8147 41.7395 31.4528 41.444L32.05 39.8791C32.3531 40.1657 32.715 40.3784 33.1358 40.5172C33.561 40.6515 33.9953 40.7186 34.4387 40.7186C34.8187 40.7186 35.1467 40.6627 35.4227 40.5507C35.7032 40.4343 35.9181 40.2642 36.0674 40.0403C36.2167 39.812 36.2913 39.5321 36.2913 39.2008C36.2913 38.9098 36.2122 38.659 36.0538 38.4486C35.9 38.2382 35.6828 38.077 35.4024 37.965C35.1264 37.8486 34.8029 37.7904 34.4319 37.7904C34.1921 37.7904 33.9411 37.8195 33.6787 37.8777C33.4163 37.9359 33.1516 38.0232 32.8847 38.1397L32.0635 37.2464L32.5589 32.8071L37.954 32.8138V34.5264H33.9501L33.7126 36.4338C33.8981 36.3845 34.0858 36.3465 34.2758 36.3196C34.4659 36.2883 34.6559 36.2726 34.8459 36.2726C35.4928 36.2726 36.0674 36.3935 36.5696 36.6353C37.0718 36.8726 37.4654 37.2173 37.7504 37.6695C38.0354 38.1173 38.1779 38.6568 38.1779 39.2881C38.1779 39.9194 38.0264 40.4679 37.7232 40.9335C37.4201 41.3992 36.9949 41.7619 36.4474 42.0216C35.9045 42.2768 35.2712 42.4044 34.5473 42.4044Z" fill="url(#paint8_linear_4366_54263)"/>
<path d="M34.5473 42.4044C33.9365 42.4044 33.3574 42.3193 32.81 42.1492C32.2671 41.9745 31.8147 41.7395 31.4528 41.444L32.05 39.8791C32.3531 40.1657 32.715 40.3784 33.1358 40.5172C33.561 40.6515 33.9953 40.7186 34.4387 40.7186C34.8187 40.7186 35.1467 40.6627 35.4227 40.5507C35.7032 40.4343 35.9181 40.2642 36.0674 40.0403C36.2167 39.812 36.2913 39.5321 36.2913 39.2008C36.2913 38.9098 36.2122 38.659 36.0538 38.4486C35.9 38.2382 35.6828 38.077 35.4024 37.965C35.1264 37.8486 34.8029 37.7904 34.4319 37.7904C34.1921 37.7904 33.9411 37.8195 33.6787 37.8777C33.4163 37.9359 33.1516 38.0232 32.8847 38.1397L32.0635 37.2464L32.5589 32.8071L37.954 32.8138V34.5264H33.9501L33.7126 36.4338C33.8981 36.3845 34.0858 36.3465 34.2758 36.3196C34.4659 36.2883 34.6559 36.2726 34.8459 36.2726C35.4928 36.2726 36.0674 36.3935 36.5696 36.6353C37.0718 36.8726 37.4654 37.2173 37.7504 37.6695C38.0354 38.1173 38.1779 38.6568 38.1779 39.2881C38.1779 39.9194 38.0264 40.4679 37.7232 40.9335C37.4201 41.3992 36.9949 41.7619 36.4474 42.0216C35.9045 42.2768 35.2712 42.4044 34.5473 42.4044Z" fill="url(#paint9_linear_4366_54263)"/>
<path d="M43.8836 42.4447L42.8386 41.8335L48.0911 32.5586L49.1294 33.1362L43.8836 42.4447ZM42.0039 37.871C41.5017 37.871 41.047 37.7546 40.6398 37.5218C40.2372 37.289 39.9137 36.9755 39.6694 36.5815C39.4296 36.1875 39.3097 35.7465 39.3097 35.2585C39.3097 34.7794 39.4296 34.3428 39.6694 33.9488C39.9137 33.5548 40.2372 33.2436 40.6398 33.0153C41.047 32.7825 41.5017 32.6661 42.0039 32.6661C42.5015 32.6661 42.9517 32.7825 43.3543 33.0153C43.7615 33.2436 44.0827 33.5548 44.318 33.9488C44.5577 34.3428 44.6776 34.7794 44.6776 35.2585C44.6776 35.742 44.5577 36.183 44.318 36.5815C44.0827 36.9755 43.7615 37.289 43.3543 37.5218C42.9517 37.7546 42.5015 37.871 42.0039 37.871ZM42.0039 36.595C42.2663 36.595 42.497 36.539 42.6961 36.4271C42.8996 36.3106 43.058 36.1517 43.1711 35.9502C43.2842 35.7487 43.3407 35.5181 43.3407 35.2585C43.3407 34.8689 43.2163 34.5533 42.9675 34.3115C42.7232 34.0652 42.402 33.9421 42.0039 33.9421C41.7369 33.9421 41.5017 33.9981 41.2981 34.11C41.099 34.2219 40.9429 34.3787 40.8298 34.5801C40.7167 34.7771 40.6602 35.0032 40.6602 35.2585C40.6602 35.6525 40.7846 35.9748 41.0334 36.2256C41.2868 36.4718 41.6103 36.595 42.0039 36.595ZM49.9845 42.3372C49.4823 42.3372 49.0276 42.2208 48.6204 41.988C48.2178 41.7552 47.8943 41.4417 47.65 41.0477C47.4102 40.6492 47.2903 40.2082 47.2903 39.7247C47.2903 39.2456 47.4102 38.809 47.65 38.415C47.8943 38.021 48.2178 37.7098 48.6204 37.4815C49.0276 37.2487 49.4823 37.1322 49.9845 37.1322C50.4821 37.1322 50.9323 37.2487 51.3349 37.4815C51.7421 37.7098 52.0633 38.021 52.2986 38.415C52.5383 38.809 52.6582 39.2456 52.6582 39.7247C52.6582 40.2082 52.5383 40.6492 52.2986 41.0477C52.0633 41.4417 51.7421 41.7552 51.3349 41.988C50.9323 42.2208 50.4821 42.3372 49.9845 42.3372ZM49.9845 41.0612C50.2423 41.0612 50.4731 41.0052 50.6767 40.8933C50.8802 40.7768 51.0386 40.6179 51.1517 40.4164C51.2648 40.2149 51.3213 39.9843 51.3213 39.7247C51.3213 39.3351 51.1969 39.0195 50.9481 38.7777C50.6993 38.5314 50.3781 38.4083 49.9845 38.4083C49.7175 38.4083 49.4823 38.4643 49.2787 38.5762C49.0796 38.6837 48.9235 38.8381 48.8104 39.0396C48.6973 39.2366 48.6408 39.465 48.6408 39.7247C48.6408 40.1142 48.7652 40.4343 49.014 40.6851C49.2629 40.9358 49.5863 41.0612 49.9845 41.0612Z" fill="white"/>
<path d="M43.8836 42.4447L42.8386 41.8335L48.0911 32.5586L49.1294 33.1362L43.8836 42.4447ZM42.0039 37.871C41.5017 37.871 41.047 37.7546 40.6398 37.5218C40.2372 37.289 39.9137 36.9755 39.6694 36.5815C39.4296 36.1875 39.3097 35.7465 39.3097 35.2585C39.3097 34.7794 39.4296 34.3428 39.6694 33.9488C39.9137 33.5548 40.2372 33.2436 40.6398 33.0153C41.047 32.7825 41.5017 32.6661 42.0039 32.6661C42.5015 32.6661 42.9517 32.7825 43.3543 33.0153C43.7615 33.2436 44.0827 33.5548 44.318 33.9488C44.5577 34.3428 44.6776 34.7794 44.6776 35.2585C44.6776 35.742 44.5577 36.183 44.318 36.5815C44.0827 36.9755 43.7615 37.289 43.3543 37.5218C42.9517 37.7546 42.5015 37.871 42.0039 37.871ZM42.0039 36.595C42.2663 36.595 42.497 36.539 42.6961 36.4271C42.8996 36.3106 43.058 36.1517 43.1711 35.9502C43.2842 35.7487 43.3407 35.5181 43.3407 35.2585C43.3407 34.8689 43.2163 34.5533 42.9675 34.3115C42.7232 34.0652 42.402 33.9421 42.0039 33.9421C41.7369 33.9421 41.5017 33.9981 41.2981 34.11C41.099 34.2219 40.9429 34.3787 40.8298 34.5801C40.7167 34.7771 40.6602 35.0032 40.6602 35.2585C40.6602 35.6525 40.7846 35.9748 41.0334 36.2256C41.2868 36.4718 41.6103 36.595 42.0039 36.595ZM49.9845 42.3372C49.4823 42.3372 49.0276 42.2208 48.6204 41.988C48.2178 41.7552 47.8943 41.4417 47.65 41.0477C47.4102 40.6492 47.2903 40.2082 47.2903 39.7247C47.2903 39.2456 47.4102 38.809 47.65 38.415C47.8943 38.021 48.2178 37.7098 48.6204 37.4815C49.0276 37.2487 49.4823 37.1322 49.9845 37.1322C50.4821 37.1322 50.9323 37.2487 51.3349 37.4815C51.7421 37.7098 52.0633 38.021 52.2986 38.415C52.5383 38.809 52.6582 39.2456 52.6582 39.7247C52.6582 40.2082 52.5383 40.6492 52.2986 41.0477C52.0633 41.4417 51.7421 41.7552 51.3349 41.988C50.9323 42.2208 50.4821 42.3372 49.9845 42.3372ZM49.9845 41.0612C50.2423 41.0612 50.4731 41.0052 50.6767 40.8933C50.8802 40.7768 51.0386 40.6179 51.1517 40.4164C51.2648 40.2149 51.3213 39.9843 51.3213 39.7247C51.3213 39.3351 51.1969 39.0195 50.9481 38.7777C50.6993 38.5314 50.3781 38.4083 49.9845 38.4083C49.7175 38.4083 49.4823 38.4643 49.2787 38.5762C49.0796 38.6837 48.9235 38.8381 48.8104 39.0396C48.6973 39.2366 48.6408 39.465 48.6408 39.7247C48.6408 40.1142 48.7652 40.4343 49.014 40.6851C49.2629 40.9358 49.5863 41.0612 49.9845 41.0612Z" fill="url(#paint10_linear_4366_54263)"/>
<path d="M43.8836 42.4447L42.8386 41.8335L48.0911 32.5586L49.1294 33.1362L43.8836 42.4447ZM42.0039 37.871C41.5017 37.871 41.047 37.7546 40.6398 37.5218C40.2372 37.289 39.9137 36.9755 39.6694 36.5815C39.4296 36.1875 39.3097 35.7465 39.3097 35.2585C39.3097 34.7794 39.4296 34.3428 39.6694 33.9488C39.9137 33.5548 40.2372 33.2436 40.6398 33.0153C41.047 32.7825 41.5017 32.6661 42.0039 32.6661C42.5015 32.6661 42.9517 32.7825 43.3543 33.0153C43.7615 33.2436 44.0827 33.5548 44.318 33.9488C44.5577 34.3428 44.6776 34.7794 44.6776 35.2585C44.6776 35.742 44.5577 36.183 44.318 36.5815C44.0827 36.9755 43.7615 37.289 43.3543 37.5218C42.9517 37.7546 42.5015 37.871 42.0039 37.871ZM42.0039 36.595C42.2663 36.595 42.497 36.539 42.6961 36.4271C42.8996 36.3106 43.058 36.1517 43.1711 35.9502C43.2842 35.7487 43.3407 35.5181 43.3407 35.2585C43.3407 34.8689 43.2163 34.5533 42.9675 34.3115C42.7232 34.0652 42.402 33.9421 42.0039 33.9421C41.7369 33.9421 41.5017 33.9981 41.2981 34.11C41.099 34.2219 40.9429 34.3787 40.8298 34.5801C40.7167 34.7771 40.6602 35.0032 40.6602 35.2585C40.6602 35.6525 40.7846 35.9748 41.0334 36.2256C41.2868 36.4718 41.6103 36.595 42.0039 36.595ZM49.9845 42.3372C49.4823 42.3372 49.0276 42.2208 48.6204 41.988C48.2178 41.7552 47.8943 41.4417 47.65 41.0477C47.4102 40.6492 47.2903 40.2082 47.2903 39.7247C47.2903 39.2456 47.4102 38.809 47.65 38.415C47.8943 38.021 48.2178 37.7098 48.6204 37.4815C49.0276 37.2487 49.4823 37.1322 49.9845 37.1322C50.4821 37.1322 50.9323 37.2487 51.3349 37.4815C51.7421 37.7098 52.0633 38.021 52.2986 38.415C52.5383 38.809 52.6582 39.2456 52.6582 39.7247C52.6582 40.2082 52.5383 40.6492 52.2986 41.0477C52.0633 41.4417 51.7421 41.7552 51.3349 41.988C50.9323 42.2208 50.4821 42.3372 49.9845 42.3372ZM49.9845 41.0612C50.2423 41.0612 50.4731 41.0052 50.6767 40.8933C50.8802 40.7768 51.0386 40.6179 51.1517 40.4164C51.2648 40.2149 51.3213 39.9843 51.3213 39.7247C51.3213 39.3351 51.1969 39.0195 50.9481 38.7777C50.6993 38.5314 50.3781 38.4083 49.9845 38.4083C49.7175 38.4083 49.4823 38.4643 49.2787 38.5762C49.0796 38.6837 48.9235 38.8381 48.8104 39.0396C48.6973 39.2366 48.6408 39.465 48.6408 39.7247C48.6408 40.1142 48.7652 40.4343 49.014 40.6851C49.2629 40.9358 49.5863 41.0612 49.9845 41.0612Z" fill="url(#paint11_linear_4366_54263)"/>
<path d="M43.8836 42.4447L42.8386 41.8335L48.0911 32.5586L49.1294 33.1362L43.8836 42.4447ZM42.0039 37.871C41.5017 37.871 41.047 37.7546 40.6398 37.5218C40.2372 37.289 39.9137 36.9755 39.6694 36.5815C39.4296 36.1875 39.3097 35.7465 39.3097 35.2585C39.3097 34.7794 39.4296 34.3428 39.6694 33.9488C39.9137 33.5548 40.2372 33.2436 40.6398 33.0153C41.047 32.7825 41.5017 32.6661 42.0039 32.6661C42.5015 32.6661 42.9517 32.7825 43.3543 33.0153C43.7615 33.2436 44.0827 33.5548 44.318 33.9488C44.5577 34.3428 44.6776 34.7794 44.6776 35.2585C44.6776 35.742 44.5577 36.183 44.318 36.5815C44.0827 36.9755 43.7615 37.289 43.3543 37.5218C42.9517 37.7546 42.5015 37.871 42.0039 37.871ZM42.0039 36.595C42.2663 36.595 42.497 36.539 42.6961 36.4271C42.8996 36.3106 43.058 36.1517 43.1711 35.9502C43.2842 35.7487 43.3407 35.5181 43.3407 35.2585C43.3407 34.8689 43.2163 34.5533 42.9675 34.3115C42.7232 34.0652 42.402 33.9421 42.0039 33.9421C41.7369 33.9421 41.5017 33.9981 41.2981 34.11C41.099 34.2219 40.9429 34.3787 40.8298 34.5801C40.7167 34.7771 40.6602 35.0032 40.6602 35.2585C40.6602 35.6525 40.7846 35.9748 41.0334 36.2256C41.2868 36.4718 41.6103 36.595 42.0039 36.595ZM49.9845 42.3372C49.4823 42.3372 49.0276 42.2208 48.6204 41.988C48.2178 41.7552 47.8943 41.4417 47.65 41.0477C47.4102 40.6492 47.2903 40.2082 47.2903 39.7247C47.2903 39.2456 47.4102 38.809 47.65 38.415C47.8943 38.021 48.2178 37.7098 48.6204 37.4815C49.0276 37.2487 49.4823 37.1322 49.9845 37.1322C50.4821 37.1322 50.9323 37.2487 51.3349 37.4815C51.7421 37.7098 52.0633 38.021 52.2986 38.415C52.5383 38.809 52.6582 39.2456 52.6582 39.7247C52.6582 40.2082 52.5383 40.6492 52.2986 41.0477C52.0633 41.4417 51.7421 41.7552 51.3349 41.988C50.9323 42.2208 50.4821 42.3372 49.9845 42.3372ZM49.9845 41.0612C50.2423 41.0612 50.4731 41.0052 50.6767 40.8933C50.8802 40.7768 51.0386 40.6179 51.1517 40.4164C51.2648 40.2149 51.3213 39.9843 51.3213 39.7247C51.3213 39.3351 51.1969 39.0195 50.9481 38.7777C50.6993 38.5314 50.3781 38.4083 49.9845 38.4083C49.7175 38.4083 49.4823 38.4643 49.2787 38.5762C49.0796 38.6837 48.9235 38.8381 48.8104 39.0396C48.6973 39.2366 48.6408 39.465 48.6408 39.7247C48.6408 40.1142 48.7652 40.4343 49.014 40.6851C49.2629 40.9358 49.5863 41.0612 49.9845 41.0612Z" fill="url(#paint12_linear_4366_54263)"/>
</g>
<g id="95%_2">
<path d="M43.8864 42.4447L42.8413 41.8335L48.0939 32.5586L49.1322 33.1362L43.8864 42.4447ZM42.0066 37.871C41.5044 37.871 41.0498 37.7546 40.6426 37.5218C40.2399 37.289 39.9165 36.9755 39.6722 36.5815C39.4324 36.1875 39.3125 35.7465 39.3125 35.2585C39.3125 34.7794 39.4324 34.3428 39.6722 33.9488C39.9165 33.5548 40.2399 33.2436 40.6426 33.0153C41.0498 32.7825 41.5044 32.6661 42.0066 32.6661C42.5043 32.6661 42.9544 32.7825 43.3571 33.0153C43.7643 33.2436 44.0855 33.5548 44.3207 33.9488C44.5605 34.3428 44.6804 34.7794 44.6804 35.2585C44.6804 35.742 44.5605 36.183 44.3207 36.5815C44.0855 36.9755 43.7643 37.289 43.3571 37.5218C42.9544 37.7546 42.5043 37.871 42.0066 37.871ZM42.0066 36.595C42.269 36.595 42.4998 36.539 42.6988 36.4271C42.9024 36.3106 43.0608 36.1517 43.1739 35.9502C43.287 35.7487 43.3435 35.5181 43.3435 35.2585C43.3435 34.8689 43.2191 34.5533 42.9703 34.3115C42.726 34.0652 42.4048 33.9421 42.0066 33.9421C41.7397 33.9421 41.5045 33.9981 41.3009 34.11C41.1018 34.2219 40.9457 34.3787 40.8326 34.5801C40.7195 34.7771 40.663 35.0032 40.663 35.2585C40.663 35.6525 40.7874 35.9748 41.0362 36.2256C41.2896 36.4718 41.613 36.595 42.0066 36.595ZM49.9872 42.3372C49.485 42.3372 49.0304 42.2208 48.6232 41.988C48.2205 41.7552 47.8971 41.4417 47.6528 41.0477C47.413 40.6492 47.2931 40.2082 47.2931 39.7247C47.2931 39.2456 47.413 38.809 47.6528 38.415C47.8971 38.021 48.2205 37.7098 48.6232 37.4815C49.0304 37.2487 49.485 37.1322 49.9872 37.1322C50.4849 37.1322 50.935 37.2487 51.3377 37.4815C51.7449 37.7098 52.0661 38.021 52.3013 38.415C52.5411 38.809 52.661 39.2456 52.661 39.7247C52.661 40.2082 52.5411 40.6492 52.3013 41.0477C52.0661 41.4417 51.7449 41.7552 51.3377 41.988C50.935 42.2208 50.4849 42.3372 49.9872 42.3372ZM49.9872 41.0612C50.2451 41.0612 50.4758 41.0052 50.6794 40.8933C50.883 40.7768 51.0414 40.6179 51.1545 40.4164C51.2676 40.2149 51.3241 39.9843 51.3241 39.7247C51.3241 39.3351 51.1997 39.0195 50.9509 38.7777C50.702 38.5314 50.3808 38.4083 49.9872 38.4083C49.7203 38.4083 49.485 38.4643 49.2815 38.5762C49.0824 38.6837 48.9263 38.8381 48.8132 39.0396C48.7001 39.2366 48.6436 39.465 48.6436 39.7247C48.6436 40.1142 48.768 40.4343 49.0168 40.6851C49.2656 40.9358 49.5891 41.0612 49.9872 41.0612Z" fill="white"/>
<path d="M43.8864 42.4447L42.8413 41.8335L48.0939 32.5586L49.1322 33.1362L43.8864 42.4447ZM42.0066 37.871C41.5044 37.871 41.0498 37.7546 40.6426 37.5218C40.2399 37.289 39.9165 36.9755 39.6722 36.5815C39.4324 36.1875 39.3125 35.7465 39.3125 35.2585C39.3125 34.7794 39.4324 34.3428 39.6722 33.9488C39.9165 33.5548 40.2399 33.2436 40.6426 33.0153C41.0498 32.7825 41.5044 32.6661 42.0066 32.6661C42.5043 32.6661 42.9544 32.7825 43.3571 33.0153C43.7643 33.2436 44.0855 33.5548 44.3207 33.9488C44.5605 34.3428 44.6804 34.7794 44.6804 35.2585C44.6804 35.742 44.5605 36.183 44.3207 36.5815C44.0855 36.9755 43.7643 37.289 43.3571 37.5218C42.9544 37.7546 42.5043 37.871 42.0066 37.871ZM42.0066 36.595C42.269 36.595 42.4998 36.539 42.6988 36.4271C42.9024 36.3106 43.0608 36.1517 43.1739 35.9502C43.287 35.7487 43.3435 35.5181 43.3435 35.2585C43.3435 34.8689 43.2191 34.5533 42.9703 34.3115C42.726 34.0652 42.4048 33.9421 42.0066 33.9421C41.7397 33.9421 41.5045 33.9981 41.3009 34.11C41.1018 34.2219 40.9457 34.3787 40.8326 34.5801C40.7195 34.7771 40.663 35.0032 40.663 35.2585C40.663 35.6525 40.7874 35.9748 41.0362 36.2256C41.2896 36.4718 41.613 36.595 42.0066 36.595ZM49.9872 42.3372C49.485 42.3372 49.0304 42.2208 48.6232 41.988C48.2205 41.7552 47.8971 41.4417 47.6528 41.0477C47.413 40.6492 47.2931 40.2082 47.2931 39.7247C47.2931 39.2456 47.413 38.809 47.6528 38.415C47.8971 38.021 48.2205 37.7098 48.6232 37.4815C49.0304 37.2487 49.485 37.1322 49.9872 37.1322C50.4849 37.1322 50.935 37.2487 51.3377 37.4815C51.7449 37.7098 52.0661 38.021 52.3013 38.415C52.5411 38.809 52.661 39.2456 52.661 39.7247C52.661 40.2082 52.5411 40.6492 52.3013 41.0477C52.0661 41.4417 51.7449 41.7552 51.3377 41.988C50.935 42.2208 50.4849 42.3372 49.9872 42.3372ZM49.9872 41.0612C50.2451 41.0612 50.4758 41.0052 50.6794 40.8933C50.883 40.7768 51.0414 40.6179 51.1545 40.4164C51.2676 40.2149 51.3241 39.9843 51.3241 39.7247C51.3241 39.3351 51.1997 39.0195 50.9509 38.7777C50.702 38.5314 50.3808 38.4083 49.9872 38.4083C49.7203 38.4083 49.485 38.4643 49.2815 38.5762C49.0824 38.6837 48.9263 38.8381 48.8132 39.0396C48.7001 39.2366 48.6436 39.465 48.6436 39.7247C48.6436 40.1142 48.768 40.4343 49.0168 40.6851C49.2656 40.9358 49.5891 41.0612 49.9872 41.0612Z" fill="url(#paint13_linear_4366_54263)"/>
<path d="M43.8864 42.4447L42.8413 41.8335L48.0939 32.5586L49.1322 33.1362L43.8864 42.4447ZM42.0066 37.871C41.5044 37.871 41.0498 37.7546 40.6426 37.5218C40.2399 37.289 39.9165 36.9755 39.6722 36.5815C39.4324 36.1875 39.3125 35.7465 39.3125 35.2585C39.3125 34.7794 39.4324 34.3428 39.6722 33.9488C39.9165 33.5548 40.2399 33.2436 40.6426 33.0153C41.0498 32.7825 41.5044 32.6661 42.0066 32.6661C42.5043 32.6661 42.9544 32.7825 43.3571 33.0153C43.7643 33.2436 44.0855 33.5548 44.3207 33.9488C44.5605 34.3428 44.6804 34.7794 44.6804 35.2585C44.6804 35.742 44.5605 36.183 44.3207 36.5815C44.0855 36.9755 43.7643 37.289 43.3571 37.5218C42.9544 37.7546 42.5043 37.871 42.0066 37.871ZM42.0066 36.595C42.269 36.595 42.4998 36.539 42.6988 36.4271C42.9024 36.3106 43.0608 36.1517 43.1739 35.9502C43.287 35.7487 43.3435 35.5181 43.3435 35.2585C43.3435 34.8689 43.2191 34.5533 42.9703 34.3115C42.726 34.0652 42.4048 33.9421 42.0066 33.9421C41.7397 33.9421 41.5045 33.9981 41.3009 34.11C41.1018 34.2219 40.9457 34.3787 40.8326 34.5801C40.7195 34.7771 40.663 35.0032 40.663 35.2585C40.663 35.6525 40.7874 35.9748 41.0362 36.2256C41.2896 36.4718 41.613 36.595 42.0066 36.595ZM49.9872 42.3372C49.485 42.3372 49.0304 42.2208 48.6232 41.988C48.2205 41.7552 47.8971 41.4417 47.6528 41.0477C47.413 40.6492 47.2931 40.2082 47.2931 39.7247C47.2931 39.2456 47.413 38.809 47.6528 38.415C47.8971 38.021 48.2205 37.7098 48.6232 37.4815C49.0304 37.2487 49.485 37.1322 49.9872 37.1322C50.4849 37.1322 50.935 37.2487 51.3377 37.4815C51.7449 37.7098 52.0661 38.021 52.3013 38.415C52.5411 38.809 52.661 39.2456 52.661 39.7247C52.661 40.2082 52.5411 40.6492 52.3013 41.0477C52.0661 41.4417 51.7449 41.7552 51.3377 41.988C50.935 42.2208 50.4849 42.3372 49.9872 42.3372ZM49.9872 41.0612C50.2451 41.0612 50.4758 41.0052 50.6794 40.8933C50.883 40.7768 51.0414 40.6179 51.1545 40.4164C51.2676 40.2149 51.3241 39.9843 51.3241 39.7247C51.3241 39.3351 51.1997 39.0195 50.9509 38.7777C50.702 38.5314 50.3808 38.4083 49.9872 38.4083C49.7203 38.4083 49.485 38.4643 49.2815 38.5762C49.0824 38.6837 48.9263 38.8381 48.8132 39.0396C48.7001 39.2366 48.6436 39.465 48.6436 39.7247C48.6436 40.1142 48.768 40.4343 49.0168 40.6851C49.2656 40.9358 49.5891 41.0612 49.9872 41.0612Z" fill="url(#paint14_linear_4366_54263)"/>
</g>
</g>
</g>
<g id="Frame_2" clip-path="url(#clip0_4366_54263)">
<g id="Ellipse 255" opacity="0.1" filter="url(#filter1_f_4366_54263)">
<ellipse cx="15.2058" cy="17.4227" rx="10" ry="7" transform="rotate(-34.3463 15.2058 17.4227)" fill="white"/>
</g>
</g>
</g>
<defs>
<filter id="filter0_i_4366_54263" x="1" y="2" width="72" height="74" filterUnits="userSpaceOnUse" color-interpolation-filters="sRGB">
<feFlood flood-opacity="0" result="BackgroundImageFix"/>
<feBlend mode="normal" in="SourceGraphic" in2="BackgroundImageFix" result="shape"/>
<feColorMatrix in="SourceAlpha" type="matrix" values="0 0 0 0 0 0 0 0 0 0 0 0 0 0 0 0 0 0 127 0" result="hardAlpha"/>
<feOffset dy="2"/>
<feGaussianBlur stdDeviation="1.5"/>
<feComposite in2="hardAlpha" operator="arithmetic" k2="-1" k3="1"/>
<feColorMatrix type="matrix" values="0 0 0 0 1 0 0 0 0 1 0 0 0 0 1 0 0 0 0.75 0"/>
<feBlend mode="normal" in2="shape" result="effect1_innerShadow_4366_54263"/>
</filter>
<filter id="filter1_f_4366_54263" x="0.0507812" y="3.34619" width="30.3086" height="28.1533" filterUnits="userSpaceOnUse" color-interpolation-filters="sRGB">
<feFlood flood-opacity="0" result="BackgroundImageFix"/>
<feBlend mode="normal" in="SourceGraphic" in2="BackgroundImageFix" result="shape"/>
<feGaussianBlur stdDeviation="3" result="effect1_foregroundBlur_4366_54263"/>
</filter>
<linearGradient id="paint0_linear_4366_54263" x1="8.49992" y1="2.00005" x2="47.3791" y2="71.6737" gradientUnits="userSpaceOnUse">
<stop stop-color="#2A94F1"/>
<stop offset="0.520833" stop-color="#2ABDD2"/>
<stop offset="1" stop-color="#49F7C8"/>
</linearGradient>
<linearGradient id="paint1_linear_4366_54263" x1="2.50031" y1="1.4998" x2="53.0203" y2="82.2235" gradientUnits="userSpaceOnUse">
<stop stop-color="#4C7AD3"/>
<stop offset="0.0001" stop-color="#1B289A"/>
<stop offset="1" stop-color="#0E91BD"/>
</linearGradient>
<linearGradient id="paint2_linear_4366_54263" x1="46.3545" y1="73.9639" x2="-13.9462" y2="18.1467" gradientUnits="userSpaceOnUse">
<stop stop-color="#1679C6"/>
<stop offset="1" stop-color="#5D94DC"/>
</linearGradient>
<linearGradient id="paint3_linear_4366_54263" x1="3" y1="1" x2="58.5" y2="68" gradientUnits="userSpaceOnUse">
<stop offset="0.00200455" stop-color="#E6E6E6"/>
<stop offset="0.463542" stop-color="white" stop-opacity="0.47491"/>
<stop offset="1" stop-color="#E6E6E6" stop-opacity="0.57"/>
</linearGradient>
<linearGradient id="paint4_linear_4366_54263" x1="36.3522" y1="13.8294" x2="38.763" y2="69.462" gradientUnits="userSpaceOnUse">
<stop stop-color="#0372F2"/>
<stop offset="1" stop-color="#61C2EE"/>
</linearGradient>
<linearGradient id="paint5_linear_4366_54263" x1="23.0003" y1="29.0016" x2="36.1785" y2="57.2955" gradientUnits="userSpaceOnUse">
<stop stop-color="#4C7AD3"/>
<stop offset="0.505208" stop-color="#7AAEEA"/>
<stop offset="1" stop-color="#A17EFE"/>
</linearGradient>
<linearGradient id="paint6_linear_4366_54263" x1="41.6824" y1="42.4397" x2="40.4975" y2="29.9235" gradientUnits="userSpaceOnUse">
<stop stop-color="#1679C6"/>
<stop offset="1" stop-color="#5D94DC"/>
</linearGradient>
<linearGradient id="paint7_linear_4366_54263" x1="36.3522" y1="13.8294" x2="38.763" y2="69.462" gradientUnits="userSpaceOnUse">
<stop stop-color="#0372F2"/>
<stop offset="1" stop-color="#61C2EE"/>
</linearGradient>
<linearGradient id="paint8_linear_4366_54263" x1="23.0003" y1="29.0016" x2="36.1785" y2="57.2955" gradientUnits="userSpaceOnUse">
<stop stop-color="#4C7AD3"/>
<stop offset="0.505208" stop-color="#7AAEEA"/>
<stop offset="1" stop-color="#A17EFE"/>
</linearGradient>
<linearGradient id="paint9_linear_4366_54263" x1="41.6824" y1="42.4397" x2="40.4975" y2="29.9235" gradientUnits="userSpaceOnUse">
<stop stop-color="#1679C6"/>
<stop offset="1" stop-color="#5D94DC"/>
</linearGradient>
<linearGradient id="paint10_linear_4366_54263" x1="36.3522" y1="13.8294" x2="38.763" y2="69.462" gradientUnits="userSpaceOnUse">
<stop stop-color="#0372F2"/>
<stop offset="1" stop-color="#61C2EE"/>
</linearGradient>
<linearGradient id="paint11_linear_4366_54263" x1="23.0003" y1="29.0016" x2="36.1785" y2="57.2955" gradientUnits="userSpaceOnUse">
<stop stop-color="#4C7AD3"/>
<stop offset="0.505208" stop-color="#7AAEEA"/>
<stop offset="1" stop-color="#A17EFE"/>
</linearGradient>
<linearGradient id="paint12_linear_4366_54263" x1="41.6824" y1="42.4397" x2="40.4975" y2="29.9235" gradientUnits="userSpaceOnUse">
<stop stop-color="#1679C6"/>
<stop offset="1" stop-color="#5D94DC"/>
</linearGradient>
<linearGradient id="paint13_linear_4366_54263" x1="36.354" y1="13.8294" x2="38.7648" y2="69.4621" gradientUnits="userSpaceOnUse">
<stop stop-color="#0372F2"/>
<stop offset="1" stop-color="#61C2EE"/>
</linearGradient>
<linearGradient id="paint14_linear_4366_54263" x1="47.721" y1="42.4397" x2="45.1772" y2="30.3464" gradientUnits="userSpaceOnUse">
<stop stop-color="#1679C6"/>
<stop offset="1" stop-color="#5D94DC"/>
</linearGradient>
<clipPath id="clip0_4366_54263">
<rect width="69" height="69" fill="white" transform="translate(3 4)"/>
</clipPath>
</defs>
</svg>
