<svg width="64" height="64" viewBox="0 0 64 64" fill="none" xmlns="http://www.w3.org/2000/svg">
<g id="Frame" clip-path="url(#clip0_4366_54166)">
<g id="Group">
<g id="Union">
<mask id="path-1-inside-1_4366_54166" fill="white">
<path fill-rule="evenodd" clip-rule="evenodd" d="M63.3499 38.4492C63.7761 36.3661 64 34.2092 64 32C64 14.3266 49.6734 0 32 0H0V32C0 32.1351 0.000836658 32.2699 0.00250507 32.4046C0.191871 47.6888 11.0962 60.3921 25.5508 63.3499C27.6339 63.7761 29.7908 64 32 64C34.3041 64 36.5513 63.7565 38.7173 63.2938C51.0886 60.6512 60.8106 50.8585 63.3499 38.4492Z"/>
</mask>
<g filter="url(#filter0_i_4366_54166)">
<path fill-rule="evenodd" clip-rule="evenodd" d="M63.3499 38.4492C63.7761 36.3661 64 34.2092 64 32C64 14.3266 49.6734 0 32 0H0V32C0 32.1351 0.000836658 32.2699 0.00250507 32.4046C0.191871 47.6888 11.0962 60.3921 25.5508 63.3499C27.6339 63.7761 29.7908 64 32 64C34.3041 64 36.5513 63.7565 38.7173 63.2938C51.0886 60.6512 60.8106 50.8585 63.3499 38.4492Z" fill="url(#paint0_linear_4366_54166)"/>
<path fill-rule="evenodd" clip-rule="evenodd" d="M63.3499 38.4492C63.7761 36.3661 64 34.2092 64 32C64 14.3266 49.6734 0 32 0H0V32C0 32.1351 0.000836658 32.2699 0.00250507 32.4046C0.191871 47.6888 11.0962 60.3921 25.5508 63.3499C27.6339 63.7761 29.7908 64 32 64C34.3041 64 36.5513 63.7565 38.7173 63.2938C51.0886 60.6512 60.8106 50.8585 63.3499 38.4492Z" fill="url(#paint1_linear_4366_54166)"/>
<path fill-rule="evenodd" clip-rule="evenodd" d="M63.3499 38.4492C63.7761 36.3661 64 34.2092 64 32C64 14.3266 49.6734 0 32 0H0V32C0 32.1351 0.000836658 32.2699 0.00250507 32.4046C0.191871 47.6888 11.0962 60.3921 25.5508 63.3499C27.6339 63.7761 29.7908 64 32 64C34.3041 64 36.5513 63.7565 38.7173 63.2938C51.0886 60.6512 60.8106 50.8585 63.3499 38.4492Z" fill="url(#paint2_linear_4366_54166)"/>
<path fill-rule="evenodd" clip-rule="evenodd" d="M63.3499 38.4492C63.7761 36.3661 64 34.2092 64 32C64 14.3266 49.6734 0 32 0H0V32C0 32.1351 0.000836658 32.2699 0.00250507 32.4046C0.191871 47.6888 11.0962 60.3921 25.5508 63.3499C27.6339 63.7761 29.7908 64 32 64C34.3041 64 36.5513 63.7565 38.7173 63.2938C51.0886 60.6512 60.8106 50.8585 63.3499 38.4492Z" fill="url(#paint3_linear_4366_54166)"/>
<path fill-rule="evenodd" clip-rule="evenodd" d="M63.3499 38.4492C63.7761 36.3661 64 34.2092 64 32C64 14.3266 49.6734 0 32 0H0V32C0 32.1351 0.000836658 32.2699 0.00250507 32.4046C0.191871 47.6888 11.0962 60.3921 25.5508 63.3499C27.6339 63.7761 29.7908 64 32 64C34.3041 64 36.5513 63.7565 38.7173 63.2938C51.0886 60.6512 60.8106 50.8585 63.3499 38.4492Z" fill="url(#paint4_linear_4366_54166)"/>
</g>
<path d="M63.3499 38.4492L63.8397 38.5494L63.3499 38.4492ZM0 0V-0.5H-0.5V0H0ZM0.00250507 32.4046L-0.497457 32.4108L0.00250507 32.4046ZM25.5508 63.3499L25.4506 63.8397L25.5508 63.3499ZM38.7173 63.2938L38.6128 62.8049L38.7173 63.2938ZM63.5 32C63.5 34.1753 63.2796 36.2986 62.86 38.349L63.8397 38.5494C64.2727 36.4335 64.5 34.243 64.5 32H63.5ZM32 0.5C49.3972 0.5 63.5 14.6028 63.5 32H64.5C64.5 14.0505 49.9495 -0.5 32 -0.5V0.5ZM0 0.5H32V-0.5H0V0.5ZM0.5 32V0H-0.5V32H0.5ZM0.502467 32.3984C0.500824 32.2658 0.5 32.133 0.5 32H-0.5C-0.5 32.1371 -0.499151 32.2741 -0.497457 32.4108L0.502467 32.3984ZM25.651 62.86C11.4225 59.9485 0.688864 47.4431 0.502467 32.3984L-0.497457 32.4108C-0.305123 47.9345 10.7698 60.8357 25.4506 63.8397L25.651 62.86ZM32 63.5C29.8247 63.5 27.7014 63.2796 25.651 62.86L25.4506 63.8397C27.5665 64.2727 29.757 64.5 32 64.5V63.5ZM38.6128 62.8049C36.4809 63.2602 34.2688 63.5 32 63.5V64.5C34.3394 64.5 36.6216 64.2528 38.8217 63.7828L38.6128 62.8049ZM62.86 38.349C60.3606 50.5635 50.7901 60.2037 38.6128 62.8049L38.8217 63.7828C51.3872 61.0987 61.2606 51.1536 63.8397 38.5494L62.86 38.349Z" fill="url(#paint5_linear_4366_54166)" mask="url(#path-1-inside-1_4366_54166)"/>
</g>
<path id="Vector" d="M45.9825 31.9991C45.9825 35.86 44.4181 39.356 41.8862 41.8864C39.356 44.4181 35.86 45.9826 31.9991 45.9826C28.1382 45.9826 24.6422 44.4181 22.1119 41.8864C19.5801 39.356 18.0156 35.86 18.0156 31.9991C18.0156 28.1382 19.5801 24.6422 22.1119 22.1119C24.6422 19.5801 28.1382 18.0156 31.9991 18.0156C35.86 18.0156 39.356 19.5801 41.8864 22.1119C44.4181 24.6422 45.9826 28.1382 45.9826 31.9991H45.9825Z" fill="white"/>
<path id="Vector 108" d="M31.6719 5.87891C31.6719 10.0585 31.6719 11.7565 31.6719 12.083" stroke="white" stroke-width="1.30612" stroke-linecap="round"/>
<path id="Vector 109" d="M5.875 32C10.0546 32 11.7526 32 12.0791 32" stroke="white" stroke-width="1.30612" stroke-linecap="round"/>
<path id="Vector 113" d="M13.4844 13.6445C16.4398 16.5999 17.6404 17.8006 17.8713 18.0315" stroke="white" stroke-width="1.30612" stroke-linecap="round"/>
<path id="Vector 110" d="M51.5938 32C55.7733 32 57.4713 32 57.7978 32" stroke="white" stroke-width="1.30612" stroke-linecap="round"/>
<path id="Vector 112" d="M45.8047 18.0312C48.7601 15.0758 49.9607 13.8752 50.1916 13.6443" stroke="white" stroke-width="1.30612" stroke-linecap="round"/>
<g id="Vector_2">
<path d="M34.41 28.3348L51.1067 39.4145C52.0013 40.0081 52.2453 41.2146 51.6516 42.1089C51.1413 42.8786 50.176 43.1659 49.347 42.8533L30.5937 35.7925C28.4151 34.9718 27.3138 32.5407 28.1341 30.3619C28.9548 28.1833 31.3859 27.082 33.5647 27.9023C33.8609 28.0139 34.1557 28.1687 34.41 28.3348Z" fill="#F07383"/>
<path d="M34.41 28.3348L51.1067 39.4145C52.0013 40.0081 52.2453 41.2146 51.6516 42.1089C51.1413 42.8786 50.176 43.1659 49.347 42.8533L30.5937 35.7925C28.4151 34.9718 27.3138 32.5407 28.1341 30.3619C28.9548 28.1833 31.3859 27.082 33.5647 27.9023C33.8609 28.0139 34.1557 28.1687 34.41 28.3348Z" fill="url(#paint6_linear_4366_54166)"/>
<path d="M34.41 28.3348L51.1067 39.4145C52.0013 40.0081 52.2453 41.2146 51.6516 42.1089C51.1413 42.8786 50.176 43.1659 49.347 42.8533L30.5937 35.7925C28.4151 34.9718 27.3138 32.5407 28.1341 30.3619C28.9548 28.1833 31.3859 27.082 33.5647 27.9023C33.8609 28.0139 34.1557 28.1687 34.41 28.3348Z" fill="url(#paint7_linear_4366_54166)"/>
<path d="M34.41 28.3348L51.1067 39.4145C52.0013 40.0081 52.2453 41.2146 51.6516 42.1089C51.1413 42.8786 50.176 43.1659 49.347 42.8533L30.5937 35.7925C28.4151 34.9718 27.3138 32.5407 28.1341 30.3619C28.9548 28.1833 31.3859 27.082 33.5647 27.9023C33.8609 28.0139 34.1557 28.1687 34.41 28.3348Z" fill="url(#paint8_linear_4366_54166)"/>
</g>
<path id="Vector_3" d="M33.372 31.9985C33.372 32.7573 32.7573 33.372 31.9985 33.372C31.2398 33.372 30.625 32.7573 30.625 31.9985C30.625 31.2398 31.2398 30.625 31.9985 30.625C32.7573 30.625 33.372 31.2398 33.372 31.9985Z" fill="white"/>
</g>
<g id="Ellipse 255" opacity="0.34" filter="url(#filter1_f_4366_54166)">
<ellipse cx="8.31648" cy="9.28327" rx="6.86831" ry="2.91691" transform="rotate(-34.3463 8.31648 9.28327)" fill="white"/>
</g>
</g>
<defs>
<filter id="filter0_i_4366_54166" x="0" y="0" width="64" height="66" filterUnits="userSpaceOnUse" color-interpolation-filters="sRGB">
<feFlood flood-opacity="0" result="BackgroundImageFix"/>
<feBlend mode="normal" in="SourceGraphic" in2="BackgroundImageFix" result="shape"/>
<feColorMatrix in="SourceAlpha" type="matrix" values="0 0 0 0 0 0 0 0 0 0 0 0 0 0 0 0 0 0 127 0" result="hardAlpha"/>
<feOffset dy="2"/>
<feGaussianBlur stdDeviation="1.5"/>
<feComposite in2="hardAlpha" operator="arithmetic" k2="-1" k3="1"/>
<feColorMatrix type="matrix" values="0 0 0 0 1 0 0 0 0 1 0 0 0 0 1 0 0 0 0.75 0"/>
<feBlend mode="normal" in2="shape" result="effect1_innerShadow_4366_54166"/>
</filter>
<filter id="filter1_f_4366_54166" x="-3.58984" y="-1.27979" width="23.8125" height="21.126" filterUnits="userSpaceOnUse" color-interpolation-filters="sRGB">
<feFlood flood-opacity="0" result="BackgroundImageFix"/>
<feBlend mode="normal" in="SourceGraphic" in2="BackgroundImageFix" result="shape"/>
<feGaussianBlur stdDeviation="3" result="effect1_foregroundBlur_4366_54166"/>
</filter>
<linearGradient id="paint0_linear_4366_54166" x1="17.8226" y1="-7.08817e-06" x2="44.9617" y2="70.0761" gradientUnits="userSpaceOnUse">
<stop stop-color="#2A94F1"/>
<stop offset="1" stop-color="#49F7C8"/>
</linearGradient>
<linearGradient id="paint1_linear_4366_54166" x1="18.9191" y1="0.999845" x2="46.2373" y2="71.3428" gradientUnits="userSpaceOnUse">
<stop stop-color="#4C7AD3"/>
<stop offset="0.505208" stop-color="#7AAEEA"/>
<stop offset="1" stop-color="#7172E6"/>
</linearGradient>
<linearGradient id="paint2_linear_4366_54166" x1="18.9191" y1="0.999845" x2="46.2373" y2="71.3428" gradientUnits="userSpaceOnUse">
<stop stop-color="#4C7AD3"/>
<stop offset="0.505208" stop-color="#7AAEEA"/>
<stop offset="1" stop-color="#A17EFE"/>
</linearGradient>
<linearGradient id="paint3_linear_4366_54166" x1="1.33361" y1="-0.444619" x2="46.2402" y2="71.3098" gradientUnits="userSpaceOnUse">
<stop stop-color="#4C7AD3"/>
<stop offset="0.0001" stop-color="#1B289A"/>
<stop offset="1" stop-color="#0E91BD"/>
</linearGradient>
<linearGradient id="paint4_linear_4366_54166" x1="40.3152" y1="63.9679" x2="18.8287" y2="-11.6829" gradientUnits="userSpaceOnUse">
<stop stop-color="#1679C6"/>
<stop offset="1" stop-color="#5D94DC"/>
</linearGradient>
<linearGradient id="paint5_linear_4366_54166" x1="1.77778" y1="-0.888889" x2="51.1111" y2="58.6667" gradientUnits="userSpaceOnUse">
<stop offset="0.00200455" stop-color="#E6E6E6"/>
<stop offset="0.463542" stop-color="white" stop-opacity="0.47491"/>
<stop offset="1" stop-color="#E6E6E6" stop-opacity="0.57"/>
</linearGradient>
<linearGradient id="paint6_linear_4366_54166" x1="81.6244" y1="6.6588" x2="-25.4897" y2="48.3109" gradientUnits="userSpaceOnUse">
<stop stop-color="#0372F2"/>
<stop offset="1" stop-color="#61C2EE"/>
</linearGradient>
<linearGradient id="paint7_linear_4366_54166" x1="39.9961" y1="22.9983" x2="29.0878" y2="43.8752" gradientUnits="userSpaceOnUse">
<stop stop-color="#4C7AD3"/>
<stop offset="0.505208" stop-color="#7AAEEA"/>
<stop offset="1" stop-color="#A17EFE"/>
</linearGradient>
<linearGradient id="paint8_linear_4366_54166" x1="27.9961" y1="29.5" x2="53.6385" y2="35.6336" gradientUnits="userSpaceOnUse">
<stop stop-color="#1679C6"/>
<stop offset="1" stop-color="#5D94DC"/>
</linearGradient>
<clipPath id="clip0_4366_54166">
<rect width="64" height="64" fill="white"/>
</clipPath>
</defs>
</svg>
