<svg width="60" height="320" viewBox="0 0 60 320" fill="none" xmlns="http://www.w3.org/2000/svg">
<path d="M32 73.9922V293.992C32 307.247 21.2548 317.992 8 317.992H0" stroke="#EFF2F5" stroke-width="3"/>
<path fill-rule="evenodd" clip-rule="evenodd" d="M39.2161 11.1321L39.2569 21.347L32.1346 21.3732L32.1346 21.3851L24.9404 21.4146L24.8998 11.2493H24.9051V2.89045C24.8982 2.62207 24.8538 2.3634 24.777 2.11934C24.4661 0.937614 23.3781 0.078125 22.0963 0.078125H21.5111C20.9487 0.078125 20.429 0.248891 19.9972 0.54111C19.8401 0.645343 19.6936 0.765141 19.5605 0.898388C19.0533 1.40617 18.7803 2.10925 18.7803 2.85139V11.2493H18.8139L18.8547 21.4395L8.24609 21.4829L8.24619 21.5119L4.6875 21.5256L4.70248 25.4316L8.25974 25.4179L8.32412 43.9814C13.0445 43.9814 16.9067 48.0046 16.9067 53.0043V53.9027C16.9067 59.2539 21.0419 63.5505 26.1135 63.5505H26.6506L26.661 65.8944H29.0407V68.0427H26.661V70.0347H29.0407V72.183H26.661L26.7 74.2532L37.9354 74.2141V72.144H35.5557V69.9957H37.8964V68.0036L35.5167 68.0427V65.8944H37.8964L37.886 63.5505H38.3241C43.3957 63.4723 47.4919 59.1367 47.4529 53.7855V52.8871C47.4529 47.8874 51.237 43.8252 55.9964 43.8252L55.9925 42.6903L56.0491 42.6901L55.9852 25.2344L59.5135 25.2208L59.4986 21.3149L55.9709 21.3284L55.9709 21.3245H55.9707L55.9705 21.2857L45.3427 21.3247L45.302 11.1321H45.3074V2.73419C45.3074 1.87156 44.8946 1.10913 44.2602 0.610039C43.7744 0.21225 43.1517 0 42.4986 0H41.9134C40.392 0 39.1826 1.24992 39.1826 2.77325V11.1321H39.2161Z" fill="#EFF2F5"/>
</svg>
