<svg width="25" height="37" viewBox="0 0 25 37" fill="none" xmlns="http://www.w3.org/2000/svg">
<path d="M11.6122 36.6361V0.272461H13.9418V36.6361H11.6122ZM17.223 12.6304C17.1283 11.5887 16.7069 10.7791 15.9588 10.2014C15.2202 9.61432 14.1643 9.32076 12.7912 9.32076C11.8821 9.32076 11.1245 9.43913 10.5185 9.67587C9.91242 9.91261 9.45787 10.2393 9.15484 10.656C8.85181 11.0632 8.69556 11.5319 8.68609 12.0622C8.66715 12.4978 8.75238 12.8814 8.94177 13.2128C9.14064 13.5442 9.42473 13.8378 9.79405 14.0935C10.1728 14.3397 10.6274 14.5575 11.1577 14.7469C11.688 14.9363 12.2846 15.102 12.9475 15.2441L15.4475 15.8122C16.8868 16.1247 18.1558 16.5414 19.2543 17.0622C20.3622 17.5831 21.2903 18.2033 22.0384 18.923C22.7959 19.6427 23.3689 20.4713 23.7571 21.4088C24.1454 22.3463 24.3442 23.3975 24.3537 24.5622C24.3442 26.3994 23.8802 27.9761 22.9617 29.2923C22.0431 30.6086 20.7221 31.6172 18.9986 32.3179C17.2846 33.0187 15.2154 33.3691 12.7912 33.3691C10.3575 33.3691 8.23628 33.0045 6.42757 32.2753C4.61886 31.5461 3.21261 30.4382 2.20882 28.9514C1.20503 27.4647 0.688932 25.585 0.660522 23.3122H7.39348C7.4503 24.2497 7.70124 25.031 8.14632 25.656C8.59139 26.281 9.20219 26.7545 9.9787 27.0764C10.7647 27.3984 11.6738 27.5594 12.706 27.5594C13.6529 27.5594 14.4579 27.4316 15.1207 27.1759C15.7931 26.9202 16.3092 26.5651 16.669 26.1105C17.0289 25.656 17.2136 25.1352 17.223 24.548C17.2136 23.9988 17.0431 23.53 16.7117 23.1418C16.3802 22.7441 15.8689 22.4031 15.1776 22.1191C14.4958 21.8255 13.6245 21.5556 12.5639 21.3094L9.52416 20.5992C7.00522 20.0215 5.02132 19.0888 3.57245 17.8009C2.12359 16.5035 1.40389 14.7516 1.41336 12.5452C1.40389 10.7459 1.88685 9.16924 2.86223 7.81508C3.83761 6.46091 5.18704 5.40504 6.91052 4.64746C8.63401 3.88989 10.599 3.5111 12.8054 3.5111C15.0592 3.5111 17.0147 3.89462 18.6719 4.66167C20.3386 5.41924 21.6312 6.48458 22.5497 7.85769C23.4683 9.2308 23.937 10.8217 23.956 12.6304H17.223Z" fill="white"/>
</svg>
