<svg width="85" height="95" viewBox="0 0 85 95" fill="none" xmlns="http://www.w3.org/2000/svg">
<g id="Group 1000002481">
<rect id="Rectangle 2544" width="85" height="95" fill="none"/>
<g id="Group 1000001590">
<path id="Rectangle 2198" opacity="0.6" d="M42.2812 20L56.9233 34.6421C65.0099 42.7287 65.0099 55.8397 56.9233 63.9263C48.8367 72.0129 35.7258 72.0129 27.6392 63.9263C19.5526 55.8397 19.5526 42.7287 27.6392 34.6421L42.2812 20Z" fill="white"/>
<path id="Arrow 6" d="M43.2812 39C43.2813 38.4477 42.8335 38 42.2813 38C41.729 38 41.2813 38.4477 41.2812 39L43.2812 39ZM41.5741 57.7071C41.9647 58.0976 42.5978 58.0976 42.9884 57.7071L49.3523 51.3431C49.7428 50.9526 49.7428 50.3195 49.3523 49.9289C48.9618 49.5384 48.3286 49.5384 47.9381 49.9289L42.2812 55.5858L36.6244 49.9289C36.2339 49.5384 35.6007 49.5384 35.2102 49.9289C34.8197 50.3195 34.8197 50.9526 35.2102 51.3431L41.5741 57.7071ZM41.2812 39L41.2812 57L43.2812 57L43.2812 39L41.2812 39Z" fill="white"/>
</g>
</g>
</svg>
