<svg class="location-icon event-icon" viewBox="0 0 15 15" fill="none" xmlns="http://www.w3.org/2000/svg">
<path d="m 11.5 6.5 c 0 3.2 -4.1 6 -4.1 6 c 0 0 -4.1 -2.8 -4.1 -6 c 0 -1.1 0.4 -2.1 1.2 -2.9 c 0.8 -0.8 1.8 -1.2 2.9 -1.2 c 1.1 0 2.1 0.4 2.9 1.2 c 0.8 0.8 1.2 1.8 1.2 2.9 z" stroke="white" stroke-linecap="round" stroke-linejoin="round"/>
<path d="m 7.5 7.6 c 0.8 0 1.4 -0.6 1.4 -1.4 c 0 -0.8 -0.6 -1.4 -1.4 -1.4 c -0.8 0 -1.4 0.6 -1.4 1.4 c 0 0.8 0.6 1.4 1.4 1.4 z" stroke="white" stroke-linecap="round" stroke-linejoin="round"/>
</svg>
