<svg viewBox="0 0 48 48" fill="none">
<style>
    #outer-rect { fill: #52b713; }
    #inner-rect { fill: #1679C6; }
    @media (prefers-color-scheme: dark) {
      #outer-rect { fill: #83e149; }
        #inner-rect { fill: #ffffff; }
    }
  </style>
<clipPath id="outerClip">
<path id="outer-path" fill-rule="evenodd" clip-rule="evenodd" d="M 1.5 1.5 h 22.5 c 12 0 22.5 10.5 22.5 22.5 c 0 12 -10.5 22.5 -22.5 22.5 c -12 0 -22.5 -10.5 -22.5 -22.5 v -22.5 Z M 9 9 h 15 c 7.5 0 15 7.5 15 15 c 0 7.5 -7.5 15 -15 15 c -7.5 0 -15 -7.5 -15 -15 v -15 Z" fill="#72BE44"/>
</clipPath>
<clipPath id="innerClip">
<path id="inner-path" fill-rule="evenodd" clip-rule="evenodd" d="M 18 18 h 6 c 3 0 6 3 6 6 c 0 3 -3 6 -6 6 c -3 0 -6 -3 -6 -6 v -6 Z" fill="#1679C6"/>
</clipPath>
<rect id="outer-rect" width="48" height="32" fill="#52b713" clip-path="url(#outerClip)"/>
<rect id="inner-rect" width="48" height="32" fill="#1679C6" clip-path="url(#innerClip)"/>
</svg>
