<svg width="48" height="48" viewBox="0 0 48 48" fill="none">
    <path id="outer-rect" fill-rule="evenodd" clip-rule="evenodd"
      d="M 1.5 1.5 h 22.5 c 12 0 22.5 10.5 22.5 22.5 c 0 12 -10.5 22.5 -22.5 22.5 c -12 0 -22.5 -10.5 -22.5 -22.5 v -22.5 Z M 9 9 h 15 c 7.5 0 15 7.5 15 15 c 0 7.5 -7.5 15 -15 15 c -7.5 0 -15 -7.5 -15 -15 v -15 Z"
      fill="#5de00b" />
    <path id="inner-rect" fill-rule="evenodd" clip-rule="evenodd"
      d="M 18 18 h 6 c 3 0 6 3 6 6 c 0 3 -3 6 -6 6 c -3 0 -6 -3 -6 -6 v -6 Z" 
      fill="#1a5edc" />
</svg>