<svg width="32" height="32" viewBox="0 0 32 32" fill="#ccc">
<g id="odrop-group">
<path id="vector" fill-rule="evenodd" clip-rule="evenodd" d="M23.5564 14.5965C23.5564 19.3882 19.6851 23.2595 14.8934 23.2595C10.1017 23.2595 6.23037 19.3882 6.23037 14.5965V5.96512H14.8934C19.6851 5.96512 23.5564 9.83644 23.5564 14.5965ZM14.8934 0H0.296875V14.5965C0.296875 22.6554 6.83447 29.193 14.8934 29.193C22.9523 29.193 29.4899 22.6554 29.4899 14.5965C29.5215 6.53759 22.9523 0 14.8934 0Z" fill="#72BE44"/>
<path id="vector2" fill-rule="evenodd" clip-rule="evenodd" d="M19.0143 14.597C19.0143 16.8806 17.1735 18.7213 14.89 18.7213C12.6064 18.7213 10.7656 16.8806 10.7656 14.597V10.4727H14.89C17.1735 10.5043 19.0143 12.3451 19.0143 14.597Z" fill="#1679C6"/>
</g>
</svg>
