<svg width="1876" height="11038" viewBox="0 0 1876 11038" fill="none" xmlns="http://www.w3.org/2000/svg">
<g id="Group 1000002613">
<path id="H2Pro missi n" opacity="0.15" d="M14.685 157V32.4H44.233V78.591H93.361V32.4H122.909V157H93.361V105.558H44.233V157H14.685ZM142.531 193V180.344L158.338 166.3C163.179 161.957 166.917 158.397 169.552 155.62C172.222 152.843 174.073 150.458 175.105 148.464C176.173 146.435 176.707 144.388 176.707 142.323C176.707 139.297 175.71 136.983 173.717 135.381C171.723 133.779 168.875 132.978 165.173 132.978C161.898 132.978 158.765 133.637 155.774 134.954C152.82 136.271 150.132 138.212 147.711 140.775L141.089 126.57C144.614 123.402 148.654 120.963 153.211 119.255C157.768 117.51 162.378 116.638 167.042 116.638C172.702 116.638 177.597 117.617 181.727 119.575C185.892 121.497 189.096 124.203 191.339 127.692C193.617 131.181 194.756 135.203 194.756 139.76C194.756 142.822 194.151 145.794 192.941 148.678C191.73 151.562 189.612 154.783 186.586 158.343C183.596 161.903 179.395 166.264 173.984 171.426L168.003 177.033H196.732V193H142.531ZM219.495 157V32.4H269.424C278.739 32.4 286.987 34.0317 294.166 37.295C301.345 40.499 306.982 45.1863 311.076 51.357C315.229 57.5277 317.306 64.9443 317.306 73.607C317.306 82.3883 315.407 89.8347 311.61 95.946C307.813 102.057 302.295 106.715 295.056 109.919C287.817 113.123 279.036 114.725 268.712 114.725H249.043V157H219.495ZM249.043 89.983H268C274.23 89.983 279.066 88.7667 282.507 86.334C286.008 83.842 287.758 79.748 287.758 74.052C287.758 68.356 285.948 64.2323 282.329 61.681C278.769 59.0703 274.052 57.765 268.178 57.765H249.043V89.983ZM336.481 157V32.4H387.033C396.289 32.4 404.359 33.913 411.241 36.939C418.183 39.9057 423.523 44.237 427.261 49.933C431.059 55.629 432.957 62.4523 432.957 70.403C432.957 76.5143 431.8 81.9137 429.486 86.601C427.172 91.229 423.998 95.0857 419.963 98.171C415.929 101.256 411.36 103.57 406.257 105.113L439.81 157H404.744L376.976 111.165H366.029V157H336.481ZM366.029 87.491H383.473C389.644 87.491 394.45 86.2747 397.891 83.842C401.392 81.4093 403.142 77.5527 403.142 72.272C403.142 66.932 401.481 63.016 398.158 60.524C394.895 57.9727 390.208 56.697 384.096 56.697H366.029V87.491ZM515.684 159.67C506.131 159.67 497.291 158.038 489.162 154.775C481.093 151.452 474.062 146.854 468.069 140.98C462.076 135.106 457.419 128.223 454.096 120.332C450.833 112.441 449.201 103.897 449.201 94.7C449.201 85.444 450.833 76.8703 454.096 68.979C457.419 61.0877 462.076 54.205 468.069 48.331C474.062 42.457 481.093 37.8883 489.162 34.625C497.291 31.3617 506.131 29.73 515.684 29.73C525.296 29.73 534.137 31.3913 542.206 34.714C550.275 38.0367 557.306 42.6647 563.299 48.598C569.292 54.5313 573.92 61.4437 577.183 69.335C580.506 77.167 582.167 85.622 582.167 94.7C582.167 103.897 580.506 112.441 577.183 120.332C573.92 128.223 569.292 135.106 563.299 140.98C557.306 146.854 550.275 151.452 542.206 154.775C534.137 158.038 525.296 159.67 515.684 159.67ZM515.684 131.902C520.846 131.902 525.563 131.042 529.835 129.321C534.166 127.6 537.934 125.108 541.138 121.845C544.342 118.582 546.804 114.666 548.525 110.097C550.305 105.469 551.195 100.337 551.195 94.7C551.195 87.1053 549.652 80.5193 546.567 74.942C543.541 69.3647 539.328 65.063 533.929 62.037C528.589 58.9517 522.507 57.409 515.684 57.409C510.581 57.409 505.864 58.299 501.533 60.079C497.202 61.7997 493.434 64.2917 490.23 67.555C487.085 70.8183 484.623 74.7343 482.843 79.303C481.063 83.8717 480.173 89.004 480.173 94.7C480.173 102.235 481.716 108.792 484.801 114.369C487.886 119.946 492.099 124.278 497.439 127.363C502.838 130.389 508.92 131.902 515.684 131.902ZM14.685 347V222.4H43.076L90.424 300.987L78.676 301.076L123.71 222.4H152.012V347H123.354L123.888 260.136L129.139 262.005L93.183 323.504H73.514L36.134 262.005L41.207 260.136L41.741 347H14.685ZM181.386 347V222.4H210.934V347H181.386ZM283.835 349.67C274.401 349.67 265.234 348.276 256.334 345.487C247.434 342.698 239.899 338.664 233.728 333.383L247.612 311.311C250.223 314.1 253.545 316.503 257.58 318.52C261.615 320.537 265.916 322.11 270.485 323.237C275.113 324.305 279.593 324.839 283.924 324.839C290.035 324.839 294.99 323.83 298.787 321.813C302.644 319.736 304.572 316.74 304.572 312.824C304.572 309.62 303.178 306.92 300.389 304.725C297.66 302.53 292.527 300.423 284.992 298.406L274.312 295.38C261.496 291.82 252.27 286.955 246.633 280.784C240.996 274.613 238.178 267.197 238.178 258.534C238.178 252.957 239.365 247.824 241.738 243.137C244.111 238.39 247.434 234.296 251.706 230.855C255.978 227.354 260.992 224.655 266.747 222.756C272.562 220.798 278.881 219.819 285.704 219.819C295.138 219.819 303.89 221.213 311.959 224.002C320.088 226.731 326.614 230.469 331.539 235.216L317.121 256.576C314.866 254.203 312.078 252.126 308.755 250.346C305.432 248.566 301.813 247.172 297.897 246.163C293.981 245.154 290.035 244.65 286.06 244.65C282.144 244.65 278.732 245.154 275.825 246.163C272.918 247.172 270.633 248.625 268.972 250.524C267.37 252.363 266.569 254.559 266.569 257.11C266.569 259.187 267.162 260.937 268.349 262.361C269.595 263.726 271.642 265.031 274.49 266.277C277.397 267.523 281.313 268.888 286.238 270.371L297.096 273.575C309.853 277.313 319.079 282 324.775 287.637C330.471 293.274 333.319 300.601 333.319 309.62C333.319 317.511 331.302 324.483 327.267 330.535C323.232 336.528 317.507 341.215 310.09 344.597C302.733 347.979 293.981 349.67 283.835 349.67ZM397.519 349.67C388.085 349.67 378.918 348.276 370.018 345.487C361.118 342.698 353.582 338.664 347.412 333.383L361.296 311.311C363.906 314.1 367.229 316.503 371.264 318.52C375.298 320.537 379.6 322.11 384.169 323.237C388.797 324.305 393.276 324.839 397.608 324.839C403.719 324.839 408.673 323.83 412.471 321.813C416.327 319.736 418.256 316.74 418.256 312.824C418.256 309.62 416.861 306.92 414.073 304.725C411.343 302.53 406.211 300.423 398.676 298.406L387.996 295.38C375.18 291.82 365.953 286.955 360.317 280.784C354.68 274.613 351.862 267.197 351.862 258.534C351.862 252.957 353.048 247.824 355.422 243.137C357.795 238.39 361.118 234.296 365.39 230.855C369.662 227.354 374.675 224.655 380.431 222.756C386.245 220.798 392.564 219.819 399.388 219.819C408.822 219.819 417.573 221.213 425.643 224.002C433.771 226.731 440.298 230.469 445.223 235.216L430.804 256.576C428.55 254.203 425.761 252.126 422.439 250.346C419.116 248.566 415.497 247.172 411.581 246.163C407.665 245.154 403.719 244.65 399.744 244.65C395.828 244.65 392.416 245.154 389.509 246.163C386.601 247.172 384.317 248.625 382.656 250.524C381.054 252.363 380.253 254.559 380.253 257.11C380.253 259.187 380.846 260.937 382.033 262.361C383.279 263.726 385.326 265.031 388.174 266.277C391.081 267.523 394.997 268.888 399.922 270.371L410.78 273.575C423.536 277.313 432.763 282 438.459 287.637C444.155 293.274 447.003 300.601 447.003 309.62C447.003 317.511 444.985 324.483 440.951 330.535C436.916 336.528 431.19 341.215 423.774 344.597C416.416 347.979 407.665 349.67 397.519 349.67ZM467.681 347V222.4H497.229V347H467.681ZM649.679 347V222.4H678.871L730.135 298.762V222.4H758.793V347H729.601L678.248 269.57V347H649.679Z" fill="#1E57B9"/>
<g id="Mask group">
<g id="Mask group_2">
<path id="Vector" opacity="0.8" d="M856.282 10018.7H855.782V10019.2V10281.5C855.782 10427.4 973.632 10545.2 1119.5 10545.2C1265.36 10545.2 1383.21 10427.4 1383.21 10281.5C1383.21 10136.6 1265.36 10018.7 1119.5 10018.7H856.282ZM1562.5 10281.5V10281.5C1562.5 10526.1 1364.08 10724.5 1119.5 10724.5C874.913 10724.5 676.5 10526.1 676.5 10281.5V9838.5H1119.5C1364.08 9838.5 1563.46 10036.9 1562.5 10281.5Z" stroke="#2DBE96"/>
<path id="Vector_2" opacity="0.6" d="M819.485 9982.08H818.985V9982.58V10281.5C818.985 10447.7 953.278 10582 1119.5 10582C1285.72 10582 1420.01 10447.7 1420.01 10281.5C1420.01 10116.4 1285.72 9982.08 1119.5 9982.08H819.485ZM1624.5 10281.5V10281.5C1624.5 10560.3 1398.31 10786.5 1119.5 10786.5C840.682 10786.5 614.5 10560.3 614.5 10281.5V9776.5H1119.5C1398.32 9776.5 1625.59 10002.7 1624.5 10281.5Z" stroke="#2DBE96"/>
<g id="Vector_3" opacity="0.4">
<path d="M782.688 9945.42H782.188V9945.92V10281.5C782.188 10468.1 932.925 10618.8 1119.5 10618.8C1306.07 10618.8 1456.81 10468.1 1456.81 10281.5C1456.81 10096.2 1306.07 9945.42 1119.5 9945.42H782.688ZM1686.5 10281.5V10281.5C1686.5 10594.5 1432.54 10848.5 1119.5 10848.5C806.451 10848.5 552.5 10594.5 552.5 10281.5V9714.5H1119.5C1432.55 9714.5 1687.72 9968.45 1686.5 10281.5Z" stroke="black"/>
<path d="M782.688 9945.42H782.188V9945.92V10281.5C782.188 10468.1 932.925 10618.8 1119.5 10618.8C1306.07 10618.8 1456.81 10468.1 1456.81 10281.5C1456.81 10096.2 1306.07 9945.42 1119.5 9945.42H782.688ZM1686.5 10281.5V10281.5C1686.5 10594.5 1432.54 10848.5 1119.5 10848.5C806.451 10848.5 552.5 10594.5 552.5 10281.5V9714.5H1119.5C1432.55 9714.5 1687.72 9968.45 1686.5 10281.5Z" stroke="#2DBE96"/>
</g>
<g id="Vector_4" opacity="0.2">
<path d="M1764.49 10281.5V10281.5C1764.49 10637.6 1475.61 10926.5 1119.5 10926.5C763.386 10926.5 474.5 10637.6 474.5 10281.5V9636.5H1119.5C1475.61 9636.5 1765.89 9925.39 1764.49 10281.5Z" stroke="black"/>
<path d="M1764.49 10281.5V10281.5C1764.49 10637.6 1475.61 10926.5 1119.5 10926.5C763.386 10926.5 474.5 10637.6 474.5 10281.5V9636.5H1119.5C1475.61 9636.5 1765.89 9925.39 1764.49 10281.5Z" stroke="#2DBE96"/>
</g>
<g id="Vector_5" opacity="0.2">
<path d="M1875.49 10281.5V10281.5C1875.49 10698.9 1536.89 11037.5 1119.5 11037.5C702.101 11037.5 363.5 10698.9 363.5 10281.5V9525.5H1119.5C1536.89 9525.5 1877.13 9864.1 1875.49 10281.5Z" stroke="black"/>
<path d="M1875.49 10281.5V10281.5C1875.49 10698.9 1536.89 11037.5 1119.5 11037.5C702.101 11037.5 363.5 10698.9 363.5 10281.5V9525.5H1119.5C1536.89 9525.5 1877.13 9864.1 1875.49 10281.5Z" stroke="#2DBE96"/>
</g>
<path id="Vector_6" opacity="0.9" d="M885.364 10047.7H884.864V10048.2V10281.5C884.864 10411.3 989.717 10516.1 1119.5 10516.1C1249.28 10516.1 1354.13 10411.3 1354.13 10281.5C1354.13 10152.6 1249.28 10047.7 1119.5 10047.7H885.364ZM1513.5 10281.5V10281.5C1513.5 10499 1337.03 10675.5 1119.5 10675.5C901.967 10675.5 725.5 10499 725.5 10281.5V9887.5H1119.5C1337.03 9887.5 1514.35 10064 1513.5 10281.5Z" stroke="#2DBE96"/>
</g>
</g>
</g>
</svg>
