<svg width="1120" height="1097" viewBox="0 0 1120 1097" fill="none" xmlns="http://www.w3.org/2000/svg">
    <g id="main-group">
        <mask id="main-rectangale-mask" style="mask-type:alpha" maskUnits="userSpaceOnUse" x="0" y="0" width="1120" height="1097">
            <rect id="main-rectangale-mask-rect" width="1120" height="1097" fill="#EFF2F5"/>
        </mask>
        <g mask="url(#main-rectangale-mask)">
            <g id="unions-group">
                <g id="rectangale-mask2-group">
                    <mask id="rectangale-mask2" style="mask-type:alpha" maskUnits="userSpaceOnUse" x="581" y="477" width="125" height="125">
                        <path id="rectangale-mask2-path" fill-rule="evenodd" clip-rule="evenodd" d="M680.668 539.07C680.668 559.43 664.219 575.879 643.859 575.879C623.5 575.879 607.051 559.43 607.051 539.07V502.396H643.859C664.219 502.396 680.668 518.845 680.668 539.07ZM643.859 477.051H581.84V539.07C581.84 573.312 609.618 601.09 643.859 601.09C678.101 601.09 705.879 573.312 705.879 539.07C706.013 504.829 678.101 477.051 643.859 477.051Z" fill="white"/>
                    </mask>
                    <g mask="url(#rectangale-mask2)">
                        <path id="rectangale-mask2-rectangle" d="M715.945 467.801L560.065 467.801L560.065 619.462L715.945 619.462L715.945 467.801Z" fill="url(#linear-grad_1)"/>
                    </g>
                </g>
                <g id="union_1-group" opacity="0.3">
                    <mask id="union-mask" fill="white">
                        <path fill-rule="evenodd" clip-rule="evenodd" d="M754.296 539.417C754.296 600.641 704.831 650.106 643.607 650.106C582.383 650.106 532.918 600.641 532.918 539.417V429.132H643.607C704.831 429.132 754.296 478.596 754.296 539.417ZM643.607 352.914H457.105V539.417C457.105 642.387 540.637 725.919 643.607 725.919C746.577 725.919 830.109 642.387 830.109 539.417C830.513 436.446 746.577 352.914 643.607 352.914Z"/>
                    </mask>
                    <path id="union_1-path" d="M532.918 429.132H531.918V428.132H532.918V429.132ZM457.105 352.914H456.105V351.914H457.105V352.914ZM830.109 539.417H829.109L829.109 539.413L830.109 539.417ZM755.296 539.417C755.296 601.193 705.384 651.106 643.607 651.106V649.106C704.279 649.106 753.296 600.089 753.296 539.417H755.296ZM643.607 651.106C581.831 651.106 531.918 601.193 531.918 539.417H533.918C533.918 600.089 582.935 649.106 643.607 649.106V651.106ZM531.918 539.417V429.132H533.918V539.417H531.918ZM532.918 428.132H643.607V430.132H532.918V428.132ZM643.607 428.132C705.381 428.132 755.296 478.041 755.296 539.417H753.296C753.296 479.151 704.281 430.132 643.607 430.132V428.132ZM643.607 353.914H457.105V351.914H643.607V353.914ZM458.105 352.914V539.417H456.105V352.914H458.105ZM458.105 539.417C458.105 641.835 541.189 724.919 643.607 724.919V726.919C540.085 726.919 456.105 642.939 456.105 539.417H458.105ZM643.607 724.919C746.025 724.919 829.109 641.835 829.109 539.417H831.109C831.109 642.939 747.129 726.919 643.607 726.919V724.919ZM829.109 539.413C829.511 437.001 746.028 353.914 643.607 353.914V351.914C747.126 351.914 831.515 435.891 831.109 539.42L829.109 539.413Z" fill="url(#linear-grad_2)" mask="url(#union-mask)"/>
                </g>
                <path id="union_2-path" opacity="0.2" d="M904.5 539.528C904.5 682.213 787.871 797.5 643.5 797.5C499.129 797.5 382.5 682.213 382.5 539.528V282.5H643.5C787.872 282.5 904.5 397.788 904.5 539.528Z" stroke="url(#linear-grad_3)"/>
                <path id="union_3-path" opacity="0.2" d="M978.5 539.38C978.5 726.961 828.79 878.5 643.5 878.5C458.209 878.5 308.5 726.961 308.5 539.38V201.5H643.5C828.791 201.5 978.5 353.04 978.5 539.38Z" stroke="url(#linear-grad_4)"/>
                <path id="union_4-path" opacity="0.2" d="M1081.5 539.204C1081.5 779.973 885.77 974.5 643.5 974.5C401.229 974.5 205.5 779.973 205.5 539.204V105.5H643.5C885.772 105.5 1081.5 300.028 1081.5 539.204Z" stroke="url(#linear-grad_5)"/>
            </g>
            <path id="h2pro_mission" opacity="0.15" d="M82.685 409V284.4H112.233V330.591H161.361V284.4H190.909V409H161.361V357.558H112.233V409H82.685ZM210.531 445V432.344L226.338 418.3C231.179 413.957 234.917 410.397 237.552 407.62C240.222 404.843 242.073 402.458 243.105 400.464C244.173 398.435 244.707 396.388 244.707 394.323C244.707 391.297 243.71 388.983 241.717 387.381C239.723 385.779 236.875 384.978 233.173 384.978C229.898 384.978 226.765 385.637 223.774 386.954C220.82 388.271 218.132 390.212 215.711 392.775L209.089 378.57C212.614 375.402 216.654 372.963 221.211 371.255C225.768 369.51 230.378 368.638 235.042 368.638C240.702 368.638 245.597 369.617 249.727 371.575C253.892 373.497 257.096 376.203 259.339 379.692C261.617 383.181 262.756 387.203 262.756 391.76C262.756 394.822 262.151 397.794 260.941 400.678C259.73 403.562 257.612 406.783 254.586 410.343C251.596 413.903 247.395 418.264 241.984 423.426L236.003 429.033H264.732V445H210.531ZM287.495 409V284.4H337.424C346.739 284.4 354.987 286.032 362.166 289.295C369.345 292.499 374.982 297.186 379.076 303.357C383.229 309.528 385.306 316.944 385.306 325.607C385.306 334.388 383.407 341.835 379.61 347.946C375.813 354.057 370.295 358.715 363.056 361.919C355.817 365.123 347.036 366.725 336.712 366.725H317.043V409H287.495ZM317.043 341.983H336C342.23 341.983 347.066 340.767 350.507 338.334C354.008 335.842 355.758 331.748 355.758 326.052C355.758 320.356 353.948 316.232 350.329 313.681C346.769 311.07 342.052 309.765 336.178 309.765H317.043V341.983ZM404.481 409V284.4H455.033C464.289 284.4 472.359 285.913 479.241 288.939C486.183 291.906 491.523 296.237 495.261 301.933C499.059 307.629 500.957 314.452 500.957 322.403C500.957 328.514 499.8 333.914 497.486 338.601C495.172 343.229 491.998 347.086 487.963 350.171C483.929 353.256 479.36 355.57 474.257 357.113L507.81 409H472.744L444.976 363.165H434.029V409H404.481ZM434.029 339.491H451.473C457.644 339.491 462.45 338.275 465.891 335.842C469.392 333.409 471.142 329.553 471.142 324.272C471.142 318.932 469.481 315.016 466.158 312.524C462.895 309.973 458.208 308.697 452.096 308.697H434.029V339.491ZM583.684 411.67C574.131 411.67 565.291 410.038 557.162 406.775C549.093 403.452 542.062 398.854 536.069 392.98C530.076 387.106 525.419 380.223 522.096 372.332C518.833 364.441 517.201 355.897 517.201 346.7C517.201 337.444 518.833 328.87 522.096 320.979C525.419 313.088 530.076 306.205 536.069 300.331C542.062 294.457 549.093 289.888 557.162 286.625C565.291 283.362 574.131 281.73 583.684 281.73C593.296 281.73 602.137 283.391 610.206 286.714C618.275 290.037 625.306 294.665 631.299 300.598C637.292 306.531 641.92 313.444 645.183 321.335C648.506 329.167 650.167 337.622 650.167 346.7C650.167 355.897 648.506 364.441 645.183 372.332C641.92 380.223 637.292 387.106 631.299 392.98C625.306 398.854 618.275 403.452 610.206 406.775C602.137 410.038 593.296 411.67 583.684 411.67ZM583.684 383.902C588.846 383.902 593.563 383.042 597.835 381.321C602.166 379.6 605.934 377.108 609.138 373.845C612.342 370.582 614.804 366.666 616.525 362.097C618.305 357.469 619.195 352.337 619.195 346.7C619.195 339.105 617.652 332.519 614.567 326.942C611.541 321.365 607.328 317.063 601.929 314.037C596.589 310.952 590.507 309.409 583.684 309.409C578.581 309.409 573.864 310.299 569.533 312.079C565.202 313.8 561.434 316.292 558.23 319.555C555.085 322.818 552.623 326.734 550.843 331.303C549.063 335.872 548.173 341.004 548.173 346.7C548.173 354.235 549.716 360.792 552.801 366.369C555.886 371.946 560.099 376.278 565.439 379.363C570.838 382.389 576.92 383.902 583.684 383.902ZM82.685 599V474.4H111.076L158.424 552.987L146.676 553.076L191.71 474.4H220.012V599H191.354L191.888 512.136L197.139 514.005L161.183 575.504H141.514L104.134 514.005L109.207 512.136L109.741 599H82.685ZM249.386 599V474.4H278.934V599H249.386ZM351.835 601.67C342.401 601.67 333.234 600.276 324.334 597.487C315.434 594.698 307.899 590.664 301.728 585.383L315.612 563.311C318.223 566.1 321.545 568.503 325.58 570.52C329.615 572.537 333.916 574.11 338.485 575.237C343.113 576.305 347.593 576.839 351.924 576.839C358.035 576.839 362.99 575.83 366.787 573.813C370.644 571.736 372.572 568.74 372.572 564.824C372.572 561.62 371.178 558.92 368.389 556.725C365.66 554.53 360.527 552.423 352.992 550.406L342.312 547.38C329.496 543.82 320.27 538.955 314.633 532.784C308.996 526.613 306.178 519.197 306.178 510.534C306.178 504.957 307.365 499.824 309.738 495.137C312.111 490.39 315.434 486.296 319.706 482.855C323.978 479.354 328.992 476.655 334.747 474.756C340.562 472.798 346.881 471.819 353.704 471.819C363.138 471.819 371.89 473.213 379.959 476.002C388.088 478.731 394.614 482.469 399.539 487.216L385.121 508.576C382.866 506.203 380.078 504.126 376.755 502.346C373.432 500.566 369.813 499.172 365.897 498.163C361.981 497.154 358.035 496.65 354.06 496.65C350.144 496.65 346.732 497.154 343.825 498.163C340.918 499.172 338.633 500.625 336.972 502.524C335.37 504.363 334.569 506.559 334.569 509.11C334.569 511.187 335.162 512.937 336.349 514.361C337.595 515.726 339.642 517.031 342.49 518.277C345.397 519.523 349.313 520.888 354.238 522.371L365.096 525.575C377.853 529.313 387.079 534 392.775 539.637C398.471 545.274 401.319 552.601 401.319 561.62C401.319 569.511 399.302 576.483 395.267 582.535C391.232 588.528 385.507 593.215 378.09 596.597C370.733 599.979 361.981 601.67 351.835 601.67ZM465.519 601.67C456.085 601.67 446.918 600.276 438.018 597.487C429.118 594.698 421.582 590.664 415.412 585.383L429.296 563.311C431.906 566.1 435.229 568.503 439.264 570.52C443.298 572.537 447.6 574.11 452.169 575.237C456.797 576.305 461.276 576.839 465.608 576.839C471.719 576.839 476.673 575.83 480.471 573.813C484.327 571.736 486.256 568.74 486.256 564.824C486.256 561.62 484.861 558.92 482.073 556.725C479.343 554.53 474.211 552.423 466.676 550.406L455.996 547.38C443.18 543.82 433.953 538.955 428.317 532.784C422.68 526.613 419.862 519.197 419.862 510.534C419.862 504.957 421.048 499.824 423.422 495.137C425.795 490.39 429.118 486.296 433.39 482.855C437.662 479.354 442.675 476.655 448.431 474.756C454.245 472.798 460.564 471.819 467.388 471.819C476.822 471.819 485.573 473.213 493.643 476.002C501.771 478.731 508.298 482.469 513.223 487.216L498.804 508.576C496.55 506.203 493.761 504.126 490.439 502.346C487.116 500.566 483.497 499.172 479.581 498.163C475.665 497.154 471.719 496.65 467.744 496.65C463.828 496.65 460.416 497.154 457.509 498.163C454.601 499.172 452.317 500.625 450.656 502.524C449.054 504.363 448.253 506.559 448.253 509.11C448.253 511.187 448.846 512.937 450.033 514.361C451.279 515.726 453.326 517.031 456.174 518.277C459.081 519.523 462.997 520.888 467.922 522.371L478.78 525.575C491.536 529.313 500.763 534 506.459 539.637C512.155 545.274 515.003 552.601 515.003 561.62C515.003 569.511 512.985 576.483 508.951 582.535C504.916 588.528 499.19 593.215 491.774 596.597C484.416 599.979 475.665 601.67 465.519 601.67ZM535.681 599V474.4H565.229V599H535.681ZM717.679 599V474.4H746.871L798.135 550.762V474.4H826.793V599H797.601L746.248 521.57V599H717.679Z" fill="#1E57B9"/>
        </g>
    </g>
    <defs>
        <linearGradient id="linear-grad_1" x1="584.5" y1="475" x2="680.5" y2="597.5" gradientUnits="userSpaceOnUse">
            <stop stop-color="#72BE44"/>
            <stop offset="1" stop-color="#8BDF59"/>
        </linearGradient>
        <linearGradient id="linear-grad_2" x1="643.608" y1="352.914" x2="643.608" y2="725.919" gradientUnits="userSpaceOnUse">
            <stop stop-color="#39EFBF"/>
            <stop offset="1" stop-color="#276742"/>
        </linearGradient>
        <linearGradient id="linear-grad_3" x1="643.502" y1="104.023" x2="643.502" y2="975.033" gradientUnits="userSpaceOnUse">
            <stop stop-color="#39EFBF"/>
            <stop offset="1" stop-color="#276742"/>
        </linearGradient>
        <linearGradient id="linear-grad_4" x1="643.502" y1="-32.8529" x2="643.502" y2="1111.61" gradientUnits="userSpaceOnUse">
            <stop stop-color="#39EFBF"/>
            <stop offset="1" stop-color="#276742"/>
        </linearGradient>
        <linearGradient id="linear-grad_5" x1="643.503" y1="-195.077" x2="643.503" y2="1273.49" gradientUnits="userSpaceOnUse">
            <stop stop-color="#39EFBF"/>
            <stop offset="1" stop-color="#276742"/>
        </linearGradient>
    </defs>
</svg>