<svg width="87" height="25" viewBox="0 0 87 25" fill="none" xmlns="http://www.w3.org/2000/svg">
<g opacity="0.3">
<path fill-rule="evenodd" clip-rule="evenodd" d="M12.8521 0V8.45363H4.23811V0H0V20.8991H4.23811V11.9914H12.8521V20.8991H17.0902V0H12.8521Z" fill="white"/>
<path fill-rule="evenodd" clip-rule="evenodd" d="M39.3238 9.8588H35.3116V3.51293H39.2786C41.0001 3.55811 42.543 4.78256 42.543 6.82254C42.543 8.74957 41.0701 9.83621 39.3238 9.8588ZM46.7586 6.98068C46.7586 2.87812 43.7449 0.293686 40.3449 0.0225912V0H31.0735V20.8991H35.3116V13.374H40.3427C43.833 13.2159 46.7563 10.8573 46.7563 6.98294L46.7586 6.98068Z" fill="white"/>
<path fill-rule="evenodd" clip-rule="evenodd" d="M52.5624 3.51293H56.5294C58.2509 3.55811 59.7938 4.78256 59.7938 6.82254C59.7938 8.72698 58.3209 9.83621 56.5746 9.83621H52.5624V3.51293ZM60.0875 20.8969H64.8475L60.4738 12.6691C62.559 11.6955 64.0094 9.70066 64.0094 6.98068C64.0071 2.65221 60.6523 0 57.0038 0H48.322V20.8969H52.5601V13.3717H56.3012L60.0875 20.8969Z" fill="white"/>
<path fill-rule="evenodd" clip-rule="evenodd" d="M81.8241 10.4258C81.8241 13.8484 79.059 16.6136 75.6364 16.6136C72.2138 16.6136 69.4487 13.8484 69.4487 10.4258V4.2607H75.6364C79.059 4.2607 81.8241 7.02586 81.8241 10.4258ZM75.6364 0H65.2106V10.4258C65.2106 16.1821 69.8802 20.8517 75.6364 20.8517C81.3926 20.8517 86.0623 16.1821 86.0623 10.4258C86.0848 4.6696 81.3926 0 75.6364 0Z" fill="white"/>
<path fill-rule="evenodd" clip-rule="evenodd" d="M25.3413 22.3497C25.7276 21.8279 26.2698 21.1479 26.7465 20.5356C27.6524 19.379 28.6057 18.3149 28.6057 16.4783C28.6057 16.4783 28.7187 11.9668 23.8232 11.9668C18.6317 11.9668 18.8599 16.8397 18.8599 16.8397H22.0114C22.0114 15.9338 22.2373 14.6642 23.7102 14.6642C25.1832 14.6642 25.3887 15.7531 25.3887 16.4331C25.3887 16.6364 25.5243 17.2486 23.848 19.3564C22.0791 21.5997 18.8847 24.9997 18.8847 24.9997H28.5854V22.3475H25.3436L25.3413 22.3497Z" fill="white"/>
<path fill-rule="evenodd" clip-rule="evenodd" d="M78.5826 10.4261C78.5826 12.0572 77.2678 13.372 75.6368 13.372C74.0057 13.372 72.6909 12.0572 72.6909 10.4261V7.48022H75.6368C77.2678 7.50282 78.5826 8.81762 78.5826 10.4261Z" fill="white"/>
</g>
</svg>
