<svg width="991" height="1028" viewBox="0 0 991 1028" fill="none" xmlns="http://www.w3.org/2000/svg">
<g id="Mask group">
<g id="Group 1000001796">
<g id="Mask group_2">
<mask id="mask0_2522_45342" style="mask-type:alpha" maskUnits="userSpaceOnUse" x="452" y="451" width="125" height="125">
<path id="Vector" fill-rule="evenodd" clip-rule="evenodd" d="M551.668 513.07C551.668 533.43 535.219 549.879 514.859 549.879C494.5 549.879 478.051 533.43 478.051 513.07V476.396H514.859C535.219 476.396 551.668 492.845 551.668 513.07ZM514.859 451.051H452.84V513.07C452.84 547.312 480.618 575.09 514.859 575.09C549.101 575.09 576.879 547.312 576.879 513.07C577.013 478.829 549.101 451.051 514.859 451.051Z" fill="white"/>
</mask>
<g mask="url(#mask0_2522_45342)">
<path id="Rectangle" d="M586.945 441.8L431.065 441.8L431.065 593.461L586.945 593.461L586.945 441.8Z" fill="url(#paint0_linear_2522_45342)"/>
</g>
</g>
</g>
<g id="Union" opacity="0.3">
<mask id="path-3-inside-1_2522_45342" fill="white">
<path fill-rule="evenodd" clip-rule="evenodd" d="M645.393 513.326C645.393 585.67 586.946 644.117 514.603 644.117C442.259 644.117 383.812 585.67 383.812 513.326V383.012H514.603C586.946 383.012 645.393 441.46 645.393 513.326ZM514.603 292.953H294.23V513.326C294.23 634.997 392.932 733.699 514.603 733.699C636.273 733.699 734.975 634.997 734.975 513.326C735.452 391.655 636.273 292.953 514.603 292.953Z"/>
</mask>
<path d="M383.812 383.012H382.812V382.012H383.812V383.012ZM294.23 292.953H293.23V291.953H294.23V292.953ZM734.975 513.326H733.975L733.975 513.322L734.975 513.326ZM646.393 513.326C646.393 586.222 587.498 645.117 514.603 645.117V643.117C586.393 643.117 644.393 585.117 644.393 513.326H646.393ZM514.603 645.117C441.707 645.117 382.812 586.222 382.812 513.326H384.812C384.812 585.117 442.812 643.117 514.603 643.117V645.117ZM382.812 513.326V383.012H384.812V513.326H382.812ZM383.812 382.012H514.603V384.012H383.812V382.012ZM514.603 382.012C587.496 382.012 646.393 440.906 646.393 513.326H644.393C644.393 442.015 586.396 384.012 514.603 384.012V382.012ZM514.603 293.953H294.23V291.953H514.603V293.953ZM295.23 292.953V513.326H293.23V292.953H295.23ZM295.23 513.326C295.23 634.445 393.485 732.699 514.603 732.699V734.699C392.38 734.699 293.23 635.549 293.23 513.326H295.23ZM514.603 732.699C635.721 732.699 733.975 634.445 733.975 513.326H735.975C735.975 635.549 636.825 734.699 514.603 734.699V732.699ZM733.975 513.322C734.45 392.21 635.724 293.953 514.603 293.953V291.953C636.822 291.953 736.455 391.1 735.975 513.33L733.975 513.322Z" fill="url(#paint1_linear_2522_45342)" mask="url(#path-3-inside-1_2522_45342)"/>
</g>
<path id="Vector_2" opacity="0.2" d="M819.353 513.5C819.353 682.123 683.12 818.356 514.499 818.356C345.877 818.356 209.645 682.123 209.645 513.5V209.76H514.499C683.122 209.76 819.353 345.994 819.353 513.5Z" stroke="url(#paint2_linear_2522_45342)"/>
<path id="Vector_3" opacity="0.2" d="M913.5 513.27C913.5 734.094 735.195 912.5 514.5 912.5C293.804 912.5 115.5 734.094 115.5 513.27V115.5H514.5C735.197 115.5 913.5 293.908 913.5 513.27Z" stroke="url(#paint3_linear_2522_45342)"/>
<path id="Vector_4" opacity="0.2" d="M1028.5 513.06C1028.5 797.609 798.804 1027.5 514.5 1027.5C230.195 1027.5 0.5 797.609 0.5 513.06V0.5H514.5C798.805 0.5 1028.5 230.393 1028.5 513.06Z" stroke="url(#paint4_linear_2522_45342)"/>
</g>
<defs>
<linearGradient id="paint0_linear_2522_45342" x1="455.5" y1="449" x2="551.5" y2="571.5" gradientUnits="userSpaceOnUse">
<stop stop-color="#168C02"/>
<stop offset="1" stop-color="#4BAE03"/>
</linearGradient>
<linearGradient id="paint1_linear_2522_45342" x1="514.604" y1="292.953" x2="514.604" y2="733.699" gradientUnits="userSpaceOnUse">
<stop stop-color="#39EFBF"/>
<stop offset="1" stop-color="#276742"/>
</linearGradient>
<linearGradient id="paint2_linear_2522_45342" x1="514.501" y1="-0.999518" x2="514.501" y2="1028" gradientUnits="userSpaceOnUse">
<stop stop-color="#39EFBF"/>
<stop offset="1" stop-color="#276742"/>
</linearGradient>
<linearGradient id="paint3_linear_2522_45342" x1="514.503" y1="-160.243" x2="514.503" y2="1186.78" gradientUnits="userSpaceOnUse">
<stop stop-color="#39EFBF"/>
<stop offset="1" stop-color="#276742"/>
</linearGradient>
<linearGradient id="paint4_linear_2522_45342" x1="514.504" y1="-354.573" x2="514.504" y2="1380.69" gradientUnits="userSpaceOnUse">
<stop stop-color="#39EFBF"/>
<stop offset="1" stop-color="#276742"/>
</linearGradient>
</defs>
</svg>
