<svg id="o-lines_svg" xmlns="http://www.w3.org/2000/svg" width="919" height="919" viewBox="0 0 1120 1097" fill="none">
    <g id="o-lines_main_group">
        <mask id="mask_o-lines_main" style="mask-type:alpha" maskUnits="userSpaceOnUse" x="0" y="0" width="1120"
            height="1097">
            <rect id="mask_o-lines_main_-rect" width="1120" height="1097" fill="#EFF2F5"></rect>
        </mask>
        <g mask="url(#mask_o-lines_main)">
            <g id="o-lines_path_group">
                <g id="inner_o-lines_path_group" opacity="0.3">
                    <mask id="inner_o-lines_path_mask" fill="white">
                        <path fill-rule="evenodd" clip-rule="evenodd"
                            d="M754.296 539.417C754.296 600.641 704.831 650.106 643.607 650.106C582.383 650.106 532.918 600.641 532.918 539.417V429.132H643.607C704.831 429.132 754.296 478.596 754.296 539.417ZM643.607 352.914H457.105V539.417C457.105 642.387 540.637 725.919 643.607 725.919C746.577 725.919 830.109 642.387 830.109 539.417C830.513 436.446 746.577 352.914 643.607 352.914Z">
                        </path>
                    </mask>
                    <path
                        d="M532.918 429.132H531.918V428.132H532.918V429.132ZM457.105 352.914H456.105V351.914H457.105V352.914ZM830.109 539.417H829.109L829.109 539.413L830.109 539.417ZM755.296 539.417C755.296 601.193 705.384 651.106 643.607 651.106V649.106C704.279 649.106 753.296 600.089 753.296 539.417H755.296ZM643.607 651.106C581.831 651.106 531.918 601.193 531.918 539.417H533.918C533.918 600.089 582.935 649.106 643.607 649.106V651.106ZM531.918 539.417V429.132H533.918V539.417H531.918ZM532.918 428.132H643.607V430.132H532.918V428.132ZM643.607 428.132C705.381 428.132 755.296 478.041 755.296 539.417H753.296C753.296 479.151 704.281 430.132 643.607 430.132V428.132ZM643.607 353.914H457.105V351.914H643.607V353.914ZM458.105 352.914V539.417H456.105V352.914H458.105ZM458.105 539.417C458.105 641.835 541.189 724.919 643.607 724.919V726.919C540.085 726.919 456.105 642.939 456.105 539.417H458.105ZM643.607 724.919C746.025 724.919 829.109 641.835 829.109 539.417H831.109C831.109 642.939 747.129 726.919 643.607 726.919V724.919ZM829.109 539.413C829.511 437.001 746.028 353.914 643.607 353.914V351.914C747.126 351.914 831.515 435.891 831.109 539.42L829.109 539.413Z"
                        fill="url(#o-lines_paint-1)" mask="url(#inner_o-lines_path_mask)"></path>
                </g>
                <path id="line-vector_2" opacity="0.2"
                    d="M904.5 539.528C904.5 682.213 787.871 797.5 643.5 797.5C499.129 797.5 382.5 682.213 382.5 539.528V282.5H643.5C787.872 282.5 904.5 397.788 904.5 539.528Z"
                    stroke="url(#o-lines_paint-2)"></path>
                <path id="line-vector_3" opacity="0.2"
                    d="M978.5 539.38C978.5 726.961 828.79 878.5 643.5 878.5C458.209 878.5 308.5 726.961 308.5 539.38V201.5H643.5C828.791 201.5 978.5 353.04 978.5 539.38Z"
                    stroke="url(#o-lines_paint-3)"></path>
                <path id="line-vector_4" opacity="0.2"
                    d="M1081.5 539.204C1081.5 779.973 885.77 974.5 643.5 974.5C401.229 974.5 205.5 779.973 205.5 539.204V105.5H643.5C885.772 105.5 1081.5 300.028 1081.5 539.204Z"
                    stroke="url(#o-lines_paint-4)"></path>
            </g>


        </g>
    </g>
    <defs>
        <linearGradient id="o-lines_paint-0" x1="584.5" y1="475" x2="680.5" y2="597.5"
            gradientUnits="userSpaceOnUse">
            <stop stop-color="#72BE44"></stop>
            <stop offset="1" stop-color="#8BDF59"></stop>
        </linearGradient>
        <linearGradient id="o-lines_paint-1" x1="643.608" y1="352.914" x2="643.608" y2="725.919"
            gradientUnits="userSpaceOnUse">
            <stop stop-color="#39EFBF"></stop>
            <stop offset="1" stop-color="#276742"></stop>
        </linearGradient>
        <linearGradient id="o-lines_paint-2" x1="643.502" y1="104.023" x2="643.502" y2="975.033"
            gradientUnits="userSpaceOnUse">
            <stop stop-color="#39EFBF"></stop>
            <stop offset="1" stop-color="#276742"></stop>
        </linearGradient>
        <linearGradient id="o-lines_paint-3" x1="643.502" y1="-32.8529" x2="643.502" y2="1111.61"
            gradientUnits="userSpaceOnUse">
            <stop stop-color="#39EFBF"></stop>
            <stop offset="1" stop-color="#276742"></stop>
        </linearGradient>
        <linearGradient id="o-lines_paint-4" x1="643.503" y1="-195.077" x2="643.503" y2="1273.49"
            gradientUnits="userSpaceOnUse">
            <stop stop-color="#39EFBF"></stop>
            <stop offset="1" stop-color="#276742"></stop>
        </linearGradient>
    </defs>
</svg>