<svg width="1120" height="1097" viewBox="0 0 1120 1097" fill="none" xmlns="http://www.w3.org/2000/svg">
<mask id="mask0_4397_24589" style="mask-type:alpha" maskUnits="userSpaceOnUse" x="0" y="0" width="1120" height="1097">
<rect width="1120" height="1097" fill="#EFF2F5"/>
</mask>
<g mask="url(#mask0_4397_24589)">
<mask id="mask1_4397_24589" style="mask-type:alpha" maskUnits="userSpaceOnUse" x="581" y="477" width="125" height="125">
<path fill-rule="evenodd" clip-rule="evenodd" d="M680.664 539.07C680.664 559.43 664.215 575.879 643.855 575.879C623.496 575.879 607.047 559.43 607.047 539.07V502.396H643.855C664.215 502.396 680.664 518.845 680.664 539.07ZM643.855 477.051H581.836V539.07C581.836 573.312 609.614 601.09 643.855 601.09C678.097 601.09 705.875 573.312 705.875 539.07C706.009 504.829 678.097 477.051 643.855 477.051Z" fill="white"/>
</mask>
<g mask="url(#mask1_4397_24589)">
<path d="M715.938 467.801L560.057 467.801L560.057 619.462L715.937 619.462L715.938 467.801Z" fill="url(#paint0_linear_4397_24589)"/>
</g>
<g opacity="0.3">
<mask id="path-4-inside-1_4397_24589" fill="white">
<path fill-rule="evenodd" clip-rule="evenodd" d="M754.293 539.417C754.293 600.641 704.828 650.106 643.604 650.106C582.38 650.106 532.916 600.641 532.916 539.417V429.132H643.604C704.828 429.132 754.293 478.596 754.293 539.417ZM643.604 352.914H457.102V539.417C457.102 642.387 540.634 725.919 643.604 725.919C746.574 725.919 830.106 642.387 830.106 539.417C830.51 436.446 746.574 352.914 643.604 352.914Z"/>
</mask>
<path d="M532.916 429.132H531.916V428.132H532.916V429.132ZM457.102 352.914H456.102V351.914H457.102V352.914ZM830.106 539.417H829.106L829.106 539.413L830.106 539.417ZM755.293 539.417C755.293 601.193 705.381 651.106 643.604 651.106V649.106C704.276 649.106 753.293 600.089 753.293 539.417H755.293ZM643.604 651.106C581.828 651.106 531.916 601.193 531.916 539.417H533.916C533.916 600.089 582.932 649.106 643.604 649.106V651.106ZM531.916 539.417V429.132H533.916V539.417H531.916ZM532.916 428.132H643.604V430.132H532.916V428.132ZM643.604 428.132C705.378 428.132 755.293 478.041 755.293 539.417H753.293C753.293 479.151 704.279 430.132 643.604 430.132V428.132ZM643.604 353.914H457.102V351.914H643.604V353.914ZM458.102 352.914V539.417H456.102V352.914H458.102ZM458.102 539.417C458.102 641.835 541.186 724.919 643.604 724.919V726.919C540.082 726.919 456.102 642.939 456.102 539.417H458.102ZM643.604 724.919C746.022 724.919 829.106 641.835 829.106 539.417H831.106C831.106 642.939 747.126 726.919 643.604 726.919V724.919ZM829.106 539.413C829.508 437.001 746.025 353.914 643.604 353.914V351.914C747.123 351.914 831.512 435.891 831.106 539.42L829.106 539.413Z" fill="url(#paint1_linear_4397_24589)" mask="url(#path-4-inside-1_4397_24589)"/>
</g>
<path opacity="0.2" d="M904.5 539.528C904.5 682.213 787.871 797.5 643.5 797.5C499.129 797.5 382.5 682.213 382.5 539.528V282.5H643.5C787.872 282.5 904.5 397.788 904.5 539.528Z" stroke="url(#paint2_linear_4397_24589)"/>
<path opacity="0.2" d="M978.5 539.38C978.5 726.961 828.79 878.5 643.5 878.5C458.209 878.5 308.5 726.961 308.5 539.38V201.5H643.5C828.791 201.5 978.5 353.04 978.5 539.38Z" stroke="url(#paint3_linear_4397_24589)"/>
<path opacity="0.2" d="M1081.5 539.204C1081.5 779.973 885.77 974.5 643.5 974.5C401.229 974.5 205.5 779.973 205.5 539.204V105.5H643.5C885.772 105.5 1081.5 300.028 1081.5 539.204Z" stroke="url(#paint4_linear_4397_24589)"/>
</g>
<path d="m 152.425 411.67 c -9.553 0 -18.393 -1.632 -26.522 -4.895 c -8.069 -3.323 -15.1 -7.921 -21.093 -13.795 c -5.9927 -5.874 -10.6503 -12.757 -13.973 -20.648 c -3.2633 -7.891 -4.895 -16.435 -4.895 -25.632 c 0 -9.256 1.6317 -17.83 4.895 -25.721 c 3.3227 -7.891 7.9803 -14.774 13.973 -20.648 c 5.993 -5.874 13.024 -10.443 21.093 -13.706 c 8.129 -3.263 16.969 -4.895 26.522 -4.895 c 9.612 0 18.453 1.661 26.522 4.984 c 8.069 3.323 15.1 7.951 21.093 13.884 c 5.993 5.933 10.621 12.846 13.884 20.737 c 3.323 7.832 4.984 16.287 4.984 25.365 c 0 9.197 -1.661 17.741 -4.984 25.632 c -3.263 7.891 -7.891 14.774 -13.884 20.648 c -5.993 5.874 -13.024 10.472 -21.093 13.795 c -8.069 3.263 -16.91 4.895 -26.522 4.895 z m 0 -27.768 c 5.162 0 9.879 -0.86 14.151 -2.581 c 4.331 -1.721 8.099 -4.213 11.303 -7.476 c 3.204 -3.263 5.666 -7.179 7.387 -11.748 c 1.78 -4.628 2.67 -9.76 2.67 -15.397 c 0 -7.595 -1.543 -14.181 -4.628 -19.758 c -3.026 -5.577 -7.239 -9.879 -12.638 -12.905 c -5.34 -3.085 -11.422 -4.628 -18.245 -4.628 c -5.103 0 -9.82 0.89 -14.151 2.67 c -4.331 1.721 -8.099 4.213 -11.303 7.476 c -3.145 3.263 -5.607 7.179 -7.387 11.748 c -1.78 4.569 -2.67 9.701 -2.67 15.397 c 0 7.535 1.543 14.092 4.628 19.669 c 3.085 5.577 7.298 9.909 12.638 12.994 c 5.399 3.026 11.481 4.539 18.245 4.539 z m 140.833 27.768 c -11.689 0 -21.509 -2.314 -29.459 -6.942 c -7.892 -4.628 -13.855 -10.977 -17.889 -19.046 c -4.035 -8.129 -6.052 -17.444 -6.052 -27.946 v -73.336 h 29.548 v 74.404 c 0 8.485 2.106 14.804 6.319 18.957 c 4.212 4.094 10.057 6.141 17.533 6.141 c 7.416 0 13.201 -2.047 17.355 -6.141 c 4.212 -4.153 6.319 -10.472 6.319 -18.957 v -74.404 h 29.637 v 73.336 c 0 10.443 -2.018 19.728 -6.052 27.857 c -4.035 8.069 -10.028 14.448 -17.978 19.135 c -7.892 4.628 -17.652 6.942 -29.281 6.942 z m 82.029 -2.67 v -124.6 h 50.552 c 9.256 0 17.325 1.513 24.208 4.539 c 6.942 2.967 12.282 7.298 16.02 12.994 c 3.797 5.696 5.696 12.519 5.696 20.47 c 0 6.111 -1.157 11.511 -3.471 16.198 c -2.314 4.628 -5.489 8.485 -9.523 11.57 c -4.035 3.085 -8.604 5.399 -13.706 6.942 l 33.553 51.887 h -35.066 l -27.768 -45.835 h -10.947 v 45.835 h -29.548 z m 29.548 -69.509 h 17.444 c 6.17 0 10.976 -1.216 14.418 -3.649 c 3.5 -2.433 5.251 -6.289 5.251 -11.57 c 0 -5.34 -1.662 -9.256 -4.984 -11.748 c -3.264 -2.551 -7.951 -3.827 -14.062 -3.827 h -18.067 v 30.794 z m -319.15 259.509 v -124.6 h 28.391 l 47.348 78.587 l -11.748 0.089 l 45.034 -78.676 h 28.302 v 124.6 h -28.658 l 0.534 -86.864 l 5.251 1.869 l -35.956 61.499 h -19.669 l -37.38 -61.499 l 5.073 -1.869 l 0.534 86.864 h -27.056 z m 166.701 0 v -124.6 h 29.548 v 124.6 h -29.548 z m 102.449 2.67 c -9.434 0 -18.601 -1.394 -27.501 -4.183 c -8.9 -2.789 -16.435 -6.823 -22.606 -12.104 l 13.884 -22.072 c 2.611 2.789 5.933 5.192 9.968 7.209 c 4.035 2.017 8.336 3.59 12.905 4.717 c 4.628 1.068 9.108 1.602 13.439 1.602 c 6.111 0 11.066 -1.009 14.863 -3.026 c 3.857 -2.077 5.785 -5.073 5.785 -8.989 c 0 -3.204 -1.394 -5.904 -4.183 -8.099 c -2.729 -2.195 -7.862 -4.302 -15.397 -6.319 l -10.68 -3.026 c -12.816 -3.56 -22.042 -8.425 -27.679 -14.596 c -5.637 -6.171 -8.455 -13.587 -8.455 -22.25 c 0 -5.577 1.187 -10.71 3.56 -15.397 c 2.373 -4.747 5.696 -8.841 9.968 -12.282 c 4.272 -3.501 9.286 -6.2 15.041 -8.099 c 5.815 -1.958 12.134 -2.937 18.957 -2.937 c 9.434 0 18.186 1.394 26.255 4.183 c 8.129 2.729 14.655 6.467 19.58 11.214 l -14.418 21.36 c -2.255 -2.373 -5.043 -4.45 -8.366 -6.23 c -3.323 -1.78 -6.942 -3.174 -10.858 -4.183 c -3.916 -1.009 -7.862 -1.513 -11.837 -1.513 c -3.916 0 -7.328 0.504 -10.235 1.513 c -2.907 1.009 -5.192 2.462 -6.853 4.361 c -1.602 1.839 -2.403 4.035 -2.403 6.586 c 0 2.077 0.593 3.827 1.78 5.251 c 1.246 1.365 3.293 2.67 6.141 3.916 c 2.907 1.246 6.823 2.611 11.748 4.094 l 10.858 3.204 c 12.757 3.738 21.983 8.425 27.679 14.062 c 5.696 5.637 8.544 12.964 8.544 21.983 c 0 7.891 -2.017 14.863 -6.052 20.915 c -4.035 5.993 -9.76 10.68 -17.177 14.062 c -7.357 3.382 -16.109 5.073 -26.255 5.073 z m 113.684 0 c -9.434 0 -18.601 -1.394 -27.501 -4.183 c -8.9 -2.789 -16.436 -6.823 -22.606 -12.104 l 13.884 -22.072 c 2.61 2.789 5.933 5.192 9.968 7.209 c 4.034 2.017 8.336 3.59 12.905 4.717 c 4.628 1.068 9.107 1.602 13.439 1.602 c 6.111 0 11.065 -1.009 14.863 -3.026 c 3.856 -2.077 5.785 -5.073 5.785 -8.989 c 0 -3.204 -1.395 -5.904 -4.183 -8.099 c -2.73 -2.195 -7.862 -4.302 -15.397 -6.319 l -10.68 -3.026 c -12.816 -3.56 -22.043 -8.425 -27.679 -14.596 c -5.637 -6.171 -8.455 -13.587 -8.455 -22.25 c 0 -5.577 1.186 -10.71 3.56 -15.397 c 2.373 -4.747 5.696 -8.841 9.968 -12.282 c 4.272 -3.501 9.285 -6.2 15.041 -8.099 c 5.814 -1.958 12.133 -2.937 18.957 -2.937 c 9.434 0 18.185 1.394 26.255 4.183 c 8.128 2.729 14.655 6.467 19.58 11.214 l -14.419 21.36 c -2.254 -2.373 -5.043 -4.45 -8.365 -6.23 c -3.323 -1.78 -6.942 -3.174 -10.858 -4.183 c -3.916 -1.009 -7.862 -1.513 -11.837 -1.513 c -3.916 0 -7.328 0.504 -10.235 1.513 c -2.908 1.009 -5.192 2.462 -6.853 4.361 c -1.602 1.839 -2.403 4.035 -2.403 6.586 c 0 2.077 0.593 3.827 1.78 5.251 c 1.246 1.365 3.293 2.67 6.141 3.916 c 2.907 1.246 6.823 2.611 11.748 4.094 l 10.858 3.204 c 12.756 3.738 21.983 8.425 27.679 14.062 c 5.696 5.637 8.544 12.964 8.544 21.983 c 0 7.891 -2.018 14.863 -6.052 20.915 c -4.035 5.993 -9.761 10.68 -17.177 14.062 c -7.358 3.382 -16.109 5.073 -26.255 5.073 z m 70.162 -2.67 v -124.6 h 29.548 v 124.6 h -29.548 z m 181.998 0 v -124.6 h 29.192 l 51.264 76.362 v -76.362 h 28.658 v 124.6 h -29.192 l -51.353 -77.43 v 77.43 h -28.569 z" fill="#DDE6F5"/>
<defs>
<linearGradient id="paint0_linear_4397_24589" x1="584.492" y1="475" x2="680.492" y2="597.5" gradientUnits="userSpaceOnUse">
<stop stop-color="#72BE44"/>
<stop offset="1" stop-color="#8BDF59"/>
</linearGradient>
<linearGradient id="paint1_linear_4397_24589" x1="643.605" y1="352.914" x2="643.605" y2="725.919" gradientUnits="userSpaceOnUse">
<stop stop-color="#39EFBF"/>
<stop offset="1" stop-color="#276742"/>
</linearGradient>
<linearGradient id="paint2_linear_4397_24589" x1="643.502" y1="104.023" x2="643.502" y2="975.033" gradientUnits="userSpaceOnUse">
<stop stop-color="#39EFBF"/>
<stop offset="1" stop-color="#276742"/>
</linearGradient>
<linearGradient id="paint3_linear_4397_24589" x1="643.502" y1="-32.8529" x2="643.502" y2="1111.61" gradientUnits="userSpaceOnUse">
<stop stop-color="#39EFBF"/>
<stop offset="1" stop-color="#276742"/>
</linearGradient>
<linearGradient id="paint4_linear_4397_24589" x1="643.503" y1="-195.077" x2="643.503" y2="1273.49" gradientUnits="userSpaceOnUse">
<stop stop-color="#39EFBF"/>
<stop offset="1" stop-color="#276742"/>
</linearGradient>
</defs>
</svg>
