<svg width="98" height="98" viewBox="0 0 98 98" fill="none" xmlns="http://www.w3.org/2000/svg">
<g id="HIGH PRESSURE">
<g id="Icon">
<g id="Body">
<mask id="path-1-inside-1_5293_59373" fill="white">
<path d="M13 13H49C68.8823 13 85 29.1177 85 49V49C85 68.8823 68.8823 85 49 85V85C29.1177 85 13 68.8823 13 49V13Z"/>
</mask>
<g filter="url(#filter0_i_5293_59373)">
<path d="M13 13H49C68.8823 13 85 29.1177 85 49V49C85 68.8823 68.8823 85 49 85V85C29.1177 85 13 68.8823 13 49V13Z" fill="url(#paint0_linear_5293_59373)"/>
</g>
<path d="M13 13V12.4375H12.4375V13H13ZM13 13.5625H49V12.4375H13V13.5625ZM13.5625 49V13H12.4375V49H13.5625ZM49 84.4375C29.4284 84.4375 13.5625 68.5716 13.5625 49H12.4375C12.4375 69.1929 28.8071 85.5625 49 85.5625V84.4375ZM84.4375 49C84.4375 68.5716 68.5716 84.4375 49 84.4375V85.5625C69.1929 85.5625 85.5625 69.1929 85.5625 49H84.4375ZM49 13.5625C68.5716 13.5625 84.4375 29.4284 84.4375 49H85.5625C85.5625 28.8071 69.1929 12.4375 49 12.4375V13.5625Z" fill="url(#paint1_linear_5293_59373)" mask="url(#path-1-inside-1_5293_59373)"/>
</g>
<path id="Ellipse" d="M64.7303 48.999C64.7303 53.3425 62.9704 57.2755 60.122 60.1222C57.2755 62.9704 53.3425 64.7305 48.999 64.7305C44.6555 64.7305 40.7225 62.9704 37.8759 60.1222C35.0276 57.2755 33.2676 53.3425 33.2676 48.999C33.2676 44.6555 35.0276 40.7225 37.8759 37.8759C40.7225 35.0276 44.6555 33.2676 48.999 33.2676C53.3425 33.2676 57.2755 35.0276 60.1222 37.8759C62.9704 40.7225 64.7305 44.6555 64.7305 48.999H64.7303Z" fill="white"/>
<path id="Line01" d="M48.6309 19.6133C48.6309 24.3153 48.6309 26.2255 48.6309 26.5929" stroke="white" stroke-width="1.46939" stroke-linecap="round"/>
<path id="Line02" d="M19.6094 49C24.3114 49 26.2216 49 26.589 49" stroke="white" stroke-width="1.46939" stroke-linecap="round"/>
<path id="Line03" d="M28.1699 28.3496C31.4948 31.6745 32.8455 33.0252 33.1052 33.2849" stroke="white" stroke-width="1.46939" stroke-linecap="round"/>
<path id="Line04" d="M71.043 49C75.745 49 77.6552 49 78.0226 49" stroke="white" stroke-width="1.46939" stroke-linecap="round"/>
<path id="Line05" d="M64.5312 33.2852C67.8561 29.9603 69.2068 28.6096 69.4666 28.3498" stroke="white" stroke-width="1.46939" stroke-linecap="round"/>
<path id="Arrow" d="M51.7112 44.8771L70.495 57.3418C71.5015 58.0096 71.776 59.367 71.108 60.373C70.534 61.239 69.448 61.5621 68.5153 61.2105L47.4179 53.2671C44.967 52.3438 43.7281 49.6088 44.6509 47.1576C45.5742 44.7067 48.3091 43.4678 50.7603 44.3906C51.0935 44.5161 51.4252 44.6902 51.7112 44.8771Z" fill="url(#paint2_linear_5293_59373)"/>
<path id="Ellipse_2" d="M50.5435 48.9983C50.5435 49.8519 49.8519 50.5435 48.9983 50.5435C48.1447 50.5435 47.4531 49.8519 47.4531 48.9983C47.4531 48.1447 48.1447 47.4531 48.9983 47.4531C49.8519 47.4531 50.5435 48.1447 50.5435 48.9983Z" fill="white"/>
</g>
<g id="Light" opacity="0.34" filter="url(#filter1_f_5293_59373)">
<ellipse cx="22.356" cy="23.4437" rx="7.72685" ry="3.28153" transform="rotate(-34.3463 22.356 23.4437)" fill="white"/>
</g>
</g>
<defs>
<filter id="filter0_i_5293_59373" x="13" y="13" width="72" height="74.25" filterUnits="userSpaceOnUse" color-interpolation-filters="sRGB">
<feFlood flood-opacity="0" result="BackgroundImageFix"/>
<feBlend mode="normal" in="SourceGraphic" in2="BackgroundImageFix" result="shape"/>
<feColorMatrix in="SourceAlpha" type="matrix" values="0 0 0 0 0 0 0 0 0 0 0 0 0 0 0 0 0 0 127 0" result="hardAlpha"/>
<feOffset dy="2.25"/>
<feGaussianBlur stdDeviation="1.6875"/>
<feComposite in2="hardAlpha" operator="arithmetic" k2="-1" k3="1"/>
<feColorMatrix type="matrix" values="0 0 0 0 1 0 0 0 0 1 0 0 0 0 1 0 0 0 0.75 0"/>
<feBlend mode="normal" in2="shape" result="effect1_innerShadow_5293_59373"/>
</filter>
<filter id="filter1_f_5293_59373" x="8.96094" y="11.5605" width="26.7891" height="23.7666" filterUnits="userSpaceOnUse" color-interpolation-filters="sRGB">
<feFlood flood-opacity="0" result="BackgroundImageFix"/>
<feBlend mode="normal" in="SourceGraphic" in2="BackgroundImageFix" result="shape"/>
<feGaussianBlur stdDeviation="3.375" result="effect1_foregroundBlur_5293_59373"/>
</filter>
<linearGradient id="paint0_linear_5293_59373" x1="58.3545" y1="84.9639" x2="34.1823" y2="-0.143281" gradientUnits="userSpaceOnUse">
<stop stop-color="#1679C6"/>
<stop offset="1" stop-color="#5D94DC"/>
</linearGradient>
<linearGradient id="paint1_linear_5293_59373" x1="15" y1="12" x2="70.5" y2="79" gradientUnits="userSpaceOnUse">
<stop offset="0.00200455" stop-color="#E6E6E6"/>
<stop offset="0.463542" stop-color="white" stop-opacity="0.47491"/>
<stop offset="1" stop-color="#E6E6E6" stop-opacity="0.57"/>
</linearGradient>
<linearGradient id="paint2_linear_5293_59373" x1="44.4956" y1="46.188" x2="73.3433" y2="53.0883" gradientUnits="userSpaceOnUse">
<stop stop-color="#1679C6"/>
<stop offset="1" stop-color="#5D94DC"/>
</linearGradient>
</defs>
</svg>
