<svg width="98" height="98" viewBox="0 0 98 98" fill="none" xmlns="http://www.w3.org/2000/svg">
<g id="INTERMITTENCY COMPATIBLE">
<g id="windmill">
<mask id="path-1-inside-1_5293_59419" fill="white">
<path fill-rule="evenodd" clip-rule="evenodd" d="M68.6469 37.6625L76.0296 30.2797C80.107 26.2023 80.107 19.5915 76.0296 15.5141C71.9522 11.4367 65.3415 11.4367 61.2641 15.5141C57.1867 19.5915 57.1867 26.2023 61.2641 30.2797L68.6469 37.6625ZM75.2544 45.6782V57.1905C75.2544 62.8792 79.866 67.4908 85.5547 67.4908C91.2434 67.4908 95.8551 62.8792 95.8551 57.1905V56.5845C95.8551 50.5611 90.9721 45.6782 84.9487 45.6782H75.2544ZM61.9269 57.1905V45.6782H52.2325C46.2091 45.6782 41.3262 50.5611 41.3262 56.5845L41.3262 57.1905C41.3262 62.8792 45.9378 67.4908 51.6265 67.4908C57.3153 67.4908 61.9269 62.8792 61.9269 57.1905ZM72.8301 43.8586C72.8301 46.201 70.9312 48.0999 68.5888 48.0999C66.2464 48.0999 64.3475 46.201 64.3475 43.8586C64.3475 41.5161 66.2464 39.6172 68.5888 39.6172C70.9312 39.6172 72.8301 41.5161 72.8301 43.8586ZM71.6197 49.311H65.5606V84.4536H71.6197V49.311Z"/>
</mask>
<g filter="url(#filter0_i_5293_59419)">
<path fill-rule="evenodd" clip-rule="evenodd" d="M68.6469 37.6625L76.0296 30.2797C80.107 26.2023 80.107 19.5915 76.0296 15.5141C71.9522 11.4367 65.3415 11.4367 61.2641 15.5141C57.1867 19.5915 57.1867 26.2023 61.2641 30.2797L68.6469 37.6625ZM75.2544 45.6782V57.1905C75.2544 62.8792 79.866 67.4908 85.5547 67.4908C91.2434 67.4908 95.8551 62.8792 95.8551 57.1905V56.5845C95.8551 50.5611 90.9721 45.6782 84.9487 45.6782H75.2544ZM61.9269 57.1905V45.6782H52.2325C46.2091 45.6782 41.3262 50.5611 41.3262 56.5845L41.3262 57.1905C41.3262 62.8792 45.9378 67.4908 51.6265 67.4908C57.3153 67.4908 61.9269 62.8792 61.9269 57.1905ZM72.8301 43.8586C72.8301 46.201 70.9312 48.0999 68.5888 48.0999C66.2464 48.0999 64.3475 46.201 64.3475 43.8586C64.3475 41.5161 66.2464 39.6172 68.5888 39.6172C70.9312 39.6172 72.8301 41.5161 72.8301 43.8586ZM71.6197 49.311H65.5606V84.4536H71.6197V49.311Z" fill="url(#paint0_linear_5293_59419)"/>
</g>
<path d="M76.0296 30.2797L75.7584 30.0085L75.7584 30.0085L76.0296 30.2797ZM68.6469 37.6625L68.3757 37.9337L68.6469 38.205L68.9181 37.9337L68.6469 37.6625ZM76.0296 15.5141L76.3008 15.2429L76.3008 15.2429L76.0296 15.5141ZM61.2641 15.5141L61.5353 15.7853L61.5353 15.7853L61.2641 15.5141ZM61.2641 30.2797L60.9929 30.5509L60.9929 30.5509L61.2641 30.2797ZM75.2544 45.6782V45.2946H74.8708V45.6782H75.2544ZM61.9269 45.6782H62.3104V45.2946H61.9269V45.6782ZM41.3262 56.5845L41.7097 56.5845L41.3262 56.5845ZM41.3262 57.1905L40.9426 57.1905L41.3262 57.1905ZM65.5606 49.311V48.9275H65.1771V49.311H65.5606ZM71.6197 49.311H72.0032V48.9275H71.6197V49.311ZM65.5606 84.4536H65.1771V84.8372H65.5606V84.4536ZM71.6197 84.4536V84.8372H72.0032V84.4536H71.6197ZM75.7584 30.0085L68.3757 37.3913L68.9181 37.9337L76.3008 30.5509L75.7584 30.0085ZM75.7584 15.7853C79.686 19.7129 79.686 26.0809 75.7584 30.0085L76.3008 30.5509C80.528 26.3237 80.528 19.4701 76.3008 15.2429L75.7584 15.7853ZM61.5353 15.7853C65.4629 11.8577 71.8308 11.8577 75.7584 15.7853L76.3008 15.2429C72.0737 11.0157 65.2201 11.0157 60.9929 15.2429L61.5353 15.7853ZM61.5353 30.0085C57.6077 26.0809 57.6077 19.7129 61.5353 15.7853L60.9929 15.2429C56.7657 19.4701 56.7657 26.3237 60.9929 30.5509L61.5353 30.0085ZM68.9181 37.3913L61.5353 30.0085L60.9929 30.5509L68.3757 37.9337L68.9181 37.3913ZM75.6379 57.1905V45.6782H74.8708V57.1905H75.6379ZM85.5547 67.1073C80.0778 67.1073 75.6379 62.6674 75.6379 57.1905H74.8708C74.8708 63.0911 79.6541 67.8744 85.5547 67.8744V67.1073ZM95.4715 57.1905C95.4715 62.6674 91.0316 67.1073 85.5547 67.1073V67.8744C91.4553 67.8744 96.2386 63.091 96.2386 57.1905H95.4715ZM95.4715 56.5845V57.1905H96.2386V56.5845H95.4715ZM84.9487 46.0617C90.7603 46.0617 95.4715 50.7729 95.4715 56.5845H96.2386C96.2386 50.3493 91.184 45.2946 84.9487 45.2946V46.0617ZM75.2544 46.0617H84.9487V45.2946H75.2544V46.0617ZM61.5433 45.6782V57.1905H62.3104V45.6782H61.5433ZM52.2325 46.0617H61.9269V45.2946H52.2325V46.0617ZM41.7097 56.5845C41.7097 50.7729 46.4209 46.0617 52.2325 46.0617V45.2946C45.9973 45.2946 40.9426 50.3493 40.9426 56.5845L41.7097 56.5845ZM41.7097 57.1905L41.7097 56.5845L40.9426 56.5845L40.9426 57.1905L41.7097 57.1905ZM51.6265 67.1073C46.1496 67.1073 41.7097 62.6674 41.7097 57.1905L40.9426 57.1905C40.9426 63.091 45.726 67.8744 51.6265 67.8744V67.1073ZM61.5433 57.1905C61.5433 62.6674 57.1034 67.1073 51.6265 67.1073V67.8744C57.5271 67.8744 62.3104 63.0911 62.3104 57.1905H61.5433ZM68.5888 48.4835C71.1431 48.4835 73.2137 46.4128 73.2137 43.8586H72.4466C72.4466 45.9892 70.7194 47.7164 68.5888 47.7164V48.4835ZM63.9639 43.8586C63.9639 46.4128 66.0346 48.4835 68.5888 48.4835V47.7164C66.4582 47.7164 64.7311 45.9892 64.7311 43.8586H63.9639ZM68.5888 39.2337C66.0346 39.2337 63.9639 41.3043 63.9639 43.8586H64.7311C64.7311 41.728 66.4582 40.0008 68.5888 40.0008V39.2337ZM73.2137 43.8586C73.2137 41.3043 71.1431 39.2337 68.5888 39.2337V40.0008C70.7194 40.0008 72.4466 41.728 72.4466 43.8586H73.2137ZM65.5606 49.6946H71.6197V48.9275H65.5606V49.6946ZM65.9442 84.4536V49.311H65.1771V84.4536H65.9442ZM71.6197 84.0701H65.5606V84.8372H71.6197V84.0701ZM71.2361 49.311V84.4536H72.0032V49.311H71.2361Z" fill="url(#paint1_linear_5293_59419)" mask="url(#path-1-inside-1_5293_59419)"/>
</g>
<g id="Light">
<g id="Ellipse 255" opacity="0.5" filter="url(#filter1_f_5293_59419)">
<ellipse cx="4.00034" cy="2.80024" rx="4.00034" ry="2.80024" transform="matrix(0.825641 -0.564196 0.564191 0.825644 62.3984 14.0117)" fill="white"/>
</g>
<g id="Ellipse 256" opacity="0.5" filter="url(#filter2_f_5293_59419)">
<ellipse cx="4.00034" cy="2.80024" rx="4.00034" ry="2.80024" transform="matrix(0.825641 -0.564196 0.564191 0.825644 46.0781 44.7324)" fill="white"/>
</g>
<g id="Ellipse 257" opacity="0.5" filter="url(#filter3_f_5293_59419)">
<ellipse cx="4.00034" cy="2.80024" rx="4.00034" ry="2.80024" transform="matrix(0.825641 -0.564196 0.564191 0.825644 75.8379 43.7725)" fill="white"/>
</g>
</g>
<g id="solar" clip-path="url(#clip0_5293_59419)">
<g id="Icon">
<g id="Vector" filter="url(#filter4_i_5293_59419)">
<path d="M15.0104 57.3829L15.1224 56.0645H9.018C8.86563 56.0629 8.71754 56.1149 8.5995 56.2112C8.48146 56.3076 8.40094 56.4423 8.37196 56.5919L6.62567 64.9628H14.3584L15.0104 57.3829ZM13.5996 73.8624L14.2457 66.2812H6.34813L4.66117 74.3898C4.64212 74.4855 4.64447 74.5843 4.66807 74.679C4.69167 74.7737 4.73592 74.862 4.79767 74.9376C4.85941 75.0133 4.93711 75.0743 5.02521 75.1163C5.1133 75.1584 5.2096 75.1804 5.30722 75.1809H13.481L13.5996 73.8624ZM22.4458 75.1809V66.2812H15.57C15.489 67.2015 14.8739 74.4748 14.8119 75.1809H22.4458ZM22.4458 56.0645H16.4468C16.1878 59.0305 15.9329 61.9968 15.6821 64.9634H22.4458V56.0645ZM39.8612 66.2812H31.9571L32.6097 73.8624L32.7218 75.1809H40.9028C41.0011 75.1802 41.0981 75.158 41.1869 75.1159C41.2757 75.0737 41.3543 75.0126 41.417 74.9369C41.4783 74.8613 41.5219 74.7729 41.5447 74.6782C41.5675 74.5836 41.5689 74.485 41.5488 74.3898L39.8612 66.2812ZM39.5843 64.9628L37.8374 56.5919C37.809 56.4432 37.7295 56.3092 37.6128 56.2129C37.496 56.1166 37.3493 56.0641 37.1979 56.0645H31.0869C31.1495 56.7356 31.7659 64.0801 31.845 64.9634L39.5843 64.9628ZM29.8746 57.3829L29.7559 56.0645H23.7636V64.9634H30.5206L29.8746 57.3829ZM31.2847 73.8617L30.6327 66.2819H23.7636V75.1802H31.3967L31.2847 73.8617ZM33.6513 79.7948H25.2468V76.4987H20.9619V79.7948H12.5587C12.0343 79.7952 11.5315 80.0036 11.1607 80.3744C10.7898 80.7453 10.5814 81.2481 10.581 81.7725V83.4206C10.5815 83.5953 10.6512 83.7626 10.7747 83.8861C10.8982 84.0097 11.0656 84.0793 11.2402 84.0798H34.9698C35.1444 84.0793 35.3118 84.0097 35.4353 83.8861C35.5588 83.7626 35.6285 83.5953 35.629 83.4206V81.7725C35.6274 81.2485 35.4186 80.7463 35.048 80.3758C34.6775 80.0052 34.1753 79.7964 33.6513 79.7948Z" fill="url(#paint2_linear_5293_59419)"/>
</g>
</g>
<g id="Ellipse 257_2" opacity="0.5" filter="url(#filter5_f_5293_59419)">
<ellipse cx="2.48703" cy="1.79306" rx="2.48703" ry="1.79306" transform="matrix(0.825641 -0.564196 0.564191 0.825644 33.6562 59.4541)" fill="white"/>
</g>
</g>
</g>
<defs>
<filter id="filter0_i_5293_59419" x="41.3262" y="12.4561" width="54.5293" height="73.9158" filterUnits="userSpaceOnUse" color-interpolation-filters="sRGB">
<feFlood flood-opacity="0" result="BackgroundImageFix"/>
<feBlend mode="normal" in="SourceGraphic" in2="BackgroundImageFix" result="shape"/>
<feColorMatrix in="SourceAlpha" type="matrix" values="0 0 0 0 0 0 0 0 0 0 0 0 0 0 0 0 0 0 127 0" result="hardAlpha"/>
<feOffset dy="1.91775"/>
<feGaussianBlur stdDeviation="1.43832"/>
<feComposite in2="hardAlpha" operator="arithmetic" k2="-1" k3="1"/>
<feColorMatrix type="matrix" values="0 0 0 0 1 0 0 0 0 1 0 0 0 0 1 0 0 0 0.75 0"/>
<feBlend mode="normal" in2="shape" result="effect1_innerShadow_5293_59419"/>
</filter>
<filter id="filter1_f_5293_59419" x="57.8591" y="5.07593" width="18.8442" height="17.9819" filterUnits="userSpaceOnUse" color-interpolation-filters="sRGB">
<feFlood flood-opacity="0" result="BackgroundImageFix"/>
<feBlend mode="normal" in="SourceGraphic" in2="BackgroundImageFix" result="shape"/>
<feGaussianBlur stdDeviation="2.88" result="effect1_foregroundBlur_5293_59419"/>
</filter>
<filter id="filter2_f_5293_59419" x="41.5388" y="35.7966" width="18.8442" height="17.9819" filterUnits="userSpaceOnUse" color-interpolation-filters="sRGB">
<feFlood flood-opacity="0" result="BackgroundImageFix"/>
<feBlend mode="normal" in="SourceGraphic" in2="BackgroundImageFix" result="shape"/>
<feGaussianBlur stdDeviation="2.88" result="effect1_foregroundBlur_5293_59419"/>
</filter>
<filter id="filter3_f_5293_59419" x="71.2986" y="34.8367" width="18.8442" height="17.9819" filterUnits="userSpaceOnUse" color-interpolation-filters="sRGB">
<feFlood flood-opacity="0" result="BackgroundImageFix"/>
<feBlend mode="normal" in="SourceGraphic" in2="BackgroundImageFix" result="shape"/>
<feGaussianBlur stdDeviation="2.88" result="effect1_foregroundBlur_5293_59419"/>
</filter>
<filter id="filter4_i_5293_59419" x="4.64844" y="56.0645" width="36.9141" height="29.9334" filterUnits="userSpaceOnUse" color-interpolation-filters="sRGB">
<feFlood flood-opacity="0" result="BackgroundImageFix"/>
<feBlend mode="normal" in="SourceGraphic" in2="BackgroundImageFix" result="shape"/>
<feColorMatrix in="SourceAlpha" type="matrix" values="0 0 0 0 0 0 0 0 0 0 0 0 0 0 0 0 0 0 127 0" result="hardAlpha"/>
<feOffset dy="1.91775"/>
<feGaussianBlur stdDeviation="0.958877"/>
<feComposite in2="hardAlpha" operator="arithmetic" k2="-1" k3="1"/>
<feColorMatrix type="matrix" values="0 0 0 0 1 0 0 0 0 1 0 0 0 0 1 0 0 0 0.5 0"/>
<feBlend mode="normal" in2="shape" result="effect1_innerShadow_5293_59419"/>
</filter>
<filter id="filter5_f_5293_59419" x="28.6784" y="51.7379" width="16.0866" height="15.5866" filterUnits="userSpaceOnUse" color-interpolation-filters="sRGB">
<feFlood flood-opacity="0" result="BackgroundImageFix"/>
<feBlend mode="normal" in="SourceGraphic" in2="BackgroundImageFix" result="shape"/>
<feGaussianBlur stdDeviation="2.87663" result="effect1_foregroundBlur_5293_59419"/>
</filter>
<linearGradient id="paint0_linear_5293_59419" x1="75.6752" y1="84.4176" x2="45.4381" y2="3.78721" gradientUnits="userSpaceOnUse">
<stop stop-color="#1679C6"/>
<stop offset="1" stop-color="#5D94DC"/>
</linearGradient>
<linearGradient id="paint1_linear_5293_59419" x1="58.8597" y1="17.9295" x2="90.1082" y2="76.8427" gradientUnits="userSpaceOnUse">
<stop offset="0.00200455" stop-color="#E6E6E6"/>
<stop offset="0.548789" stop-color="white" stop-opacity="0.47491"/>
<stop offset="1" stop-color="#E6E6E6" stop-opacity="0.57"/>
</linearGradient>
<linearGradient id="paint2_linear_5293_59419" x1="27.9018" y1="84.0658" x2="20.5304" y2="49.8679" gradientUnits="userSpaceOnUse">
<stop stop-color="#1679C6"/>
<stop offset="1" stop-color="#5D94DC"/>
</linearGradient>
<clipPath id="clip0_5293_59419">
<rect width="42.1905" height="35.4786" fill="white" transform="translate(2.01172 48.9775)"/>
</clipPath>
</defs>
</svg>
