<svg width="98" height="98" viewBox="0 0 98 98" fill="none" xmlns="http://www.w3.org/2000/svg">
<g id="LOW CAPEX">
<g id="Icon">
<mask id="path-1-inside-1_5293_59395" fill="white">
<path fill-rule="evenodd" clip-rule="evenodd" d="M47.1064 49.4627L62.2097 64.5661L77.3131 49.4627C85.6544 41.1214 85.6544 27.5974 77.3131 19.256C68.9717 10.9147 55.4477 10.9147 47.1064 19.256C38.765 27.5974 38.765 41.1214 47.1064 49.4627ZM24.3403 47.0575L23.7029 47.6947V23.938C23.7029 23.3609 23.4737 22.8075 23.0657 22.3995C22.6576 21.9914 22.1042 21.7622 21.5272 21.7622C20.9501 21.7622 20.3967 21.9914 19.9886 22.3995C19.5806 22.8075 19.3514 23.3609 19.3514 23.938V47.6947L18.714 47.0575C18.306 46.6495 17.7526 46.4203 17.1756 46.4203C16.5986 46.4203 16.0452 46.6495 15.6372 47.0575C15.2292 47.4655 15 48.0189 15 48.5959C15 49.1729 15.2292 49.7263 15.6372 50.1343L19.9885 54.4856C20.1905 54.6876 20.4304 54.8479 20.6943 54.9572C20.9583 55.0666 21.2412 55.1228 21.5269 55.1228C21.8126 55.1228 22.0955 55.0666 22.3595 54.9572C22.6234 54.8479 22.8633 54.6876 23.0653 54.4856L27.4166 50.1343C27.6186 49.9323 27.7789 49.6924 27.8882 49.4285C27.9976 49.1645 28.0538 48.8816 28.0538 48.5959C28.0538 48.3102 27.9976 48.0273 27.8882 47.7633C27.7789 47.4994 27.6186 47.2595 27.4166 47.0575C26.5675 46.2079 25.1899 46.2079 24.3403 47.0575ZM40.852 52.7898L50.2861 62.224C55.4965 67.4343 55.4965 75.8819 50.2861 81.0923C45.0758 86.3026 36.6282 86.3026 31.4179 81.0923C26.2075 75.8819 26.2075 67.4343 31.4179 62.224L40.852 52.7898ZM42.9095 59.9181C42.9095 61.0759 41.9709 62.0145 40.8131 62.0145C39.6552 62.0145 38.7166 61.0759 38.7166 59.9181C38.7166 58.7602 39.6552 57.8216 40.8131 57.8216C41.9709 57.8216 42.9095 58.7602 42.9095 59.9181ZM41.9239 78.4731V79.6248H39.9599V78.5066C39.3952 78.4535 38.8383 78.3482 38.2892 78.1909C37.4598 77.9478 36.7637 77.5969 36.2008 77.1383L37.365 75.4226C37.6316 75.6768 37.9545 75.8951 38.3337 76.0774C38.7188 76.2542 39.1275 76.3924 39.56 76.4918C39.6942 76.521 39.8275 76.5456 39.9599 76.5657V73.3193L39.8089 73.2925C38.6477 72.9776 37.7945 72.5438 37.2495 71.9913C36.7044 71.4387 36.4319 70.7563 36.4319 69.944C36.4319 69.2589 36.6244 68.6566 37.0095 68.1372C37.3946 67.6122 37.9219 67.2006 38.5914 66.9022C39.0114 66.715 39.4676 66.5865 39.9599 66.5168V65.3689H41.9239V66.5189C42.3922 66.5781 42.8395 66.6782 43.2658 66.8193C44.0004 67.0569 44.5959 67.3802 45.052 67.7891L43.8612 69.4302C43.5176 69.1097 43.0762 68.8527 42.5371 68.6593C42.3356 68.5871 42.1312 68.5283 41.9239 68.483V71.6409L42.1016 71.668C43.1977 71.9609 44.0241 72.3642 44.581 72.8781C45.1439 73.392 45.4253 74.0827 45.4253 74.9502C45.4253 75.663 45.2387 76.2901 44.8654 76.8316C44.4981 77.3731 43.9708 77.7959 43.2836 78.0998C42.8762 78.2767 42.4229 78.4011 41.9239 78.4731ZM41.9239 73.7705V76.5137C42.1682 76.4526 42.3844 76.368 42.5726 76.2597C43.0111 76.0111 43.2303 75.6547 43.2303 75.1906C43.2303 74.7761 43.0644 74.4418 42.7326 74.1877C42.5442 74.0375 42.2747 73.8985 41.9239 73.7705ZM39.9599 68.4568C39.8508 68.4807 39.7471 68.5096 39.6489 68.5433C39.3171 68.6593 39.0624 68.8279 38.8846 69.0489C38.7069 69.2644 38.618 69.5241 38.618 69.828C38.618 70.2479 38.7691 70.5767 39.0713 70.8143C39.2636 70.9592 39.5598 71.0987 39.9599 71.2328V68.4568Z"/>
</mask>
<g filter="url(#filter0_i_5293_59395)">
<path fill-rule="evenodd" clip-rule="evenodd" d="M47.1064 49.4627L62.2097 64.5661L77.3131 49.4627C85.6544 41.1214 85.6544 27.5974 77.3131 19.256C68.9717 10.9147 55.4477 10.9147 47.1064 19.256C38.765 27.5974 38.765 41.1214 47.1064 49.4627ZM24.3403 47.0575L23.7029 47.6947V23.938C23.7029 23.3609 23.4737 22.8075 23.0657 22.3995C22.6576 21.9914 22.1042 21.7622 21.5272 21.7622C20.9501 21.7622 20.3967 21.9914 19.9886 22.3995C19.5806 22.8075 19.3514 23.3609 19.3514 23.938V47.6947L18.714 47.0575C18.306 46.6495 17.7526 46.4203 17.1756 46.4203C16.5986 46.4203 16.0452 46.6495 15.6372 47.0575C15.2292 47.4655 15 48.0189 15 48.5959C15 49.1729 15.2292 49.7263 15.6372 50.1343L19.9885 54.4856C20.1905 54.6876 20.4304 54.8479 20.6943 54.9572C20.9583 55.0666 21.2412 55.1228 21.5269 55.1228C21.8126 55.1228 22.0955 55.0666 22.3595 54.9572C22.6234 54.8479 22.8633 54.6876 23.0653 54.4856L27.4166 50.1343C27.6186 49.9323 27.7789 49.6924 27.8882 49.4285C27.9976 49.1645 28.0538 48.8816 28.0538 48.5959C28.0538 48.3102 27.9976 48.0273 27.8882 47.7633C27.7789 47.4994 27.6186 47.2595 27.4166 47.0575C26.5675 46.2079 25.1899 46.2079 24.3403 47.0575ZM40.852 52.7898L50.2861 62.224C55.4965 67.4343 55.4965 75.8819 50.2861 81.0923C45.0758 86.3026 36.6282 86.3026 31.4179 81.0923C26.2075 75.8819 26.2075 67.4343 31.4179 62.224L40.852 52.7898ZM42.9095 59.9181C42.9095 61.0759 41.9709 62.0145 40.8131 62.0145C39.6552 62.0145 38.7166 61.0759 38.7166 59.9181C38.7166 58.7602 39.6552 57.8216 40.8131 57.8216C41.9709 57.8216 42.9095 58.7602 42.9095 59.9181ZM41.9239 78.4731V79.6248H39.9599V78.5066C39.3952 78.4535 38.8383 78.3482 38.2892 78.1909C37.4598 77.9478 36.7637 77.5969 36.2008 77.1383L37.365 75.4226C37.6316 75.6768 37.9545 75.8951 38.3337 76.0774C38.7188 76.2542 39.1275 76.3924 39.56 76.4918C39.6942 76.521 39.8275 76.5456 39.9599 76.5657V73.3193L39.8089 73.2925C38.6477 72.9776 37.7945 72.5438 37.2495 71.9913C36.7044 71.4387 36.4319 70.7563 36.4319 69.944C36.4319 69.2589 36.6244 68.6566 37.0095 68.1372C37.3946 67.6122 37.9219 67.2006 38.5914 66.9022C39.0114 66.715 39.4676 66.5865 39.9599 66.5168V65.3689H41.9239V66.5189C42.3922 66.5781 42.8395 66.6782 43.2658 66.8193C44.0004 67.0569 44.5959 67.3802 45.052 67.7891L43.8612 69.4302C43.5176 69.1097 43.0762 68.8527 42.5371 68.6593C42.3356 68.5871 42.1312 68.5283 41.9239 68.483V71.6409L42.1016 71.668C43.1977 71.9609 44.0241 72.3642 44.581 72.8781C45.1439 73.392 45.4253 74.0827 45.4253 74.9502C45.4253 75.663 45.2387 76.2901 44.8654 76.8316C44.4981 77.3731 43.9708 77.7959 43.2836 78.0998C42.8762 78.2767 42.4229 78.4011 41.9239 78.4731ZM41.9239 73.7705V76.5137C42.1682 76.4526 42.3844 76.368 42.5726 76.2597C43.0111 76.0111 43.2303 75.6547 43.2303 75.1906C43.2303 74.7761 43.0644 74.4418 42.7326 74.1877C42.5442 74.0375 42.2747 73.8985 41.9239 73.7705ZM39.9599 68.4568C39.8508 68.4807 39.7471 68.5096 39.6489 68.5433C39.3171 68.6593 39.0624 68.8279 38.8846 69.0489C38.7069 69.2644 38.618 69.5241 38.618 69.828C38.618 70.2479 38.7691 70.5767 39.0713 70.8143C39.2636 70.9592 39.5598 71.0987 39.9599 71.2328V68.4568Z" fill="url(#paint0_linear_5293_59395)"/>
</g>
<path d="M62.2097 64.5661L61.9725 64.8033L62.2097 65.0404L62.4469 64.8033L62.2097 64.5661ZM77.3131 49.4627L77.5503 49.6999L77.5503 49.6999L77.3131 49.4627ZM47.1064 19.256L47.3436 19.4932L47.3436 19.4932L47.1064 19.256ZM23.7029 47.6947H23.3675V48.5043L23.9401 47.9319L23.7029 47.6947ZM24.3403 47.0575L24.5775 47.2948L24.5775 47.2947L24.3403 47.0575ZM19.9886 22.3995L19.7515 22.1623L19.7515 22.1623L19.9886 22.3995ZM19.3514 47.6947L19.1142 47.9319L19.6868 48.5043V47.6947H19.3514ZM18.714 47.0575L18.4768 47.2947L18.4768 47.2948L18.714 47.0575ZM15.6372 47.0575L15.4 46.8203L15.4 46.8203L15.6372 47.0575ZM15.6372 50.1343L15.8744 49.8971L15.8744 49.8971L15.6372 50.1343ZM19.9885 54.4856L20.2257 54.2484L20.2257 54.2484L19.9885 54.4856ZM20.6943 54.9572L20.8227 54.6473L20.8227 54.6473L20.6943 54.9572ZM22.3595 54.9572L22.2311 54.6473L22.2311 54.6473L22.3595 54.9572ZM23.0653 54.4856L22.8281 54.2484L22.8281 54.2484L23.0653 54.4856ZM27.4166 50.1343L27.1794 49.8971L27.1794 49.8971L27.4166 50.1343ZM27.4166 47.0575L27.1793 47.2946L27.1794 47.2947L27.4166 47.0575ZM50.2861 62.224L50.049 62.4612L50.049 62.4612L50.2861 62.224ZM40.852 52.7898L41.0892 52.5527L40.852 52.3155L40.6148 52.5527L40.852 52.7898ZM50.2861 81.0923L50.5233 81.3294L50.5233 81.3294L50.2861 81.0923ZM31.4179 81.0923L31.1807 81.3294L31.1807 81.3294L31.4179 81.0923ZM31.4179 62.224L31.1807 61.9868L31.1807 61.9868L31.4179 62.224ZM41.9239 78.4731L41.876 78.1411L41.5885 78.1826V78.4731H41.9239ZM41.9239 79.6248V79.9603H42.2593V79.6248H41.9239ZM39.9599 79.6248H39.6245V79.9603H39.9599V79.6248ZM39.9599 78.5066H40.2954V78.2013L39.9914 78.1727L39.9599 78.5066ZM38.2892 78.1909L38.1949 78.5128L38.1969 78.5134L38.2892 78.1909ZM36.2008 77.1383L35.9233 76.95L35.7507 77.2042L35.989 77.3984L36.2008 77.1383ZM37.365 75.4226L37.5965 75.1799L37.3098 74.9066L37.0874 75.2343L37.365 75.4226ZM38.3337 76.0774L38.1883 76.3798L38.1937 76.3822L38.3337 76.0774ZM39.56 76.4918L39.4848 76.8187L39.4888 76.8196L39.56 76.4918ZM39.9599 76.5657L39.9096 76.8973L40.2954 76.9559V76.5657H39.9599ZM39.9599 73.3193H40.2954V73.038L40.0184 72.989L39.9599 73.3193ZM39.8089 73.2925L39.7211 73.6163L39.7356 73.6202L39.7504 73.6228L39.8089 73.2925ZM37.2495 71.9913L37.0107 72.2268L37.0107 72.2268L37.2495 71.9913ZM37.0095 68.1372L37.279 68.337L37.28 68.3356L37.0095 68.1372ZM38.5914 66.9022L38.7279 67.2086L38.7279 67.2086L38.5914 66.9022ZM39.9599 66.5168L40.007 66.8489L40.2954 66.808V66.5168H39.9599ZM39.9599 65.3689V65.0334H39.6245V65.3689H39.9599ZM41.9239 65.3689H42.2593V65.0334H41.9239V65.3689ZM41.9239 66.5189H41.5885V66.8146L41.8818 66.8517L41.9239 66.5189ZM43.2658 66.8193L43.1604 67.1378L43.1626 67.1385L43.2658 66.8193ZM45.052 67.7891L45.3235 67.9861L45.5012 67.7412L45.2759 67.5393L45.052 67.7891ZM43.8612 69.4302L43.6324 69.6755L43.9099 69.9342L44.1327 69.6272L43.8612 69.4302ZM42.5371 68.6593L42.6504 68.3436L42.6504 68.3436L42.5371 68.6593ZM41.9239 68.483L41.9955 68.1553L41.5885 68.0664V68.483H41.9239ZM41.9239 71.6409H41.5885V71.9292L41.8734 71.9726L41.9239 71.6409ZM42.1016 71.668L42.1882 71.3439L42.1704 71.3392L42.1521 71.3364L42.1016 71.668ZM44.581 72.8781L44.3536 73.1246L44.3549 73.1258L44.581 72.8781ZM44.8654 76.8316L44.5892 76.6413L44.5878 76.6433L44.8654 76.8316ZM43.2836 78.0998L43.4172 78.4075L43.4192 78.4065L43.2836 78.0998ZM41.9239 73.7705L42.0389 73.4554L41.5885 73.291V73.7705H41.9239ZM41.9239 76.5137H41.5885V76.9434L42.0053 76.8391L41.9239 76.5137ZM42.5726 76.2597L42.4072 75.968L42.4054 75.969L42.5726 76.2597ZM42.7326 74.1877L42.5235 74.45L42.5286 74.4539L42.7326 74.1877ZM39.9599 68.4568H40.2954V68.0399L39.8881 68.1292L39.9599 68.4568ZM39.6489 68.5433L39.5399 68.2261L39.5382 68.2267L39.6489 68.5433ZM38.8846 69.0489L39.1434 69.2623L39.146 69.2591L38.8846 69.0489ZM39.0713 70.8143L38.8639 71.078L38.8694 71.0822L39.0713 70.8143ZM39.9599 71.2328L39.8533 71.5508L40.2954 71.699V71.2328H39.9599ZM62.4469 64.3289L47.3436 49.2255L46.8692 49.6999L61.9725 64.8033L62.4469 64.3289ZM77.0759 49.2255L61.9725 64.3289L62.4469 64.8033L77.5503 49.6999L77.0759 49.2255ZM77.0759 19.4932C85.2863 27.7036 85.2863 41.0152 77.0759 49.2255L77.5503 49.6999C86.0226 41.2276 86.0226 27.4912 77.5503 19.0188L77.0759 19.4932ZM47.3436 19.4932C55.5539 11.2828 68.8655 11.2828 77.0759 19.4932L77.5503 19.0188C69.0779 10.5465 55.3415 10.5465 46.8692 19.0188L47.3436 19.4932ZM47.3436 49.2255C39.1332 41.0152 39.1332 27.7036 47.3436 19.4932L46.8692 19.0188C38.3968 27.4912 38.3968 41.2276 46.8692 49.6999L47.3436 49.2255ZM23.9401 47.9319L24.5775 47.2948L24.1032 46.8203L23.4658 47.4574L23.9401 47.9319ZM23.3675 23.938V47.6947H24.0384V23.938H23.3675ZM22.8285 22.6366C23.1736 22.9818 23.3675 23.4499 23.3675 23.938H24.0384C24.0384 23.272 23.7738 22.6332 23.3028 22.1623L22.8285 22.6366ZM21.5272 22.0976C22.0152 22.0976 22.4833 22.2915 22.8285 22.6366L23.3028 22.1623C22.8319 21.6913 22.1932 21.4268 21.5272 21.4268V22.0976ZM20.2258 22.6366C20.571 22.2915 21.0391 22.0976 21.5272 22.0976V21.4268C20.8611 21.4268 20.2224 21.6913 19.7515 22.1623L20.2258 22.6366ZM19.6868 23.938C19.6868 23.4499 19.8807 22.9818 20.2258 22.6366L19.7515 22.1623C19.2805 22.6332 19.0159 23.272 19.0159 23.938H19.6868ZM19.6868 47.6947V23.938H19.0159V47.6947H19.6868ZM18.4768 47.2948L19.1142 47.9319L19.5885 47.4574L18.9511 46.8203L18.4768 47.2948ZM17.1756 46.7557C17.6637 46.7557 18.1317 46.9496 18.4768 47.2947L18.9512 46.8203C18.4803 46.3494 17.8416 46.0849 17.1756 46.0849V46.7557ZM15.8744 47.2947C16.2195 46.9496 16.6876 46.7557 17.1756 46.7557V46.0849C16.5096 46.0849 15.8709 46.3494 15.4 46.8203L15.8744 47.2947ZM15.3354 48.5959C15.3354 48.1079 15.5293 47.6398 15.8744 47.2947L15.4 46.8203C14.9291 47.2912 14.6646 47.9299 14.6646 48.5959H15.3354ZM15.8744 49.8971C15.5293 49.552 15.3354 49.0839 15.3354 48.5959H14.6646C14.6646 49.2619 14.9291 49.9006 15.4 50.3715L15.8744 49.8971ZM20.2257 54.2484L15.8744 49.8971L15.4 50.3715L19.7513 54.7228L20.2257 54.2484ZM20.8227 54.6473C20.5994 54.5549 20.3966 54.4193 20.2257 54.2484L19.7513 54.7228C19.9845 54.956 20.2613 55.1409 20.566 55.2671L20.8227 54.6473ZM21.5269 54.7874C21.2852 54.7874 21.046 54.7398 20.8227 54.6473L20.566 55.2671C20.8706 55.3933 21.1972 55.4583 21.5269 55.4583V54.7874ZM22.2311 54.6473C22.0079 54.7398 21.7686 54.7874 21.5269 54.7874V55.4583C21.8567 55.4583 22.1832 55.3933 22.4879 55.2671L22.2311 54.6473ZM22.8281 54.2484C22.6572 54.4193 22.4544 54.5549 22.2311 54.6473L22.4878 55.2671C22.7925 55.1409 23.0693 54.956 23.3025 54.7228L22.8281 54.2484ZM27.1794 49.8971L22.8281 54.2484L23.3025 54.7228L27.6538 50.3715L27.1794 49.8971ZM27.5783 49.3001C27.4858 49.5234 27.3503 49.7262 27.1794 49.8971L27.6538 50.3715C27.887 50.1383 28.0719 49.8615 28.1981 49.5569L27.5783 49.3001ZM27.7184 48.5959C27.7184 48.8376 27.6708 49.0769 27.5783 49.3001L28.1981 49.5569C28.3243 49.2522 28.3893 48.9257 28.3893 48.5959H27.7184ZM27.5783 47.8917C27.6708 48.115 27.7184 48.3543 27.7184 48.5959H28.3893C28.3893 48.2661 28.3243 47.9396 28.1981 47.635L27.5783 47.8917ZM27.1794 47.2947C27.3503 47.4656 27.4858 47.6684 27.5783 47.8917L28.1981 47.635C28.0719 47.3303 27.887 47.0535 27.6538 46.8203L27.1794 47.2947ZM24.5775 47.2947C25.2961 46.5761 26.4613 46.5762 27.1793 47.2946L27.6538 46.8204C26.6737 45.8397 25.0837 45.8398 24.1031 46.8203L24.5775 47.2947ZM50.5233 61.9868L41.0892 52.5527L40.6148 53.027L50.049 62.4612L50.5233 61.9868ZM50.5233 81.3294C55.8647 75.9881 55.8647 67.3281 50.5233 61.9868L50.049 62.4612C55.1283 67.5405 55.1283 75.7757 50.049 80.8551L50.5233 81.3294ZM31.1807 81.3294C36.522 86.6708 45.182 86.6708 50.5233 81.3294L50.049 80.8551C44.9696 85.9344 36.7344 85.9344 31.6551 80.8551L31.1807 81.3294ZM31.1807 61.9868C25.8394 67.3281 25.8394 75.9881 31.1807 81.3294L31.6551 80.8551C26.5757 75.7757 26.5757 67.5405 31.6551 62.4612L31.1807 61.9868ZM40.6148 52.5527L31.1807 61.9868L31.6551 62.4612L41.0892 53.027L40.6148 52.5527ZM40.8131 62.35C42.1562 62.35 43.245 61.2612 43.245 59.9181H42.5741C42.5741 60.8907 41.7857 61.6791 40.8131 61.6791V62.35ZM38.3812 59.9181C38.3812 61.2612 39.47 62.35 40.8131 62.35V61.6791C39.8405 61.6791 39.052 60.8907 39.052 59.9181H38.3812ZM40.8131 57.4862C39.47 57.4862 38.3812 58.575 38.3812 59.9181H39.052C39.052 58.9455 39.8405 58.157 40.8131 58.157V57.4862ZM43.245 59.9181C43.245 58.575 42.1562 57.4862 40.8131 57.4862V58.157C41.7857 58.157 42.5741 58.9455 42.5741 59.9181H43.245ZM41.5885 78.4731V79.6248H42.2593V78.4731H41.5885ZM41.9239 79.2894H39.9599V79.9603H41.9239V79.2894ZM40.2954 79.6248V78.5066H39.6245V79.6248H40.2954ZM39.9914 78.1727C39.4475 78.1215 38.9109 78.0201 38.3816 77.8685L38.1969 78.5134C38.7657 78.6764 39.343 78.7855 39.9285 78.8406L39.9914 78.1727ZM38.3836 77.869C37.589 77.6361 36.935 77.3038 36.4127 76.8783L35.989 77.3984C36.5924 77.8901 37.3306 78.2595 38.1949 78.5128L38.3836 77.869ZM36.4784 77.3267L37.6426 75.611L37.0874 75.2343L35.9233 76.95L36.4784 77.3267ZM37.1335 75.6654C37.4289 75.947 37.7819 76.1843 38.1883 76.3797L38.479 75.7751C38.1271 75.6059 37.8343 75.4066 37.5965 75.1799L37.1335 75.6654ZM38.1937 76.3822C38.6005 76.569 39.0311 76.7144 39.4849 76.8187L39.6352 76.1649C39.224 76.0703 38.837 75.9394 38.4736 75.7726L38.1937 76.3822ZM39.4888 76.8196C39.6297 76.8502 39.77 76.8761 39.9096 76.8973L40.0103 76.234C39.885 76.215 39.7586 76.1917 39.6312 76.164L39.4888 76.8196ZM40.2954 76.5657V73.3193H39.6245V76.5657H40.2954ZM40.0184 72.989L39.8673 72.9622L39.7504 73.6228L39.9015 73.6496L40.0184 72.989ZM39.8967 72.9688C38.7639 72.6615 37.9748 72.2489 37.4883 71.7557L37.0107 72.2268C37.6143 72.8387 38.5314 73.2936 39.7211 73.6163L39.8967 72.9688ZM37.4883 71.7557C37.0083 71.2691 36.7673 70.6727 36.7673 69.944H36.0965C36.0965 70.8399 36.4006 71.6083 37.0107 72.2268L37.4883 71.7557ZM36.7673 69.944C36.7673 69.3262 36.9394 68.795 37.279 68.337L36.7401 67.9374C36.3095 68.5182 36.0965 69.1915 36.0965 69.944H36.7673ZM37.28 68.3356C37.6264 67.8634 38.1049 67.4863 38.7279 67.2086L38.4548 66.5958C37.7389 66.9149 37.1628 67.3611 36.7391 67.9388L37.28 68.3356ZM38.7279 67.2086C39.1173 67.0351 39.543 66.9146 40.007 66.8489L39.9129 66.1847C39.3922 66.2584 38.9056 66.3949 38.4548 66.5958L38.7279 67.2086ZM40.2954 66.5168V65.3689H39.6245V66.5168H40.2954ZM39.9599 65.7043H41.9239V65.0334H39.9599V65.7043ZM41.5885 65.3689V66.5189H42.2593V65.3689H41.5885ZM41.8818 66.8517C42.3297 66.9083 42.7557 67.0038 43.1604 67.1378L43.3712 66.5009C42.9232 66.3526 42.4547 66.2479 41.966 66.1861L41.8818 66.8517ZM43.1626 67.1385C43.8638 67.3653 44.4147 67.6683 44.8282 68.0388L45.2759 67.5393C44.777 67.0921 44.1371 66.7486 43.369 66.5002L43.1626 67.1385ZM44.7806 67.5921L43.5897 69.2332L44.1327 69.6272L45.3235 67.9861L44.7806 67.5921ZM44.09 69.1849C43.7066 68.8273 43.2232 68.5491 42.6504 68.3436L42.4238 68.9751C42.9292 69.1564 43.3286 69.3921 43.6324 69.6755L44.09 69.1849ZM42.6504 68.3436C42.4353 68.2665 42.217 68.2037 41.9955 68.1553L41.8523 68.8107C42.0454 68.8529 42.2358 68.9076 42.4238 68.9751L42.6504 68.3436ZM41.5885 68.483V71.6409H42.2593V68.483H41.5885ZM41.8734 71.9726L42.0511 71.9996L42.1521 71.3364L41.9744 71.3093L41.8734 71.9726ZM42.0151 71.9921C43.0826 72.2773 43.8516 72.6615 44.3536 73.1246L44.8085 72.6316C44.1967 72.067 43.3128 71.6444 42.1882 71.3439L42.0151 71.9921ZM44.3549 73.1258C44.8381 73.5671 45.0899 74.1625 45.0899 74.9502H45.7607C45.7607 74.0028 45.4496 73.2169 44.8072 72.6304L44.3549 73.1258ZM45.0899 74.9502C45.0899 75.601 44.9206 76.1605 44.5892 76.6413L45.1416 77.022C45.5567 76.4198 45.7607 75.725 45.7607 74.9502H45.0899ZM44.5878 76.6433C44.2608 77.1255 43.7864 77.5106 43.1479 77.793L43.4192 78.4065C44.1552 78.0811 44.7354 77.6208 45.143 77.02L44.5878 76.6433ZM43.15 77.7921C42.7733 77.9556 42.3494 78.0728 41.876 78.1411L41.9718 78.8051C42.4965 78.7294 42.979 78.5977 43.4172 78.4075L43.15 77.7921ZM41.5885 73.7705V76.5137H42.2593V73.7705H41.5885ZM42.0053 76.8391C42.275 76.7717 42.5209 76.6764 42.7398 76.5505L42.4054 75.969C42.248 76.0595 42.0614 76.1336 41.8425 76.1883L42.0053 76.8391ZM42.7381 76.5515C43.2706 76.2495 43.5657 75.7876 43.5657 75.1906H42.8948C42.8948 75.5218 42.7515 75.7727 42.4072 75.968L42.7381 76.5515ZM43.5657 75.1906C43.5657 74.6707 43.3504 74.2384 42.9366 73.9214L42.5286 74.4539C42.7784 74.6453 42.8948 74.8816 42.8948 75.1906H43.5657ZM42.9417 73.9254C42.7139 73.7438 42.4071 73.5897 42.0389 73.4554L41.8089 74.0856C42.1422 74.2072 42.3746 74.3312 42.5235 74.45L42.9417 73.9254ZM39.8881 68.1292C39.7673 68.1556 39.6511 68.1878 39.5399 68.2261L39.7579 68.8605C39.843 68.8313 39.9342 68.8059 40.0317 68.7845L39.8881 68.1292ZM39.5382 68.2267C39.1613 68.3585 38.8487 68.5583 38.6232 68.8387L39.146 69.2591C39.2761 69.0974 39.4729 68.9602 39.7596 68.8599L39.5382 68.2267ZM38.6259 68.8355C38.3941 69.1165 38.2826 69.4535 38.2826 69.828H38.9535C38.9535 69.5946 39.0197 69.4123 39.1434 69.2623L38.6259 68.8355ZM38.2826 69.828C38.2826 70.3399 38.4727 70.7703 38.8639 71.078L39.2786 70.5506C39.0655 70.3831 38.9535 70.156 38.9535 69.828H38.2826ZM38.8694 71.0822C39.1045 71.2593 39.4407 71.4125 39.8533 71.5508L40.0665 70.9147C39.679 70.7848 39.4227 70.6591 39.2731 70.5464L38.8694 71.0822ZM40.2954 71.2328V68.4568H39.6245V71.2328H40.2954Z" fill="url(#paint1_linear_5293_59395)" mask="url(#path-1-inside-1_5293_59395)"/>
</g>
<g id="Light" opacity="0.4" filter="url(#filter1_f_5293_59395)">
<ellipse cx="56.8076" cy="21.6186" rx="7.46316" ry="2.91691" transform="rotate(-34.3463 56.8076 21.6186)" fill="white"/>
</g>
</g>
<defs>
<filter id="filter0_i_5293_59395" x="15" y="13" width="68.5684" height="73.6772" filterUnits="userSpaceOnUse" color-interpolation-filters="sRGB">
<feFlood flood-opacity="0" result="BackgroundImageFix"/>
<feBlend mode="normal" in="SourceGraphic" in2="BackgroundImageFix" result="shape"/>
<feColorMatrix in="SourceAlpha" type="matrix" values="0 0 0 0 0 0 0 0 0 0 0 0 0 0 0 0 0 0 127 0" result="hardAlpha"/>
<feOffset dy="1.67717"/>
<feGaussianBlur stdDeviation="1.25788"/>
<feComposite in2="hardAlpha" operator="arithmetic" k2="-1" k3="1"/>
<feColorMatrix type="matrix" values="0 0 0 0 1 0 0 0 0 1 0 0 0 0 1 0 0 0 0.75 0"/>
<feBlend mode="normal" in2="shape" result="effect1_innerShadow_5293_59395"/>
</filter>
<filter id="filter1_f_5293_59395" x="44.4277" y="10.7666" width="24.7598" height="21.7031" filterUnits="userSpaceOnUse" color-interpolation-filters="sRGB">
<feFlood flood-opacity="0" result="BackgroundImageFix"/>
<feBlend mode="normal" in="SourceGraphic" in2="BackgroundImageFix" result="shape"/>
<feGaussianBlur stdDeviation="3" result="effect1_foregroundBlur_5293_59395"/>
</filter>
<linearGradient id="paint0_linear_5293_59395" x1="59.6771" y1="68.3035" x2="37.4746" y2="-0.340597" gradientUnits="userSpaceOnUse">
<stop stop-color="#1679C6"/>
<stop offset="1" stop-color="#5D94DC"/>
</linearGradient>
<linearGradient id="paint1_linear_5293_59395" x1="33.2552" y1="26.3525" x2="56.121" y2="79.8812" gradientUnits="userSpaceOnUse">
<stop offset="0.00200455" stop-color="#E6E6E6"/>
<stop offset="0.548789" stop-color="white" stop-opacity="0.47491"/>
<stop offset="1" stop-color="#E6E6E6" stop-opacity="0.57"/>
</linearGradient>
</defs>
</svg>
