<svg width="98" height="98" viewBox="0 0 98 98" fill="none" xmlns="http://www.w3.org/2000/svg">
<g id="LOWEST OPEX green">
<g id="icon">
<g id="Body">
<mask id="path-1-inside-1_5294_59612" fill="white">
<path fill-rule="evenodd" clip-rule="evenodd" d="M13 13H48C56.3542 13 64.0249 15.927 70.0423 20.8114C70.6998 20.9445 71.3323 21.2773 71.8649 21.8099L76.8349 26.78C78.2549 28.2001 78.2549 30.3301 76.8349 31.75L73.6399 34.945C75.0599 37.43 76.1249 39.9151 76.8349 42.4H81.4499C83.5799 42.4 85 43.82 85 45.5949V52.6949C85 54.8249 83.5801 56.2449 81.4501 56.2449H77.545C76.8349 59.0849 75.77 61.5699 74.35 63.6998L77.545 66.8948C78.965 68.315 78.965 70.445 77.545 71.8649L72.575 76.8349C71.1548 78.2549 69.0248 78.2549 67.6049 76.8349L64.4099 73.6399C61.925 75.0599 59.4398 76.1249 56.9549 76.8349V81.4501C56.9549 83.5801 55.535 85 53.405 85H46.3049C44.1749 85 42.755 83.5801 42.755 81.4501V77.1901C39.9149 76.48 37.43 75.415 35.3 73.9951L32.105 77.1901C30.6849 78.61 28.5549 78.61 27.1349 77.1901L22.1649 72.22C21.6598 71.7149 21.3344 71.1199 21.1886 70.499C16.0781 64.4153 13 56.5671 13 48V13ZM70 48C70 59.598 60.598 69 49 69C37.402 69 28 59.598 28 48C28 36.402 37.402 27 49 27C60.598 27 70 36.402 70 48Z"/>
</mask>
<g filter="url(#filter0_i_5294_59612)">
<path fill-rule="evenodd" clip-rule="evenodd" d="M13 13H48C56.3542 13 64.0249 15.927 70.0423 20.8114C70.6998 20.9445 71.3323 21.2773 71.8649 21.8099L76.8349 26.78C78.2549 28.2001 78.2549 30.3301 76.8349 31.75L73.6399 34.945C75.0599 37.43 76.1249 39.9151 76.8349 42.4H81.4499C83.5799 42.4 85 43.82 85 45.5949V52.6949C85 54.8249 83.5801 56.2449 81.4501 56.2449H77.545C76.8349 59.0849 75.77 61.5699 74.35 63.6998L77.545 66.8948C78.965 68.315 78.965 70.445 77.545 71.8649L72.575 76.8349C71.1548 78.2549 69.0248 78.2549 67.6049 76.8349L64.4099 73.6399C61.925 75.0599 59.4398 76.1249 56.9549 76.8349V81.4501C56.9549 83.5801 55.535 85 53.405 85H46.3049C44.1749 85 42.755 83.5801 42.755 81.4501V77.1901C39.9149 76.48 37.43 75.415 35.3 73.9951L32.105 77.1901C30.6849 78.61 28.5549 78.61 27.1349 77.1901L22.1649 72.22C21.6598 71.7149 21.3344 71.1199 21.1886 70.499C16.0781 64.4153 13 56.5671 13 48V13ZM70 48C70 59.598 60.598 69 49 69C37.402 69 28 59.598 28 48C28 36.402 37.402 27 49 27C60.598 27 70 36.402 70 48Z" fill="url(#paint0_linear_5294_59612)"/>
</g>
<path d="M13 13V12.6H12.6V13H13ZM70.0423 20.8114L69.7902 21.122L69.8665 21.184L69.9629 21.2035L70.0423 20.8114ZM71.8649 21.8099L72.1477 21.5271L72.1477 21.5271L71.8649 21.8099ZM76.8349 26.78L77.1178 26.4972L77.1178 26.4971L76.8349 26.78ZM76.8349 31.75L77.1178 32.0329L77.1178 32.0329L76.8349 31.75ZM73.6399 34.945L73.3571 34.6622L73.1411 34.8782L73.2927 35.1435L73.6399 34.945ZM76.8349 42.4L76.4503 42.5099L76.5332 42.8H76.8349V42.4ZM77.545 56.2449V55.8449H77.2327L77.157 56.1478L77.545 56.2449ZM74.35 63.6998L74.0172 63.478L73.8353 63.7508L74.0672 63.9827L74.35 63.6998ZM77.545 66.8948L77.8279 66.612L77.8278 66.612L77.545 66.8948ZM72.575 76.8349L72.8578 77.1178L72.8578 77.1178L72.575 76.8349ZM67.6049 76.8349L67.3221 77.1178L67.3221 77.1178L67.6049 76.8349ZM64.4099 73.6399L64.6927 73.3571L64.4767 73.1411L64.2115 73.2927L64.4099 73.6399ZM56.9549 76.8349L56.845 76.4503L56.5549 76.5332V76.8349H56.9549ZM42.755 77.1901H43.155V76.8778L42.852 76.802L42.755 77.1901ZM35.3 73.9951L35.5219 73.6622L35.249 73.4803L35.0171 73.7122L35.3 73.9951ZM32.105 77.1901L32.3878 77.4729L32.3878 77.4729L32.105 77.1901ZM27.1349 77.1901L27.4178 76.9072L27.4178 76.9072L27.1349 77.1901ZM22.1649 72.22L21.882 72.5028L21.882 72.5029L22.1649 72.22ZM21.1886 70.499L21.578 70.4076L21.5562 70.3148L21.4949 70.2418L21.1886 70.499ZM48 12.6H13V13.4H48V12.6ZM70.2944 20.5009C64.2083 15.5607 56.4494 12.6 48 12.6V13.4C56.2591 13.4 63.8414 16.2933 69.7902 21.122L70.2944 20.5009ZM69.9629 21.2035C70.541 21.3205 71.1033 21.6141 71.5821 22.0928L72.1477 21.5271C71.5612 20.9406 70.8585 20.5685 70.1216 20.4194L69.9629 21.2035ZM71.5821 22.0928L76.5521 27.0628L77.1178 26.4971L72.1477 21.5271L71.5821 22.0928ZM76.5521 27.0628C77.8159 28.3267 77.8158 30.2035 76.5521 31.4672L77.1178 32.0329C78.694 30.4567 78.6939 28.0735 77.1178 26.4972L76.5521 27.0628ZM76.5521 31.4672L73.3571 34.6622L73.9228 35.2279L77.1178 32.0329L76.5521 31.4672ZM73.2927 35.1435C74.6983 37.6035 75.75 40.059 76.4503 42.5099L77.2196 42.2901C76.4998 39.7712 75.4215 37.2565 73.9872 34.7466L73.2927 35.1435ZM76.8349 42.8H81.4499V42H76.8349V42.8ZM81.4499 42.8C83.3874 42.8 84.6 44.0683 84.6 45.5949H85.4C85.4 43.5716 83.7723 42 81.4499 42V42.8ZM84.6 45.5949V52.6949H85.4V45.5949H84.6ZM84.6 52.6949C84.6 53.669 84.2771 54.4497 83.7409 54.9858C83.2048 55.5219 82.4242 55.8449 81.4501 55.8449V56.6449C82.606 56.6449 83.6003 56.2578 84.3066 55.5515C85.013 54.8451 85.4 53.8508 85.4 52.6949H84.6ZM81.4501 55.8449H77.545V56.6449H81.4501V55.8449ZM77.157 56.1478C76.4564 58.9497 75.4083 61.3912 74.0172 63.478L74.6828 63.9217C76.1316 61.7485 77.2135 59.2201 77.9331 56.3419L77.157 56.1478ZM74.0672 63.9827L77.2622 67.1777L77.8278 66.612L74.6328 63.417L74.0672 63.9827ZM77.2621 67.1777C78.5259 68.4416 78.5259 70.3183 77.2622 71.5821L77.8278 72.1477C79.404 70.5716 79.404 68.1883 77.8279 66.612L77.2621 67.1777ZM77.2622 71.5821L72.2921 76.5521L72.8578 77.1178L77.8278 72.1477L77.2622 71.5821ZM72.2921 76.5521C71.0282 77.8159 69.1515 77.8158 67.8877 76.5521L67.3221 77.1178C68.8982 78.694 71.2815 78.6939 72.8578 77.1178L72.2921 76.5521ZM67.8877 76.5521L64.6927 73.3571L64.1271 73.9228L67.3221 77.1178L67.8877 76.5521ZM64.2115 73.2927C61.7515 74.6983 59.2959 75.75 56.845 76.4503L57.0648 77.2196C59.5838 76.4998 62.0984 75.4215 64.6084 73.9872L64.2115 73.2927ZM56.5549 76.8349V81.4501H57.3549V76.8349H56.5549ZM56.5549 81.4501C56.5549 82.4242 56.232 83.2048 55.6958 83.7409C55.1597 84.2771 54.3791 84.6 53.405 84.6V85.4C54.5609 85.4 55.5552 85.013 56.2615 84.3066C56.9679 83.6003 57.3549 82.606 57.3549 81.4501H56.5549ZM53.405 84.6H46.3049V85.4H53.405V84.6ZM46.3049 84.6C45.3308 84.6 44.5502 84.2771 44.014 83.7409C43.4779 83.2048 43.155 82.4242 43.155 81.4501H42.355C42.355 82.606 42.742 83.6003 43.4484 84.3066C44.1547 85.013 45.149 85.4 46.3049 85.4V84.6ZM43.155 81.4501V77.1901H42.355V81.4501H43.155ZM42.852 76.802C40.0501 76.1015 37.6087 75.0534 35.5219 73.6622L35.0781 74.3279C37.2513 75.7766 39.7797 76.8585 42.658 77.5781L42.852 76.802ZM35.0171 73.7122L31.8221 76.9072L32.3878 77.4729L35.5828 74.2779L35.0171 73.7122ZM31.8222 76.9072C30.5582 78.171 28.6815 78.1709 27.4178 76.9072L26.8521 77.4729C28.4283 79.0491 30.8115 79.049 32.3878 77.4729L31.8222 76.9072ZM27.4178 76.9072L22.4477 71.9372L21.882 72.5029L26.8521 77.4729L27.4178 76.9072ZM22.4477 71.9372C21.9937 71.4831 21.7063 70.9538 21.578 70.4076L20.7992 70.5905C20.9625 71.286 21.3259 71.9467 21.882 72.5028L22.4477 71.9372ZM12.6 48C12.6 56.6647 15.7135 64.6032 20.8823 70.7563L21.4949 70.2418C16.4426 64.2274 13.4 56.4696 13.4 48H12.6ZM12.6 13V48H13.4V13H12.6ZM49 69.4C60.8189 69.4 70.4 59.8189 70.4 48H69.6C69.6 59.3771 60.3771 68.6 49 68.6V69.4ZM27.6 48C27.6 59.8189 37.1811 69.4 49 69.4V68.6C37.6229 68.6 28.4 59.3771 28.4 48H27.6ZM49 26.6C37.1811 26.6 27.6 36.1811 27.6 48H28.4C28.4 36.6229 37.6229 27.4 49 27.4V26.6ZM70.4 48C70.4 36.1811 60.8189 26.6 49 26.6V27.4C60.3771 27.4 69.6 36.6229 69.6 48H70.4Z" fill="url(#paint1_linear_5294_59612)" mask="url(#path-1-inside-1_5294_59612)"/>
</g>
<g id="percent">
<g id="95">
<path d="M36.2487 53.4044L35.5633 51.9268C36.165 51.8507 36.7033 51.7231 37.1784 51.544C37.6534 51.3649 38.0696 51.1455 38.427 50.8858C38.7844 50.6262 39.0853 50.3351 39.3296 50.0128C39.5739 49.6904 39.7639 49.3501 39.8997 48.9919C39.687 49.2158 39.4269 49.3949 39.1192 49.5292C38.8161 49.659 38.4926 49.724 38.1488 49.724C37.5516 49.724 37.0132 49.5941 36.5337 49.3344C36.0587 49.0747 35.6831 48.7188 35.4072 48.2666C35.1357 47.8099 35 47.2883 35 46.7017C35 46.1152 35.1493 45.5891 35.4479 45.1234C35.751 44.6533 36.1695 44.2817 36.7033 44.0086C37.2372 43.7355 37.8525 43.5989 38.5492 43.5989C39.264 43.5989 39.8974 43.7511 40.4493 44.0556C41.0013 44.3556 41.4356 44.7876 41.7523 45.3518C42.069 45.9115 42.2273 46.5831 42.2273 47.3666C42.2273 48.1725 42.0758 48.9158 41.7727 49.5964C41.4695 50.2724 41.0443 50.8724 40.4968 51.3963C39.9539 51.9201 39.3206 52.3522 38.5967 52.6925C37.8728 53.0327 37.0902 53.2701 36.2487 53.4044ZM38.5492 48.1927C38.8659 48.1927 39.1486 48.1278 39.3975 47.9979C39.6508 47.8681 39.8499 47.6912 39.9947 47.4674C40.144 47.239 40.2186 46.9838 40.2186 46.7017C40.2186 46.4107 40.1462 46.1532 40.0014 45.9294C39.8567 45.7055 39.6599 45.5309 39.411 45.4055C39.1622 45.2757 38.8749 45.2108 38.5492 45.2108C38.228 45.2108 37.9407 45.2757 37.6873 45.4055C37.4385 45.5309 37.2417 45.7055 37.0969 45.9294C36.9567 46.1532 36.8866 46.4107 36.8866 46.7017C36.8866 46.9838 36.959 47.239 37.1037 47.4674C37.253 47.6912 37.4521 47.8681 37.7009 47.9979C37.9543 48.1278 38.237 48.1927 38.5492 48.1927Z" fill="url(#paint2_linear_5294_59612)"/>
<path d="M46.5473 53.4044C45.9365 53.4044 45.3574 53.3193 44.81 53.1492C44.2671 52.9745 43.8147 52.7395 43.4528 52.444L44.05 50.8791C44.3531 51.1657 44.715 51.3784 45.1358 51.5172C45.561 51.6515 45.9953 51.7186 46.4387 51.7186C46.8187 51.7186 47.1467 51.6627 47.4227 51.5507C47.7032 51.4343 47.9181 51.2642 48.0674 51.0403C48.2167 50.812 48.2913 50.5321 48.2913 50.2008C48.2913 49.9098 48.2122 49.659 48.0538 49.4486C47.9 49.2382 47.6828 49.077 47.4024 48.965C47.1264 48.8486 46.8029 48.7904 46.4319 48.7904C46.1921 48.7904 45.9411 48.8195 45.6787 48.8777C45.4163 48.9359 45.1516 49.0232 44.8847 49.1397L44.0635 48.2464L44.5589 43.8071L49.954 43.8138V45.5264H45.9501L45.7126 47.4338C45.8981 47.3845 46.0858 47.3465 46.2758 47.3196C46.4659 47.2883 46.6559 47.2726 46.8459 47.2726C47.4928 47.2726 48.0674 47.3935 48.5696 47.6353C49.0718 47.8726 49.4654 48.2173 49.7504 48.6695C50.0354 49.1173 50.1779 49.6568 50.1779 50.2881C50.1779 50.9194 50.0264 51.4679 49.7232 51.9335C49.4201 52.3992 48.9949 52.7619 48.4474 53.0216C47.9045 53.2768 47.2712 53.4044 46.5473 53.4044Z" fill="url(#paint3_linear_5294_59612)"/>
<path d="M55.8836 53.4447L54.8386 52.8335L60.0911 43.5586L61.1294 44.1362L55.8836 53.4447ZM54.0039 48.871C53.5017 48.871 53.047 48.7546 52.6398 48.5218C52.2372 48.289 51.9137 47.9755 51.6694 47.5815C51.4296 47.1875 51.3097 46.7465 51.3097 46.2585C51.3097 45.7794 51.4296 45.3428 51.6694 44.9488C51.9137 44.5548 52.2372 44.2436 52.6398 44.0153C53.047 43.7825 53.5017 43.6661 54.0039 43.6661C54.5015 43.6661 54.9517 43.7825 55.3543 44.0153C55.7615 44.2436 56.0827 44.5548 56.318 44.9488C56.5577 45.3428 56.6776 45.7794 56.6776 46.2585C56.6776 46.742 56.5577 47.183 56.318 47.5815C56.0827 47.9755 55.7615 48.289 55.3543 48.5218C54.9517 48.7546 54.5015 48.871 54.0039 48.871ZM54.0039 47.595C54.2663 47.595 54.497 47.539 54.6961 47.4271C54.8996 47.3106 55.058 47.1517 55.1711 46.9502C55.2842 46.7487 55.3407 46.5181 55.3407 46.2585C55.3407 45.8689 55.2163 45.5533 54.9675 45.3115C54.7232 45.0652 54.402 44.9421 54.0039 44.9421C53.7369 44.9421 53.5017 44.9981 53.2981 45.11C53.099 45.2219 52.9429 45.3787 52.8298 45.5801C52.7167 45.7771 52.6602 46.0032 52.6602 46.2585C52.6602 46.6525 52.7846 46.9748 53.0334 47.2256C53.2868 47.4718 53.6103 47.595 54.0039 47.595ZM61.9845 53.3372C61.4823 53.3372 61.0276 53.2208 60.6204 52.988C60.2178 52.7552 59.8943 52.4417 59.65 52.0477C59.4102 51.6492 59.2903 51.2082 59.2903 50.7247C59.2903 50.2456 59.4102 49.809 59.65 49.415C59.8943 49.021 60.2178 48.7098 60.6204 48.4815C61.0276 48.2487 61.4823 48.1322 61.9845 48.1322C62.4821 48.1322 62.9323 48.2487 63.3349 48.4815C63.7421 48.7098 64.0633 49.021 64.2986 49.415C64.5383 49.809 64.6582 50.2456 64.6582 50.7247C64.6582 51.2082 64.5383 51.6492 64.2986 52.0477C64.0633 52.4417 63.7421 52.7552 63.3349 52.988C62.9323 53.2208 62.4821 53.3372 61.9845 53.3372ZM61.9845 52.0612C62.2423 52.0612 62.4731 52.0052 62.6767 51.8933C62.8802 51.7768 63.0386 51.6179 63.1517 51.4164C63.2648 51.2149 63.3213 50.9843 63.3213 50.7247C63.3213 50.3351 63.1969 50.0195 62.9481 49.7777C62.6993 49.5314 62.3781 49.4083 61.9845 49.4083C61.7175 49.4083 61.4823 49.4643 61.2787 49.5762C61.0796 49.6837 60.9235 49.8381 60.8104 50.0396C60.6973 50.2366 60.6408 50.465 60.6408 50.7247C60.6408 51.1142 60.7652 51.4343 61.014 51.6851C61.2629 51.9358 61.5863 52.0612 61.9845 52.0612Z" fill="url(#paint4_linear_5294_59612)"/>
</g>
<path id="%" d="M55.8864 53.4447L54.8413 52.8335L60.0939 43.5586L61.1322 44.1362L55.8864 53.4447ZM54.0066 48.871C53.5044 48.871 53.0498 48.7546 52.6426 48.5218C52.2399 48.289 51.9165 47.9755 51.6722 47.5815C51.4324 47.1875 51.3125 46.7465 51.3125 46.2585C51.3125 45.7794 51.4324 45.3428 51.6722 44.9488C51.9165 44.5548 52.2399 44.2436 52.6426 44.0153C53.0498 43.7825 53.5044 43.6661 54.0066 43.6661C54.5043 43.6661 54.9544 43.7825 55.3571 44.0153C55.7643 44.2436 56.0855 44.5548 56.3207 44.9488C56.5605 45.3428 56.6804 45.7794 56.6804 46.2585C56.6804 46.742 56.5605 47.183 56.3207 47.5815C56.0855 47.9755 55.7643 48.289 55.3571 48.5218C54.9544 48.7546 54.5043 48.871 54.0066 48.871ZM54.0066 47.595C54.269 47.595 54.4998 47.539 54.6988 47.4271C54.9024 47.3106 55.0608 47.1517 55.1739 46.9502C55.287 46.7487 55.3435 46.5181 55.3435 46.2585C55.3435 45.8689 55.2191 45.5533 54.9703 45.3115C54.726 45.0652 54.4048 44.9421 54.0066 44.9421C53.7397 44.9421 53.5045 44.9981 53.3009 45.11C53.1018 45.2219 52.9457 45.3787 52.8326 45.5801C52.7195 45.7771 52.663 46.0032 52.663 46.2585C52.663 46.6525 52.7874 46.9748 53.0362 47.2256C53.2896 47.4718 53.613 47.595 54.0066 47.595ZM61.9872 53.3372C61.485 53.3372 61.0304 53.2208 60.6232 52.988C60.2205 52.7552 59.8971 52.4417 59.6528 52.0477C59.413 51.6492 59.2931 51.2082 59.2931 50.7247C59.2931 50.2456 59.413 49.809 59.6528 49.415C59.8971 49.021 60.2205 48.7098 60.6232 48.4815C61.0304 48.2487 61.485 48.1322 61.9872 48.1322C62.4849 48.1322 62.935 48.2487 63.3377 48.4815C63.7449 48.7098 64.0661 49.021 64.3013 49.415C64.5411 49.809 64.661 50.2456 64.661 50.7247C64.661 51.2082 64.5411 51.6492 64.3013 52.0477C64.0661 52.4417 63.7449 52.7552 63.3377 52.988C62.935 53.2208 62.4849 53.3372 61.9872 53.3372ZM61.9872 52.0612C62.2451 52.0612 62.4758 52.0052 62.6794 51.8933C62.883 51.7768 63.0414 51.6179 63.1545 51.4164C63.2676 51.2149 63.3241 50.9843 63.3241 50.7247C63.3241 50.3351 63.1997 50.0195 62.9509 49.7777C62.702 49.5314 62.3808 49.4083 61.9872 49.4083C61.7203 49.4083 61.485 49.4643 61.2815 49.5762C61.0824 49.6837 60.9263 49.8381 60.8132 50.0396C60.7001 50.2366 60.6436 50.465 60.6436 50.7247C60.6436 51.1142 60.768 51.4343 61.0168 51.6851C61.2656 51.9358 61.5891 52.0612 61.9872 52.0612Z" fill="url(#paint5_linear_5294_59612)"/>
</g>
</g>
<g id="Light" opacity="0.1" filter="url(#filter1_f_5294_59612)">
<ellipse cx="26.2058" cy="27.4227" rx="10" ry="7" transform="rotate(-34.3463 26.2058 27.4227)" fill="white"/>
</g>
</g>
<defs>
<filter id="filter0_i_5294_59612" x="13" y="13" width="72" height="74" filterUnits="userSpaceOnUse" color-interpolation-filters="sRGB">
<feFlood flood-opacity="0" result="BackgroundImageFix"/>
<feBlend mode="normal" in="SourceGraphic" in2="BackgroundImageFix" result="shape"/>
<feColorMatrix in="SourceAlpha" type="matrix" values="0 0 0 0 0 0 0 0 0 0 0 0 0 0 0 0 0 0 127 0" result="hardAlpha"/>
<feOffset dy="2"/>
<feGaussianBlur stdDeviation="1.5"/>
<feComposite in2="hardAlpha" operator="arithmetic" k2="-1" k3="1"/>
<feColorMatrix type="matrix" values="0 0 0 0 1 0 0 0 0 1 0 0 0 0 1 0 0 0 0.75 0"/>
<feBlend mode="normal" in2="shape" result="effect1_innerShadow_5294_59612"/>
</filter>
<filter id="filter1_f_5294_59612" x="11.0508" y="13.3457" width="30.3086" height="28.1533" filterUnits="userSpaceOnUse" color-interpolation-filters="sRGB">
<feFlood flood-opacity="0" result="BackgroundImageFix"/>
<feBlend mode="normal" in="SourceGraphic" in2="BackgroundImageFix" result="shape"/>
<feGaussianBlur stdDeviation="3" result="effect1_foregroundBlur_5294_59612"/>
</filter>
<linearGradient id="paint0_linear_5294_59612" x1="-31.2353" y1="13" x2="87.3872" y2="18.8855" gradientUnits="userSpaceOnUse">
<stop stop-color="#5FB847"/>
<stop offset="0.427083" stop-color="#72BE44"/>
<stop offset="0.973958" stop-color="#8BDF58"/>
</linearGradient>
<linearGradient id="paint1_linear_5294_59612" x1="15" y1="12" x2="70.5" y2="79" gradientUnits="userSpaceOnUse">
<stop offset="0.00200455" stop-color="#E6E6E6"/>
<stop offset="0.463542" stop-color="white" stop-opacity="0.47491"/>
<stop offset="1" stop-color="#E6E6E6" stop-opacity="0.57"/>
</linearGradient>
<linearGradient id="paint2_linear_5294_59612" x1="16.7786" y1="43.5586" x2="64.7002" y2="50.6915" gradientUnits="userSpaceOnUse">
<stop stop-color="#5FB847"/>
<stop offset="0.427083" stop-color="#72BE44"/>
<stop offset="0.973958" stop-color="#8BDF58"/>
</linearGradient>
<linearGradient id="paint3_linear_5294_59612" x1="16.7786" y1="43.5586" x2="64.7002" y2="50.6915" gradientUnits="userSpaceOnUse">
<stop stop-color="#5FB847"/>
<stop offset="0.427083" stop-color="#72BE44"/>
<stop offset="0.973958" stop-color="#8BDF58"/>
</linearGradient>
<linearGradient id="paint4_linear_5294_59612" x1="16.7786" y1="43.5586" x2="64.7002" y2="50.6915" gradientUnits="userSpaceOnUse">
<stop stop-color="#5FB847"/>
<stop offset="0.427083" stop-color="#72BE44"/>
<stop offset="0.973958" stop-color="#8BDF58"/>
</linearGradient>
<linearGradient id="paint5_linear_5294_59612" x1="43.1115" y1="43.5586" x2="65.0592" y2="45.0289" gradientUnits="userSpaceOnUse">
<stop stop-color="#5FB847"/>
<stop offset="0.427083" stop-color="#72BE44"/>
<stop offset="0.973958" stop-color="#8BDF58"/>
</linearGradient>
</defs>
</svg>
