<svg width="98" height="98" viewBox="0 0 98 98" fill="none" xmlns="http://www.w3.org/2000/svg">
<g id="NO HEAT REMOVAL REQUIRED">
<g id="Body">
<path id="border" d="M52.4491 57.3468V58.1255L53.0859 58.5735C56.6145 61.0564 58.9156 65.1555 58.9156 69.7921C58.9156 77.3628 52.7784 83.5 45.2079 83.5C37.6372 83.5 31.5 77.3628 31.5 69.7921C31.5 65.1554 33.8007 61.0564 37.3297 58.5736L37.9666 58.1255V57.3468V21.7413C37.9666 17.7417 41.2084 14.5 45.2079 14.5C49.2069 14.5 52.4491 17.7418 52.4491 21.7413V57.3468Z" fill="#1679C6" stroke="url(#paint0_linear_5293_59338)" stroke-width="3"/>
<path id="Fill" d="M45.2296 80.0179C39.4381 80.0179 34.7266 75.3058 34.7266 69.515C34.7266 65.1171 37.4595 61.2015 41.5601 59.6741V21.7398C41.5601 19.7162 43.2058 18.0703 45.2296 18.0703C47.2526 18.0703 48.8989 19.7162 48.8989 21.7398V59.6739C52.9991 61.2011 55.7324 65.1165 55.7324 69.5145C55.7324 75.3058 51.0209 80.0179 45.2296 80.0179Z" fill="#DFEDFF"/>
<path id="inner" d="M41.5601 28.4492V59.674C37.4595 61.2012 34.7266 65.1166 34.7266 69.5145C34.7266 75.3059 39.4381 80.0174 45.2296 80.0174C51.0209 80.0174 55.7324 75.3059 55.7324 69.5145C55.7324 65.1166 52.9991 61.2011 48.8989 59.674V28.4492H41.5601Z" fill="url(#paint1_linear_5293_59338)"/>
<g id="Lines">
<path id="Vector" d="M66.0775 38.344H59.7741C59.6314 38.344 59.4901 38.3159 59.3583 38.2613C59.2265 38.2066 59.1067 38.1266 59.0058 38.0257C58.9049 37.9248 58.8249 37.805 58.7703 37.6732C58.7157 37.5413 58.6876 37.4001 58.6876 37.2574C58.6876 36.9692 58.8021 36.6929 59.0059 36.4891C59.2096 36.2854 59.486 36.1709 59.7741 36.1709H66.0775C66.3656 36.171 66.6419 36.2855 66.8457 36.4892C67.0495 36.6929 67.164 36.9692 67.1641 37.2574C67.164 37.5455 67.0495 37.8219 66.8458 38.0256C66.642 38.2294 66.3657 38.3439 66.0775 38.344ZM62.6361 29.5379H59.774C59.1735 29.5379 58.6875 29.0512 58.6875 28.4513C58.6875 27.8514 59.1736 27.3648 59.774 27.3648H62.636C63.2357 27.3648 63.7224 27.8514 63.7224 28.4513C63.7224 29.0512 63.2359 29.5379 62.636 29.5379H62.6361ZM63.6502 20.7318H59.774C59.1735 20.7318 58.6875 20.2451 58.6875 19.6452C58.6875 19.0453 59.1736 18.5586 59.774 18.5586H63.65C64.2505 18.5586 64.7365 19.0453 64.7365 19.6452C64.7365 20.2451 64.2503 20.7318 63.65 20.7318H63.6502ZM63.6502 55.956H59.774C59.4858 55.956 59.2095 55.8415 59.0057 55.6378C58.802 55.434 58.6875 55.1577 58.6875 54.8695C58.6875 54.7268 58.7155 54.5855 58.7701 54.4537C58.8247 54.3219 58.9047 54.2021 59.0056 54.1012C59.1065 54.0003 59.2263 53.9203 59.3582 53.8657C59.49 53.8111 59.6313 53.783 59.774 53.7831H63.65C63.7927 53.783 63.934 53.8111 64.0658 53.8657C64.1977 53.9203 64.3175 54.0003 64.4184 54.1012C64.5192 54.2021 64.5993 54.3219 64.6539 54.4537C64.7084 54.5855 64.7365 54.7268 64.7365 54.8695C64.7365 55.0122 64.7084 55.1535 64.6538 55.2853C64.5992 55.4172 64.5192 55.537 64.4183 55.6379C64.3174 55.7388 64.1976 55.8188 64.0658 55.8734C63.934 55.928 63.7927 55.9561 63.65 55.9561L63.6502 55.956ZM62.6361 47.1501H59.774C59.1735 47.1501 58.6875 46.6633 58.6875 46.0634C58.6875 45.4635 59.1736 44.977 59.774 44.977H62.636C63.2357 44.977 63.7224 45.4635 63.7224 46.0634C63.7224 46.6633 63.2359 47.1501 62.636 47.1501H62.6361Z" fill="url(#paint2_linear_5293_59338)"/>
</g>
</g>
<path id="drop" opacity="0.8" d="M45.4316 61.6172L40.7769 66.2719C38.4297 68.6192 38.4297 72.4247 40.7769 74.7719V74.7719C43.1241 77.1192 46.9297 77.1192 49.2769 74.7719L49.4793 74.5696C51.9382 72.1106 51.9382 68.1238 49.4793 65.6648L45.4316 61.6172Z" fill="url(#paint3_linear_5293_59338)"/>
</g>
<defs>
<linearGradient id="paint0_linear_5293_59338" x1="48.5" y1="3.5" x2="65.7645" y2="32.5517" gradientUnits="userSpaceOnUse">
<stop stop-color="#1679C6"/>
<stop offset="1" stop-color="#5D94DC"/>
</linearGradient>
<linearGradient id="paint1_linear_5293_59338" x1="47.9587" y1="79.9916" x2="17.0534" y2="35.6673" gradientUnits="userSpaceOnUse">
<stop stop-color="#1679C6"/>
<stop offset="1" stop-color="#5D94DC"/>
</linearGradient>
<linearGradient id="paint2_linear_5293_59338" x1="64.0271" y1="55.9374" x2="40.7365" y2="37.3504" gradientUnits="userSpaceOnUse">
<stop stop-color="#1679C6"/>
<stop offset="1" stop-color="#5D94DC"/>
</linearGradient>
<linearGradient id="paint3_linear_5293_59338" x1="46.3028" y1="51.7461" x2="43.2066" y2="61.959" gradientUnits="userSpaceOnUse">
<stop stop-color="#1679C6"/>
<stop offset="1" stop-color="#5D94DC"/>
</linearGradient>
</defs>
</svg>
