<svg width="98" height="98" viewBox="0 0 98 98" fill="none" xmlns="http://www.w3.org/2000/svg">
<g id="SAFER CONFIGURATION">
<g id="Flat Color">
<g id="Body">
<mask id="path-1-inside-1_5293_59353" fill="white">
<path fill-rule="evenodd" clip-rule="evenodd" d="M80.1445 21.4824C79.1155 20.1715 77.6628 19.2591 76.0351 18.9012L50.884 13.1883C49.8693 12.9372 48.8087 12.9372 47.794 13.1883L22.643 18.7575C21.0153 19.1153 19.5626 20.0278 18.5336 21.3387C17.5045 22.6496 16.9631 24.2774 17.002 25.9435V40.5671C17.0043 50.0394 19.8473 59.2933 25.1635 67.1331C30.4797 74.9729 38.0248 81.0383 46.8239 84.5455C48.4459 85.1515 50.2322 85.1515 51.8541 84.5455C60.6532 81.0383 68.1984 74.9729 73.5146 67.1331C78.8308 59.2933 81.6737 50.0394 81.6761 40.5671V26.0872C81.715 24.4211 81.1736 22.7933 80.1445 21.4824ZM38.1154 56.5149L49.9218 68.3212L61.7281 56.5149C68.2485 49.9944 68.2486 39.4227 61.7281 32.9022C55.2076 26.3818 44.6359 26.3818 38.1154 32.9022C31.595 39.4227 31.595 49.9944 38.1154 56.5149Z"/>
</mask>
<g filter="url(#filter0_i_5293_59353)">
<path fill-rule="evenodd" clip-rule="evenodd" d="M80.1445 21.4824C79.1155 20.1715 77.6628 19.2591 76.0351 18.9012L50.884 13.1883C49.8693 12.9372 48.8087 12.9372 47.794 13.1883L22.643 18.7575C21.0153 19.1153 19.5626 20.0278 18.5336 21.3387C17.5045 22.6496 16.9631 24.2774 17.002 25.9435V40.5671C17.0043 50.0394 19.8473 59.2933 25.1635 67.1331C30.4797 74.9729 38.0248 81.0383 46.8239 84.5455C48.4459 85.1515 50.2322 85.1515 51.8541 84.5455C60.6532 81.0383 68.1984 74.9729 73.5146 67.1331C78.8308 59.2933 81.6737 50.0394 81.6761 40.5671V26.0872C81.715 24.4211 81.1736 22.7933 80.1445 21.4824ZM38.1154 56.5149L49.9218 68.3212L61.7281 56.5149C68.2485 49.9944 68.2486 39.4227 61.7281 32.9022C55.2076 26.3818 44.6359 26.3818 38.1154 32.9022C31.595 39.4227 31.595 49.9944 38.1154 56.5149Z" fill="url(#paint0_linear_5293_59353)"/>
</g>
<path d="M76.0351 18.9012L75.7925 19.9694L75.7999 19.9711L76.0351 18.9012ZM50.884 13.1883L50.6209 14.2516L50.6311 14.2542L50.6414 14.2565L50.884 13.1883ZM47.794 13.1883L48.0309 14.2578L48.0441 14.2549L48.0572 14.2516L47.794 13.1883ZM22.643 18.7575L22.8782 19.8273L22.8798 19.827L22.643 18.7575ZM18.5336 21.3387L19.3952 22.0151L19.3952 22.0151L18.5336 21.3387ZM17.002 25.9435H18.0973V25.9307L18.097 25.918L17.002 25.9435ZM17.002 40.5671L15.9066 40.5671L15.9066 40.5673L17.002 40.5671ZM46.8239 84.5455L46.4184 85.563L46.4294 85.5674L46.4405 85.5716L46.8239 84.5455ZM51.8541 84.5455L52.2375 85.5716L52.2487 85.5674L52.2597 85.563L51.8541 84.5455ZM81.6761 40.5671L82.7715 40.5673V40.5671H81.6761ZM81.6761 26.0872L80.581 26.0617L80.5807 26.0744V26.0872H81.6761ZM49.9218 68.3212L49.1472 69.0958L49.9218 69.8703L50.6963 69.0958L49.9218 68.3212ZM38.1154 56.5149L38.89 55.7403L38.89 55.7403L38.1154 56.5149ZM61.7281 32.9022L62.5027 32.1277L62.5027 32.1277L61.7281 32.9022ZM38.1154 32.9022L37.3409 32.1277L37.3409 32.1277L38.1154 32.9022ZM75.7999 19.9711C77.1794 20.2744 78.4107 21.0477 79.2829 22.1588L81.0061 20.8061C79.8202 19.2953 78.1461 18.2438 76.2703 17.8314L75.7999 19.9711ZM50.6414 14.2565L75.7925 19.9694L76.2777 17.833L51.1267 12.1201L50.6414 14.2565ZM48.0572 14.2516C48.899 14.0433 49.779 14.0433 50.6209 14.2516L51.1472 12.125C49.9597 11.8311 48.7184 11.8311 47.5309 12.125L48.0572 14.2516ZM22.8798 19.827L48.0309 14.2578L47.5572 12.1188L22.4062 17.688L22.8798 19.827ZM19.3952 22.0151C20.2674 20.904 21.4986 20.1306 22.8782 19.8273L22.4078 17.6877C20.532 18.1001 18.8579 19.1516 17.6719 20.6623L19.3952 22.0151ZM18.097 25.918C18.0641 24.5058 18.523 23.1262 19.3952 22.0151L17.6719 20.6623C16.486 22.1731 15.8621 24.049 15.9069 25.9691L18.097 25.918ZM18.0973 40.5671V25.9435H15.9066V40.5671H18.0973ZM26.0701 66.5183C20.8769 58.8599 18.0997 49.82 18.0973 40.5668L15.9066 40.5673C15.909 50.2587 18.8177 59.7267 24.2569 67.7479L26.0701 66.5183ZM47.2295 83.5279C38.6339 80.1019 31.2633 74.1768 26.0701 66.5183L24.2569 67.7479C29.6961 75.769 37.4157 81.9747 46.4184 85.563L47.2295 83.5279ZM51.4707 83.5194C50.096 84.033 48.582 84.033 47.2073 83.5194L46.4405 85.5716C48.3098 86.27 50.3683 86.27 52.2375 85.5716L51.4707 83.5194ZM72.608 66.5183C67.4147 74.1768 60.0441 80.1019 51.4486 83.5279L52.2597 85.563C61.2623 81.9747 68.982 75.769 74.4212 67.7479L72.608 66.5183ZM80.5807 40.5668C80.5784 49.82 77.8012 58.8599 72.608 66.5183L74.4212 67.7479C79.8604 59.7267 82.7691 50.2587 82.7715 40.5673L80.5807 40.5668ZM80.5807 26.0872V40.5671H82.7715V26.0872H80.5807ZM79.2829 22.1588C80.1551 23.2699 80.614 24.6495 80.581 26.0617L82.7712 26.1128C82.816 24.1927 82.192 22.3168 81.0061 20.8061L79.2829 22.1588ZM50.6963 67.5467L38.89 55.7403L37.3409 57.2894L49.1472 69.0958L50.6963 67.5467ZM60.9535 55.7403L49.1472 67.5467L50.6963 69.0958L62.5026 57.2894L60.9535 55.7403ZM60.9535 33.6768C67.0462 39.7695 67.0462 49.6476 60.9535 55.7403L62.5026 57.2894C69.4509 50.3412 69.4509 39.0759 62.5027 32.1277L60.9535 33.6768ZM38.89 33.6768C44.9827 27.5841 54.8609 27.5841 60.9535 33.6768L62.5027 32.1277C55.5544 25.1794 44.2891 25.1794 37.3409 32.1277L38.89 33.6768ZM38.89 55.7403C32.7973 49.6476 32.7973 39.7695 38.89 33.6768L37.3409 32.1277C30.3926 39.0759 30.3926 50.3412 37.3409 57.2894L38.89 55.7403Z" fill="url(#paint1_linear_5293_59353)" mask="url(#path-1-inside-1_5293_59353)"/>
</g>
<path id="Vector" d="M49.1543 52.6386C48.653 52.6414 48.1704 52.466 47.8095 52.15L43.4296 48.2412C43.2495 48.0789 43.1066 47.8859 43.0091 47.6733C42.9115 47.4606 42.8613 47.2326 42.8613 47.0022C42.8613 46.7718 42.9115 46.5437 43.0091 46.3311C43.1066 46.1185 43.2495 45.9255 43.4296 45.7632C43.7895 45.4382 44.2764 45.2558 44.7839 45.2558C45.2914 45.2558 45.7783 45.4382 46.1382 45.7632L49.1735 48.468L57.0689 41.4879C57.2493 41.3264 57.463 41.1987 57.6977 41.1121C57.9324 41.0255 58.1835 40.9818 58.4369 40.9834C58.6902 40.9851 58.9406 41.032 59.174 41.1215C59.4073 41.2111 59.619 41.3415 59.7968 41.5054C59.9747 41.6692 60.1153 41.8633 60.2105 42.0765C60.3058 42.2897 60.354 42.5179 60.3522 42.7479C60.3504 42.978 60.2987 43.2056 60.2001 43.4175C60.1016 43.6295 59.958 43.8217 59.7776 43.9833L50.5374 52.2373C50.1519 52.5303 49.6554 52.6744 49.1543 52.6386Z" fill="url(#paint2_linear_5293_59353)"/>
</g>
<g id="Light" opacity="0.34" filter="url(#filter1_f_5293_59353)">
<ellipse cx="29.6745" cy="27.5105" rx="7.52348" ry="3.19516" transform="rotate(-34.3463 29.6745 27.5105)" fill="white"/>
</g>
</g>
<defs>
<filter id="filter0_i_5293_59353" x="17" y="13" width="64.6777" height="74.1908" filterUnits="userSpaceOnUse" color-interpolation-filters="sRGB">
<feFlood flood-opacity="0" result="BackgroundImageFix"/>
<feBlend mode="normal" in="SourceGraphic" in2="BackgroundImageFix" result="shape"/>
<feColorMatrix in="SourceAlpha" type="matrix" values="0 0 0 0 0 0 0 0 0 0 0 0 0 0 0 0 0 0 127 0" result="hardAlpha"/>
<feOffset dy="2.19078"/>
<feGaussianBlur stdDeviation="1.64308"/>
<feComposite in2="hardAlpha" operator="arithmetic" k2="-1" k3="1"/>
<feColorMatrix type="matrix" values="0 0 0 0 1 0 0 0 0 1 0 0 0 0 1 0 0 0 0.75 0"/>
<feBlend mode="normal" in2="shape" result="effect1_innerShadow_5293_59353"/>
</filter>
<filter id="filter1_f_5293_59353" x="16.6327" y="15.9394" width="26.0841" height="23.1417" filterUnits="userSpaceOnUse" color-interpolation-filters="sRGB">
<feFlood flood-opacity="0" result="BackgroundImageFix"/>
<feBlend mode="normal" in="SourceGraphic" in2="BackgroundImageFix" result="shape"/>
<feGaussianBlur stdDeviation="3.28617" result="effect1_foregroundBlur_5293_59353"/>
</filter>
<linearGradient id="paint0_linear_5293_59353" x1="57.7423" y1="84.9639" x2="31.3057" y2="1.34985" gradientUnits="userSpaceOnUse">
<stop stop-color="#1679C6"/>
<stop offset="1" stop-color="#5D94DC"/>
</linearGradient>
<linearGradient id="paint1_linear_5293_59353" x1="18.7966" y1="12" x2="75.0985" y2="73.0561" gradientUnits="userSpaceOnUse">
<stop offset="0.00200455" stop-color="#E6E6E6"/>
<stop offset="0.463542" stop-color="white" stop-opacity="0.47491"/>
<stop offset="1" stop-color="#E6E6E6" stop-opacity="0.57"/>
</linearGradient>
<linearGradient id="paint2_linear_5293_59353" x1="53.8793" y1="52.6382" x2="51.1565" y2="38.2585" gradientUnits="userSpaceOnUse">
<stop stop-color="#1679C6"/>
<stop offset="1" stop-color="#5D94DC"/>
</linearGradient>
</defs>
</svg>
