<svg width="98" height="98" viewBox="0 0 98 98" fill="none" xmlns="http://www.w3.org/2000/svg">
<g id="INTERMITTENCY COMPATIBLE" clip-path="url(#clip0_4366_54277)">
<g id="windmill">
<mask id="path-1-inside-1_4366_54277" fill="white">
<path fill-rule="evenodd" clip-rule="evenodd" d="M68.4921 34.199L76.1915 26.4996C80.4437 22.2474 80.4437 15.3531 76.1915 11.1008C71.9392 6.84856 65.0449 6.84856 60.7927 11.1008C56.5404 15.3531 56.5404 22.2474 60.7927 26.4996L68.4921 34.199ZM75.3827 42.5584V54.5643C75.3827 60.497 80.1921 65.3064 86.1248 65.3064C92.0575 65.3064 96.867 60.497 96.867 54.5643V53.9324C96.867 47.6507 91.7746 42.5584 85.4929 42.5584H75.3827ZM61.4843 54.5643V42.5584H51.374C45.0923 42.5584 40 47.6507 40 53.9324V54.5643C40 60.497 44.8094 65.3064 50.7421 65.3064C56.6748 65.3064 61.4843 60.497 61.4843 54.5643ZM72.8542 40.6613C72.8542 43.1042 70.8738 45.0845 68.4309 45.0845C65.988 45.0845 64.0077 43.1042 64.0077 40.6613C64.0077 38.2184 65.988 36.2381 68.4309 36.2381C70.8738 36.2381 72.8542 38.2184 72.8542 40.6613ZM71.5922 46.3475H65.2733V82.9971H71.5922V46.3475Z"/>
</mask>
<g filter="url(#filter0_i_4366_54277)">
<path fill-rule="evenodd" clip-rule="evenodd" d="M68.4921 34.199L76.1915 26.4996C80.4437 22.2474 80.4437 15.3531 76.1915 11.1008C71.9392 6.84856 65.0449 6.84856 60.7927 11.1008C56.5404 15.3531 56.5404 22.2474 60.7927 26.4996L68.4921 34.199ZM75.3827 42.5584V54.5643C75.3827 60.497 80.1921 65.3064 86.1248 65.3064C92.0575 65.3064 96.867 60.497 96.867 54.5643V53.9324C96.867 47.6507 91.7746 42.5584 85.4929 42.5584H75.3827ZM61.4843 54.5643V42.5584H51.374C45.0923 42.5584 40 47.6507 40 53.9324V54.5643C40 60.497 44.8094 65.3064 50.7421 65.3064C56.6748 65.3064 61.4843 60.497 61.4843 54.5643ZM72.8542 40.6613C72.8542 43.1042 70.8738 45.0845 68.4309 45.0845C65.988 45.0845 64.0077 43.1042 64.0077 40.6613C64.0077 38.2184 65.988 36.2381 68.4309 36.2381C70.8738 36.2381 72.8542 38.2184 72.8542 40.6613ZM71.5922 46.3475H65.2733V82.9971H71.5922V46.3475Z" fill="url(#paint0_linear_4366_54277)"/>
<path fill-rule="evenodd" clip-rule="evenodd" d="M68.4921 34.199L76.1915 26.4996C80.4437 22.2474 80.4437 15.3531 76.1915 11.1008C71.9392 6.84856 65.0449 6.84856 60.7927 11.1008C56.5404 15.3531 56.5404 22.2474 60.7927 26.4996L68.4921 34.199ZM75.3827 42.5584V54.5643C75.3827 60.497 80.1921 65.3064 86.1248 65.3064C92.0575 65.3064 96.867 60.497 96.867 54.5643V53.9324C96.867 47.6507 91.7746 42.5584 85.4929 42.5584H75.3827ZM61.4843 54.5643V42.5584H51.374C45.0923 42.5584 40 47.6507 40 53.9324V54.5643C40 60.497 44.8094 65.3064 50.7421 65.3064C56.6748 65.3064 61.4843 60.497 61.4843 54.5643ZM72.8542 40.6613C72.8542 43.1042 70.8738 45.0845 68.4309 45.0845C65.988 45.0845 64.0077 43.1042 64.0077 40.6613C64.0077 38.2184 65.988 36.2381 68.4309 36.2381C70.8738 36.2381 72.8542 38.2184 72.8542 40.6613ZM71.5922 46.3475H65.2733V82.9971H71.5922V46.3475Z" fill="url(#paint1_linear_4366_54277)"/>
<path fill-rule="evenodd" clip-rule="evenodd" d="M68.4921 34.199L76.1915 26.4996C80.4437 22.2474 80.4437 15.3531 76.1915 11.1008C71.9392 6.84856 65.0449 6.84856 60.7927 11.1008C56.5404 15.3531 56.5404 22.2474 60.7927 26.4996L68.4921 34.199ZM75.3827 42.5584V54.5643C75.3827 60.497 80.1921 65.3064 86.1248 65.3064C92.0575 65.3064 96.867 60.497 96.867 54.5643V53.9324C96.867 47.6507 91.7746 42.5584 85.4929 42.5584H75.3827ZM61.4843 54.5643V42.5584H51.374C45.0923 42.5584 40 47.6507 40 53.9324V54.5643C40 60.497 44.8094 65.3064 50.7421 65.3064C56.6748 65.3064 61.4843 60.497 61.4843 54.5643ZM72.8542 40.6613C72.8542 43.1042 70.8738 45.0845 68.4309 45.0845C65.988 45.0845 64.0077 43.1042 64.0077 40.6613C64.0077 38.2184 65.988 36.2381 68.4309 36.2381C70.8738 36.2381 72.8542 38.2184 72.8542 40.6613ZM71.5922 46.3475H65.2733V82.9971H71.5922V46.3475Z" fill="url(#paint2_linear_4366_54277)"/>
<path fill-rule="evenodd" clip-rule="evenodd" d="M68.4921 34.199L76.1915 26.4996C80.4437 22.2474 80.4437 15.3531 76.1915 11.1008C71.9392 6.84856 65.0449 6.84856 60.7927 11.1008C56.5404 15.3531 56.5404 22.2474 60.7927 26.4996L68.4921 34.199ZM75.3827 42.5584V54.5643C75.3827 60.497 80.1921 65.3064 86.1248 65.3064C92.0575 65.3064 96.867 60.497 96.867 54.5643V53.9324C96.867 47.6507 91.7746 42.5584 85.4929 42.5584H75.3827ZM61.4843 54.5643V42.5584H51.374C45.0923 42.5584 40 47.6507 40 53.9324V54.5643C40 60.497 44.8094 65.3064 50.7421 65.3064C56.6748 65.3064 61.4843 60.497 61.4843 54.5643ZM72.8542 40.6613C72.8542 43.1042 70.8738 45.0845 68.4309 45.0845C65.988 45.0845 64.0077 43.1042 64.0077 40.6613C64.0077 38.2184 65.988 36.2381 68.4309 36.2381C70.8738 36.2381 72.8542 38.2184 72.8542 40.6613ZM71.5922 46.3475H65.2733V82.9971H71.5922V46.3475Z" fill="url(#paint3_linear_4366_54277)"/>
</g>
<path d="M76.1915 26.4996L75.9086 26.2168L76.1915 26.4996ZM68.4921 34.199L68.2092 34.4819L68.4921 34.7647L68.7749 34.4819L68.4921 34.199ZM76.1915 11.1008L76.4743 10.818L76.1915 11.1008ZM75.3827 42.5584V42.1584H74.9827V42.5584H75.3827ZM61.4843 42.5584H61.8843V42.1584H61.4843V42.5584ZM65.2733 46.3475V45.9475H64.8733V46.3475H65.2733ZM71.5922 46.3475H71.9922V45.9475H71.5922V46.3475ZM65.2733 82.9971H64.8733V83.3971H65.2733V82.9971ZM71.5922 82.9971V83.3971H71.9922V82.9971H71.5922ZM75.9086 26.2168L68.2092 33.9162L68.7749 34.4819L76.4743 26.7825L75.9086 26.2168ZM75.9086 11.3837C80.0047 15.4797 80.0047 22.1207 75.9086 26.2168L76.4743 26.7825C80.8828 22.374 80.8828 15.2264 76.4743 10.818L75.9086 11.3837ZM61.0755 11.3837C65.1716 7.28761 71.8126 7.28761 75.9086 11.3837L76.4743 10.818C72.0658 6.4095 64.9183 6.4095 60.5098 10.818L61.0755 11.3837ZM61.0755 26.2168C56.9795 22.1207 56.9795 15.4797 61.0755 11.3837L60.5098 10.818C56.1014 15.2264 56.1014 22.374 60.5098 26.7825L61.0755 26.2168ZM68.7749 33.9162L61.0755 26.2168L60.5098 26.7825L68.2092 34.4819L68.7749 33.9162ZM75.7827 54.5643V42.5584H74.9827V54.5643H75.7827ZM86.1248 64.9064C80.413 64.9064 75.7827 60.2761 75.7827 54.5643H74.9827C74.9827 60.7179 79.9712 65.7064 86.1248 65.7064V64.9064ZM96.467 54.5643C96.467 60.2761 91.8366 64.9064 86.1248 64.9064V65.7064C92.2785 65.7064 97.267 60.7179 97.267 54.5643H96.467ZM96.467 53.9324V54.5643H97.267V53.9324H96.467ZM85.4929 42.9584C91.5537 42.9584 96.467 47.8716 96.467 53.9324H97.267C97.267 47.4298 91.9955 42.1584 85.4929 42.1584V42.9584ZM75.3827 42.9584H85.4929V42.1584H75.3827V42.9584ZM61.0843 42.5584V54.5643H61.8843V42.5584H61.0843ZM51.374 42.9584H61.4843V42.1584H51.374V42.9584ZM40.4 53.9324C40.4 47.8716 45.3132 42.9584 51.374 42.9584V42.1584C44.8714 42.1584 39.6 47.4298 39.6 53.9324H40.4ZM40.4 54.5643V53.9324H39.6V54.5643H40.4ZM50.7421 64.9064C45.0303 64.9064 40.4 60.2761 40.4 54.5643H39.6C39.6 60.7179 44.5885 65.7064 50.7421 65.7064V64.9064ZM61.0843 54.5643C61.0843 60.2761 56.4539 64.9064 50.7421 64.9064V65.7064C56.8958 65.7064 61.8843 60.7179 61.8843 54.5643H61.0843ZM68.4309 45.4845C71.0947 45.4845 73.2542 43.3251 73.2542 40.6613H72.4542C72.4542 42.8833 70.6529 44.6845 68.4309 44.6845V45.4845ZM63.6077 40.6613C63.6077 43.3251 65.7671 45.4845 68.4309 45.4845V44.6845C66.209 44.6845 64.4077 42.8833 64.4077 40.6613H63.6077ZM68.4309 35.8381C65.7671 35.8381 63.6077 37.9975 63.6077 40.6613H64.4077C64.4077 38.4393 66.209 36.6381 68.4309 36.6381V35.8381ZM73.2542 40.6613C73.2542 37.9975 71.0947 35.8381 68.4309 35.8381V36.6381C70.6529 36.6381 72.4542 38.4393 72.4542 40.6613H73.2542ZM65.2733 46.7475H71.5922V45.9475H65.2733V46.7475ZM65.6733 82.9971V46.3475H64.8733V82.9971H65.6733ZM71.5922 82.5971H65.2733V83.3971H71.5922V82.5971ZM71.1922 46.3475V82.9971H71.9922V46.3475H71.1922Z" fill="url(#paint4_linear_4366_54277)" mask="url(#path-1-inside-1_4366_54277)"/>
</g>
<g id="Light">
<g id="Ellipse 255" opacity="0.5" filter="url(#filter1_f_4366_54277)">
<ellipse cx="68.0862" cy="12.7595" rx="4.16702" ry="2.91691" transform="rotate(-34.3463 68.0862 12.7595)" fill="white"/>
</g>
<g id="Ellipse 256" opacity="0.5" filter="url(#filter2_f_4366_54277)">
<ellipse cx="51.0862" cy="44.7595" rx="4.16702" ry="2.91691" transform="rotate(-34.3463 51.0862 44.7595)" fill="white"/>
</g>
<g id="Ellipse 257" opacity="0.5" filter="url(#filter3_f_4366_54277)">
<ellipse cx="82.0862" cy="43.7595" rx="4.16702" ry="2.91691" transform="rotate(-34.3463 82.0862 43.7595)" fill="white"/>
</g>
</g>
<g id="solar" clip-path="url(#clip1_4366_54277)">
<g id="Icon">
<g id="Vector" filter="url(#filter4_i_4366_54277)">
<path d="M12.5563 54.7657L12.6732 53.3907H6.30697C6.14807 53.389 5.99363 53.4432 5.87052 53.5437C5.74742 53.6442 5.66345 53.7847 5.63322 53.9407L3.81203 62.6705H11.8764L12.5563 54.7657ZM11.0851 71.9518L11.7588 64.0455H3.52259L1.76328 72.5018C1.74341 72.6016 1.74586 72.7046 1.77047 72.8034C1.79508 72.9022 1.84124 72.9943 1.90563 73.0732C1.97002 73.152 2.05106 73.2156 2.14293 73.2595C2.2348 73.3033 2.33523 73.3263 2.43703 73.3268H10.9613L11.0851 71.9518ZM20.3107 73.3268V64.0455H13.14C13.0555 65.0053 12.414 72.5905 12.3494 73.3268H20.3107ZM20.3107 53.3907H14.0544C13.7843 56.4838 13.5185 59.5773 13.2569 62.6712H20.3107V53.3907ZM38.473 64.0455H30.2299L30.9105 71.9518L31.0274 73.3268H39.5593C39.6618 73.3261 39.7629 73.3029 39.8556 73.259C39.9482 73.2151 40.0301 73.1514 40.0955 73.0724C40.1594 72.9935 40.205 72.9013 40.2287 72.8026C40.2525 72.7039 40.254 72.6011 40.233 72.5018L38.473 64.0455ZM38.1843 62.6705L36.3624 53.9407C36.3328 53.7856 36.2499 53.6458 36.1281 53.5454C36.0064 53.445 35.8534 53.3903 35.6955 53.3907H29.3224C29.3877 54.0905 30.0305 61.75 30.113 62.6712L38.1843 62.6705ZM28.0581 54.7657L27.9343 53.3907H21.685V62.6712H28.7318L28.0581 54.7657ZM29.5287 71.9511L28.8487 64.0462H21.685V73.3261H29.6455L29.5287 71.9511ZM31.9968 78.1386H23.2318V74.7011H18.7631V78.1386H9.99953C9.45263 78.139 8.92824 78.3564 8.54153 78.7431C8.15481 79.1298 7.9374 79.6542 7.93703 80.2011V81.9198C7.93758 82.102 8.01018 82.2766 8.139 82.4054C8.26781 82.5342 8.44236 82.6068 8.62453 82.6073H33.3718C33.554 82.6068 33.7285 82.5342 33.8573 82.4054C33.9861 82.2766 34.0587 82.102 34.0593 81.9198V80.2011C34.0577 79.6546 33.8398 79.1309 33.4534 78.7445C33.0669 78.3581 32.5433 78.1402 31.9968 78.1386Z" fill="black"/>
<path d="M12.5563 54.7657L12.6732 53.3907H6.30697C6.14807 53.389 5.99363 53.4432 5.87052 53.5437C5.74742 53.6442 5.66345 53.7847 5.63322 53.9407L3.81203 62.6705H11.8764L12.5563 54.7657ZM11.0851 71.9518L11.7588 64.0455H3.52259L1.76328 72.5018C1.74341 72.6016 1.74586 72.7046 1.77047 72.8034C1.79508 72.9022 1.84124 72.9943 1.90563 73.0732C1.97002 73.152 2.05106 73.2156 2.14293 73.2595C2.2348 73.3033 2.33523 73.3263 2.43703 73.3268H10.9613L11.0851 71.9518ZM20.3107 73.3268V64.0455H13.14C13.0555 65.0053 12.414 72.5905 12.3494 73.3268H20.3107ZM20.3107 53.3907H14.0544C13.7843 56.4838 13.5185 59.5773 13.2569 62.6712H20.3107V53.3907ZM38.473 64.0455H30.2299L30.9105 71.9518L31.0274 73.3268H39.5593C39.6618 73.3261 39.7629 73.3029 39.8556 73.259C39.9482 73.2151 40.0301 73.1514 40.0955 73.0724C40.1594 72.9935 40.205 72.9013 40.2287 72.8026C40.2525 72.7039 40.254 72.6011 40.233 72.5018L38.473 64.0455ZM38.1843 62.6705L36.3624 53.9407C36.3328 53.7856 36.2499 53.6458 36.1281 53.5454C36.0064 53.445 35.8534 53.3903 35.6955 53.3907H29.3224C29.3877 54.0905 30.0305 61.75 30.113 62.6712L38.1843 62.6705ZM28.0581 54.7657L27.9343 53.3907H21.685V62.6712H28.7318L28.0581 54.7657ZM29.5287 71.9511L28.8487 64.0462H21.685V73.3261H29.6455L29.5287 71.9511ZM31.9968 78.1386H23.2318V74.7011H18.7631V78.1386H9.99953C9.45263 78.139 8.92824 78.3564 8.54153 78.7431C8.15481 79.1298 7.9374 79.6542 7.93703 80.2011V81.9198C7.93758 82.102 8.01018 82.2766 8.139 82.4054C8.26781 82.5342 8.44236 82.6068 8.62453 82.6073H33.3718C33.554 82.6068 33.7285 82.5342 33.8573 82.4054C33.9861 82.2766 34.0587 82.102 34.0593 81.9198V80.2011C34.0577 79.6546 33.8398 79.1309 33.4534 78.7445C33.0669 78.3581 32.5433 78.1402 31.9968 78.1386Z" fill="url(#paint5_linear_4366_54277)"/>
<path d="M12.5563 54.7657L12.6732 53.3907H6.30697C6.14807 53.389 5.99363 53.4432 5.87052 53.5437C5.74742 53.6442 5.66345 53.7847 5.63322 53.9407L3.81203 62.6705H11.8764L12.5563 54.7657ZM11.0851 71.9518L11.7588 64.0455H3.52259L1.76328 72.5018C1.74341 72.6016 1.74586 72.7046 1.77047 72.8034C1.79508 72.9022 1.84124 72.9943 1.90563 73.0732C1.97002 73.152 2.05106 73.2156 2.14293 73.2595C2.2348 73.3033 2.33523 73.3263 2.43703 73.3268H10.9613L11.0851 71.9518ZM20.3107 73.3268V64.0455H13.14C13.0555 65.0053 12.414 72.5905 12.3494 73.3268H20.3107ZM20.3107 53.3907H14.0544C13.7843 56.4838 13.5185 59.5773 13.2569 62.6712H20.3107V53.3907ZM38.473 64.0455H30.2299L30.9105 71.9518L31.0274 73.3268H39.5593C39.6618 73.3261 39.7629 73.3029 39.8556 73.259C39.9482 73.2151 40.0301 73.1514 40.0955 73.0724C40.1594 72.9935 40.205 72.9013 40.2287 72.8026C40.2525 72.7039 40.254 72.6011 40.233 72.5018L38.473 64.0455ZM38.1843 62.6705L36.3624 53.9407C36.3328 53.7856 36.2499 53.6458 36.1281 53.5454C36.0064 53.445 35.8534 53.3903 35.6955 53.3907H29.3224C29.3877 54.0905 30.0305 61.75 30.113 62.6712L38.1843 62.6705ZM28.0581 54.7657L27.9343 53.3907H21.685V62.6712H28.7318L28.0581 54.7657ZM29.5287 71.9511L28.8487 64.0462H21.685V73.3261H29.6455L29.5287 71.9511ZM31.9968 78.1386H23.2318V74.7011H18.7631V78.1386H9.99953C9.45263 78.139 8.92824 78.3564 8.54153 78.7431C8.15481 79.1298 7.9374 79.6542 7.93703 80.2011V81.9198C7.93758 82.102 8.01018 82.2766 8.139 82.4054C8.26781 82.5342 8.44236 82.6068 8.62453 82.6073H33.3718C33.554 82.6068 33.7285 82.5342 33.8573 82.4054C33.9861 82.2766 34.0587 82.102 34.0593 81.9198V80.2011C34.0577 79.6546 33.8398 79.1309 33.4534 78.7445C33.0669 78.3581 32.5433 78.1402 31.9968 78.1386Z" fill="url(#paint6_linear_4366_54277)"/>
<path d="M12.5563 54.7657L12.6732 53.3907H6.30697C6.14807 53.389 5.99363 53.4432 5.87052 53.5437C5.74742 53.6442 5.66345 53.7847 5.63322 53.9407L3.81203 62.6705H11.8764L12.5563 54.7657ZM11.0851 71.9518L11.7588 64.0455H3.52259L1.76328 72.5018C1.74341 72.6016 1.74586 72.7046 1.77047 72.8034C1.79508 72.9022 1.84124 72.9943 1.90563 73.0732C1.97002 73.152 2.05106 73.2156 2.14293 73.2595C2.2348 73.3033 2.33523 73.3263 2.43703 73.3268H10.9613L11.0851 71.9518ZM20.3107 73.3268V64.0455H13.14C13.0555 65.0053 12.414 72.5905 12.3494 73.3268H20.3107ZM20.3107 53.3907H14.0544C13.7843 56.4838 13.5185 59.5773 13.2569 62.6712H20.3107V53.3907ZM38.473 64.0455H30.2299L30.9105 71.9518L31.0274 73.3268H39.5593C39.6618 73.3261 39.7629 73.3029 39.8556 73.259C39.9482 73.2151 40.0301 73.1514 40.0955 73.0724C40.1594 72.9935 40.205 72.9013 40.2287 72.8026C40.2525 72.7039 40.254 72.6011 40.233 72.5018L38.473 64.0455ZM38.1843 62.6705L36.3624 53.9407C36.3328 53.7856 36.2499 53.6458 36.1281 53.5454C36.0064 53.445 35.8534 53.3903 35.6955 53.3907H29.3224C29.3877 54.0905 30.0305 61.75 30.113 62.6712L38.1843 62.6705ZM28.0581 54.7657L27.9343 53.3907H21.685V62.6712H28.7318L28.0581 54.7657ZM29.5287 71.9511L28.8487 64.0462H21.685V73.3261H29.6455L29.5287 71.9511ZM31.9968 78.1386H23.2318V74.7011H18.7631V78.1386H9.99953C9.45263 78.139 8.92824 78.3564 8.54153 78.7431C8.15481 79.1298 7.9374 79.6542 7.93703 80.2011V81.9198C7.93758 82.102 8.01018 82.2766 8.139 82.4054C8.26781 82.5342 8.44236 82.6068 8.62453 82.6073H33.3718C33.554 82.6068 33.7285 82.5342 33.8573 82.4054C33.9861 82.2766 34.0587 82.102 34.0593 81.9198V80.2011C34.0577 79.6546 33.8398 79.1309 33.4534 78.7445C33.0669 78.3581 32.5433 78.1402 31.9968 78.1386Z" fill="url(#paint7_linear_4366_54277)"/>
</g>
</g>
<g id="Ellipse 257_2" opacity="0.5" filter="url(#filter5_f_4366_54277)">
<ellipse cx="35.1965" cy="57.0064" rx="2.59369" ry="1.86996" transform="rotate(-34.3463 35.1965 57.0064)" fill="white"/>
</g>
</g>
</g>
<defs>
<filter id="filter0_i_4366_54277" x="40" y="7.91162" width="56.8672" height="77.0854" filterUnits="userSpaceOnUse" color-interpolation-filters="sRGB">
<feFlood flood-opacity="0" result="BackgroundImageFix"/>
<feBlend mode="normal" in="SourceGraphic" in2="BackgroundImageFix" result="shape"/>
<feColorMatrix in="SourceAlpha" type="matrix" values="0 0 0 0 0 0 0 0 0 0 0 0 0 0 0 0 0 0 127 0" result="hardAlpha"/>
<feOffset dy="2"/>
<feGaussianBlur stdDeviation="1.5"/>
<feComposite in2="hardAlpha" operator="arithmetic" k2="-1" k3="1"/>
<feColorMatrix type="matrix" values="0 0 0 0 1 0 0 0 0 1 0 0 0 0 1 0 0 0 0.75 0"/>
<feBlend mode="normal" in2="shape" result="effect1_innerShadow_4366_54277"/>
</filter>
<filter id="filter1_f_4366_54277" x="58.2715" y="3.39404" width="19.6289" height="18.731" filterUnits="userSpaceOnUse" color-interpolation-filters="sRGB">
<feFlood flood-opacity="0" result="BackgroundImageFix"/>
<feBlend mode="normal" in="SourceGraphic" in2="BackgroundImageFix" result="shape"/>
<feGaussianBlur stdDeviation="3" result="effect1_foregroundBlur_4366_54277"/>
</filter>
<filter id="filter2_f_4366_54277" x="41.2715" y="35.394" width="19.6289" height="18.731" filterUnits="userSpaceOnUse" color-interpolation-filters="sRGB">
<feFlood flood-opacity="0" result="BackgroundImageFix"/>
<feBlend mode="normal" in="SourceGraphic" in2="BackgroundImageFix" result="shape"/>
<feGaussianBlur stdDeviation="3" result="effect1_foregroundBlur_4366_54277"/>
</filter>
<filter id="filter3_f_4366_54277" x="72.2715" y="34.394" width="19.6289" height="18.731" filterUnits="userSpaceOnUse" color-interpolation-filters="sRGB">
<feFlood flood-opacity="0" result="BackgroundImageFix"/>
<feBlend mode="normal" in="SourceGraphic" in2="BackgroundImageFix" result="shape"/>
<feGaussianBlur stdDeviation="3" result="effect1_foregroundBlur_4366_54277"/>
</filter>
<filter id="filter4_i_4366_54277" x="1.75" y="53.3906" width="38.498" height="31.2168" filterUnits="userSpaceOnUse" color-interpolation-filters="sRGB">
<feFlood flood-opacity="0" result="BackgroundImageFix"/>
<feBlend mode="normal" in="SourceGraphic" in2="BackgroundImageFix" result="shape"/>
<feColorMatrix in="SourceAlpha" type="matrix" values="0 0 0 0 0 0 0 0 0 0 0 0 0 0 0 0 0 0 127 0" result="hardAlpha"/>
<feOffset dy="2"/>
<feGaussianBlur stdDeviation="1"/>
<feComposite in2="hardAlpha" operator="arithmetic" k2="-1" k3="1"/>
<feColorMatrix type="matrix" values="0 0 0 0 1 0 0 0 0 1 0 0 0 0 1 0 0 0 0.5 0"/>
<feBlend mode="normal" in2="shape" result="effect1_innerShadow_4366_54277"/>
</filter>
<filter id="filter5_f_4366_54277" x="26.8086" y="48.8789" width="16.7754" height="16.2549" filterUnits="userSpaceOnUse" color-interpolation-filters="sRGB">
<feFlood flood-opacity="0" result="BackgroundImageFix"/>
<feBlend mode="normal" in="SourceGraphic" in2="BackgroundImageFix" result="shape"/>
<feGaussianBlur stdDeviation="3" result="effect1_foregroundBlur_4366_54277"/>
</filter>
<linearGradient id="paint0_linear_4366_54277" x1="55.8361" y1="6.6284" x2="95.2006" y2="82.3162" gradientUnits="userSpaceOnUse">
<stop stop-color="#2A94F1"/>
<stop offset="1" stop-color="#49F7C8"/>
</linearGradient>
<linearGradient id="paint1_linear_4366_54277" x1="56.8106" y1="9.08465" x2="95.3716" y2="84.2857" gradientUnits="userSpaceOnUse">
<stop stop-color="#4C7AD3"/>
<stop offset="0.505208" stop-color="#7AAEEA"/>
<stop offset="1" stop-color="#A17EFE"/>
</linearGradient>
<linearGradient id="paint2_linear_4366_54277" x1="41.185" y1="7.38999" x2="98.7128" y2="77.0078" gradientUnits="userSpaceOnUse">
<stop stop-color="#4C7AD3"/>
<stop offset="0.0001" stop-color="#1B289A"/>
<stop offset="1" stop-color="#0E91BD"/>
</linearGradient>
<linearGradient id="paint3_linear_4366_54277" x1="75.8219" y1="82.9595" x2="44.2877" y2="-1.1288" gradientUnits="userSpaceOnUse">
<stop stop-color="#1679C6"/>
<stop offset="1" stop-color="#5D94DC"/>
</linearGradient>
<linearGradient id="paint4_linear_4366_54277" x1="58.2853" y1="13.6198" x2="90.8742" y2="75.0595" gradientUnits="userSpaceOnUse">
<stop offset="0.00200455" stop-color="#E6E6E6"/>
<stop offset="0.548789" stop-color="white" stop-opacity="0.47491"/>
<stop offset="1" stop-color="#E6E6E6" stop-opacity="0.57"/>
</linearGradient>
<linearGradient id="paint5_linear_4366_54277" x1="13.1304" y1="53.8471" x2="23.1518" y2="87.849" gradientUnits="userSpaceOnUse">
<stop stop-color="#4C7AD3"/>
<stop offset="0.505208" stop-color="#7AAEEA"/>
<stop offset="1" stop-color="#A17EFE"/>
</linearGradient>
<linearGradient id="paint6_linear_4366_54277" x1="2.5522" y1="53.1877" x2="20.2187" y2="90.3834" gradientUnits="userSpaceOnUse">
<stop stop-color="#4C7AD3"/>
<stop offset="0.0001" stop-color="#1B289A"/>
<stop offset="1" stop-color="#0E91BD"/>
</linearGradient>
<linearGradient id="paint7_linear_4366_54277" x1="26.0007" y1="82.5927" x2="18.3132" y2="46.9284" gradientUnits="userSpaceOnUse">
<stop stop-color="#1679C6"/>
<stop offset="1" stop-color="#5D94DC"/>
</linearGradient>
<clipPath id="clip0_4366_54277">
<rect width="98" height="98" fill="white"/>
</clipPath>
<clipPath id="clip1_4366_54277">
<rect width="44" height="37" fill="white" transform="translate(-1 46)"/>
</clipPath>
</defs>
</svg>
