<svg width="98" height="98" viewBox="0 0 98 98" fill="none" xmlns="http://www.w3.org/2000/svg">
<g id="LOWEST OPEX green">
<g id="icon">
<g id="Body">
<mask id="path-1-inside-1_4366_54329" fill="white">
<path fill-rule="evenodd" clip-rule="evenodd" d="M12 12H47C55.3542 12 63.0249 14.927 69.0423 19.8114C69.6998 19.9445 70.3323 20.2773 70.8649 20.8099L75.8349 25.78C77.2549 27.2001 77.2549 29.3301 75.8349 30.75L72.6399 33.945C74.0599 36.43 75.1249 38.9151 75.8349 41.4H80.4499C82.5799 41.4 84 42.82 84 44.5949V51.6949C84 53.8249 82.5801 55.2449 80.4501 55.2449H76.545C75.8349 58.0849 74.77 60.5699 73.35 62.6998L76.545 65.8948C77.965 67.315 77.965 69.445 76.545 70.8649L71.575 75.8349C70.1548 77.2549 68.0248 77.2549 66.6049 75.8349L63.4099 72.6399C60.925 74.0599 58.4398 75.1249 55.9549 75.8349V80.4501C55.9549 82.5801 54.535 84 52.405 84H45.3049C43.1749 84 41.755 82.5801 41.755 80.4501V76.1901C38.9149 75.48 36.43 74.415 34.3 72.9951L31.105 76.1901C29.6849 77.61 27.5549 77.61 26.1349 76.1901L21.1649 71.22C20.6598 70.7149 20.3344 70.1199 20.1886 69.499C15.0781 63.4153 12 55.5671 12 47V12ZM69 47C69 58.598 59.598 68 48 68C36.402 68 27 58.598 27 47C27 35.402 36.402 26 48 26C59.598 26 69 35.402 69 47Z"/>
</mask>
<g filter="url(#filter0_i_4366_54329)">
<path fill-rule="evenodd" clip-rule="evenodd" d="M12 12H47C55.3542 12 63.0249 14.927 69.0423 19.8114C69.6998 19.9445 70.3323 20.2773 70.8649 20.8099L75.8349 25.78C77.2549 27.2001 77.2549 29.3301 75.8349 30.75L72.6399 33.945C74.0599 36.43 75.1249 38.9151 75.8349 41.4H80.4499C82.5799 41.4 84 42.82 84 44.5949V51.6949C84 53.8249 82.5801 55.2449 80.4501 55.2449H76.545C75.8349 58.0849 74.77 60.5699 73.35 62.6998L76.545 65.8948C77.965 67.315 77.965 69.445 76.545 70.8649L71.575 75.8349C70.1548 77.2549 68.0248 77.2549 66.6049 75.8349L63.4099 72.6399C60.925 74.0599 58.4398 75.1249 55.9549 75.8349V80.4501C55.9549 82.5801 54.535 84 52.405 84H45.3049C43.1749 84 41.755 82.5801 41.755 80.4501V76.1901C38.9149 75.48 36.43 74.415 34.3 72.9951L31.105 76.1901C29.6849 77.61 27.5549 77.61 26.1349 76.1901L21.1649 71.22C20.6598 70.7149 20.3344 70.1199 20.1886 69.499C15.0781 63.4153 12 55.5671 12 47V12ZM69 47C69 58.598 59.598 68 48 68C36.402 68 27 58.598 27 47C27 35.402 36.402 26 48 26C59.598 26 69 35.402 69 47Z" fill="#2A94F1"/>
<path fill-rule="evenodd" clip-rule="evenodd" d="M12 12H47C55.3542 12 63.0249 14.927 69.0423 19.8114C69.6998 19.9445 70.3323 20.2773 70.8649 20.8099L75.8349 25.78C77.2549 27.2001 77.2549 29.3301 75.8349 30.75L72.6399 33.945C74.0599 36.43 75.1249 38.9151 75.8349 41.4H80.4499C82.5799 41.4 84 42.82 84 44.5949V51.6949C84 53.8249 82.5801 55.2449 80.4501 55.2449H76.545C75.8349 58.0849 74.77 60.5699 73.35 62.6998L76.545 65.8948C77.965 67.315 77.965 69.445 76.545 70.8649L71.575 75.8349C70.1548 77.2549 68.0248 77.2549 66.6049 75.8349L63.4099 72.6399C60.925 74.0599 58.4398 75.1249 55.9549 75.8349V80.4501C55.9549 82.5801 54.535 84 52.405 84H45.3049C43.1749 84 41.755 82.5801 41.755 80.4501V76.1901C38.9149 75.48 36.43 74.415 34.3 72.9951L31.105 76.1901C29.6849 77.61 27.5549 77.61 26.1349 76.1901L21.1649 71.22C20.6598 70.7149 20.3344 70.1199 20.1886 69.499C15.0781 63.4153 12 55.5671 12 47V12ZM69 47C69 58.598 59.598 68 48 68C36.402 68 27 58.598 27 47C27 35.402 36.402 26 48 26C59.598 26 69 35.402 69 47Z" fill="url(#paint0_linear_4366_54329)"/>
<path fill-rule="evenodd" clip-rule="evenodd" d="M12 12H47C55.3542 12 63.0249 14.927 69.0423 19.8114C69.6998 19.9445 70.3323 20.2773 70.8649 20.8099L75.8349 25.78C77.2549 27.2001 77.2549 29.3301 75.8349 30.75L72.6399 33.945C74.0599 36.43 75.1249 38.9151 75.8349 41.4H80.4499C82.5799 41.4 84 42.82 84 44.5949V51.6949C84 53.8249 82.5801 55.2449 80.4501 55.2449H76.545C75.8349 58.0849 74.77 60.5699 73.35 62.6998L76.545 65.8948C77.965 67.315 77.965 69.445 76.545 70.8649L71.575 75.8349C70.1548 77.2549 68.0248 77.2549 66.6049 75.8349L63.4099 72.6399C60.925 74.0599 58.4398 75.1249 55.9549 75.8349V80.4501C55.9549 82.5801 54.535 84 52.405 84H45.3049C43.1749 84 41.755 82.5801 41.755 80.4501V76.1901C38.9149 75.48 36.43 74.415 34.3 72.9951L31.105 76.1901C29.6849 77.61 27.5549 77.61 26.1349 76.1901L21.1649 71.22C20.6598 70.7149 20.3344 70.1199 20.1886 69.499C15.0781 63.4153 12 55.5671 12 47V12ZM69 47C69 58.598 59.598 68 48 68C36.402 68 27 58.598 27 47C27 35.402 36.402 26 48 26C59.598 26 69 35.402 69 47Z" fill="url(#paint1_linear_4366_54329)"/>
<path fill-rule="evenodd" clip-rule="evenodd" d="M12 12H47C55.3542 12 63.0249 14.927 69.0423 19.8114C69.6998 19.9445 70.3323 20.2773 70.8649 20.8099L75.8349 25.78C77.2549 27.2001 77.2549 29.3301 75.8349 30.75L72.6399 33.945C74.0599 36.43 75.1249 38.9151 75.8349 41.4H80.4499C82.5799 41.4 84 42.82 84 44.5949V51.6949C84 53.8249 82.5801 55.2449 80.4501 55.2449H76.545C75.8349 58.0849 74.77 60.5699 73.35 62.6998L76.545 65.8948C77.965 67.315 77.965 69.445 76.545 70.8649L71.575 75.8349C70.1548 77.2549 68.0248 77.2549 66.6049 75.8349L63.4099 72.6399C60.925 74.0599 58.4398 75.1249 55.9549 75.8349V80.4501C55.9549 82.5801 54.535 84 52.405 84H45.3049C43.1749 84 41.755 82.5801 41.755 80.4501V76.1901C38.9149 75.48 36.43 74.415 34.3 72.9951L31.105 76.1901C29.6849 77.61 27.5549 77.61 26.1349 76.1901L21.1649 71.22C20.6598 70.7149 20.3344 70.1199 20.1886 69.499C15.0781 63.4153 12 55.5671 12 47V12ZM69 47C69 58.598 59.598 68 48 68C36.402 68 27 58.598 27 47C27 35.402 36.402 26 48 26C59.598 26 69 35.402 69 47Z" fill="url(#paint2_linear_4366_54329)"/>
<path fill-rule="evenodd" clip-rule="evenodd" d="M12 12H47C55.3542 12 63.0249 14.927 69.0423 19.8114C69.6998 19.9445 70.3323 20.2773 70.8649 20.8099L75.8349 25.78C77.2549 27.2001 77.2549 29.3301 75.8349 30.75L72.6399 33.945C74.0599 36.43 75.1249 38.9151 75.8349 41.4H80.4499C82.5799 41.4 84 42.82 84 44.5949V51.6949C84 53.8249 82.5801 55.2449 80.4501 55.2449H76.545C75.8349 58.0849 74.77 60.5699 73.35 62.6998L76.545 65.8948C77.965 67.315 77.965 69.445 76.545 70.8649L71.575 75.8349C70.1548 77.2549 68.0248 77.2549 66.6049 75.8349L63.4099 72.6399C60.925 74.0599 58.4398 75.1249 55.9549 75.8349V80.4501C55.9549 82.5801 54.535 84 52.405 84H45.3049C43.1749 84 41.755 82.5801 41.755 80.4501V76.1901C38.9149 75.48 36.43 74.415 34.3 72.9951L31.105 76.1901C29.6849 77.61 27.5549 77.61 26.1349 76.1901L21.1649 71.22C20.6598 70.7149 20.3344 70.1199 20.1886 69.499C15.0781 63.4153 12 55.5671 12 47V12ZM69 47C69 58.598 59.598 68 48 68C36.402 68 27 58.598 27 47C27 35.402 36.402 26 48 26C59.598 26 69 35.402 69 47Z" fill="url(#paint3_linear_4366_54329)"/>
</g>
<path d="M12 12V11.6H11.6V12H12ZM69.0423 19.8114L68.7902 20.122L68.8665 20.184L68.9629 20.2035L69.0423 19.8114ZM70.8649 20.8099L71.1477 20.5271H71.1477L70.8649 20.8099ZM75.8349 25.78L76.1178 25.4972L76.1178 25.4971L75.8349 25.78ZM75.8349 30.75L76.1178 31.0329L75.8349 30.75ZM72.6399 33.945L72.3571 33.6622L72.1411 33.8782L72.2927 34.1435L72.6399 33.945ZM75.8349 41.4L75.4503 41.5099L75.5332 41.8H75.8349V41.4ZM76.545 55.2449V54.8449H76.2327L76.157 55.1478L76.545 55.2449ZM73.35 62.6998L73.0172 62.478L72.8353 62.7508L73.0672 62.9827L73.35 62.6998ZM76.545 65.8948L76.8279 65.612L76.8279 65.612L76.545 65.8948ZM71.575 75.8349L71.8578 76.1178L71.8578 76.1178L71.575 75.8349ZM66.6049 75.8349L66.3221 76.1178H66.3221L66.6049 75.8349ZM63.4099 72.6399L63.6927 72.3571L63.4767 72.1411L63.2115 72.2927L63.4099 72.6399ZM55.9549 75.8349L55.845 75.4503L55.5549 75.5332V75.8349H55.9549ZM41.755 76.1901H42.155V75.8778L41.852 75.802L41.755 76.1901ZM34.3 72.9951L34.5219 72.6622L34.249 72.4804L34.0171 72.7122L34.3 72.9951ZM31.105 76.1901L31.3878 76.4729L31.3878 76.4729L31.105 76.1901ZM26.1349 76.1901L26.4178 75.9072V75.9072L26.1349 76.1901ZM21.1649 71.22L20.882 71.5028L20.882 71.5029L21.1649 71.22ZM20.1886 69.499L20.578 69.4076L20.5562 69.3148L20.4949 69.2418L20.1886 69.499ZM47 11.6H12V12.4H47V11.6ZM69.2944 19.5009C63.2083 14.5607 55.4494 11.6 47 11.6V12.4C55.2591 12.4 62.8414 15.2933 68.7902 20.122L69.2944 19.5009ZM68.9629 20.2035C69.541 20.3205 70.1033 20.6141 70.5821 21.0928L71.1477 20.5271C70.5612 19.9406 69.8586 19.5685 69.1216 19.4194L68.9629 20.2035ZM70.5821 21.0928L75.5521 26.0628L76.1178 25.4971L71.1477 20.5271L70.5821 21.0928ZM75.5521 26.0628C76.8158 27.3267 76.8158 29.2035 75.5521 30.4672L76.1178 31.0329C77.694 29.4567 77.6939 27.0735 76.1178 25.4972L75.5521 26.0628ZM75.5521 30.4672L72.3571 33.6622L72.9228 34.2279L76.1178 31.0329L75.5521 30.4672ZM72.2927 34.1435C73.6983 36.6035 74.75 39.059 75.4503 41.5099L76.2196 41.2901C75.4998 38.7712 74.4215 36.2565 72.9872 33.7466L72.2927 34.1435ZM75.8349 41.8H80.4499V41H75.8349V41.8ZM80.4499 41.8C82.3874 41.8 83.6 43.0683 83.6 44.5949H84.4C84.4 42.5716 82.7723 41 80.4499 41V41.8ZM83.6 44.5949V51.6949H84.4V44.5949H83.6ZM83.6 51.6949C83.6 52.669 83.2771 53.4497 82.7409 53.9858C82.2048 54.5219 81.4242 54.8449 80.4501 54.8449V55.6449C81.606 55.6449 82.6003 55.2578 83.3066 54.5515C84.013 53.8451 84.4 52.8508 84.4 51.6949H83.6ZM80.4501 54.8449H76.545V55.6449H80.4501V54.8449ZM76.157 55.1478C75.4564 57.9497 74.4083 60.3912 73.0172 62.478L73.6828 62.9217C75.1316 60.7485 76.2135 58.2201 76.9331 55.3419L76.157 55.1478ZM73.0672 62.9827L76.2622 66.1777L76.8279 65.612L73.6329 62.417L73.0672 62.9827ZM76.2621 66.1777C77.5259 67.4416 77.5259 69.3183 76.2622 70.5821L76.8279 71.1477C78.404 69.5716 78.404 67.1883 76.8279 65.612L76.2621 66.1777ZM76.2622 70.5821L71.2921 75.5521L71.8578 76.1178L76.8279 71.1477L76.2622 70.5821ZM71.2921 75.5521C70.0282 76.8158 68.1515 76.8158 66.8877 75.5521L66.3221 76.1178C67.8982 77.694 70.2815 77.6939 71.8578 76.1178L71.2921 75.5521ZM66.8877 75.5521L63.6927 72.3571L63.1271 72.9228L66.3221 76.1178L66.8877 75.5521ZM63.2115 72.2927C60.7515 73.6983 58.2959 74.75 55.845 75.4503L56.0648 76.2196C58.5838 75.4998 61.0984 74.4215 63.6084 72.9872L63.2115 72.2927ZM55.5549 75.8349V80.4501H56.3549V75.8349H55.5549ZM55.5549 80.4501C55.5549 81.4242 55.232 82.2048 54.6958 82.7409C54.1597 83.2771 53.3791 83.6 52.405 83.6V84.4C53.5609 84.4 54.5552 84.013 55.2615 83.3066C55.9679 82.6003 56.3549 81.606 56.3549 80.4501H55.5549ZM52.405 83.6H45.3049V84.4H52.405V83.6ZM45.3049 83.6C44.3308 83.6 43.5502 83.2771 43.014 82.7409C42.4779 82.2048 42.155 81.4242 42.155 80.4501H41.355C41.355 81.606 41.742 82.6003 42.4484 83.3066C43.1547 84.013 44.149 84.4 45.3049 84.4V83.6ZM42.155 80.4501V76.1901H41.355V80.4501H42.155ZM41.852 75.802C39.0501 75.1015 36.6087 74.0534 34.5219 72.6622L34.0781 73.3279C36.2513 74.7766 38.7797 75.8585 41.658 76.5781L41.852 75.802ZM34.0171 72.7122L30.8221 75.9072L31.3878 76.4729L34.5828 73.2779L34.0171 72.7122ZM30.8222 75.9072C29.5582 77.171 27.6815 77.1709 26.4178 75.9072L25.8521 76.4729C27.4283 78.0491 29.8115 78.049 31.3878 76.4729L30.8222 75.9072ZM26.4178 75.9072L21.4477 70.9372L20.882 71.5029L25.8521 76.4729L26.4178 75.9072ZM21.4477 70.9372C20.9937 70.4831 20.7063 69.9538 20.578 69.4076L19.7992 69.5905C19.9625 70.286 20.3259 70.9467 20.882 71.5028L21.4477 70.9372ZM11.6 47C11.6 55.6647 14.7135 63.6032 19.8823 69.7563L20.4949 69.2418C15.4426 63.2274 12.4 55.4696 12.4 47H11.6ZM11.6 12V47H12.4V12H11.6ZM48 68.4C59.8189 68.4 69.4 58.8189 69.4 47H68.6C68.6 58.3771 59.3771 67.6 48 67.6V68.4ZM26.6 47C26.6 58.8189 36.1811 68.4 48 68.4V67.6C36.6229 67.6 27.4 58.3771 27.4 47H26.6ZM48 25.6C36.1811 25.6 26.6 35.1811 26.6 47H27.4C27.4 35.6229 36.6229 26.4 48 26.4V25.6ZM69.4 47C69.4 35.1811 59.8189 25.6 48 25.6V26.4C59.3771 26.4 68.6 35.6229 68.6 47H69.4Z" fill="url(#paint4_linear_4366_54329)" mask="url(#path-1-inside-1_4366_54329)"/>
</g>
<g id="percent">
<g id="95">
<path d="M35.2487 52.4044L34.5633 50.9268C35.165 50.8507 35.7033 50.7231 36.1784 50.544C36.6534 50.3649 37.0696 50.1455 37.427 49.8858C37.7845 49.6262 38.0853 49.3351 38.3296 49.0128C38.5739 48.6904 38.7639 48.3501 38.8997 47.9919C38.687 48.2158 38.4269 48.3949 38.1192 48.5292C37.8161 48.659 37.4926 48.724 37.1488 48.724C36.5516 48.724 36.0132 48.5941 35.5337 48.3344C35.0587 48.0747 34.6831 47.7188 34.4072 47.2666C34.1357 46.8099 34 46.2883 34 45.7017C34 45.1152 34.1493 44.5891 34.4479 44.1234C34.751 43.6533 35.1695 43.2817 35.7033 43.0086C36.2372 42.7355 36.8525 42.5989 37.5492 42.5989C38.264 42.5989 38.8974 42.7511 39.4493 43.0556C40.0013 43.3556 40.4356 43.7876 40.7523 44.3518C41.069 44.9115 41.2273 45.5831 41.2273 46.3666C41.2273 47.1725 41.0758 47.9158 40.7727 48.5964C40.4695 49.2724 40.0443 49.8724 39.4968 50.3963C38.9539 50.9201 38.3206 51.3522 37.5967 51.6925C36.8728 52.0327 36.0902 52.2701 35.2487 52.4044ZM37.5492 47.1927C37.8659 47.1927 38.1486 47.1278 38.3975 46.9979C38.6508 46.8681 38.8499 46.6912 38.9947 46.4674C39.144 46.239 39.2186 45.9838 39.2186 45.7017C39.2186 45.4107 39.1462 45.1532 39.0014 44.9294C38.8567 44.7055 38.6599 44.5309 38.411 44.4055C38.1622 44.2757 37.8749 44.2108 37.5492 44.2108C37.228 44.2108 36.9407 44.2757 36.6873 44.4055C36.4385 44.5309 36.2417 44.7055 36.0969 44.9294C35.9567 45.1532 35.8866 45.4107 35.8866 45.7017C35.8866 45.9838 35.959 46.239 36.1037 46.4674C36.253 46.6912 36.4521 46.8681 36.7009 46.9979C36.9543 47.1278 37.237 47.1927 37.5492 47.1927Z" fill="white"/>
<path d="M35.2487 52.4044L34.5633 50.9268C35.165 50.8507 35.7033 50.7231 36.1784 50.544C36.6534 50.3649 37.0696 50.1455 37.427 49.8858C37.7845 49.6262 38.0853 49.3351 38.3296 49.0128C38.5739 48.6904 38.7639 48.3501 38.8997 47.9919C38.687 48.2158 38.4269 48.3949 38.1192 48.5292C37.8161 48.659 37.4926 48.724 37.1488 48.724C36.5516 48.724 36.0132 48.5941 35.5337 48.3344C35.0587 48.0747 34.6831 47.7188 34.4072 47.2666C34.1357 46.8099 34 46.2883 34 45.7017C34 45.1152 34.1493 44.5891 34.4479 44.1234C34.751 43.6533 35.1695 43.2817 35.7033 43.0086C36.2372 42.7355 36.8525 42.5989 37.5492 42.5989C38.264 42.5989 38.8974 42.7511 39.4493 43.0556C40.0013 43.3556 40.4356 43.7876 40.7523 44.3518C41.069 44.9115 41.2273 45.5831 41.2273 46.3666C41.2273 47.1725 41.0758 47.9158 40.7727 48.5964C40.4695 49.2724 40.0443 49.8724 39.4968 50.3963C38.9539 50.9201 38.3206 51.3522 37.5967 51.6925C36.8728 52.0327 36.0902 52.2701 35.2487 52.4044ZM37.5492 47.1927C37.8659 47.1927 38.1486 47.1278 38.3975 46.9979C38.6508 46.8681 38.8499 46.6912 38.9947 46.4674C39.144 46.239 39.2186 45.9838 39.2186 45.7017C39.2186 45.4107 39.1462 45.1532 39.0014 44.9294C38.8567 44.7055 38.6599 44.5309 38.411 44.4055C38.1622 44.2757 37.8749 44.2108 37.5492 44.2108C37.228 44.2108 36.9407 44.2757 36.6873 44.4055C36.4385 44.5309 36.2417 44.7055 36.0969 44.9294C35.9567 45.1532 35.8866 45.4107 35.8866 45.7017C35.8866 45.9838 35.959 46.239 36.1037 46.4674C36.253 46.6912 36.4521 46.8681 36.7009 46.9979C36.9543 47.1278 37.237 47.1927 37.5492 47.1927Z" fill="url(#paint5_linear_4366_54329)"/>
<path d="M35.2487 52.4044L34.5633 50.9268C35.165 50.8507 35.7033 50.7231 36.1784 50.544C36.6534 50.3649 37.0696 50.1455 37.427 49.8858C37.7845 49.6262 38.0853 49.3351 38.3296 49.0128C38.5739 48.6904 38.7639 48.3501 38.8997 47.9919C38.687 48.2158 38.4269 48.3949 38.1192 48.5292C37.8161 48.659 37.4926 48.724 37.1488 48.724C36.5516 48.724 36.0132 48.5941 35.5337 48.3344C35.0587 48.0747 34.6831 47.7188 34.4072 47.2666C34.1357 46.8099 34 46.2883 34 45.7017C34 45.1152 34.1493 44.5891 34.4479 44.1234C34.751 43.6533 35.1695 43.2817 35.7033 43.0086C36.2372 42.7355 36.8525 42.5989 37.5492 42.5989C38.264 42.5989 38.8974 42.7511 39.4493 43.0556C40.0013 43.3556 40.4356 43.7876 40.7523 44.3518C41.069 44.9115 41.2273 45.5831 41.2273 46.3666C41.2273 47.1725 41.0758 47.9158 40.7727 48.5964C40.4695 49.2724 40.0443 49.8724 39.4968 50.3963C38.9539 50.9201 38.3206 51.3522 37.5967 51.6925C36.8728 52.0327 36.0902 52.2701 35.2487 52.4044ZM37.5492 47.1927C37.8659 47.1927 38.1486 47.1278 38.3975 46.9979C38.6508 46.8681 38.8499 46.6912 38.9947 46.4674C39.144 46.239 39.2186 45.9838 39.2186 45.7017C39.2186 45.4107 39.1462 45.1532 39.0014 44.9294C38.8567 44.7055 38.6599 44.5309 38.411 44.4055C38.1622 44.2757 37.8749 44.2108 37.5492 44.2108C37.228 44.2108 36.9407 44.2757 36.6873 44.4055C36.4385 44.5309 36.2417 44.7055 36.0969 44.9294C35.9567 45.1532 35.8866 45.4107 35.8866 45.7017C35.8866 45.9838 35.959 46.239 36.1037 46.4674C36.253 46.6912 36.4521 46.8681 36.7009 46.9979C36.9543 47.1278 37.237 47.1927 37.5492 47.1927Z" fill="url(#paint6_linear_4366_54329)"/>
<path d="M35.2487 52.4044L34.5633 50.9268C35.165 50.8507 35.7033 50.7231 36.1784 50.544C36.6534 50.3649 37.0696 50.1455 37.427 49.8858C37.7845 49.6262 38.0853 49.3351 38.3296 49.0128C38.5739 48.6904 38.7639 48.3501 38.8997 47.9919C38.687 48.2158 38.4269 48.3949 38.1192 48.5292C37.8161 48.659 37.4926 48.724 37.1488 48.724C36.5516 48.724 36.0132 48.5941 35.5337 48.3344C35.0587 48.0747 34.6831 47.7188 34.4072 47.2666C34.1357 46.8099 34 46.2883 34 45.7017C34 45.1152 34.1493 44.5891 34.4479 44.1234C34.751 43.6533 35.1695 43.2817 35.7033 43.0086C36.2372 42.7355 36.8525 42.5989 37.5492 42.5989C38.264 42.5989 38.8974 42.7511 39.4493 43.0556C40.0013 43.3556 40.4356 43.7876 40.7523 44.3518C41.069 44.9115 41.2273 45.5831 41.2273 46.3666C41.2273 47.1725 41.0758 47.9158 40.7727 48.5964C40.4695 49.2724 40.0443 49.8724 39.4968 50.3963C38.9539 50.9201 38.3206 51.3522 37.5967 51.6925C36.8728 52.0327 36.0902 52.2701 35.2487 52.4044ZM37.5492 47.1927C37.8659 47.1927 38.1486 47.1278 38.3975 46.9979C38.6508 46.8681 38.8499 46.6912 38.9947 46.4674C39.144 46.239 39.2186 45.9838 39.2186 45.7017C39.2186 45.4107 39.1462 45.1532 39.0014 44.9294C38.8567 44.7055 38.6599 44.5309 38.411 44.4055C38.1622 44.2757 37.8749 44.2108 37.5492 44.2108C37.228 44.2108 36.9407 44.2757 36.6873 44.4055C36.4385 44.5309 36.2417 44.7055 36.0969 44.9294C35.9567 45.1532 35.8866 45.4107 35.8866 45.7017C35.8866 45.9838 35.959 46.239 36.1037 46.4674C36.253 46.6912 36.4521 46.8681 36.7009 46.9979C36.9543 47.1278 37.237 47.1927 37.5492 47.1927Z" fill="url(#paint7_linear_4366_54329)"/>
<path d="M35.2487 52.4044L34.5633 50.9268C35.165 50.8507 35.7033 50.7231 36.1784 50.544C36.6534 50.3649 37.0696 50.1455 37.427 49.8858C37.7845 49.6262 38.0853 49.3351 38.3296 49.0128C38.5739 48.6904 38.7639 48.3501 38.8997 47.9919C38.687 48.2158 38.4269 48.3949 38.1192 48.5292C37.8161 48.659 37.4926 48.724 37.1488 48.724C36.5516 48.724 36.0132 48.5941 35.5337 48.3344C35.0587 48.0747 34.6831 47.7188 34.4072 47.2666C34.1357 46.8099 34 46.2883 34 45.7017C34 45.1152 34.1493 44.5891 34.4479 44.1234C34.751 43.6533 35.1695 43.2817 35.7033 43.0086C36.2372 42.7355 36.8525 42.5989 37.5492 42.5989C38.264 42.5989 38.8974 42.7511 39.4493 43.0556C40.0013 43.3556 40.4356 43.7876 40.7523 44.3518C41.069 44.9115 41.2273 45.5831 41.2273 46.3666C41.2273 47.1725 41.0758 47.9158 40.7727 48.5964C40.4695 49.2724 40.0443 49.8724 39.4968 50.3963C38.9539 50.9201 38.3206 51.3522 37.5967 51.6925C36.8728 52.0327 36.0902 52.2701 35.2487 52.4044ZM37.5492 47.1927C37.8659 47.1927 38.1486 47.1278 38.3975 46.9979C38.6508 46.8681 38.8499 46.6912 38.9947 46.4674C39.144 46.239 39.2186 45.9838 39.2186 45.7017C39.2186 45.4107 39.1462 45.1532 39.0014 44.9294C38.8567 44.7055 38.6599 44.5309 38.411 44.4055C38.1622 44.2757 37.8749 44.2108 37.5492 44.2108C37.228 44.2108 36.9407 44.2757 36.6873 44.4055C36.4385 44.5309 36.2417 44.7055 36.0969 44.9294C35.9567 45.1532 35.8866 45.4107 35.8866 45.7017C35.8866 45.9838 35.959 46.239 36.1037 46.4674C36.253 46.6912 36.4521 46.8681 36.7009 46.9979C36.9543 47.1278 37.237 47.1927 37.5492 47.1927Z" fill="url(#paint8_linear_4366_54329)"/>
<path d="M45.5473 52.4044C44.9365 52.4044 44.3574 52.3193 43.81 52.1492C43.2671 51.9745 42.8147 51.7395 42.4528 51.444L43.05 49.8791C43.3531 50.1657 43.715 50.3784 44.1358 50.5172C44.561 50.6515 44.9953 50.7186 45.4387 50.7186C45.8187 50.7186 46.1467 50.6627 46.4227 50.5507C46.7032 50.4343 46.9181 50.2642 47.0674 50.0403C47.2167 49.812 47.2913 49.5321 47.2913 49.2008C47.2913 48.9098 47.2122 48.659 47.0538 48.4486C46.9 48.2382 46.6828 48.077 46.4024 47.965C46.1264 47.8486 45.8029 47.7904 45.4319 47.7904C45.1921 47.7904 44.9411 47.8195 44.6787 47.8777C44.4163 47.9359 44.1516 48.0232 43.8847 48.1397L43.0635 47.2464L43.5589 42.8071L48.954 42.8138V44.5264H44.9501L44.7126 46.4338C44.8981 46.3845 45.0858 46.3465 45.2758 46.3196C45.4659 46.2883 45.6559 46.2726 45.8459 46.2726C46.4928 46.2726 47.0674 46.3935 47.5696 46.6353C48.0718 46.8726 48.4654 47.2173 48.7504 47.6695C49.0354 48.1173 49.1779 48.6568 49.1779 49.2881C49.1779 49.9194 49.0264 50.4679 48.7232 50.9335C48.4201 51.3992 47.9949 51.7619 47.4474 52.0216C46.9045 52.2768 46.2712 52.4044 45.5473 52.4044Z" fill="white"/>
<path d="M45.5473 52.4044C44.9365 52.4044 44.3574 52.3193 43.81 52.1492C43.2671 51.9745 42.8147 51.7395 42.4528 51.444L43.05 49.8791C43.3531 50.1657 43.715 50.3784 44.1358 50.5172C44.561 50.6515 44.9953 50.7186 45.4387 50.7186C45.8187 50.7186 46.1467 50.6627 46.4227 50.5507C46.7032 50.4343 46.9181 50.2642 47.0674 50.0403C47.2167 49.812 47.2913 49.5321 47.2913 49.2008C47.2913 48.9098 47.2122 48.659 47.0538 48.4486C46.9 48.2382 46.6828 48.077 46.4024 47.965C46.1264 47.8486 45.8029 47.7904 45.4319 47.7904C45.1921 47.7904 44.9411 47.8195 44.6787 47.8777C44.4163 47.9359 44.1516 48.0232 43.8847 48.1397L43.0635 47.2464L43.5589 42.8071L48.954 42.8138V44.5264H44.9501L44.7126 46.4338C44.8981 46.3845 45.0858 46.3465 45.2758 46.3196C45.4659 46.2883 45.6559 46.2726 45.8459 46.2726C46.4928 46.2726 47.0674 46.3935 47.5696 46.6353C48.0718 46.8726 48.4654 47.2173 48.7504 47.6695C49.0354 48.1173 49.1779 48.6568 49.1779 49.2881C49.1779 49.9194 49.0264 50.4679 48.7232 50.9335C48.4201 51.3992 47.9949 51.7619 47.4474 52.0216C46.9045 52.2768 46.2712 52.4044 45.5473 52.4044Z" fill="url(#paint9_linear_4366_54329)"/>
<path d="M45.5473 52.4044C44.9365 52.4044 44.3574 52.3193 43.81 52.1492C43.2671 51.9745 42.8147 51.7395 42.4528 51.444L43.05 49.8791C43.3531 50.1657 43.715 50.3784 44.1358 50.5172C44.561 50.6515 44.9953 50.7186 45.4387 50.7186C45.8187 50.7186 46.1467 50.6627 46.4227 50.5507C46.7032 50.4343 46.9181 50.2642 47.0674 50.0403C47.2167 49.812 47.2913 49.5321 47.2913 49.2008C47.2913 48.9098 47.2122 48.659 47.0538 48.4486C46.9 48.2382 46.6828 48.077 46.4024 47.965C46.1264 47.8486 45.8029 47.7904 45.4319 47.7904C45.1921 47.7904 44.9411 47.8195 44.6787 47.8777C44.4163 47.9359 44.1516 48.0232 43.8847 48.1397L43.0635 47.2464L43.5589 42.8071L48.954 42.8138V44.5264H44.9501L44.7126 46.4338C44.8981 46.3845 45.0858 46.3465 45.2758 46.3196C45.4659 46.2883 45.6559 46.2726 45.8459 46.2726C46.4928 46.2726 47.0674 46.3935 47.5696 46.6353C48.0718 46.8726 48.4654 47.2173 48.7504 47.6695C49.0354 48.1173 49.1779 48.6568 49.1779 49.2881C49.1779 49.9194 49.0264 50.4679 48.7232 50.9335C48.4201 51.3992 47.9949 51.7619 47.4474 52.0216C46.9045 52.2768 46.2712 52.4044 45.5473 52.4044Z" fill="url(#paint10_linear_4366_54329)"/>
<path d="M45.5473 52.4044C44.9365 52.4044 44.3574 52.3193 43.81 52.1492C43.2671 51.9745 42.8147 51.7395 42.4528 51.444L43.05 49.8791C43.3531 50.1657 43.715 50.3784 44.1358 50.5172C44.561 50.6515 44.9953 50.7186 45.4387 50.7186C45.8187 50.7186 46.1467 50.6627 46.4227 50.5507C46.7032 50.4343 46.9181 50.2642 47.0674 50.0403C47.2167 49.812 47.2913 49.5321 47.2913 49.2008C47.2913 48.9098 47.2122 48.659 47.0538 48.4486C46.9 48.2382 46.6828 48.077 46.4024 47.965C46.1264 47.8486 45.8029 47.7904 45.4319 47.7904C45.1921 47.7904 44.9411 47.8195 44.6787 47.8777C44.4163 47.9359 44.1516 48.0232 43.8847 48.1397L43.0635 47.2464L43.5589 42.8071L48.954 42.8138V44.5264H44.9501L44.7126 46.4338C44.8981 46.3845 45.0858 46.3465 45.2758 46.3196C45.4659 46.2883 45.6559 46.2726 45.8459 46.2726C46.4928 46.2726 47.0674 46.3935 47.5696 46.6353C48.0718 46.8726 48.4654 47.2173 48.7504 47.6695C49.0354 48.1173 49.1779 48.6568 49.1779 49.2881C49.1779 49.9194 49.0264 50.4679 48.7232 50.9335C48.4201 51.3992 47.9949 51.7619 47.4474 52.0216C46.9045 52.2768 46.2712 52.4044 45.5473 52.4044Z" fill="url(#paint11_linear_4366_54329)"/>
<path d="M45.5473 52.4044C44.9365 52.4044 44.3574 52.3193 43.81 52.1492C43.2671 51.9745 42.8147 51.7395 42.4528 51.444L43.05 49.8791C43.3531 50.1657 43.715 50.3784 44.1358 50.5172C44.561 50.6515 44.9953 50.7186 45.4387 50.7186C45.8187 50.7186 46.1467 50.6627 46.4227 50.5507C46.7032 50.4343 46.9181 50.2642 47.0674 50.0403C47.2167 49.812 47.2913 49.5321 47.2913 49.2008C47.2913 48.9098 47.2122 48.659 47.0538 48.4486C46.9 48.2382 46.6828 48.077 46.4024 47.965C46.1264 47.8486 45.8029 47.7904 45.4319 47.7904C45.1921 47.7904 44.9411 47.8195 44.6787 47.8777C44.4163 47.9359 44.1516 48.0232 43.8847 48.1397L43.0635 47.2464L43.5589 42.8071L48.954 42.8138V44.5264H44.9501L44.7126 46.4338C44.8981 46.3845 45.0858 46.3465 45.2758 46.3196C45.4659 46.2883 45.6559 46.2726 45.8459 46.2726C46.4928 46.2726 47.0674 46.3935 47.5696 46.6353C48.0718 46.8726 48.4654 47.2173 48.7504 47.6695C49.0354 48.1173 49.1779 48.6568 49.1779 49.2881C49.1779 49.9194 49.0264 50.4679 48.7232 50.9335C48.4201 51.3992 47.9949 51.7619 47.4474 52.0216C46.9045 52.2768 46.2712 52.4044 45.5473 52.4044Z" fill="url(#paint12_linear_4366_54329)"/>
<path d="M54.8836 52.4447L53.8386 51.8335L59.0911 42.5586L60.1294 43.1362L54.8836 52.4447ZM53.0039 47.871C52.5017 47.871 52.047 47.7546 51.6398 47.5218C51.2372 47.289 50.9137 46.9755 50.6694 46.5815C50.4296 46.1875 50.3097 45.7465 50.3097 45.2585C50.3097 44.7794 50.4296 44.3428 50.6694 43.9488C50.9137 43.5548 51.2372 43.2436 51.6398 43.0153C52.047 42.7825 52.5017 42.6661 53.0039 42.6661C53.5015 42.6661 53.9517 42.7825 54.3543 43.0153C54.7615 43.2436 55.0827 43.5548 55.318 43.9488C55.5577 44.3428 55.6776 44.7794 55.6776 45.2585C55.6776 45.742 55.5577 46.183 55.318 46.5815C55.0827 46.9755 54.7615 47.289 54.3543 47.5218C53.9517 47.7546 53.5015 47.871 53.0039 47.871ZM53.0039 46.595C53.2663 46.595 53.497 46.539 53.6961 46.4271C53.8996 46.3106 54.058 46.1517 54.1711 45.9502C54.2842 45.7487 54.3407 45.5181 54.3407 45.2585C54.3407 44.8689 54.2163 44.5533 53.9675 44.3115C53.7232 44.0652 53.402 43.9421 53.0039 43.9421C52.7369 43.9421 52.5017 43.9981 52.2981 44.11C52.099 44.2219 51.9429 44.3787 51.8298 44.5801C51.7167 44.7771 51.6602 45.0032 51.6602 45.2585C51.6602 45.6525 51.7846 45.9748 52.0334 46.2256C52.2868 46.4718 52.6103 46.595 53.0039 46.595ZM60.9845 52.3372C60.4823 52.3372 60.0276 52.2208 59.6204 51.988C59.2178 51.7552 58.8943 51.4417 58.65 51.0477C58.4102 50.6492 58.2903 50.2082 58.2903 49.7247C58.2903 49.2456 58.4102 48.809 58.65 48.415C58.8943 48.021 59.2178 47.7098 59.6204 47.4815C60.0276 47.2487 60.4823 47.1322 60.9845 47.1322C61.4821 47.1322 61.9323 47.2487 62.3349 47.4815C62.7421 47.7098 63.0633 48.021 63.2986 48.415C63.5383 48.809 63.6582 49.2456 63.6582 49.7247C63.6582 50.2082 63.5383 50.6492 63.2986 51.0477C63.0633 51.4417 62.7421 51.7552 62.3349 51.988C61.9323 52.2208 61.4821 52.3372 60.9845 52.3372ZM60.9845 51.0612C61.2423 51.0612 61.4731 51.0052 61.6767 50.8933C61.8802 50.7768 62.0386 50.6179 62.1517 50.4164C62.2648 50.2149 62.3213 49.9843 62.3213 49.7247C62.3213 49.3351 62.1969 49.0195 61.9481 48.7777C61.6993 48.5314 61.3781 48.4083 60.9845 48.4083C60.7175 48.4083 60.4823 48.4643 60.2787 48.5762C60.0796 48.6837 59.9235 48.8381 59.8104 49.0396C59.6973 49.2366 59.6408 49.465 59.6408 49.7247C59.6408 50.1142 59.7652 50.4343 60.014 50.6851C60.2629 50.9358 60.5863 51.0612 60.9845 51.0612Z" fill="white"/>
<path d="M54.8836 52.4447L53.8386 51.8335L59.0911 42.5586L60.1294 43.1362L54.8836 52.4447ZM53.0039 47.871C52.5017 47.871 52.047 47.7546 51.6398 47.5218C51.2372 47.289 50.9137 46.9755 50.6694 46.5815C50.4296 46.1875 50.3097 45.7465 50.3097 45.2585C50.3097 44.7794 50.4296 44.3428 50.6694 43.9488C50.9137 43.5548 51.2372 43.2436 51.6398 43.0153C52.047 42.7825 52.5017 42.6661 53.0039 42.6661C53.5015 42.6661 53.9517 42.7825 54.3543 43.0153C54.7615 43.2436 55.0827 43.5548 55.318 43.9488C55.5577 44.3428 55.6776 44.7794 55.6776 45.2585C55.6776 45.742 55.5577 46.183 55.318 46.5815C55.0827 46.9755 54.7615 47.289 54.3543 47.5218C53.9517 47.7546 53.5015 47.871 53.0039 47.871ZM53.0039 46.595C53.2663 46.595 53.497 46.539 53.6961 46.4271C53.8996 46.3106 54.058 46.1517 54.1711 45.9502C54.2842 45.7487 54.3407 45.5181 54.3407 45.2585C54.3407 44.8689 54.2163 44.5533 53.9675 44.3115C53.7232 44.0652 53.402 43.9421 53.0039 43.9421C52.7369 43.9421 52.5017 43.9981 52.2981 44.11C52.099 44.2219 51.9429 44.3787 51.8298 44.5801C51.7167 44.7771 51.6602 45.0032 51.6602 45.2585C51.6602 45.6525 51.7846 45.9748 52.0334 46.2256C52.2868 46.4718 52.6103 46.595 53.0039 46.595ZM60.9845 52.3372C60.4823 52.3372 60.0276 52.2208 59.6204 51.988C59.2178 51.7552 58.8943 51.4417 58.65 51.0477C58.4102 50.6492 58.2903 50.2082 58.2903 49.7247C58.2903 49.2456 58.4102 48.809 58.65 48.415C58.8943 48.021 59.2178 47.7098 59.6204 47.4815C60.0276 47.2487 60.4823 47.1322 60.9845 47.1322C61.4821 47.1322 61.9323 47.2487 62.3349 47.4815C62.7421 47.7098 63.0633 48.021 63.2986 48.415C63.5383 48.809 63.6582 49.2456 63.6582 49.7247C63.6582 50.2082 63.5383 50.6492 63.2986 51.0477C63.0633 51.4417 62.7421 51.7552 62.3349 51.988C61.9323 52.2208 61.4821 52.3372 60.9845 52.3372ZM60.9845 51.0612C61.2423 51.0612 61.4731 51.0052 61.6767 50.8933C61.8802 50.7768 62.0386 50.6179 62.1517 50.4164C62.2648 50.2149 62.3213 49.9843 62.3213 49.7247C62.3213 49.3351 62.1969 49.0195 61.9481 48.7777C61.6993 48.5314 61.3781 48.4083 60.9845 48.4083C60.7175 48.4083 60.4823 48.4643 60.2787 48.5762C60.0796 48.6837 59.9235 48.8381 59.8104 49.0396C59.6973 49.2366 59.6408 49.465 59.6408 49.7247C59.6408 50.1142 59.7652 50.4343 60.014 50.6851C60.2629 50.9358 60.5863 51.0612 60.9845 51.0612Z" fill="url(#paint13_linear_4366_54329)"/>
<path d="M54.8836 52.4447L53.8386 51.8335L59.0911 42.5586L60.1294 43.1362L54.8836 52.4447ZM53.0039 47.871C52.5017 47.871 52.047 47.7546 51.6398 47.5218C51.2372 47.289 50.9137 46.9755 50.6694 46.5815C50.4296 46.1875 50.3097 45.7465 50.3097 45.2585C50.3097 44.7794 50.4296 44.3428 50.6694 43.9488C50.9137 43.5548 51.2372 43.2436 51.6398 43.0153C52.047 42.7825 52.5017 42.6661 53.0039 42.6661C53.5015 42.6661 53.9517 42.7825 54.3543 43.0153C54.7615 43.2436 55.0827 43.5548 55.318 43.9488C55.5577 44.3428 55.6776 44.7794 55.6776 45.2585C55.6776 45.742 55.5577 46.183 55.318 46.5815C55.0827 46.9755 54.7615 47.289 54.3543 47.5218C53.9517 47.7546 53.5015 47.871 53.0039 47.871ZM53.0039 46.595C53.2663 46.595 53.497 46.539 53.6961 46.4271C53.8996 46.3106 54.058 46.1517 54.1711 45.9502C54.2842 45.7487 54.3407 45.5181 54.3407 45.2585C54.3407 44.8689 54.2163 44.5533 53.9675 44.3115C53.7232 44.0652 53.402 43.9421 53.0039 43.9421C52.7369 43.9421 52.5017 43.9981 52.2981 44.11C52.099 44.2219 51.9429 44.3787 51.8298 44.5801C51.7167 44.7771 51.6602 45.0032 51.6602 45.2585C51.6602 45.6525 51.7846 45.9748 52.0334 46.2256C52.2868 46.4718 52.6103 46.595 53.0039 46.595ZM60.9845 52.3372C60.4823 52.3372 60.0276 52.2208 59.6204 51.988C59.2178 51.7552 58.8943 51.4417 58.65 51.0477C58.4102 50.6492 58.2903 50.2082 58.2903 49.7247C58.2903 49.2456 58.4102 48.809 58.65 48.415C58.8943 48.021 59.2178 47.7098 59.6204 47.4815C60.0276 47.2487 60.4823 47.1322 60.9845 47.1322C61.4821 47.1322 61.9323 47.2487 62.3349 47.4815C62.7421 47.7098 63.0633 48.021 63.2986 48.415C63.5383 48.809 63.6582 49.2456 63.6582 49.7247C63.6582 50.2082 63.5383 50.6492 63.2986 51.0477C63.0633 51.4417 62.7421 51.7552 62.3349 51.988C61.9323 52.2208 61.4821 52.3372 60.9845 52.3372ZM60.9845 51.0612C61.2423 51.0612 61.4731 51.0052 61.6767 50.8933C61.8802 50.7768 62.0386 50.6179 62.1517 50.4164C62.2648 50.2149 62.3213 49.9843 62.3213 49.7247C62.3213 49.3351 62.1969 49.0195 61.9481 48.7777C61.6993 48.5314 61.3781 48.4083 60.9845 48.4083C60.7175 48.4083 60.4823 48.4643 60.2787 48.5762C60.0796 48.6837 59.9235 48.8381 59.8104 49.0396C59.6973 49.2366 59.6408 49.465 59.6408 49.7247C59.6408 50.1142 59.7652 50.4343 60.014 50.6851C60.2629 50.9358 60.5863 51.0612 60.9845 51.0612Z" fill="url(#paint14_linear_4366_54329)"/>
<path d="M54.8836 52.4447L53.8386 51.8335L59.0911 42.5586L60.1294 43.1362L54.8836 52.4447ZM53.0039 47.871C52.5017 47.871 52.047 47.7546 51.6398 47.5218C51.2372 47.289 50.9137 46.9755 50.6694 46.5815C50.4296 46.1875 50.3097 45.7465 50.3097 45.2585C50.3097 44.7794 50.4296 44.3428 50.6694 43.9488C50.9137 43.5548 51.2372 43.2436 51.6398 43.0153C52.047 42.7825 52.5017 42.6661 53.0039 42.6661C53.5015 42.6661 53.9517 42.7825 54.3543 43.0153C54.7615 43.2436 55.0827 43.5548 55.318 43.9488C55.5577 44.3428 55.6776 44.7794 55.6776 45.2585C55.6776 45.742 55.5577 46.183 55.318 46.5815C55.0827 46.9755 54.7615 47.289 54.3543 47.5218C53.9517 47.7546 53.5015 47.871 53.0039 47.871ZM53.0039 46.595C53.2663 46.595 53.497 46.539 53.6961 46.4271C53.8996 46.3106 54.058 46.1517 54.1711 45.9502C54.2842 45.7487 54.3407 45.5181 54.3407 45.2585C54.3407 44.8689 54.2163 44.5533 53.9675 44.3115C53.7232 44.0652 53.402 43.9421 53.0039 43.9421C52.7369 43.9421 52.5017 43.9981 52.2981 44.11C52.099 44.2219 51.9429 44.3787 51.8298 44.5801C51.7167 44.7771 51.6602 45.0032 51.6602 45.2585C51.6602 45.6525 51.7846 45.9748 52.0334 46.2256C52.2868 46.4718 52.6103 46.595 53.0039 46.595ZM60.9845 52.3372C60.4823 52.3372 60.0276 52.2208 59.6204 51.988C59.2178 51.7552 58.8943 51.4417 58.65 51.0477C58.4102 50.6492 58.2903 50.2082 58.2903 49.7247C58.2903 49.2456 58.4102 48.809 58.65 48.415C58.8943 48.021 59.2178 47.7098 59.6204 47.4815C60.0276 47.2487 60.4823 47.1322 60.9845 47.1322C61.4821 47.1322 61.9323 47.2487 62.3349 47.4815C62.7421 47.7098 63.0633 48.021 63.2986 48.415C63.5383 48.809 63.6582 49.2456 63.6582 49.7247C63.6582 50.2082 63.5383 50.6492 63.2986 51.0477C63.0633 51.4417 62.7421 51.7552 62.3349 51.988C61.9323 52.2208 61.4821 52.3372 60.9845 52.3372ZM60.9845 51.0612C61.2423 51.0612 61.4731 51.0052 61.6767 50.8933C61.8802 50.7768 62.0386 50.6179 62.1517 50.4164C62.2648 50.2149 62.3213 49.9843 62.3213 49.7247C62.3213 49.3351 62.1969 49.0195 61.9481 48.7777C61.6993 48.5314 61.3781 48.4083 60.9845 48.4083C60.7175 48.4083 60.4823 48.4643 60.2787 48.5762C60.0796 48.6837 59.9235 48.8381 59.8104 49.0396C59.6973 49.2366 59.6408 49.465 59.6408 49.7247C59.6408 50.1142 59.7652 50.4343 60.014 50.6851C60.2629 50.9358 60.5863 51.0612 60.9845 51.0612Z" fill="url(#paint15_linear_4366_54329)"/>
<path d="M54.8836 52.4447L53.8386 51.8335L59.0911 42.5586L60.1294 43.1362L54.8836 52.4447ZM53.0039 47.871C52.5017 47.871 52.047 47.7546 51.6398 47.5218C51.2372 47.289 50.9137 46.9755 50.6694 46.5815C50.4296 46.1875 50.3097 45.7465 50.3097 45.2585C50.3097 44.7794 50.4296 44.3428 50.6694 43.9488C50.9137 43.5548 51.2372 43.2436 51.6398 43.0153C52.047 42.7825 52.5017 42.6661 53.0039 42.6661C53.5015 42.6661 53.9517 42.7825 54.3543 43.0153C54.7615 43.2436 55.0827 43.5548 55.318 43.9488C55.5577 44.3428 55.6776 44.7794 55.6776 45.2585C55.6776 45.742 55.5577 46.183 55.318 46.5815C55.0827 46.9755 54.7615 47.289 54.3543 47.5218C53.9517 47.7546 53.5015 47.871 53.0039 47.871ZM53.0039 46.595C53.2663 46.595 53.497 46.539 53.6961 46.4271C53.8996 46.3106 54.058 46.1517 54.1711 45.9502C54.2842 45.7487 54.3407 45.5181 54.3407 45.2585C54.3407 44.8689 54.2163 44.5533 53.9675 44.3115C53.7232 44.0652 53.402 43.9421 53.0039 43.9421C52.7369 43.9421 52.5017 43.9981 52.2981 44.11C52.099 44.2219 51.9429 44.3787 51.8298 44.5801C51.7167 44.7771 51.6602 45.0032 51.6602 45.2585C51.6602 45.6525 51.7846 45.9748 52.0334 46.2256C52.2868 46.4718 52.6103 46.595 53.0039 46.595ZM60.9845 52.3372C60.4823 52.3372 60.0276 52.2208 59.6204 51.988C59.2178 51.7552 58.8943 51.4417 58.65 51.0477C58.4102 50.6492 58.2903 50.2082 58.2903 49.7247C58.2903 49.2456 58.4102 48.809 58.65 48.415C58.8943 48.021 59.2178 47.7098 59.6204 47.4815C60.0276 47.2487 60.4823 47.1322 60.9845 47.1322C61.4821 47.1322 61.9323 47.2487 62.3349 47.4815C62.7421 47.7098 63.0633 48.021 63.2986 48.415C63.5383 48.809 63.6582 49.2456 63.6582 49.7247C63.6582 50.2082 63.5383 50.6492 63.2986 51.0477C63.0633 51.4417 62.7421 51.7552 62.3349 51.988C61.9323 52.2208 61.4821 52.3372 60.9845 52.3372ZM60.9845 51.0612C61.2423 51.0612 61.4731 51.0052 61.6767 50.8933C61.8802 50.7768 62.0386 50.6179 62.1517 50.4164C62.2648 50.2149 62.3213 49.9843 62.3213 49.7247C62.3213 49.3351 62.1969 49.0195 61.9481 48.7777C61.6993 48.5314 61.3781 48.4083 60.9845 48.4083C60.7175 48.4083 60.4823 48.4643 60.2787 48.5762C60.0796 48.6837 59.9235 48.8381 59.8104 49.0396C59.6973 49.2366 59.6408 49.465 59.6408 49.7247C59.6408 50.1142 59.7652 50.4343 60.014 50.6851C60.2629 50.9358 60.5863 51.0612 60.9845 51.0612Z" fill="url(#paint16_linear_4366_54329)"/>
</g>
<g id="%">
<path d="M54.8864 52.4447L53.8413 51.8335L59.0939 42.5586L60.1322 43.1362L54.8864 52.4447ZM53.0066 47.871C52.5044 47.871 52.0498 47.7546 51.6426 47.5218C51.2399 47.289 50.9165 46.9755 50.6722 46.5815C50.4324 46.1875 50.3125 45.7465 50.3125 45.2585C50.3125 44.7794 50.4324 44.3428 50.6722 43.9488C50.9165 43.5548 51.2399 43.2436 51.6426 43.0153C52.0498 42.7825 52.5044 42.6661 53.0066 42.6661C53.5043 42.6661 53.9544 42.7825 54.3571 43.0153C54.7643 43.2436 55.0855 43.5548 55.3207 43.9488C55.5605 44.3428 55.6804 44.7794 55.6804 45.2585C55.6804 45.742 55.5605 46.183 55.3207 46.5815C55.0855 46.9755 54.7643 47.289 54.3571 47.5218C53.9544 47.7546 53.5043 47.871 53.0066 47.871ZM53.0066 46.595C53.269 46.595 53.4998 46.539 53.6988 46.4271C53.9024 46.3106 54.0608 46.1517 54.1739 45.9502C54.287 45.7487 54.3435 45.5181 54.3435 45.2585C54.3435 44.8689 54.2191 44.5533 53.9703 44.3115C53.726 44.0652 53.4048 43.9421 53.0066 43.9421C52.7397 43.9421 52.5045 43.9981 52.3009 44.11C52.1018 44.2219 51.9457 44.3787 51.8326 44.5801C51.7195 44.7771 51.663 45.0032 51.663 45.2585C51.663 45.6525 51.7874 45.9748 52.0362 46.2256C52.2896 46.4718 52.613 46.595 53.0066 46.595ZM60.9872 52.3372C60.485 52.3372 60.0304 52.2208 59.6232 51.988C59.2205 51.7552 58.8971 51.4417 58.6528 51.0477C58.413 50.6492 58.2931 50.2082 58.2931 49.7247C58.2931 49.2456 58.413 48.809 58.6528 48.415C58.8971 48.021 59.2205 47.7098 59.6232 47.4815C60.0304 47.2487 60.485 47.1322 60.9872 47.1322C61.4849 47.1322 61.935 47.2487 62.3377 47.4815C62.7449 47.7098 63.0661 48.021 63.3013 48.415C63.5411 48.809 63.661 49.2456 63.661 49.7247C63.661 50.2082 63.5411 50.6492 63.3013 51.0477C63.0661 51.4417 62.7449 51.7552 62.3377 51.988C61.935 52.2208 61.4849 52.3372 60.9872 52.3372ZM60.9872 51.0612C61.2451 51.0612 61.4758 51.0052 61.6794 50.8933C61.883 50.7768 62.0414 50.6179 62.1545 50.4164C62.2676 50.2149 62.3241 49.9843 62.3241 49.7247C62.3241 49.3351 62.1997 49.0195 61.9509 48.7777C61.702 48.5314 61.3808 48.4083 60.9872 48.4083C60.7203 48.4083 60.485 48.4643 60.2815 48.5762C60.0824 48.6837 59.9263 48.8381 59.8132 49.0396C59.7001 49.2366 59.6436 49.465 59.6436 49.7247C59.6436 50.1142 59.768 50.4343 60.0168 50.6851C60.2656 50.9358 60.5891 51.0612 60.9872 51.0612Z" fill="white"/>
<path d="M54.8864 52.4447L53.8413 51.8335L59.0939 42.5586L60.1322 43.1362L54.8864 52.4447ZM53.0066 47.871C52.5044 47.871 52.0498 47.7546 51.6426 47.5218C51.2399 47.289 50.9165 46.9755 50.6722 46.5815C50.4324 46.1875 50.3125 45.7465 50.3125 45.2585C50.3125 44.7794 50.4324 44.3428 50.6722 43.9488C50.9165 43.5548 51.2399 43.2436 51.6426 43.0153C52.0498 42.7825 52.5044 42.6661 53.0066 42.6661C53.5043 42.6661 53.9544 42.7825 54.3571 43.0153C54.7643 43.2436 55.0855 43.5548 55.3207 43.9488C55.5605 44.3428 55.6804 44.7794 55.6804 45.2585C55.6804 45.742 55.5605 46.183 55.3207 46.5815C55.0855 46.9755 54.7643 47.289 54.3571 47.5218C53.9544 47.7546 53.5043 47.871 53.0066 47.871ZM53.0066 46.595C53.269 46.595 53.4998 46.539 53.6988 46.4271C53.9024 46.3106 54.0608 46.1517 54.1739 45.9502C54.287 45.7487 54.3435 45.5181 54.3435 45.2585C54.3435 44.8689 54.2191 44.5533 53.9703 44.3115C53.726 44.0652 53.4048 43.9421 53.0066 43.9421C52.7397 43.9421 52.5045 43.9981 52.3009 44.11C52.1018 44.2219 51.9457 44.3787 51.8326 44.5801C51.7195 44.7771 51.663 45.0032 51.663 45.2585C51.663 45.6525 51.7874 45.9748 52.0362 46.2256C52.2896 46.4718 52.613 46.595 53.0066 46.595ZM60.9872 52.3372C60.485 52.3372 60.0304 52.2208 59.6232 51.988C59.2205 51.7552 58.8971 51.4417 58.6528 51.0477C58.413 50.6492 58.2931 50.2082 58.2931 49.7247C58.2931 49.2456 58.413 48.809 58.6528 48.415C58.8971 48.021 59.2205 47.7098 59.6232 47.4815C60.0304 47.2487 60.485 47.1322 60.9872 47.1322C61.4849 47.1322 61.935 47.2487 62.3377 47.4815C62.7449 47.7098 63.0661 48.021 63.3013 48.415C63.5411 48.809 63.661 49.2456 63.661 49.7247C63.661 50.2082 63.5411 50.6492 63.3013 51.0477C63.0661 51.4417 62.7449 51.7552 62.3377 51.988C61.935 52.2208 61.4849 52.3372 60.9872 52.3372ZM60.9872 51.0612C61.2451 51.0612 61.4758 51.0052 61.6794 50.8933C61.883 50.7768 62.0414 50.6179 62.1545 50.4164C62.2676 50.2149 62.3241 49.9843 62.3241 49.7247C62.3241 49.3351 62.1997 49.0195 61.9509 48.7777C61.702 48.5314 61.3808 48.4083 60.9872 48.4083C60.7203 48.4083 60.485 48.4643 60.2815 48.5762C60.0824 48.6837 59.9263 48.8381 59.8132 49.0396C59.7001 49.2366 59.6436 49.465 59.6436 49.7247C59.6436 50.1142 59.768 50.4343 60.0168 50.6851C60.2656 50.9358 60.5891 51.0612 60.9872 51.0612Z" fill="url(#paint17_linear_4366_54329)"/>
<path d="M54.8864 52.4447L53.8413 51.8335L59.0939 42.5586L60.1322 43.1362L54.8864 52.4447ZM53.0066 47.871C52.5044 47.871 52.0498 47.7546 51.6426 47.5218C51.2399 47.289 50.9165 46.9755 50.6722 46.5815C50.4324 46.1875 50.3125 45.7465 50.3125 45.2585C50.3125 44.7794 50.4324 44.3428 50.6722 43.9488C50.9165 43.5548 51.2399 43.2436 51.6426 43.0153C52.0498 42.7825 52.5044 42.6661 53.0066 42.6661C53.5043 42.6661 53.9544 42.7825 54.3571 43.0153C54.7643 43.2436 55.0855 43.5548 55.3207 43.9488C55.5605 44.3428 55.6804 44.7794 55.6804 45.2585C55.6804 45.742 55.5605 46.183 55.3207 46.5815C55.0855 46.9755 54.7643 47.289 54.3571 47.5218C53.9544 47.7546 53.5043 47.871 53.0066 47.871ZM53.0066 46.595C53.269 46.595 53.4998 46.539 53.6988 46.4271C53.9024 46.3106 54.0608 46.1517 54.1739 45.9502C54.287 45.7487 54.3435 45.5181 54.3435 45.2585C54.3435 44.8689 54.2191 44.5533 53.9703 44.3115C53.726 44.0652 53.4048 43.9421 53.0066 43.9421C52.7397 43.9421 52.5045 43.9981 52.3009 44.11C52.1018 44.2219 51.9457 44.3787 51.8326 44.5801C51.7195 44.7771 51.663 45.0032 51.663 45.2585C51.663 45.6525 51.7874 45.9748 52.0362 46.2256C52.2896 46.4718 52.613 46.595 53.0066 46.595ZM60.9872 52.3372C60.485 52.3372 60.0304 52.2208 59.6232 51.988C59.2205 51.7552 58.8971 51.4417 58.6528 51.0477C58.413 50.6492 58.2931 50.2082 58.2931 49.7247C58.2931 49.2456 58.413 48.809 58.6528 48.415C58.8971 48.021 59.2205 47.7098 59.6232 47.4815C60.0304 47.2487 60.485 47.1322 60.9872 47.1322C61.4849 47.1322 61.935 47.2487 62.3377 47.4815C62.7449 47.7098 63.0661 48.021 63.3013 48.415C63.5411 48.809 63.661 49.2456 63.661 49.7247C63.661 50.2082 63.5411 50.6492 63.3013 51.0477C63.0661 51.4417 62.7449 51.7552 62.3377 51.988C61.935 52.2208 61.4849 52.3372 60.9872 52.3372ZM60.9872 51.0612C61.2451 51.0612 61.4758 51.0052 61.6794 50.8933C61.883 50.7768 62.0414 50.6179 62.1545 50.4164C62.2676 50.2149 62.3241 49.9843 62.3241 49.7247C62.3241 49.3351 62.1997 49.0195 61.9509 48.7777C61.702 48.5314 61.3808 48.4083 60.9872 48.4083C60.7203 48.4083 60.485 48.4643 60.2815 48.5762C60.0824 48.6837 59.9263 48.8381 59.8132 49.0396C59.7001 49.2366 59.6436 49.465 59.6436 49.7247C59.6436 50.1142 59.768 50.4343 60.0168 50.6851C60.2656 50.9358 60.5891 51.0612 60.9872 51.0612Z" fill="url(#paint18_linear_4366_54329)"/>
<path d="M54.8864 52.4447L53.8413 51.8335L59.0939 42.5586L60.1322 43.1362L54.8864 52.4447ZM53.0066 47.871C52.5044 47.871 52.0498 47.7546 51.6426 47.5218C51.2399 47.289 50.9165 46.9755 50.6722 46.5815C50.4324 46.1875 50.3125 45.7465 50.3125 45.2585C50.3125 44.7794 50.4324 44.3428 50.6722 43.9488C50.9165 43.5548 51.2399 43.2436 51.6426 43.0153C52.0498 42.7825 52.5044 42.6661 53.0066 42.6661C53.5043 42.6661 53.9544 42.7825 54.3571 43.0153C54.7643 43.2436 55.0855 43.5548 55.3207 43.9488C55.5605 44.3428 55.6804 44.7794 55.6804 45.2585C55.6804 45.742 55.5605 46.183 55.3207 46.5815C55.0855 46.9755 54.7643 47.289 54.3571 47.5218C53.9544 47.7546 53.5043 47.871 53.0066 47.871ZM53.0066 46.595C53.269 46.595 53.4998 46.539 53.6988 46.4271C53.9024 46.3106 54.0608 46.1517 54.1739 45.9502C54.287 45.7487 54.3435 45.5181 54.3435 45.2585C54.3435 44.8689 54.2191 44.5533 53.9703 44.3115C53.726 44.0652 53.4048 43.9421 53.0066 43.9421C52.7397 43.9421 52.5045 43.9981 52.3009 44.11C52.1018 44.2219 51.9457 44.3787 51.8326 44.5801C51.7195 44.7771 51.663 45.0032 51.663 45.2585C51.663 45.6525 51.7874 45.9748 52.0362 46.2256C52.2896 46.4718 52.613 46.595 53.0066 46.595ZM60.9872 52.3372C60.485 52.3372 60.0304 52.2208 59.6232 51.988C59.2205 51.7552 58.8971 51.4417 58.6528 51.0477C58.413 50.6492 58.2931 50.2082 58.2931 49.7247C58.2931 49.2456 58.413 48.809 58.6528 48.415C58.8971 48.021 59.2205 47.7098 59.6232 47.4815C60.0304 47.2487 60.485 47.1322 60.9872 47.1322C61.4849 47.1322 61.935 47.2487 62.3377 47.4815C62.7449 47.7098 63.0661 48.021 63.3013 48.415C63.5411 48.809 63.661 49.2456 63.661 49.7247C63.661 50.2082 63.5411 50.6492 63.3013 51.0477C63.0661 51.4417 62.7449 51.7552 62.3377 51.988C61.935 52.2208 61.4849 52.3372 60.9872 52.3372ZM60.9872 51.0612C61.2451 51.0612 61.4758 51.0052 61.6794 50.8933C61.883 50.7768 62.0414 50.6179 62.1545 50.4164C62.2676 50.2149 62.3241 49.9843 62.3241 49.7247C62.3241 49.3351 62.1997 49.0195 61.9509 48.7777C61.702 48.5314 61.3808 48.4083 60.9872 48.4083C60.7203 48.4083 60.485 48.4643 60.2815 48.5762C60.0824 48.6837 59.9263 48.8381 59.8132 49.0396C59.7001 49.2366 59.6436 49.465 59.6436 49.7247C59.6436 50.1142 59.768 50.4343 60.0168 50.6851C60.2656 50.9358 60.5891 51.0612 60.9872 51.0612Z" fill="url(#paint19_linear_4366_54329)"/>
</g>
</g>
</g>
<g id="Ellipse 255" opacity="0.1" filter="url(#filter1_f_4366_54329)">
<ellipse cx="26.2058" cy="27.4227" rx="10" ry="7" transform="rotate(-34.3463 26.2058 27.4227)" fill="white"/>
</g>
</g>
<defs>
<filter id="filter0_i_4366_54329" x="12" y="12" width="72" height="74" filterUnits="userSpaceOnUse" color-interpolation-filters="sRGB">
<feFlood flood-opacity="0" result="BackgroundImageFix"/>
<feBlend mode="normal" in="SourceGraphic" in2="BackgroundImageFix" result="shape"/>
<feColorMatrix in="SourceAlpha" type="matrix" values="0 0 0 0 0 0 0 0 0 0 0 0 0 0 0 0 0 0 127 0" result="hardAlpha"/>
<feOffset dy="2"/>
<feGaussianBlur stdDeviation="1.5"/>
<feComposite in2="hardAlpha" operator="arithmetic" k2="-1" k3="1"/>
<feColorMatrix type="matrix" values="0 0 0 0 1 0 0 0 0 1 0 0 0 0 1 0 0 0 0.75 0"/>
<feBlend mode="normal" in2="shape" result="effect1_innerShadow_4366_54329"/>
</filter>
<filter id="filter1_f_4366_54329" x="11.0508" y="13.3462" width="30.3086" height="28.1533" filterUnits="userSpaceOnUse" color-interpolation-filters="sRGB">
<feFlood flood-opacity="0" result="BackgroundImageFix"/>
<feBlend mode="normal" in="SourceGraphic" in2="BackgroundImageFix" result="shape"/>
<feGaussianBlur stdDeviation="3" result="effect1_foregroundBlur_4366_54329"/>
</filter>
<linearGradient id="paint0_linear_4366_54329" x1="19.4999" y1="12" x2="58.3791" y2="81.6737" gradientUnits="userSpaceOnUse">
<stop stop-color="#2A94F1"/>
<stop offset="0.520833" stop-color="#2ABDD2"/>
<stop offset="1" stop-color="#49F7C8"/>
</linearGradient>
<linearGradient id="paint1_linear_4366_54329" x1="13.5003" y1="11.4998" x2="64.0203" y2="92.2235" gradientUnits="userSpaceOnUse">
<stop stop-color="#4C7AD3"/>
<stop offset="0.0001" stop-color="#1B289A"/>
<stop offset="1" stop-color="#0E91BD"/>
</linearGradient>
<linearGradient id="paint2_linear_4366_54329" x1="57.3545" y1="83.9639" x2="-2.94616" y2="28.1467" gradientUnits="userSpaceOnUse">
<stop stop-color="#1679C6"/>
<stop offset="1" stop-color="#5D94DC"/>
</linearGradient>
<linearGradient id="paint3_linear_4366_54329" x1="-32.2353" y1="12" x2="86.3872" y2="17.8855" gradientUnits="userSpaceOnUse">
<stop stop-color="#5FB847"/>
<stop offset="0.427083" stop-color="#72BE44"/>
<stop offset="0.973958" stop-color="#8BDF58"/>
</linearGradient>
<linearGradient id="paint4_linear_4366_54329" x1="14" y1="11" x2="69.5" y2="78" gradientUnits="userSpaceOnUse">
<stop offset="0.00200455" stop-color="#E6E6E6"/>
<stop offset="0.463542" stop-color="white" stop-opacity="0.47491"/>
<stop offset="1" stop-color="#E6E6E6" stop-opacity="0.57"/>
</linearGradient>
<linearGradient id="paint5_linear_4366_54329" x1="47.3522" y1="23.8294" x2="49.763" y2="79.462" gradientUnits="userSpaceOnUse">
<stop stop-color="#0372F2"/>
<stop offset="1" stop-color="#61C2EE"/>
</linearGradient>
<linearGradient id="paint6_linear_4366_54329" x1="34.0003" y1="39.0016" x2="47.1785" y2="67.2955" gradientUnits="userSpaceOnUse">
<stop stop-color="#4C7AD3"/>
<stop offset="0.505208" stop-color="#7AAEEA"/>
<stop offset="1" stop-color="#A17EFE"/>
</linearGradient>
<linearGradient id="paint7_linear_4366_54329" x1="52.6824" y1="52.4397" x2="51.4975" y2="39.9235" gradientUnits="userSpaceOnUse">
<stop stop-color="#1679C6"/>
<stop offset="1" stop-color="#5D94DC"/>
</linearGradient>
<linearGradient id="paint8_linear_4366_54329" x1="15.7786" y1="42.5586" x2="63.7002" y2="49.6915" gradientUnits="userSpaceOnUse">
<stop stop-color="#5FB847"/>
<stop offset="0.427083" stop-color="#72BE44"/>
<stop offset="0.973958" stop-color="#8BDF58"/>
</linearGradient>
<linearGradient id="paint9_linear_4366_54329" x1="47.3522" y1="23.8294" x2="49.763" y2="79.462" gradientUnits="userSpaceOnUse">
<stop stop-color="#0372F2"/>
<stop offset="1" stop-color="#61C2EE"/>
</linearGradient>
<linearGradient id="paint10_linear_4366_54329" x1="34.0003" y1="39.0016" x2="47.1785" y2="67.2955" gradientUnits="userSpaceOnUse">
<stop stop-color="#4C7AD3"/>
<stop offset="0.505208" stop-color="#7AAEEA"/>
<stop offset="1" stop-color="#A17EFE"/>
</linearGradient>
<linearGradient id="paint11_linear_4366_54329" x1="52.6824" y1="52.4397" x2="51.4975" y2="39.9235" gradientUnits="userSpaceOnUse">
<stop stop-color="#1679C6"/>
<stop offset="1" stop-color="#5D94DC"/>
</linearGradient>
<linearGradient id="paint12_linear_4366_54329" x1="15.7786" y1="42.5586" x2="63.7002" y2="49.6915" gradientUnits="userSpaceOnUse">
<stop stop-color="#5FB847"/>
<stop offset="0.427083" stop-color="#72BE44"/>
<stop offset="0.973958" stop-color="#8BDF58"/>
</linearGradient>
<linearGradient id="paint13_linear_4366_54329" x1="47.3522" y1="23.8294" x2="49.763" y2="79.462" gradientUnits="userSpaceOnUse">
<stop stop-color="#0372F2"/>
<stop offset="1" stop-color="#61C2EE"/>
</linearGradient>
<linearGradient id="paint14_linear_4366_54329" x1="34.0003" y1="39.0016" x2="47.1785" y2="67.2955" gradientUnits="userSpaceOnUse">
<stop stop-color="#4C7AD3"/>
<stop offset="0.505208" stop-color="#7AAEEA"/>
<stop offset="1" stop-color="#A17EFE"/>
</linearGradient>
<linearGradient id="paint15_linear_4366_54329" x1="52.6824" y1="52.4397" x2="51.4975" y2="39.9235" gradientUnits="userSpaceOnUse">
<stop stop-color="#1679C6"/>
<stop offset="1" stop-color="#5D94DC"/>
</linearGradient>
<linearGradient id="paint16_linear_4366_54329" x1="15.7786" y1="42.5586" x2="63.7002" y2="49.6915" gradientUnits="userSpaceOnUse">
<stop stop-color="#5FB847"/>
<stop offset="0.427083" stop-color="#72BE44"/>
<stop offset="0.973958" stop-color="#8BDF58"/>
</linearGradient>
<linearGradient id="paint17_linear_4366_54329" x1="47.354" y1="23.8294" x2="49.7648" y2="79.4621" gradientUnits="userSpaceOnUse">
<stop stop-color="#0372F2"/>
<stop offset="1" stop-color="#61C2EE"/>
</linearGradient>
<linearGradient id="paint18_linear_4366_54329" x1="58.721" y1="52.4397" x2="56.1772" y2="40.3464" gradientUnits="userSpaceOnUse">
<stop stop-color="#1679C6"/>
<stop offset="1" stop-color="#5D94DC"/>
</linearGradient>
<linearGradient id="paint19_linear_4366_54329" x1="42.1115" y1="42.5586" x2="64.0592" y2="44.0289" gradientUnits="userSpaceOnUse">
<stop stop-color="#5FB847"/>
<stop offset="0.427083" stop-color="#72BE44"/>
<stop offset="0.973958" stop-color="#8BDF58"/>
</linearGradient>
</defs>
</svg>
