<svg width="98" height="98" viewBox="0 0 98 98" fill="none" xmlns="http://www.w3.org/2000/svg">
<g id="NO HEAT REMOVAL REQUIRED green">
<g id="Body">
<g id="border">
<path d="M55.4491 56.3468V57.1255L56.0859 57.5735C59.6145 60.0564 61.9156 64.1555 61.9156 68.7921C61.9156 76.3628 55.7784 82.5 48.2079 82.5C40.6372 82.5 34.5 76.3628 34.5 68.7921C34.5 64.1554 36.8007 60.0564 40.3297 57.5736L40.9666 57.1255V56.3468V20.7413C40.9666 16.7417 44.2084 13.5 48.2079 13.5C52.2069 13.5 55.4491 16.7418 55.4491 20.7413V56.3468Z" fill="#72BE44"/>
<path d="M55.4491 56.3468V57.1255L56.0859 57.5735C59.6145 60.0564 61.9156 64.1555 61.9156 68.7921C61.9156 76.3628 55.7784 82.5 48.2079 82.5C40.6372 82.5 34.5 76.3628 34.5 68.7921C34.5 64.1554 36.8007 60.0564 40.3297 57.5736L40.9666 57.1255V56.3468V20.7413C40.9666 16.7417 44.2084 13.5 48.2079 13.5C52.2069 13.5 55.4491 16.7418 55.4491 20.7413V56.3468Z" stroke="#7196E6" stroke-width="3"/>
<path d="M55.4491 56.3468V57.1255L56.0859 57.5735C59.6145 60.0564 61.9156 64.1555 61.9156 68.7921C61.9156 76.3628 55.7784 82.5 48.2079 82.5C40.6372 82.5 34.5 76.3628 34.5 68.7921C34.5 64.1554 36.8007 60.0564 40.3297 57.5736L40.9666 57.1255V56.3468V20.7413C40.9666 16.7417 44.2084 13.5 48.2079 13.5C52.2069 13.5 55.4491 16.7418 55.4491 20.7413V56.3468Z" stroke="url(#paint0_linear_4366_54567)" stroke-width="3"/>
<path d="M55.4491 56.3468V57.1255L56.0859 57.5735C59.6145 60.0564 61.9156 64.1555 61.9156 68.7921C61.9156 76.3628 55.7784 82.5 48.2079 82.5C40.6372 82.5 34.5 76.3628 34.5 68.7921C34.5 64.1554 36.8007 60.0564 40.3297 57.5736L40.9666 57.1255V56.3468V20.7413C40.9666 16.7417 44.2084 13.5 48.2079 13.5C52.2069 13.5 55.4491 16.7418 55.4491 20.7413V56.3468Z" stroke="url(#paint1_linear_4366_54567)" stroke-width="3"/>
</g>
<path id="Fill" d="M48.2296 79.0179C42.4381 79.0179 37.7266 74.3058 37.7266 68.515C37.7266 64.1171 40.4595 60.2015 44.5601 58.6741V20.7398C44.5601 18.7162 46.2058 17.0703 48.2296 17.0703C50.2526 17.0703 51.8989 18.7162 51.8989 20.7398V58.6739C55.9991 60.2011 58.7324 64.1165 58.7324 68.5145C58.7324 74.3058 54.0209 79.0179 48.2296 79.0179Z" fill="#DFEDFF"/>
<g id="inner">
<path d="M44.5601 27.4492V58.674C40.4595 60.2012 37.7266 64.1166 37.7266 68.5145C37.7266 74.3059 42.4381 79.0174 48.2296 79.0174C54.0209 79.0174 58.7324 74.3059 58.7324 68.5145C58.7324 64.1166 55.9991 60.2011 51.8989 58.674V27.4492H44.5601Z" fill="#FC4E51"/>
<path d="M44.5601 27.4492V58.674C40.4595 60.2012 37.7266 64.1166 37.7266 68.5145C37.7266 74.3059 42.4381 79.0174 48.2296 79.0174C54.0209 79.0174 58.7324 74.3059 58.7324 68.5145C58.7324 64.1166 55.9991 60.2011 51.8989 58.674V27.4492H44.5601Z" fill="url(#paint2_linear_4366_54567)"/>
<path d="M44.5601 27.4492V58.674C40.4595 60.2012 37.7266 64.1166 37.7266 68.5145C37.7266 74.3059 42.4381 79.0174 48.2296 79.0174C54.0209 79.0174 58.7324 74.3059 58.7324 68.5145C58.7324 64.1166 55.9991 60.2011 51.8989 58.674V27.4492H44.5601Z" fill="url(#paint3_linear_4366_54567)"/>
<path d="M44.5601 27.4492V58.674C40.4595 60.2012 37.7266 64.1166 37.7266 68.5145C37.7266 74.3059 42.4381 79.0174 48.2296 79.0174C54.0209 79.0174 58.7324 74.3059 58.7324 68.5145C58.7324 64.1166 55.9991 60.2011 51.8989 58.674V27.4492H44.5601Z" fill="url(#paint4_linear_4366_54567)"/>
<path d="M44.5601 27.4492V58.674C40.4595 60.2012 37.7266 64.1166 37.7266 68.5145C37.7266 74.3059 42.4381 79.0174 48.2296 79.0174C54.0209 79.0174 58.7324 74.3059 58.7324 68.5145C58.7324 64.1166 55.9991 60.2011 51.8989 58.674V27.4492H44.5601Z" fill="url(#paint5_linear_4366_54567)"/>
<path d="M44.5601 27.4492V58.674C40.4595 60.2012 37.7266 64.1166 37.7266 68.5145C37.7266 74.3059 42.4381 79.0174 48.2296 79.0174C54.0209 79.0174 58.7324 74.3059 58.7324 68.5145C58.7324 64.1166 55.9991 60.2011 51.8989 58.674V27.4492H44.5601Z" fill="url(#paint6_linear_4366_54567)"/>
<path d="M44.5601 27.4492V58.674C40.4595 60.2012 37.7266 64.1166 37.7266 68.5145C37.7266 74.3059 42.4381 79.0174 48.2296 79.0174C54.0209 79.0174 58.7324 74.3059 58.7324 68.5145C58.7324 64.1166 55.9991 60.2011 51.8989 58.674V27.4492H44.5601Z" fill="url(#paint7_linear_4366_54567)"/>
</g>
<g id="Lines">
<g id="Vector">
<path d="M69.0775 37.344H62.7741C62.6314 37.344 62.4901 37.3159 62.3583 37.2613C62.2265 37.2066 62.1067 37.1266 62.0058 37.0257C61.9049 36.9248 61.8249 36.805 61.7703 36.6732C61.7157 36.5413 61.6876 36.4001 61.6876 36.2574C61.6876 35.9692 61.8021 35.6929 62.0059 35.4891C62.2096 35.2854 62.486 35.1709 62.7741 35.1709H69.0775C69.3656 35.171 69.6419 35.2855 69.8457 35.4892C70.0495 35.6929 70.164 35.9692 70.1641 36.2574C70.164 36.5455 70.0495 36.8219 69.8458 37.0256C69.642 37.2294 69.3657 37.3439 69.0775 37.344ZM65.6361 28.5379H62.774C62.1735 28.5379 61.6875 28.0512 61.6875 27.4513C61.6875 26.8514 62.1736 26.3648 62.774 26.3648H65.636C66.2357 26.3648 66.7224 26.8514 66.7224 27.4513C66.7224 28.0512 66.2359 28.5379 65.636 28.5379H65.6361ZM66.6502 19.7318H62.774C62.1735 19.7318 61.6875 19.2451 61.6875 18.6452C61.6875 18.0453 62.1736 17.5586 62.774 17.5586H66.65C67.2505 17.5586 67.7365 18.0453 67.7365 18.6452C67.7365 19.2451 67.2503 19.7318 66.65 19.7318H66.6502ZM66.6502 54.956H62.774C62.4858 54.956 62.2095 54.8415 62.0057 54.6378C61.802 54.434 61.6875 54.1577 61.6875 53.8695C61.6875 53.7268 61.7155 53.5855 61.7701 53.4537C61.8247 53.3219 61.9047 53.2021 62.0056 53.1012C62.1065 53.0003 62.2263 52.9203 62.3582 52.8657C62.49 52.8111 62.6313 52.783 62.774 52.7831H66.65C66.7927 52.783 66.934 52.8111 67.0658 52.8657C67.1977 52.9203 67.3175 53.0003 67.4184 53.1012C67.5192 53.2021 67.5993 53.3219 67.6539 53.4537C67.7084 53.5855 67.7365 53.7268 67.7365 53.8695C67.7365 54.0122 67.7084 54.1535 67.6538 54.2853C67.5992 54.4172 67.5192 54.537 67.4183 54.6379C67.3174 54.7388 67.1976 54.8188 67.0658 54.8734C66.934 54.928 66.7927 54.9561 66.65 54.9561L66.6502 54.956ZM65.6361 46.15H62.774C62.1735 46.15 61.6875 45.6633 61.6875 45.0634C61.6875 44.4635 62.1736 43.977 62.774 43.977H65.636C66.2357 43.977 66.7224 44.4635 66.7224 45.0634C66.7224 45.6633 66.2359 46.15 65.636 46.15H65.6361Z" fill="#0D6E9A"/>
<path d="M69.0775 37.344H62.7741C62.6314 37.344 62.4901 37.3159 62.3583 37.2613C62.2265 37.2066 62.1067 37.1266 62.0058 37.0257C61.9049 36.9248 61.8249 36.805 61.7703 36.6732C61.7157 36.5413 61.6876 36.4001 61.6876 36.2574C61.6876 35.9692 61.8021 35.6929 62.0059 35.4891C62.2096 35.2854 62.486 35.1709 62.7741 35.1709H69.0775C69.3656 35.171 69.6419 35.2855 69.8457 35.4892C70.0495 35.6929 70.164 35.9692 70.1641 36.2574C70.164 36.5455 70.0495 36.8219 69.8458 37.0256C69.642 37.2294 69.3657 37.3439 69.0775 37.344ZM65.6361 28.5379H62.774C62.1735 28.5379 61.6875 28.0512 61.6875 27.4513C61.6875 26.8514 62.1736 26.3648 62.774 26.3648H65.636C66.2357 26.3648 66.7224 26.8514 66.7224 27.4513C66.7224 28.0512 66.2359 28.5379 65.636 28.5379H65.6361ZM66.6502 19.7318H62.774C62.1735 19.7318 61.6875 19.2451 61.6875 18.6452C61.6875 18.0453 62.1736 17.5586 62.774 17.5586H66.65C67.2505 17.5586 67.7365 18.0453 67.7365 18.6452C67.7365 19.2451 67.2503 19.7318 66.65 19.7318H66.6502ZM66.6502 54.956H62.774C62.4858 54.956 62.2095 54.8415 62.0057 54.6378C61.802 54.434 61.6875 54.1577 61.6875 53.8695C61.6875 53.7268 61.7155 53.5855 61.7701 53.4537C61.8247 53.3219 61.9047 53.2021 62.0056 53.1012C62.1065 53.0003 62.2263 52.9203 62.3582 52.8657C62.49 52.8111 62.6313 52.783 62.774 52.7831H66.65C66.7927 52.783 66.934 52.8111 67.0658 52.8657C67.1977 52.9203 67.3175 53.0003 67.4184 53.1012C67.5192 53.2021 67.5993 53.3219 67.6539 53.4537C67.7084 53.5855 67.7365 53.7268 67.7365 53.8695C67.7365 54.0122 67.7084 54.1535 67.6538 54.2853C67.5992 54.4172 67.5192 54.537 67.4183 54.6379C67.3174 54.7388 67.1976 54.8188 67.0658 54.8734C66.934 54.928 66.7927 54.9561 66.65 54.9561L66.6502 54.956ZM65.6361 46.15H62.774C62.1735 46.15 61.6875 45.6633 61.6875 45.0634C61.6875 44.4635 62.1736 43.977 62.774 43.977H65.636C66.2357 43.977 66.7224 44.4635 66.7224 45.0634C66.7224 45.6633 66.2359 46.15 65.636 46.15H65.6361Z" fill="url(#paint8_linear_4366_54567)"/>
<path d="M69.0775 37.344H62.7741C62.6314 37.344 62.4901 37.3159 62.3583 37.2613C62.2265 37.2066 62.1067 37.1266 62.0058 37.0257C61.9049 36.9248 61.8249 36.805 61.7703 36.6732C61.7157 36.5413 61.6876 36.4001 61.6876 36.2574C61.6876 35.9692 61.8021 35.6929 62.0059 35.4891C62.2096 35.2854 62.486 35.1709 62.7741 35.1709H69.0775C69.3656 35.171 69.6419 35.2855 69.8457 35.4892C70.0495 35.6929 70.164 35.9692 70.1641 36.2574C70.164 36.5455 70.0495 36.8219 69.8458 37.0256C69.642 37.2294 69.3657 37.3439 69.0775 37.344ZM65.6361 28.5379H62.774C62.1735 28.5379 61.6875 28.0512 61.6875 27.4513C61.6875 26.8514 62.1736 26.3648 62.774 26.3648H65.636C66.2357 26.3648 66.7224 26.8514 66.7224 27.4513C66.7224 28.0512 66.2359 28.5379 65.636 28.5379H65.6361ZM66.6502 19.7318H62.774C62.1735 19.7318 61.6875 19.2451 61.6875 18.6452C61.6875 18.0453 62.1736 17.5586 62.774 17.5586H66.65C67.2505 17.5586 67.7365 18.0453 67.7365 18.6452C67.7365 19.2451 67.2503 19.7318 66.65 19.7318H66.6502ZM66.6502 54.956H62.774C62.4858 54.956 62.2095 54.8415 62.0057 54.6378C61.802 54.434 61.6875 54.1577 61.6875 53.8695C61.6875 53.7268 61.7155 53.5855 61.7701 53.4537C61.8247 53.3219 61.9047 53.2021 62.0056 53.1012C62.1065 53.0003 62.2263 52.9203 62.3582 52.8657C62.49 52.8111 62.6313 52.783 62.774 52.7831H66.65C66.7927 52.783 66.934 52.8111 67.0658 52.8657C67.1977 52.9203 67.3175 53.0003 67.4184 53.1012C67.5192 53.2021 67.5993 53.3219 67.6539 53.4537C67.7084 53.5855 67.7365 53.7268 67.7365 53.8695C67.7365 54.0122 67.7084 54.1535 67.6538 54.2853C67.5992 54.4172 67.5192 54.537 67.4183 54.6379C67.3174 54.7388 67.1976 54.8188 67.0658 54.8734C66.934 54.928 66.7927 54.9561 66.65 54.9561L66.6502 54.956ZM65.6361 46.15H62.774C62.1735 46.15 61.6875 45.6633 61.6875 45.0634C61.6875 44.4635 62.1736 43.977 62.774 43.977H65.636C66.2357 43.977 66.7224 44.4635 66.7224 45.0634C66.7224 45.6633 66.2359 46.15 65.636 46.15H65.6361Z" fill="url(#paint9_linear_4366_54567)"/>
<path d="M69.0775 37.344H62.7741C62.6314 37.344 62.4901 37.3159 62.3583 37.2613C62.2265 37.2066 62.1067 37.1266 62.0058 37.0257C61.9049 36.9248 61.8249 36.805 61.7703 36.6732C61.7157 36.5413 61.6876 36.4001 61.6876 36.2574C61.6876 35.9692 61.8021 35.6929 62.0059 35.4891C62.2096 35.2854 62.486 35.1709 62.7741 35.1709H69.0775C69.3656 35.171 69.6419 35.2855 69.8457 35.4892C70.0495 35.6929 70.164 35.9692 70.1641 36.2574C70.164 36.5455 70.0495 36.8219 69.8458 37.0256C69.642 37.2294 69.3657 37.3439 69.0775 37.344ZM65.6361 28.5379H62.774C62.1735 28.5379 61.6875 28.0512 61.6875 27.4513C61.6875 26.8514 62.1736 26.3648 62.774 26.3648H65.636C66.2357 26.3648 66.7224 26.8514 66.7224 27.4513C66.7224 28.0512 66.2359 28.5379 65.636 28.5379H65.6361ZM66.6502 19.7318H62.774C62.1735 19.7318 61.6875 19.2451 61.6875 18.6452C61.6875 18.0453 62.1736 17.5586 62.774 17.5586H66.65C67.2505 17.5586 67.7365 18.0453 67.7365 18.6452C67.7365 19.2451 67.2503 19.7318 66.65 19.7318H66.6502ZM66.6502 54.956H62.774C62.4858 54.956 62.2095 54.8415 62.0057 54.6378C61.802 54.434 61.6875 54.1577 61.6875 53.8695C61.6875 53.7268 61.7155 53.5855 61.7701 53.4537C61.8247 53.3219 61.9047 53.2021 62.0056 53.1012C62.1065 53.0003 62.2263 52.9203 62.3582 52.8657C62.49 52.8111 62.6313 52.783 62.774 52.7831H66.65C66.7927 52.783 66.934 52.8111 67.0658 52.8657C67.1977 52.9203 67.3175 53.0003 67.4184 53.1012C67.5192 53.2021 67.5993 53.3219 67.6539 53.4537C67.7084 53.5855 67.7365 53.7268 67.7365 53.8695C67.7365 54.0122 67.7084 54.1535 67.6538 54.2853C67.5992 54.4172 67.5192 54.537 67.4183 54.6379C67.3174 54.7388 67.1976 54.8188 67.0658 54.8734C66.934 54.928 66.7927 54.9561 66.65 54.9561L66.6502 54.956ZM65.6361 46.15H62.774C62.1735 46.15 61.6875 45.6633 61.6875 45.0634C61.6875 44.4635 62.1736 43.977 62.774 43.977H65.636C66.2357 43.977 66.7224 44.4635 66.7224 45.0634C66.7224 45.6633 66.2359 46.15 65.636 46.15H65.6361Z" fill="url(#paint10_linear_4366_54567)"/>
<path d="M69.0775 37.344H62.7741C62.6314 37.344 62.4901 37.3159 62.3583 37.2613C62.2265 37.2066 62.1067 37.1266 62.0058 37.0257C61.9049 36.9248 61.8249 36.805 61.7703 36.6732C61.7157 36.5413 61.6876 36.4001 61.6876 36.2574C61.6876 35.9692 61.8021 35.6929 62.0059 35.4891C62.2096 35.2854 62.486 35.1709 62.7741 35.1709H69.0775C69.3656 35.171 69.6419 35.2855 69.8457 35.4892C70.0495 35.6929 70.164 35.9692 70.1641 36.2574C70.164 36.5455 70.0495 36.8219 69.8458 37.0256C69.642 37.2294 69.3657 37.3439 69.0775 37.344ZM65.6361 28.5379H62.774C62.1735 28.5379 61.6875 28.0512 61.6875 27.4513C61.6875 26.8514 62.1736 26.3648 62.774 26.3648H65.636C66.2357 26.3648 66.7224 26.8514 66.7224 27.4513C66.7224 28.0512 66.2359 28.5379 65.636 28.5379H65.6361ZM66.6502 19.7318H62.774C62.1735 19.7318 61.6875 19.2451 61.6875 18.6452C61.6875 18.0453 62.1736 17.5586 62.774 17.5586H66.65C67.2505 17.5586 67.7365 18.0453 67.7365 18.6452C67.7365 19.2451 67.2503 19.7318 66.65 19.7318H66.6502ZM66.6502 54.956H62.774C62.4858 54.956 62.2095 54.8415 62.0057 54.6378C61.802 54.434 61.6875 54.1577 61.6875 53.8695C61.6875 53.7268 61.7155 53.5855 61.7701 53.4537C61.8247 53.3219 61.9047 53.2021 62.0056 53.1012C62.1065 53.0003 62.2263 52.9203 62.3582 52.8657C62.49 52.8111 62.6313 52.783 62.774 52.7831H66.65C66.7927 52.783 66.934 52.8111 67.0658 52.8657C67.1977 52.9203 67.3175 53.0003 67.4184 53.1012C67.5192 53.2021 67.5993 53.3219 67.6539 53.4537C67.7084 53.5855 67.7365 53.7268 67.7365 53.8695C67.7365 54.0122 67.7084 54.1535 67.6538 54.2853C67.5992 54.4172 67.5192 54.537 67.4183 54.6379C67.3174 54.7388 67.1976 54.8188 67.0658 54.8734C66.934 54.928 66.7927 54.9561 66.65 54.9561L66.6502 54.956ZM65.6361 46.15H62.774C62.1735 46.15 61.6875 45.6633 61.6875 45.0634C61.6875 44.4635 62.1736 43.977 62.774 43.977H65.636C66.2357 43.977 66.7224 44.4635 66.7224 45.0634C66.7224 45.6633 66.2359 46.15 65.636 46.15H65.6361Z" fill="url(#paint11_linear_4366_54567)"/>
</g>
</g>
</g>
<g id="drop" opacity="0.8">
<path d="M48.625 60.3711L43.9702 65.0259C41.623 67.3731 41.623 71.1786 43.9702 73.5259C46.3174 75.8731 50.123 75.8731 52.4702 73.5259L52.6726 73.3235C55.1316 70.8645 55.1316 66.8777 52.6726 64.4187L48.625 60.3711Z" fill="url(#paint12_linear_4366_54567)"/>
<path d="M48.625 60.3711L43.9702 65.0259C41.623 67.3731 41.623 71.1786 43.9702 73.5259C46.3174 75.8731 50.123 75.8731 52.4702 73.5259L52.6726 73.3235C55.1316 70.8645 55.1316 66.8777 52.6726 64.4187L48.625 60.3711Z" fill="url(#paint13_linear_4366_54567)"/>
<path d="M48.625 60.3711L43.9702 65.0259C41.623 67.3731 41.623 71.1786 43.9702 73.5259C46.3174 75.8731 50.123 75.8731 52.4702 73.5259L52.6726 73.3235C55.1316 70.8645 55.1316 66.8777 52.6726 64.4187L48.625 60.3711Z" fill="url(#paint14_linear_4366_54567)"/>
</g>
</g>
<defs>
<linearGradient id="paint0_linear_4366_54567" x1="51.5" y1="2.5" x2="68.7645" y2="31.5517" gradientUnits="userSpaceOnUse">
<stop stop-color="#1679C6"/>
<stop offset="1" stop-color="#5D94DC"/>
</linearGradient>
<linearGradient id="paint1_linear_4366_54567" x1="-23.5" y1="22" x2="39.6238" y2="-0.562683" gradientUnits="userSpaceOnUse">
<stop stop-color="#5FB847"/>
<stop offset="0.427083" stop-color="#72BE44"/>
<stop offset="0.973958" stop-color="#8BDF58"/>
</linearGradient>
<linearGradient id="paint2_linear_4366_54567" x1="43.5762" y1="27.4492" x2="76.0013" y2="61.5538" gradientUnits="userSpaceOnUse">
<stop stop-color="#26B189"/>
<stop offset="1" stop-color="#49F7C8"/>
</linearGradient>
<linearGradient id="paint3_linear_4366_54567" x1="43.9361" y1="28.2548" x2="76.5128" y2="62.4239" gradientUnits="userSpaceOnUse">
<stop stop-color="#4C7AD3"/>
<stop offset="0.505208" stop-color="#7AAEEA"/>
<stop offset="1" stop-color="#7172E6"/>
</linearGradient>
<linearGradient id="paint4_linear_4366_54567" x1="43.9361" y1="28.2548" x2="76.5128" y2="62.4239" gradientUnits="userSpaceOnUse">
<stop stop-color="#4C7AD3"/>
<stop offset="0.505208" stop-color="#7AAEEA"/>
<stop offset="1" stop-color="#A17EFE"/>
</linearGradient>
<linearGradient id="paint5_linear_4366_54567" x1="38.1643" y1="27.091" x2="74.9505" y2="51.0342" gradientUnits="userSpaceOnUse">
<stop stop-color="#4C7AD3"/>
<stop offset="0.0001" stop-color="#1B289A"/>
<stop offset="1" stop-color="#0E91BD"/>
</linearGradient>
<linearGradient id="paint6_linear_4366_54567" x1="50.9587" y1="78.9916" x2="20.0534" y2="34.6673" gradientUnits="userSpaceOnUse">
<stop stop-color="#1679C6"/>
<stop offset="1" stop-color="#5D94DC"/>
</linearGradient>
<linearGradient id="paint7_linear_4366_54567" x1="24.821" y1="27.4492" x2="59.4999" y2="28.1501" gradientUnits="userSpaceOnUse">
<stop stop-color="#5FB847"/>
<stop offset="0.427083" stop-color="#72BE44"/>
<stop offset="0.973958" stop-color="#8BDF58"/>
</linearGradient>
<linearGradient id="paint8_linear_4366_54567" x1="64.048" y1="17.5586" x2="84.5763" y2="29.573" gradientUnits="userSpaceOnUse">
<stop stop-color="#5888D9"/>
<stop offset="1" stop-color="#85A1F0"/>
</linearGradient>
<linearGradient id="paint9_linear_4366_54567" x1="61.8641" y1="17.2988" x2="80.5468" y2="24.0651" gradientUnits="userSpaceOnUse">
<stop stop-color="#4C7AD3"/>
<stop offset="0.0001" stop-color="#1B289A"/>
<stop offset="1" stop-color="#0E91BD"/>
</linearGradient>
<linearGradient id="paint10_linear_4366_54567" x1="67.0271" y1="54.9374" x2="43.7365" y2="36.3504" gradientUnits="userSpaceOnUse">
<stop stop-color="#1679C6"/>
<stop offset="1" stop-color="#5D94DC"/>
</linearGradient>
<linearGradient id="paint11_linear_4366_54567" x1="56.4797" y1="17.5586" x2="70.4778" y2="17.716" gradientUnits="userSpaceOnUse">
<stop stop-color="#5FB847"/>
<stop offset="0.427083" stop-color="#72BE44"/>
<stop offset="0.973958" stop-color="#8BDF58"/>
</linearGradient>
<linearGradient id="paint12_linear_4366_54567" x1="46.9086" y1="63.7254" x2="51.2213" y2="73.7884" gradientUnits="userSpaceOnUse">
<stop stop-color="#28A6D0"/>
<stop offset="1" stop-color="#2337ED"/>
</linearGradient>
<linearGradient id="paint13_linear_4366_54567" x1="49.4962" y1="50.5" x2="46.4" y2="60.713" gradientUnits="userSpaceOnUse">
<stop stop-color="#1679C6"/>
<stop offset="1" stop-color="#5D94DC"/>
</linearGradient>
<linearGradient id="paint14_linear_4366_54567" x1="50.4961" y1="75.5" x2="53.3645" y2="47.0976" gradientUnits="userSpaceOnUse">
<stop stop-color="#5FB847"/>
<stop offset="0.427083" stop-color="#72BE44"/>
<stop offset="0.973958" stop-color="#8BDF58"/>
</linearGradient>
</defs>
</svg>
