<svg width="98" height="98" viewBox="0 0 98 98" fill="none" xmlns="http://www.w3.org/2000/svg">
<g id="NO HEAT REMOVAL REQUIRED">
<g id="Body">
<g id="border">
<path d="M58.4491 56.3468V57.1255L59.0859 57.5735C62.6145 60.0564 64.9156 64.1555 64.9156 68.7921C64.9156 76.3628 58.7784 82.5 51.2079 82.5C43.6372 82.5 37.5 76.3628 37.5 68.7921C37.5 64.1554 39.8007 60.0564 43.3297 57.5736L43.9666 57.1255V56.3468V20.7413C43.9666 16.7417 47.2084 13.5 51.2079 13.5C55.2069 13.5 58.4491 16.7418 58.4491 20.7413V56.3468Z" fill="#1679C6"/>
<path d="M58.4491 56.3468V57.1255L59.0859 57.5735C62.6145 60.0564 64.9156 64.1555 64.9156 68.7921C64.9156 76.3628 58.7784 82.5 51.2079 82.5C43.6372 82.5 37.5 76.3628 37.5 68.7921C37.5 64.1554 39.8007 60.0564 43.3297 57.5736L43.9666 57.1255V56.3468V20.7413C43.9666 16.7417 47.2084 13.5 51.2079 13.5C55.2069 13.5 58.4491 16.7418 58.4491 20.7413V56.3468Z" stroke="#7196E6" stroke-width="3"/>
<path d="M58.4491 56.3468V57.1255L59.0859 57.5735C62.6145 60.0564 64.9156 64.1555 64.9156 68.7921C64.9156 76.3628 58.7784 82.5 51.2079 82.5C43.6372 82.5 37.5 76.3628 37.5 68.7921C37.5 64.1554 39.8007 60.0564 43.3297 57.5736L43.9666 57.1255V56.3468V20.7413C43.9666 16.7417 47.2084 13.5 51.2079 13.5C55.2069 13.5 58.4491 16.7418 58.4491 20.7413V56.3468Z" stroke="url(#paint0_linear_4366_54037)" stroke-width="3"/>
</g>
<path id="Fill" d="M51.2296 79.0179C45.4381 79.0179 40.7266 74.3058 40.7266 68.515C40.7266 64.1171 43.4595 60.2015 47.5601 58.6741V20.7398C47.5601 18.7162 49.2058 17.0703 51.2296 17.0703C53.2526 17.0703 54.8989 18.7162 54.8989 20.7398V58.6739C58.9991 60.2011 61.7324 64.1165 61.7324 68.5145C61.7324 74.3058 57.0209 79.0179 51.2296 79.0179Z" fill="#DFEDFF"/>
<g id="inner">
<path d="M47.5601 27.4492V58.674C43.4595 60.2012 40.7266 64.1166 40.7266 68.5145C40.7266 74.3059 45.4381 79.0174 51.2296 79.0174C57.0209 79.0174 61.7324 74.3059 61.7324 68.5145C61.7324 64.1166 58.9991 60.2011 54.8989 58.674V27.4492H47.5601Z" fill="#FC4E51"/>
<path d="M47.5601 27.4492V58.674C43.4595 60.2012 40.7266 64.1166 40.7266 68.5145C40.7266 74.3059 45.4381 79.0174 51.2296 79.0174C57.0209 79.0174 61.7324 74.3059 61.7324 68.5145C61.7324 64.1166 58.9991 60.2011 54.8989 58.674V27.4492H47.5601Z" fill="url(#paint1_linear_4366_54037)"/>
<path d="M47.5601 27.4492V58.674C43.4595 60.2012 40.7266 64.1166 40.7266 68.5145C40.7266 74.3059 45.4381 79.0174 51.2296 79.0174C57.0209 79.0174 61.7324 74.3059 61.7324 68.5145C61.7324 64.1166 58.9991 60.2011 54.8989 58.674V27.4492H47.5601Z" fill="url(#paint2_linear_4366_54037)"/>
<path d="M47.5601 27.4492V58.674C43.4595 60.2012 40.7266 64.1166 40.7266 68.5145C40.7266 74.3059 45.4381 79.0174 51.2296 79.0174C57.0209 79.0174 61.7324 74.3059 61.7324 68.5145C61.7324 64.1166 58.9991 60.2011 54.8989 58.674V27.4492H47.5601Z" fill="url(#paint3_linear_4366_54037)"/>
<path d="M47.5601 27.4492V58.674C43.4595 60.2012 40.7266 64.1166 40.7266 68.5145C40.7266 74.3059 45.4381 79.0174 51.2296 79.0174C57.0209 79.0174 61.7324 74.3059 61.7324 68.5145C61.7324 64.1166 58.9991 60.2011 54.8989 58.674V27.4492H47.5601Z" fill="url(#paint4_linear_4366_54037)"/>
<path d="M47.5601 27.4492V58.674C43.4595 60.2012 40.7266 64.1166 40.7266 68.5145C40.7266 74.3059 45.4381 79.0174 51.2296 79.0174C57.0209 79.0174 61.7324 74.3059 61.7324 68.5145C61.7324 64.1166 58.9991 60.2011 54.8989 58.674V27.4492H47.5601Z" fill="url(#paint5_linear_4366_54037)"/>
</g>
<g id="Lines">
<g id="Vector">
<path d="M72.0775 37.344H65.7741C65.6314 37.344 65.4901 37.3159 65.3583 37.2613C65.2265 37.2066 65.1067 37.1266 65.0058 37.0257C64.9049 36.9248 64.8249 36.805 64.7703 36.6732C64.7157 36.5413 64.6876 36.4001 64.6876 36.2574C64.6876 35.9692 64.8021 35.6929 65.0059 35.4891C65.2096 35.2854 65.486 35.1709 65.7741 35.1709H72.0775C72.3656 35.171 72.6419 35.2855 72.8457 35.4892C73.0495 35.6929 73.164 35.9692 73.1641 36.2574C73.164 36.5455 73.0495 36.8219 72.8458 37.0256C72.642 37.2294 72.3657 37.3439 72.0775 37.344ZM68.6361 28.5379H65.774C65.1735 28.5379 64.6875 28.0512 64.6875 27.4513C64.6875 26.8514 65.1736 26.3648 65.774 26.3648H68.636C69.2357 26.3648 69.7224 26.8514 69.7224 27.4513C69.7224 28.0512 69.2359 28.5379 68.636 28.5379H68.6361ZM69.6502 19.7318H65.774C65.1735 19.7318 64.6875 19.2451 64.6875 18.6452C64.6875 18.0453 65.1736 17.5586 65.774 17.5586H69.65C70.2505 17.5586 70.7365 18.0453 70.7365 18.6452C70.7365 19.2451 70.2503 19.7318 69.65 19.7318H69.6502ZM69.6502 54.956H65.774C65.4858 54.956 65.2095 54.8415 65.0057 54.6378C64.802 54.434 64.6875 54.1577 64.6875 53.8695C64.6875 53.7268 64.7155 53.5855 64.7701 53.4537C64.8247 53.3219 64.9047 53.2021 65.0056 53.1012C65.1065 53.0003 65.2263 52.9203 65.3582 52.8657C65.49 52.8111 65.6313 52.783 65.774 52.7831H69.65C69.7927 52.783 69.934 52.8111 70.0658 52.8657C70.1977 52.9203 70.3175 53.0003 70.4184 53.1012C70.5192 53.2021 70.5993 53.3219 70.6539 53.4537C70.7084 53.5855 70.7365 53.7268 70.7365 53.8695C70.7365 54.0122 70.7084 54.1535 70.6538 54.2853C70.5992 54.4172 70.5192 54.537 70.4183 54.6379C70.3174 54.7388 70.1976 54.8188 70.0658 54.8734C69.934 54.928 69.7927 54.9561 69.65 54.9561L69.6502 54.956ZM68.6361 46.15H65.774C65.1735 46.15 64.6875 45.6633 64.6875 45.0634C64.6875 44.4635 65.1736 43.977 65.774 43.977H68.636C69.2357 43.977 69.7224 44.4635 69.7224 45.0634C69.7224 45.6633 69.2359 46.15 68.636 46.15H68.6361Z" fill="#0D6E9A"/>
<path d="M72.0775 37.344H65.7741C65.6314 37.344 65.4901 37.3159 65.3583 37.2613C65.2265 37.2066 65.1067 37.1266 65.0058 37.0257C64.9049 36.9248 64.8249 36.805 64.7703 36.6732C64.7157 36.5413 64.6876 36.4001 64.6876 36.2574C64.6876 35.9692 64.8021 35.6929 65.0059 35.4891C65.2096 35.2854 65.486 35.1709 65.7741 35.1709H72.0775C72.3656 35.171 72.6419 35.2855 72.8457 35.4892C73.0495 35.6929 73.164 35.9692 73.1641 36.2574C73.164 36.5455 73.0495 36.8219 72.8458 37.0256C72.642 37.2294 72.3657 37.3439 72.0775 37.344ZM68.6361 28.5379H65.774C65.1735 28.5379 64.6875 28.0512 64.6875 27.4513C64.6875 26.8514 65.1736 26.3648 65.774 26.3648H68.636C69.2357 26.3648 69.7224 26.8514 69.7224 27.4513C69.7224 28.0512 69.2359 28.5379 68.636 28.5379H68.6361ZM69.6502 19.7318H65.774C65.1735 19.7318 64.6875 19.2451 64.6875 18.6452C64.6875 18.0453 65.1736 17.5586 65.774 17.5586H69.65C70.2505 17.5586 70.7365 18.0453 70.7365 18.6452C70.7365 19.2451 70.2503 19.7318 69.65 19.7318H69.6502ZM69.6502 54.956H65.774C65.4858 54.956 65.2095 54.8415 65.0057 54.6378C64.802 54.434 64.6875 54.1577 64.6875 53.8695C64.6875 53.7268 64.7155 53.5855 64.7701 53.4537C64.8247 53.3219 64.9047 53.2021 65.0056 53.1012C65.1065 53.0003 65.2263 52.9203 65.3582 52.8657C65.49 52.8111 65.6313 52.783 65.774 52.7831H69.65C69.7927 52.783 69.934 52.8111 70.0658 52.8657C70.1977 52.9203 70.3175 53.0003 70.4184 53.1012C70.5192 53.2021 70.5993 53.3219 70.6539 53.4537C70.7084 53.5855 70.7365 53.7268 70.7365 53.8695C70.7365 54.0122 70.7084 54.1535 70.6538 54.2853C70.5992 54.4172 70.5192 54.537 70.4183 54.6379C70.3174 54.7388 70.1976 54.8188 70.0658 54.8734C69.934 54.928 69.7927 54.9561 69.65 54.9561L69.6502 54.956ZM68.6361 46.15H65.774C65.1735 46.15 64.6875 45.6633 64.6875 45.0634C64.6875 44.4635 65.1736 43.977 65.774 43.977H68.636C69.2357 43.977 69.7224 44.4635 69.7224 45.0634C69.7224 45.6633 69.2359 46.15 68.636 46.15H68.6361Z" fill="url(#paint6_linear_4366_54037)"/>
<path d="M72.0775 37.344H65.7741C65.6314 37.344 65.4901 37.3159 65.3583 37.2613C65.2265 37.2066 65.1067 37.1266 65.0058 37.0257C64.9049 36.9248 64.8249 36.805 64.7703 36.6732C64.7157 36.5413 64.6876 36.4001 64.6876 36.2574C64.6876 35.9692 64.8021 35.6929 65.0059 35.4891C65.2096 35.2854 65.486 35.1709 65.7741 35.1709H72.0775C72.3656 35.171 72.6419 35.2855 72.8457 35.4892C73.0495 35.6929 73.164 35.9692 73.1641 36.2574C73.164 36.5455 73.0495 36.8219 72.8458 37.0256C72.642 37.2294 72.3657 37.3439 72.0775 37.344ZM68.6361 28.5379H65.774C65.1735 28.5379 64.6875 28.0512 64.6875 27.4513C64.6875 26.8514 65.1736 26.3648 65.774 26.3648H68.636C69.2357 26.3648 69.7224 26.8514 69.7224 27.4513C69.7224 28.0512 69.2359 28.5379 68.636 28.5379H68.6361ZM69.6502 19.7318H65.774C65.1735 19.7318 64.6875 19.2451 64.6875 18.6452C64.6875 18.0453 65.1736 17.5586 65.774 17.5586H69.65C70.2505 17.5586 70.7365 18.0453 70.7365 18.6452C70.7365 19.2451 70.2503 19.7318 69.65 19.7318H69.6502ZM69.6502 54.956H65.774C65.4858 54.956 65.2095 54.8415 65.0057 54.6378C64.802 54.434 64.6875 54.1577 64.6875 53.8695C64.6875 53.7268 64.7155 53.5855 64.7701 53.4537C64.8247 53.3219 64.9047 53.2021 65.0056 53.1012C65.1065 53.0003 65.2263 52.9203 65.3582 52.8657C65.49 52.8111 65.6313 52.783 65.774 52.7831H69.65C69.7927 52.783 69.934 52.8111 70.0658 52.8657C70.1977 52.9203 70.3175 53.0003 70.4184 53.1012C70.5192 53.2021 70.5993 53.3219 70.6539 53.4537C70.7084 53.5855 70.7365 53.7268 70.7365 53.8695C70.7365 54.0122 70.7084 54.1535 70.6538 54.2853C70.5992 54.4172 70.5192 54.537 70.4183 54.6379C70.3174 54.7388 70.1976 54.8188 70.0658 54.8734C69.934 54.928 69.7927 54.9561 69.65 54.9561L69.6502 54.956ZM68.6361 46.15H65.774C65.1735 46.15 64.6875 45.6633 64.6875 45.0634C64.6875 44.4635 65.1736 43.977 65.774 43.977H68.636C69.2357 43.977 69.7224 44.4635 69.7224 45.0634C69.7224 45.6633 69.2359 46.15 68.636 46.15H68.6361Z" fill="url(#paint7_linear_4366_54037)"/>
<path d="M72.0775 37.344H65.7741C65.6314 37.344 65.4901 37.3159 65.3583 37.2613C65.2265 37.2066 65.1067 37.1266 65.0058 37.0257C64.9049 36.9248 64.8249 36.805 64.7703 36.6732C64.7157 36.5413 64.6876 36.4001 64.6876 36.2574C64.6876 35.9692 64.8021 35.6929 65.0059 35.4891C65.2096 35.2854 65.486 35.1709 65.7741 35.1709H72.0775C72.3656 35.171 72.6419 35.2855 72.8457 35.4892C73.0495 35.6929 73.164 35.9692 73.1641 36.2574C73.164 36.5455 73.0495 36.8219 72.8458 37.0256C72.642 37.2294 72.3657 37.3439 72.0775 37.344ZM68.6361 28.5379H65.774C65.1735 28.5379 64.6875 28.0512 64.6875 27.4513C64.6875 26.8514 65.1736 26.3648 65.774 26.3648H68.636C69.2357 26.3648 69.7224 26.8514 69.7224 27.4513C69.7224 28.0512 69.2359 28.5379 68.636 28.5379H68.6361ZM69.6502 19.7318H65.774C65.1735 19.7318 64.6875 19.2451 64.6875 18.6452C64.6875 18.0453 65.1736 17.5586 65.774 17.5586H69.65C70.2505 17.5586 70.7365 18.0453 70.7365 18.6452C70.7365 19.2451 70.2503 19.7318 69.65 19.7318H69.6502ZM69.6502 54.956H65.774C65.4858 54.956 65.2095 54.8415 65.0057 54.6378C64.802 54.434 64.6875 54.1577 64.6875 53.8695C64.6875 53.7268 64.7155 53.5855 64.7701 53.4537C64.8247 53.3219 64.9047 53.2021 65.0056 53.1012C65.1065 53.0003 65.2263 52.9203 65.3582 52.8657C65.49 52.8111 65.6313 52.783 65.774 52.7831H69.65C69.7927 52.783 69.934 52.8111 70.0658 52.8657C70.1977 52.9203 70.3175 53.0003 70.4184 53.1012C70.5192 53.2021 70.5993 53.3219 70.6539 53.4537C70.7084 53.5855 70.7365 53.7268 70.7365 53.8695C70.7365 54.0122 70.7084 54.1535 70.6538 54.2853C70.5992 54.4172 70.5192 54.537 70.4183 54.6379C70.3174 54.7388 70.1976 54.8188 70.0658 54.8734C69.934 54.928 69.7927 54.9561 69.65 54.9561L69.6502 54.956ZM68.6361 46.15H65.774C65.1735 46.15 64.6875 45.6633 64.6875 45.0634C64.6875 44.4635 65.1736 43.977 65.774 43.977H68.636C69.2357 43.977 69.7224 44.4635 69.7224 45.0634C69.7224 45.6633 69.2359 46.15 68.636 46.15H68.6361Z" fill="url(#paint8_linear_4366_54037)"/>
</g>
</g>
</g>
<g id="drop" opacity="0.8">
<path d="M51.625 60.3711L46.9702 65.0259C44.623 67.3731 44.623 71.1786 46.9702 73.5259C49.3174 75.8731 53.123 75.8731 55.4702 73.5259L55.6726 73.3235C58.1316 70.8645 58.1316 66.8777 55.6726 64.4187L51.625 60.3711Z" fill="url(#paint9_linear_4366_54037)"/>
<path d="M51.625 60.3711L46.9702 65.0259C44.623 67.3731 44.623 71.1786 46.9702 73.5259C49.3174 75.8731 53.123 75.8731 55.4702 73.5259L55.6726 73.3235C58.1316 70.8645 58.1316 66.8777 55.6726 64.4187L51.625 60.3711Z" fill="url(#paint10_linear_4366_54037)"/>
</g>
</g>
<defs>
<linearGradient id="paint0_linear_4366_54037" x1="54.5" y1="2.5" x2="71.7645" y2="31.5517" gradientUnits="userSpaceOnUse">
<stop stop-color="#1679C6"/>
<stop offset="1" stop-color="#5D94DC"/>
</linearGradient>
<linearGradient id="paint1_linear_4366_54037" x1="46.5762" y1="27.4492" x2="79.0013" y2="61.5538" gradientUnits="userSpaceOnUse">
<stop stop-color="#26B189"/>
<stop offset="1" stop-color="#49F7C8"/>
</linearGradient>
<linearGradient id="paint2_linear_4366_54037" x1="46.9361" y1="28.2548" x2="79.5128" y2="62.4239" gradientUnits="userSpaceOnUse">
<stop stop-color="#4C7AD3"/>
<stop offset="0.505208" stop-color="#7AAEEA"/>
<stop offset="1" stop-color="#7172E6"/>
</linearGradient>
<linearGradient id="paint3_linear_4366_54037" x1="46.9361" y1="28.2548" x2="79.5128" y2="62.4239" gradientUnits="userSpaceOnUse">
<stop stop-color="#4C7AD3"/>
<stop offset="0.505208" stop-color="#7AAEEA"/>
<stop offset="1" stop-color="#A17EFE"/>
</linearGradient>
<linearGradient id="paint4_linear_4366_54037" x1="41.1643" y1="27.091" x2="77.9505" y2="51.0342" gradientUnits="userSpaceOnUse">
<stop stop-color="#4C7AD3"/>
<stop offset="0.0001" stop-color="#1B289A"/>
<stop offset="1" stop-color="#0E91BD"/>
</linearGradient>
<linearGradient id="paint5_linear_4366_54037" x1="53.9587" y1="78.9916" x2="23.0534" y2="34.6673" gradientUnits="userSpaceOnUse">
<stop stop-color="#1679C6"/>
<stop offset="1" stop-color="#5D94DC"/>
</linearGradient>
<linearGradient id="paint6_linear_4366_54037" x1="67.048" y1="17.5586" x2="87.5763" y2="29.573" gradientUnits="userSpaceOnUse">
<stop stop-color="#5888D9"/>
<stop offset="1" stop-color="#85A1F0"/>
</linearGradient>
<linearGradient id="paint7_linear_4366_54037" x1="64.8641" y1="17.2988" x2="83.5468" y2="24.0651" gradientUnits="userSpaceOnUse">
<stop stop-color="#4C7AD3"/>
<stop offset="0.0001" stop-color="#1B289A"/>
<stop offset="1" stop-color="#0E91BD"/>
</linearGradient>
<linearGradient id="paint8_linear_4366_54037" x1="70.0271" y1="54.9374" x2="46.7365" y2="36.3504" gradientUnits="userSpaceOnUse">
<stop stop-color="#1679C6"/>
<stop offset="1" stop-color="#5D94DC"/>
</linearGradient>
<linearGradient id="paint9_linear_4366_54037" x1="49.9086" y1="63.7254" x2="54.2213" y2="73.7884" gradientUnits="userSpaceOnUse">
<stop stop-color="#28A6D0"/>
<stop offset="1" stop-color="#2337ED"/>
</linearGradient>
<linearGradient id="paint10_linear_4366_54037" x1="52.4962" y1="50.5" x2="49.4" y2="60.713" gradientUnits="userSpaceOnUse">
<stop stop-color="#1679C6"/>
<stop offset="1" stop-color="#5D94DC"/>
</linearGradient>
</defs>
</svg>
