<svg width="98" height="98" viewBox="0 0 98 98" fill="none" xmlns="http://www.w3.org/2000/svg">
<g id="SAFER CONFIGURATION">
<g id="Flat Color">
<g id="Body">
<mask id="path-1-inside-1_4366_54091" fill="white">
<path fill-rule="evenodd" clip-rule="evenodd" d="M76.6457 22.7438C75.7063 21.547 74.3801 20.714 72.8942 20.3873L49.9333 15.1719C49.007 14.9427 48.0387 14.9427 47.1124 15.1719L24.1516 20.2561C22.6656 20.5828 21.3395 21.4158 20.4 22.6126C19.4606 23.8093 18.9663 25.2953 19.0018 26.8164V40.1664C19.0039 48.8139 21.5993 57.262 26.4526 64.4191C31.3059 71.5762 38.1939 77.1133 46.2268 80.3151C47.7075 80.8684 49.3382 80.8684 50.819 80.3151C58.8518 77.1133 65.7399 71.5762 70.5932 64.4191C75.4464 57.262 78.0418 48.8139 78.044 40.1664V26.9476C78.0794 25.4266 77.5852 23.9405 76.6457 22.7438ZM38.2765 54.7257L49.0547 65.5039L59.8329 54.7257C65.7855 48.7731 65.7855 39.1219 59.8329 33.1693C53.8803 27.2166 44.2291 27.2166 38.2765 33.1693C32.3238 39.1219 32.3238 48.7731 38.2765 54.7257Z"/>
</mask>
<g filter="url(#filter0_i_4366_54091)">
<path fill-rule="evenodd" clip-rule="evenodd" d="M76.6457 22.7438C75.7063 21.547 74.3801 20.714 72.8942 20.3873L49.9333 15.1719C49.007 14.9427 48.0387 14.9427 47.1124 15.1719L24.1516 20.2561C22.6656 20.5828 21.3395 21.4158 20.4 22.6126C19.4606 23.8093 18.9663 25.2953 19.0018 26.8164V40.1664C19.0039 48.8139 21.5993 57.262 26.4526 64.4191C31.3059 71.5762 38.1939 77.1133 46.2268 80.3151C47.7075 80.8684 49.3382 80.8684 50.819 80.3151C58.8518 77.1133 65.7399 71.5762 70.5932 64.4191C75.4464 57.262 78.0418 48.8139 78.044 40.1664V26.9476C78.0794 25.4266 77.5852 23.9405 76.6457 22.7438ZM38.2765 54.7257L49.0547 65.5039L59.8329 54.7257C65.7855 48.7731 65.7855 39.1219 59.8329 33.1693C53.8803 27.2166 44.2291 27.2166 38.2765 33.1693C32.3238 39.1219 32.3238 48.7731 38.2765 54.7257Z" fill="url(#paint0_linear_4366_54091)"/>
<path fill-rule="evenodd" clip-rule="evenodd" d="M76.6457 22.7438C75.7063 21.547 74.3801 20.714 72.8942 20.3873L49.9333 15.1719C49.007 14.9427 48.0387 14.9427 47.1124 15.1719L24.1516 20.2561C22.6656 20.5828 21.3395 21.4158 20.4 22.6126C19.4606 23.8093 18.9663 25.2953 19.0018 26.8164V40.1664C19.0039 48.8139 21.5993 57.262 26.4526 64.4191C31.3059 71.5762 38.1939 77.1133 46.2268 80.3151C47.7075 80.8684 49.3382 80.8684 50.819 80.3151C58.8518 77.1133 65.7399 71.5762 70.5932 64.4191C75.4464 57.262 78.0418 48.8139 78.044 40.1664V26.9476C78.0794 25.4266 77.5852 23.9405 76.6457 22.7438ZM38.2765 54.7257L49.0547 65.5039L59.8329 54.7257C65.7855 48.7731 65.7855 39.1219 59.8329 33.1693C53.8803 27.2166 44.2291 27.2166 38.2765 33.1693C32.3238 39.1219 32.3238 48.7731 38.2765 54.7257Z" fill="url(#paint1_linear_4366_54091)"/>
<path fill-rule="evenodd" clip-rule="evenodd" d="M76.6457 22.7438C75.7063 21.547 74.3801 20.714 72.8942 20.3873L49.9333 15.1719C49.007 14.9427 48.0387 14.9427 47.1124 15.1719L24.1516 20.2561C22.6656 20.5828 21.3395 21.4158 20.4 22.6126C19.4606 23.8093 18.9663 25.2953 19.0018 26.8164V40.1664C19.0039 48.8139 21.5993 57.262 26.4526 64.4191C31.3059 71.5762 38.1939 77.1133 46.2268 80.3151C47.7075 80.8684 49.3382 80.8684 50.819 80.3151C58.8518 77.1133 65.7399 71.5762 70.5932 64.4191C75.4464 57.262 78.0418 48.8139 78.044 40.1664V26.9476C78.0794 25.4266 77.5852 23.9405 76.6457 22.7438ZM38.2765 54.7257L49.0547 65.5039L59.8329 54.7257C65.7855 48.7731 65.7855 39.1219 59.8329 33.1693C53.8803 27.2166 44.2291 27.2166 38.2765 33.1693C32.3238 39.1219 32.3238 48.7731 38.2765 54.7257Z" fill="url(#paint2_linear_4366_54091)"/>
<path fill-rule="evenodd" clip-rule="evenodd" d="M76.6457 22.7438C75.7063 21.547 74.3801 20.714 72.8942 20.3873L49.9333 15.1719C49.007 14.9427 48.0387 14.9427 47.1124 15.1719L24.1516 20.2561C22.6656 20.5828 21.3395 21.4158 20.4 22.6126C19.4606 23.8093 18.9663 25.2953 19.0018 26.8164V40.1664C19.0039 48.8139 21.5993 57.262 26.4526 64.4191C31.3059 71.5762 38.1939 77.1133 46.2268 80.3151C47.7075 80.8684 49.3382 80.8684 50.819 80.3151C58.8518 77.1133 65.7399 71.5762 70.5932 64.4191C75.4464 57.262 78.0418 48.8139 78.044 40.1664V26.9476C78.0794 25.4266 77.5852 23.9405 76.6457 22.7438ZM38.2765 54.7257L49.0547 65.5039L59.8329 54.7257C65.7855 48.7731 65.7855 39.1219 59.8329 33.1693C53.8803 27.2166 44.2291 27.2166 38.2765 33.1693C32.3238 39.1219 32.3238 48.7731 38.2765 54.7257Z" fill="url(#paint3_linear_4366_54091)"/>
<path fill-rule="evenodd" clip-rule="evenodd" d="M76.6457 22.7438C75.7063 21.547 74.3801 20.714 72.8942 20.3873L49.9333 15.1719C49.007 14.9427 48.0387 14.9427 47.1124 15.1719L24.1516 20.2561C22.6656 20.5828 21.3395 21.4158 20.4 22.6126C19.4606 23.8093 18.9663 25.2953 19.0018 26.8164V40.1664C19.0039 48.8139 21.5993 57.262 26.4526 64.4191C31.3059 71.5762 38.1939 77.1133 46.2268 80.3151C47.7075 80.8684 49.3382 80.8684 50.819 80.3151C58.8518 77.1133 65.7399 71.5762 70.5932 64.4191C75.4464 57.262 78.0418 48.8139 78.044 40.1664V26.9476C78.0794 25.4266 77.5852 23.9405 76.6457 22.7438ZM38.2765 54.7257L49.0547 65.5039L59.8329 54.7257C65.7855 48.7731 65.7855 39.1219 59.8329 33.1693C53.8803 27.2166 44.2291 27.2166 38.2765 33.1693C32.3238 39.1219 32.3238 48.7731 38.2765 54.7257Z" fill="url(#paint4_linear_4366_54091)"/>
</g>
<path d="M72.8942 20.3873L72.6727 21.3625L72.6794 21.364L72.8942 20.3873ZM76.6457 22.7438L77.4323 22.1263V22.1263L76.6457 22.7438ZM49.9333 15.1719L49.6931 16.1426L49.7024 16.145L49.7118 16.1471L49.9333 15.1719ZM47.1124 15.1719L47.3286 16.1483L47.3407 16.1456L47.3526 16.1426L47.1124 15.1719ZM24.1516 20.2561L24.3663 21.2328L24.3678 21.2325L24.1516 20.2561ZM20.4 22.6126L19.6134 21.9951L20.4 22.6126ZM19.0018 26.8164H20.0018V26.8047L20.0015 26.793L19.0018 26.8164ZM19.0018 40.1664H18.0018L18.0018 40.1667L19.0018 40.1664ZM46.2268 80.3151L45.8565 81.2441L45.8666 81.2481L45.8768 81.2519L46.2268 80.3151ZM50.819 80.3151L51.169 81.2519L51.1791 81.2481L51.1892 81.2441L50.819 80.3151ZM78.044 40.1664L79.044 40.1667V40.1664H78.044ZM78.044 26.9476L77.0442 26.9242L77.044 26.9359V26.9476H78.044ZM49.0547 65.5039L48.3476 66.211L49.0547 66.9181L49.7618 66.211L49.0547 65.5039ZM38.2765 54.7257L38.9836 54.0186L38.2765 54.7257ZM59.8329 33.1693L59.1258 33.8764L59.8329 33.1693ZM38.2765 33.1693L38.9836 33.8764L38.2765 33.1693ZM72.6794 21.364C73.9389 21.6409 75.0629 22.3469 75.8591 23.3612L77.4323 22.1263C76.3497 20.7471 74.8213 19.7871 73.1089 19.4106L72.6794 21.364ZM49.7118 16.1471L72.6727 21.3625L73.1157 19.4122L50.1548 14.1968L49.7118 16.1471ZM47.3526 16.1426C48.1212 15.9525 48.9245 15.9525 49.6931 16.1426L50.1735 14.2012C49.0894 13.9329 47.9563 13.9329 46.8722 14.2012L47.3526 16.1426ZM24.3678 21.2325L47.3286 16.1483L46.8962 14.1956L23.9354 19.2798L24.3678 21.2325ZM21.1866 23.23C21.9828 22.2157 23.1069 21.5097 24.3663 21.2328L23.9368 19.2794C22.2244 19.6559 20.6961 20.6159 19.6134 21.9951L21.1866 23.23ZM20.0015 26.793C19.9714 25.5039 20.3904 24.2443 21.1866 23.23L19.6134 21.9951C18.5308 23.3742 17.9612 25.0868 18.0021 26.8397L20.0015 26.793ZM20.0018 40.1664V26.8164H18.0018V40.1664H20.0018ZM27.2802 63.8578C22.5392 56.8663 20.0039 48.6136 20.0018 40.1662L18.0018 40.1667C18.004 49.0142 20.6594 57.6576 25.6249 64.9803L27.2802 63.8578ZM46.597 79.3862C38.75 76.2585 32.0212 70.8494 27.2802 63.8578L25.6249 64.9803C30.5905 72.3029 37.6379 77.9682 45.8565 81.2441L46.597 79.3862ZM50.469 79.3784C49.2139 79.8473 47.8318 79.8473 46.5768 79.3784L45.8768 81.2519C47.5832 81.8895 49.4625 81.8895 51.169 81.2519L50.469 79.3784ZM69.7655 63.8578C65.0245 70.8494 58.2957 76.2585 50.4487 79.3862L51.1892 81.2441C59.4079 77.9682 66.4553 72.3029 71.4208 64.9803L69.7655 63.8578ZM77.044 40.1662C77.0419 48.6136 74.5065 56.8663 69.7655 63.8578L71.4208 64.9803C76.3863 57.6576 79.0418 49.0142 79.044 40.1667L77.044 40.1662ZM77.044 26.9476V40.1664H79.044V26.9476H77.044ZM75.8591 23.3612C76.6554 24.3755 77.0743 25.6351 77.0442 26.9242L79.0437 26.9709C79.0846 25.218 78.515 23.5054 77.4323 22.1263L75.8591 23.3612ZM49.7618 64.7968L38.9836 54.0186L37.5694 55.4328L48.3476 66.211L49.7618 64.7968ZM59.1258 54.0186L48.3476 64.7968L49.7618 66.211L60.54 55.4328L59.1258 54.0186ZM59.1258 33.8764C64.6879 39.4385 64.6879 48.4565 59.1258 54.0186L60.54 55.4328C66.8832 49.0896 66.8832 38.8053 60.54 32.4622L59.1258 33.8764ZM38.9836 33.8764C44.5457 28.3143 53.5637 28.3143 59.1258 33.8764L60.54 32.4622C54.1968 26.119 43.9125 26.119 37.5694 32.4622L38.9836 33.8764ZM38.9836 54.0186C33.4215 48.4565 33.4215 39.4385 38.9836 33.8764L37.5694 32.4622C31.2262 38.8053 31.2262 49.0896 37.5694 55.4328L38.9836 54.0186Z" fill="url(#paint5_linear_4366_54091)" mask="url(#path-1-inside-1_4366_54091)"/>
</g>
<g id="Vector">
<path d="M48.3543 51.1871C47.8967 51.1896 47.4562 51.0296 47.1267 50.7411L43.1281 47.1726C42.9638 47.0245 42.8333 46.8483 42.7443 46.6542C42.6552 46.4601 42.6094 46.2518 42.6094 46.0415C42.6094 45.8312 42.6552 45.623 42.7443 45.4289C42.8333 45.2348 42.9638 45.0586 43.1281 44.9105C43.4567 44.6138 43.9012 44.4472 44.3645 44.4472C44.8278 44.4472 45.2723 44.6138 45.6009 44.9105L48.3718 47.3797L55.5798 41.0075C55.7444 40.86 55.9395 40.7434 56.1537 40.6644C56.368 40.5853 56.5973 40.5454 56.8285 40.5469C57.0598 40.5484 57.2885 40.5912 57.5015 40.673C57.7145 40.7547 57.9077 40.8738 58.0701 41.0234C58.2324 41.173 58.3608 41.3501 58.4478 41.5448C58.5348 41.7394 58.5787 41.9477 58.5771 42.1578C58.5754 42.3678 58.5283 42.5755 58.4383 42.769C58.3483 42.9625 58.2172 43.1381 58.0525 43.2855L49.617 50.8207C49.2651 51.0882 48.8118 51.2198 48.3543 51.1871Z" fill="url(#paint6_linear_4366_54091)"/>
<path d="M48.3543 51.1871C47.8967 51.1896 47.4562 51.0296 47.1267 50.7411L43.1281 47.1726C42.9638 47.0245 42.8333 46.8483 42.7443 46.6542C42.6552 46.4601 42.6094 46.2518 42.6094 46.0415C42.6094 45.8312 42.6552 45.623 42.7443 45.4289C42.8333 45.2348 42.9638 45.0586 43.1281 44.9105C43.4567 44.6138 43.9012 44.4472 44.3645 44.4472C44.8278 44.4472 45.2723 44.6138 45.6009 44.9105L48.3718 47.3797L55.5798 41.0075C55.7444 40.86 55.9395 40.7434 56.1537 40.6644C56.368 40.5853 56.5973 40.5454 56.8285 40.5469C57.0598 40.5484 57.2885 40.5912 57.5015 40.673C57.7145 40.7547 57.9077 40.8738 58.0701 41.0234C58.2324 41.173 58.3608 41.3501 58.4478 41.5448C58.5348 41.7394 58.5787 41.9477 58.5771 42.1578C58.5754 42.3678 58.5283 42.5755 58.4383 42.769C58.3483 42.9625 58.2172 43.1381 58.0525 43.2855L49.617 50.8207C49.2651 51.0882 48.8118 51.2198 48.3543 51.1871Z" fill="url(#paint7_linear_4366_54091)"/>
<path d="M48.3543 51.1871C47.8967 51.1896 47.4562 51.0296 47.1267 50.7411L43.1281 47.1726C42.9638 47.0245 42.8333 46.8483 42.7443 46.6542C42.6552 46.4601 42.6094 46.2518 42.6094 46.0415C42.6094 45.8312 42.6552 45.623 42.7443 45.4289C42.8333 45.2348 42.9638 45.0586 43.1281 44.9105C43.4567 44.6138 43.9012 44.4472 44.3645 44.4472C44.8278 44.4472 45.2723 44.6138 45.6009 44.9105L48.3718 47.3797L55.5798 41.0075C55.7444 40.86 55.9395 40.7434 56.1537 40.6644C56.368 40.5853 56.5973 40.5454 56.8285 40.5469C57.0598 40.5484 57.2885 40.5912 57.5015 40.673C57.7145 40.7547 57.9077 40.8738 58.0701 41.0234C58.2324 41.173 58.3608 41.3501 58.4478 41.5448C58.5348 41.7394 58.5787 41.9477 58.5771 42.1578C58.5754 42.3678 58.5283 42.5755 58.4383 42.769C58.3483 42.9625 58.2172 43.1381 58.0525 43.2855L49.617 50.8207C49.2651 51.0882 48.8118 51.2198 48.3543 51.1871Z" fill="url(#paint8_linear_4366_54091)"/>
<path d="M48.3543 51.1871C47.8967 51.1896 47.4562 51.0296 47.1267 50.7411L43.1281 47.1726C42.9638 47.0245 42.8333 46.8483 42.7443 46.6542C42.6552 46.4601 42.6094 46.2518 42.6094 46.0415C42.6094 45.8312 42.6552 45.623 42.7443 45.4289C42.8333 45.2348 42.9638 45.0586 43.1281 44.9105C43.4567 44.6138 43.9012 44.4472 44.3645 44.4472C44.8278 44.4472 45.2723 44.6138 45.6009 44.9105L48.3718 47.3797L55.5798 41.0075C55.7444 40.86 55.9395 40.7434 56.1537 40.6644C56.368 40.5853 56.5973 40.5454 56.8285 40.5469C57.0598 40.5484 57.2885 40.5912 57.5015 40.673C57.7145 40.7547 57.9077 40.8738 58.0701 41.0234C58.2324 41.173 58.3608 41.3501 58.4478 41.5448C58.5348 41.7394 58.5787 41.9477 58.5771 42.1578C58.5754 42.3678 58.5283 42.5755 58.4383 42.769C58.3483 42.9625 58.2172 43.1381 58.0525 43.2855L49.617 50.8207C49.2651 51.0882 48.8118 51.2198 48.3543 51.1871Z" fill="url(#paint9_linear_4366_54091)"/>
</g>
</g>
<g id="Light" opacity="0.34" filter="url(#filter1_f_4366_54091)">
<ellipse cx="31.3165" cy="29.2833" rx="6.86831" ry="2.91691" transform="rotate(-34.3463 31.3165 29.2833)" fill="white"/>
</g>
</g>
<defs>
<filter id="filter0_i_4366_54091" x="19" y="15" width="59.0449" height="67.73" filterUnits="userSpaceOnUse" color-interpolation-filters="sRGB">
<feFlood flood-opacity="0" result="BackgroundImageFix"/>
<feBlend mode="normal" in="SourceGraphic" in2="BackgroundImageFix" result="shape"/>
<feColorMatrix in="SourceAlpha" type="matrix" values="0 0 0 0 0 0 0 0 0 0 0 0 0 0 0 0 0 0 127 0" result="hardAlpha"/>
<feOffset dy="2"/>
<feGaussianBlur stdDeviation="1.5"/>
<feComposite in2="hardAlpha" operator="arithmetic" k2="-1" k3="1"/>
<feColorMatrix type="matrix" values="0 0 0 0 1 0 0 0 0 1 0 0 0 0 1 0 0 0 0.75 0"/>
<feBlend mode="normal" in2="shape" result="effect1_innerShadow_4366_54091"/>
</filter>
<filter id="filter1_f_4366_54091" x="19.4102" y="18.7202" width="23.8125" height="21.126" filterUnits="userSpaceOnUse" color-interpolation-filters="sRGB">
<feFlood flood-opacity="0" result="BackgroundImageFix"/>
<feBlend mode="normal" in="SourceGraphic" in2="BackgroundImageFix" result="shape"/>
<feGaussianBlur stdDeviation="3" result="effect1_foregroundBlur_4366_54091"/>
</filter>
<linearGradient id="paint0_linear_4366_54091" x1="25.1505" y1="15" x2="62.5383" y2="75.1875" gradientUnits="userSpaceOnUse">
<stop stop-color="#2A94F1"/>
<stop offset="0.520833" stop-color="#2ABDD2"/>
<stop offset="1" stop-color="#49F7C8"/>
</linearGradient>
<linearGradient id="paint1_linear_4366_54091" x1="36.4546" y1="16.0269" x2="66.738" y2="86.0752" gradientUnits="userSpaceOnUse">
<stop stop-color="#4C7AD3"/>
<stop offset="0.505208" stop-color="#7AAEEA"/>
<stop offset="1" stop-color="#7172E6"/>
</linearGradient>
<linearGradient id="paint2_linear_4366_54091" x1="36.4546" y1="16.0269" x2="66.738" y2="86.0752" gradientUnits="userSpaceOnUse">
<stop stop-color="#4C7AD3"/>
<stop offset="0.505208" stop-color="#7AAEEA"/>
<stop offset="1" stop-color="#A17EFE"/>
</linearGradient>
<linearGradient id="paint3_linear_4366_54091" x1="20.2304" y1="14.5434" x2="68.3334" y2="83.5888" gradientUnits="userSpaceOnUse">
<stop stop-color="#4C7AD3"/>
<stop offset="0.0001" stop-color="#1B289A"/>
<stop offset="1" stop-color="#0E91BD"/>
</linearGradient>
<linearGradient id="paint4_linear_4366_54091" x1="56.1943" y1="80.6971" x2="32.0599" y2="4.36437" gradientUnits="userSpaceOnUse">
<stop stop-color="#1679C6"/>
<stop offset="1" stop-color="#5D94DC"/>
</linearGradient>
<linearGradient id="paint5_linear_4366_54091" x1="20.6402" y1="14.0871" x2="72.0391" y2="69.8263" gradientUnits="userSpaceOnUse">
<stop offset="0.00200455" stop-color="#E6E6E6"/>
<stop offset="0.463542" stop-color="white" stop-opacity="0.47491"/>
<stop offset="1" stop-color="#E6E6E6" stop-opacity="0.57"/>
</linearGradient>
<linearGradient id="paint6_linear_4366_54091" x1="49.9022" y1="32.447" x2="51.4212" y2="64.1784" gradientUnits="userSpaceOnUse">
<stop stop-color="#0372F2"/>
<stop offset="1" stop-color="#61C2EE"/>
</linearGradient>
<linearGradient id="paint7_linear_4366_54091" x1="47.3296" y1="40.7132" x2="50.5967" y2="53.3321" gradientUnits="userSpaceOnUse">
<stop stop-color="#4C7AD3"/>
<stop offset="0.505208" stop-color="#7AAEEA"/>
<stop offset="1" stop-color="#A17EFE"/>
</linearGradient>
<linearGradient id="paint8_linear_4366_54091" x1="42.9421" y1="40.4729" x2="48.8446" y2="54.6198" gradientUnits="userSpaceOnUse">
<stop stop-color="#4C7AD3"/>
<stop offset="0.0001" stop-color="#1B289A"/>
<stop offset="1" stop-color="#0E91BD"/>
</linearGradient>
<linearGradient id="paint9_linear_4366_54091" x1="52.6678" y1="51.1867" x2="50.1822" y2="38.0593" gradientUnits="userSpaceOnUse">
<stop stop-color="#1679C6"/>
<stop offset="1" stop-color="#5D94DC"/>
</linearGradient>
</defs>
</svg>
