<svg width="98" height="98" viewBox="0 0 98 98" fill="none" xmlns="http://www.w3.org/2000/svg">
<g id="SAFER CONFIGURATION green">
<g id="Flat Color">
<g id="Body">
<mask id="path-1-inside-1_4366_54512" fill="white">
<path fill-rule="evenodd" clip-rule="evenodd" d="M75.6457 22.7438C74.7063 21.547 73.3801 20.714 71.8942 20.3873L48.9333 15.1719C48.007 14.9427 47.0387 14.9427 46.1124 15.1719L23.1516 20.2561C21.6656 20.5828 20.3395 21.4158 19.4 22.6126C18.4606 23.8093 17.9663 25.2953 18.0018 26.8164V40.1664C18.0039 48.8139 20.5993 57.262 25.4526 64.4191C30.3059 71.5762 37.1939 77.1133 45.2268 80.3151C46.7075 80.8684 48.3382 80.8684 49.819 80.3151C57.8518 77.1133 64.7399 71.5762 69.5932 64.4191C74.4464 57.262 77.0418 48.8139 77.044 40.1664V26.9476C77.0794 25.4266 76.5852 23.9405 75.6457 22.7438ZM37.2765 54.7257L48.0547 65.5039L58.8329 54.7257C64.7855 48.7731 64.7855 39.1219 58.8329 33.1693C52.8803 27.2166 43.2291 27.2166 37.2765 33.1693C31.3238 39.1219 31.3238 48.7731 37.2765 54.7257Z"/>
</mask>
<g filter="url(#filter0_i_4366_54512)">
<path fill-rule="evenodd" clip-rule="evenodd" d="M75.6457 22.7438C74.7063 21.547 73.3801 20.714 71.8942 20.3873L48.9333 15.1719C48.007 14.9427 47.0387 14.9427 46.1124 15.1719L23.1516 20.2561C21.6656 20.5828 20.3395 21.4158 19.4 22.6126C18.4606 23.8093 17.9663 25.2953 18.0018 26.8164V40.1664C18.0039 48.8139 20.5993 57.262 25.4526 64.4191C30.3059 71.5762 37.1939 77.1133 45.2268 80.3151C46.7075 80.8684 48.3382 80.8684 49.819 80.3151C57.8518 77.1133 64.7399 71.5762 69.5932 64.4191C74.4464 57.262 77.0418 48.8139 77.044 40.1664V26.9476C77.0794 25.4266 76.5852 23.9405 75.6457 22.7438ZM37.2765 54.7257L48.0547 65.5039L58.8329 54.7257C64.7855 48.7731 64.7855 39.1219 58.8329 33.1693C52.8803 27.2166 43.2291 27.2166 37.2765 33.1693C31.3238 39.1219 31.3238 48.7731 37.2765 54.7257Z" fill="url(#paint0_linear_4366_54512)"/>
<path fill-rule="evenodd" clip-rule="evenodd" d="M75.6457 22.7438C74.7063 21.547 73.3801 20.714 71.8942 20.3873L48.9333 15.1719C48.007 14.9427 47.0387 14.9427 46.1124 15.1719L23.1516 20.2561C21.6656 20.5828 20.3395 21.4158 19.4 22.6126C18.4606 23.8093 17.9663 25.2953 18.0018 26.8164V40.1664C18.0039 48.8139 20.5993 57.262 25.4526 64.4191C30.3059 71.5762 37.1939 77.1133 45.2268 80.3151C46.7075 80.8684 48.3382 80.8684 49.819 80.3151C57.8518 77.1133 64.7399 71.5762 69.5932 64.4191C74.4464 57.262 77.0418 48.8139 77.044 40.1664V26.9476C77.0794 25.4266 76.5852 23.9405 75.6457 22.7438ZM37.2765 54.7257L48.0547 65.5039L58.8329 54.7257C64.7855 48.7731 64.7855 39.1219 58.8329 33.1693C52.8803 27.2166 43.2291 27.2166 37.2765 33.1693C31.3238 39.1219 31.3238 48.7731 37.2765 54.7257Z" fill="url(#paint1_linear_4366_54512)"/>
<path fill-rule="evenodd" clip-rule="evenodd" d="M75.6457 22.7438C74.7063 21.547 73.3801 20.714 71.8942 20.3873L48.9333 15.1719C48.007 14.9427 47.0387 14.9427 46.1124 15.1719L23.1516 20.2561C21.6656 20.5828 20.3395 21.4158 19.4 22.6126C18.4606 23.8093 17.9663 25.2953 18.0018 26.8164V40.1664C18.0039 48.8139 20.5993 57.262 25.4526 64.4191C30.3059 71.5762 37.1939 77.1133 45.2268 80.3151C46.7075 80.8684 48.3382 80.8684 49.819 80.3151C57.8518 77.1133 64.7399 71.5762 69.5932 64.4191C74.4464 57.262 77.0418 48.8139 77.044 40.1664V26.9476C77.0794 25.4266 76.5852 23.9405 75.6457 22.7438ZM37.2765 54.7257L48.0547 65.5039L58.8329 54.7257C64.7855 48.7731 64.7855 39.1219 58.8329 33.1693C52.8803 27.2166 43.2291 27.2166 37.2765 33.1693C31.3238 39.1219 31.3238 48.7731 37.2765 54.7257Z" fill="url(#paint2_linear_4366_54512)"/>
<path fill-rule="evenodd" clip-rule="evenodd" d="M75.6457 22.7438C74.7063 21.547 73.3801 20.714 71.8942 20.3873L48.9333 15.1719C48.007 14.9427 47.0387 14.9427 46.1124 15.1719L23.1516 20.2561C21.6656 20.5828 20.3395 21.4158 19.4 22.6126C18.4606 23.8093 17.9663 25.2953 18.0018 26.8164V40.1664C18.0039 48.8139 20.5993 57.262 25.4526 64.4191C30.3059 71.5762 37.1939 77.1133 45.2268 80.3151C46.7075 80.8684 48.3382 80.8684 49.819 80.3151C57.8518 77.1133 64.7399 71.5762 69.5932 64.4191C74.4464 57.262 77.0418 48.8139 77.044 40.1664V26.9476C77.0794 25.4266 76.5852 23.9405 75.6457 22.7438ZM37.2765 54.7257L48.0547 65.5039L58.8329 54.7257C64.7855 48.7731 64.7855 39.1219 58.8329 33.1693C52.8803 27.2166 43.2291 27.2166 37.2765 33.1693C31.3238 39.1219 31.3238 48.7731 37.2765 54.7257Z" fill="url(#paint3_linear_4366_54512)"/>
<path fill-rule="evenodd" clip-rule="evenodd" d="M75.6457 22.7438C74.7063 21.547 73.3801 20.714 71.8942 20.3873L48.9333 15.1719C48.007 14.9427 47.0387 14.9427 46.1124 15.1719L23.1516 20.2561C21.6656 20.5828 20.3395 21.4158 19.4 22.6126C18.4606 23.8093 17.9663 25.2953 18.0018 26.8164V40.1664C18.0039 48.8139 20.5993 57.262 25.4526 64.4191C30.3059 71.5762 37.1939 77.1133 45.2268 80.3151C46.7075 80.8684 48.3382 80.8684 49.819 80.3151C57.8518 77.1133 64.7399 71.5762 69.5932 64.4191C74.4464 57.262 77.0418 48.8139 77.044 40.1664V26.9476C77.0794 25.4266 76.5852 23.9405 75.6457 22.7438ZM37.2765 54.7257L48.0547 65.5039L58.8329 54.7257C64.7855 48.7731 64.7855 39.1219 58.8329 33.1693C52.8803 27.2166 43.2291 27.2166 37.2765 33.1693C31.3238 39.1219 31.3238 48.7731 37.2765 54.7257Z" fill="url(#paint4_linear_4366_54512)"/>
<path fill-rule="evenodd" clip-rule="evenodd" d="M75.6457 22.7438C74.7063 21.547 73.3801 20.714 71.8942 20.3873L48.9333 15.1719C48.007 14.9427 47.0387 14.9427 46.1124 15.1719L23.1516 20.2561C21.6656 20.5828 20.3395 21.4158 19.4 22.6126C18.4606 23.8093 17.9663 25.2953 18.0018 26.8164V40.1664C18.0039 48.8139 20.5993 57.262 25.4526 64.4191C30.3059 71.5762 37.1939 77.1133 45.2268 80.3151C46.7075 80.8684 48.3382 80.8684 49.819 80.3151C57.8518 77.1133 64.7399 71.5762 69.5932 64.4191C74.4464 57.262 77.0418 48.8139 77.044 40.1664V26.9476C77.0794 25.4266 76.5852 23.9405 75.6457 22.7438ZM37.2765 54.7257L48.0547 65.5039L58.8329 54.7257C64.7855 48.7731 64.7855 39.1219 58.8329 33.1693C52.8803 27.2166 43.2291 27.2166 37.2765 33.1693C31.3238 39.1219 31.3238 48.7731 37.2765 54.7257Z" fill="url(#paint5_linear_4366_54512)"/>
</g>
<path d="M71.8942 20.3873L71.6727 21.3625L71.6794 21.364L71.8942 20.3873ZM75.6457 22.7438L76.4323 22.1263V22.1263L75.6457 22.7438ZM48.9333 15.1719L48.6931 16.1426L48.7024 16.145L48.7118 16.1471L48.9333 15.1719ZM46.1124 15.1719L46.3286 16.1483L46.3407 16.1456L46.3526 16.1426L46.1124 15.1719ZM23.1516 20.2561L23.3663 21.2328L23.3678 21.2325L23.1516 20.2561ZM19.4 22.6126L18.6134 21.9951L19.4 22.6126ZM18.0018 26.8164H19.0018V26.8047L19.0015 26.793L18.0018 26.8164ZM18.0018 40.1664H17.0018L17.0018 40.1667L18.0018 40.1664ZM45.2268 80.3151L44.8565 81.2441L44.8666 81.2481L44.8768 81.2519L45.2268 80.3151ZM49.819 80.3151L50.169 81.2519L50.1791 81.2481L50.1892 81.2441L49.819 80.3151ZM77.044 40.1664L78.044 40.1667V40.1664H77.044ZM77.044 26.9476L76.0442 26.9242L76.044 26.9359V26.9476H77.044ZM48.0547 65.5039L47.3476 66.211L48.0547 66.9181L48.7618 66.211L48.0547 65.5039ZM37.2765 54.7257L37.9836 54.0186L37.2765 54.7257ZM58.8329 33.1693L58.1258 33.8764L58.8329 33.1693ZM37.2765 33.1693L37.9836 33.8764L37.2765 33.1693ZM71.6794 21.364C72.9389 21.6409 74.0629 22.3469 74.8591 23.3612L76.4323 22.1263C75.3497 20.7471 73.8213 19.7871 72.1089 19.4106L71.6794 21.364ZM48.7118 16.1471L71.6727 21.3625L72.1157 19.4122L49.1548 14.1968L48.7118 16.1471ZM46.3526 16.1426C47.1212 15.9525 47.9245 15.9525 48.6931 16.1426L49.1735 14.2012C48.0894 13.9329 46.9563 13.9329 45.8722 14.2012L46.3526 16.1426ZM23.3678 21.2325L46.3286 16.1483L45.8962 14.1956L22.9354 19.2798L23.3678 21.2325ZM20.1866 23.23C20.9828 22.2157 22.1069 21.5097 23.3663 21.2328L22.9368 19.2794C21.2244 19.6559 19.6961 20.6159 18.6134 21.9951L20.1866 23.23ZM19.0015 26.793C18.9714 25.5039 19.3904 24.2443 20.1866 23.23L18.6134 21.9951C17.5308 23.3742 16.9612 25.0868 17.0021 26.8397L19.0015 26.793ZM19.0018 40.1664V26.8164H17.0018V40.1664H19.0018ZM26.2802 63.8578C21.5392 56.8663 19.0039 48.6136 19.0018 40.1662L17.0018 40.1667C17.004 49.0142 19.6594 57.6576 24.6249 64.9803L26.2802 63.8578ZM45.597 79.3862C37.75 76.2585 31.0212 70.8494 26.2802 63.8578L24.6249 64.9803C29.5905 72.3029 36.6379 77.9682 44.8565 81.2441L45.597 79.3862ZM49.469 79.3784C48.2139 79.8473 46.8318 79.8473 45.5768 79.3784L44.8768 81.2519C46.5832 81.8895 48.4625 81.8895 50.169 81.2519L49.469 79.3784ZM68.7655 63.8578C64.0245 70.8494 57.2957 76.2585 49.4487 79.3862L50.1892 81.2441C58.4079 77.9682 65.4553 72.3029 70.4208 64.9803L68.7655 63.8578ZM76.044 40.1662C76.0419 48.6136 73.5065 56.8663 68.7655 63.8578L70.4208 64.9803C75.3863 57.6576 78.0418 49.0142 78.044 40.1667L76.044 40.1662ZM76.044 26.9476V40.1664H78.044V26.9476H76.044ZM74.8591 23.3612C75.6554 24.3755 76.0743 25.6351 76.0442 26.9242L78.0437 26.9709C78.0846 25.218 77.515 23.5054 76.4323 22.1263L74.8591 23.3612ZM48.7618 64.7968L37.9836 54.0186L36.5694 55.4328L47.3476 66.211L48.7618 64.7968ZM58.1258 54.0186L47.3476 64.7968L48.7618 66.211L59.54 55.4328L58.1258 54.0186ZM58.1258 33.8764C63.6879 39.4385 63.6879 48.4565 58.1258 54.0186L59.54 55.4328C65.8832 49.0896 65.8832 38.8053 59.54 32.4622L58.1258 33.8764ZM37.9836 33.8764C43.5457 28.3143 52.5637 28.3143 58.1258 33.8764L59.54 32.4622C53.1968 26.119 42.9125 26.119 36.5694 32.4622L37.9836 33.8764ZM37.9836 54.0186C32.4215 48.4565 32.4215 39.4385 37.9836 33.8764L36.5694 32.4622C30.2262 38.8053 30.2262 49.0896 36.5694 55.4328L37.9836 54.0186Z" fill="url(#paint6_linear_4366_54512)" mask="url(#path-1-inside-1_4366_54512)"/>
</g>
<g id="Vector">
<path d="M47.3543 51.1871C46.8967 51.1896 46.4562 51.0296 46.1267 50.7411L42.1281 47.1726C41.9638 47.0245 41.8333 46.8483 41.7443 46.6542C41.6552 46.4601 41.6094 46.2518 41.6094 46.0415C41.6094 45.8312 41.6552 45.623 41.7443 45.4289C41.8333 45.2348 41.9638 45.0586 42.1281 44.9105C42.4567 44.6138 42.9012 44.4472 43.3645 44.4472C43.8278 44.4472 44.2723 44.6138 44.6009 44.9105L47.3718 47.3797L54.5798 41.0075C54.7444 40.86 54.9395 40.7434 55.1537 40.6644C55.368 40.5853 55.5973 40.5454 55.8285 40.5469C56.0598 40.5484 56.2885 40.5912 56.5015 40.673C56.7145 40.7547 56.9077 40.8738 57.0701 41.0234C57.2324 41.173 57.3608 41.3501 57.4478 41.5448C57.5348 41.7394 57.5787 41.9477 57.5771 42.1578C57.5754 42.3678 57.5283 42.5755 57.4383 42.769C57.3483 42.9625 57.2172 43.1381 57.0525 43.2855L48.617 50.8207C48.2651 51.0882 47.8118 51.2198 47.3543 51.1871Z" fill="url(#paint7_linear_4366_54512)"/>
<path d="M47.3543 51.1871C46.8967 51.1896 46.4562 51.0296 46.1267 50.7411L42.1281 47.1726C41.9638 47.0245 41.8333 46.8483 41.7443 46.6542C41.6552 46.4601 41.6094 46.2518 41.6094 46.0415C41.6094 45.8312 41.6552 45.623 41.7443 45.4289C41.8333 45.2348 41.9638 45.0586 42.1281 44.9105C42.4567 44.6138 42.9012 44.4472 43.3645 44.4472C43.8278 44.4472 44.2723 44.6138 44.6009 44.9105L47.3718 47.3797L54.5798 41.0075C54.7444 40.86 54.9395 40.7434 55.1537 40.6644C55.368 40.5853 55.5973 40.5454 55.8285 40.5469C56.0598 40.5484 56.2885 40.5912 56.5015 40.673C56.7145 40.7547 56.9077 40.8738 57.0701 41.0234C57.2324 41.173 57.3608 41.3501 57.4478 41.5448C57.5348 41.7394 57.5787 41.9477 57.5771 42.1578C57.5754 42.3678 57.5283 42.5755 57.4383 42.769C57.3483 42.9625 57.2172 43.1381 57.0525 43.2855L48.617 50.8207C48.2651 51.0882 47.8118 51.2198 47.3543 51.1871Z" fill="url(#paint8_linear_4366_54512)"/>
<path d="M47.3543 51.1871C46.8967 51.1896 46.4562 51.0296 46.1267 50.7411L42.1281 47.1726C41.9638 47.0245 41.8333 46.8483 41.7443 46.6542C41.6552 46.4601 41.6094 46.2518 41.6094 46.0415C41.6094 45.8312 41.6552 45.623 41.7443 45.4289C41.8333 45.2348 41.9638 45.0586 42.1281 44.9105C42.4567 44.6138 42.9012 44.4472 43.3645 44.4472C43.8278 44.4472 44.2723 44.6138 44.6009 44.9105L47.3718 47.3797L54.5798 41.0075C54.7444 40.86 54.9395 40.7434 55.1537 40.6644C55.368 40.5853 55.5973 40.5454 55.8285 40.5469C56.0598 40.5484 56.2885 40.5912 56.5015 40.673C56.7145 40.7547 56.9077 40.8738 57.0701 41.0234C57.2324 41.173 57.3608 41.3501 57.4478 41.5448C57.5348 41.7394 57.5787 41.9477 57.5771 42.1578C57.5754 42.3678 57.5283 42.5755 57.4383 42.769C57.3483 42.9625 57.2172 43.1381 57.0525 43.2855L48.617 50.8207C48.2651 51.0882 47.8118 51.2198 47.3543 51.1871Z" fill="url(#paint9_linear_4366_54512)"/>
<path d="M47.3543 51.1871C46.8967 51.1896 46.4562 51.0296 46.1267 50.7411L42.1281 47.1726C41.9638 47.0245 41.8333 46.8483 41.7443 46.6542C41.6552 46.4601 41.6094 46.2518 41.6094 46.0415C41.6094 45.8312 41.6552 45.623 41.7443 45.4289C41.8333 45.2348 41.9638 45.0586 42.1281 44.9105C42.4567 44.6138 42.9012 44.4472 43.3645 44.4472C43.8278 44.4472 44.2723 44.6138 44.6009 44.9105L47.3718 47.3797L54.5798 41.0075C54.7444 40.86 54.9395 40.7434 55.1537 40.6644C55.368 40.5853 55.5973 40.5454 55.8285 40.5469C56.0598 40.5484 56.2885 40.5912 56.5015 40.673C56.7145 40.7547 56.9077 40.8738 57.0701 41.0234C57.2324 41.173 57.3608 41.3501 57.4478 41.5448C57.5348 41.7394 57.5787 41.9477 57.5771 42.1578C57.5754 42.3678 57.5283 42.5755 57.4383 42.769C57.3483 42.9625 57.2172 43.1381 57.0525 43.2855L48.617 50.8207C48.2651 51.0882 47.8118 51.2198 47.3543 51.1871Z" fill="url(#paint10_linear_4366_54512)"/>
<path d="M47.3543 51.1871C46.8967 51.1896 46.4562 51.0296 46.1267 50.7411L42.1281 47.1726C41.9638 47.0245 41.8333 46.8483 41.7443 46.6542C41.6552 46.4601 41.6094 46.2518 41.6094 46.0415C41.6094 45.8312 41.6552 45.623 41.7443 45.4289C41.8333 45.2348 41.9638 45.0586 42.1281 44.9105C42.4567 44.6138 42.9012 44.4472 43.3645 44.4472C43.8278 44.4472 44.2723 44.6138 44.6009 44.9105L47.3718 47.3797L54.5798 41.0075C54.7444 40.86 54.9395 40.7434 55.1537 40.6644C55.368 40.5853 55.5973 40.5454 55.8285 40.5469C56.0598 40.5484 56.2885 40.5912 56.5015 40.673C56.7145 40.7547 56.9077 40.8738 57.0701 41.0234C57.2324 41.173 57.3608 41.3501 57.4478 41.5448C57.5348 41.7394 57.5787 41.9477 57.5771 42.1578C57.5754 42.3678 57.5283 42.5755 57.4383 42.769C57.3483 42.9625 57.2172 43.1381 57.0525 43.2855L48.617 50.8207C48.2651 51.0882 47.8118 51.2198 47.3543 51.1871Z" fill="url(#paint11_linear_4366_54512)"/>
</g>
</g>
<g id="Light" opacity="0.34" filter="url(#filter1_f_4366_54512)">
<ellipse cx="30.3165" cy="29.2833" rx="6.86831" ry="2.91691" transform="rotate(-34.3463 30.3165 29.2833)" fill="white"/>
</g>
</g>
<defs>
<filter id="filter0_i_4366_54512" x="18" y="15" width="59.0449" height="67.73" filterUnits="userSpaceOnUse" color-interpolation-filters="sRGB">
<feFlood flood-opacity="0" result="BackgroundImageFix"/>
<feBlend mode="normal" in="SourceGraphic" in2="BackgroundImageFix" result="shape"/>
<feColorMatrix in="SourceAlpha" type="matrix" values="0 0 0 0 0 0 0 0 0 0 0 0 0 0 0 0 0 0 127 0" result="hardAlpha"/>
<feOffset dy="2"/>
<feGaussianBlur stdDeviation="1.5"/>
<feComposite in2="hardAlpha" operator="arithmetic" k2="-1" k3="1"/>
<feColorMatrix type="matrix" values="0 0 0 0 1 0 0 0 0 1 0 0 0 0 1 0 0 0 0.75 0"/>
<feBlend mode="normal" in2="shape" result="effect1_innerShadow_4366_54512"/>
</filter>
<filter id="filter1_f_4366_54512" x="18.4102" y="18.7202" width="23.8125" height="21.126" filterUnits="userSpaceOnUse" color-interpolation-filters="sRGB">
<feFlood flood-opacity="0" result="BackgroundImageFix"/>
<feBlend mode="normal" in="SourceGraphic" in2="BackgroundImageFix" result="shape"/>
<feGaussianBlur stdDeviation="3" result="effect1_foregroundBlur_4366_54512"/>
</filter>
<linearGradient id="paint0_linear_4366_54512" x1="24.1505" y1="15" x2="61.5383" y2="75.1875" gradientUnits="userSpaceOnUse">
<stop stop-color="#2A94F1"/>
<stop offset="0.520833" stop-color="#2ABDD2"/>
<stop offset="1" stop-color="#49F7C8"/>
</linearGradient>
<linearGradient id="paint1_linear_4366_54512" x1="35.4546" y1="16.0269" x2="65.738" y2="86.0752" gradientUnits="userSpaceOnUse">
<stop stop-color="#4C7AD3"/>
<stop offset="0.505208" stop-color="#7AAEEA"/>
<stop offset="1" stop-color="#7172E6"/>
</linearGradient>
<linearGradient id="paint2_linear_4366_54512" x1="35.4546" y1="16.0269" x2="65.738" y2="86.0752" gradientUnits="userSpaceOnUse">
<stop stop-color="#4C7AD3"/>
<stop offset="0.505208" stop-color="#7AAEEA"/>
<stop offset="1" stop-color="#A17EFE"/>
</linearGradient>
<linearGradient id="paint3_linear_4366_54512" x1="19.2304" y1="14.5434" x2="67.3334" y2="83.5888" gradientUnits="userSpaceOnUse">
<stop stop-color="#4C7AD3"/>
<stop offset="0.0001" stop-color="#1B289A"/>
<stop offset="1" stop-color="#0E91BD"/>
</linearGradient>
<linearGradient id="paint4_linear_4366_54512" x1="55.1943" y1="80.6971" x2="31.0599" y2="4.36437" gradientUnits="userSpaceOnUse">
<stop stop-color="#1679C6"/>
<stop offset="1" stop-color="#5D94DC"/>
</linearGradient>
<linearGradient id="paint5_linear_4366_54512" x1="-18.2765" y1="15" x2="79.0496" y2="19.3378" gradientUnits="userSpaceOnUse">
<stop stop-color="#5FB847"/>
<stop offset="0.427083" stop-color="#72BE44"/>
<stop offset="0.973958" stop-color="#8BDF58"/>
</linearGradient>
<linearGradient id="paint6_linear_4366_54512" x1="19.6402" y1="14.0871" x2="71.0391" y2="69.8263" gradientUnits="userSpaceOnUse">
<stop offset="0.00200455" stop-color="#E6E6E6"/>
<stop offset="0.463542" stop-color="white" stop-opacity="0.47491"/>
<stop offset="1" stop-color="#E6E6E6" stop-opacity="0.57"/>
</linearGradient>
<linearGradient id="paint7_linear_4366_54512" x1="48.9022" y1="32.447" x2="50.4212" y2="64.1784" gradientUnits="userSpaceOnUse">
<stop stop-color="#0372F2"/>
<stop offset="1" stop-color="#61C2EE"/>
</linearGradient>
<linearGradient id="paint8_linear_4366_54512" x1="46.3296" y1="40.7132" x2="49.5967" y2="53.3321" gradientUnits="userSpaceOnUse">
<stop stop-color="#4C7AD3"/>
<stop offset="0.505208" stop-color="#7AAEEA"/>
<stop offset="1" stop-color="#A17EFE"/>
</linearGradient>
<linearGradient id="paint9_linear_4366_54512" x1="41.9421" y1="40.4729" x2="47.8446" y2="54.6198" gradientUnits="userSpaceOnUse">
<stop stop-color="#4C7AD3"/>
<stop offset="0.0001" stop-color="#1B289A"/>
<stop offset="1" stop-color="#0E91BD"/>
</linearGradient>
<linearGradient id="paint10_linear_4366_54512" x1="51.6678" y1="51.1867" x2="49.1822" y2="38.0593" gradientUnits="userSpaceOnUse">
<stop stop-color="#1679C6"/>
<stop offset="1" stop-color="#5D94DC"/>
</linearGradient>
<linearGradient id="paint11_linear_4366_54512" x1="31.7991" y1="40.5469" x2="58.026" y2="42.4987" gradientUnits="userSpaceOnUse">
<stop stop-color="#5FB847"/>
<stop offset="0.427083" stop-color="#72BE44"/>
<stop offset="0.973958" stop-color="#8BDF58"/>
</linearGradient>
</defs>
</svg>
